<svg xmlns="http://www.w3.org/2000/svg" viewBox="0 0 976 1600"><defs><clipPath id="a"><path d="M960 22v1556a6 6 0 0 1-6 6H22a6 6 0 0 1-6-6V22a6 6 0 0 1 6-6h932a6 6 0 0 1 6 6z" style="fill:none"/></clipPath></defs><path d="M960 22v1556a6 6 0 0 1-6 6H22a6 6 0 0 1-6-6V22a6 6 0 0 1 6-6h932a6 6 0 0 1 6 6z" style="fill:#d28e79;fill-opacity:1" data-name="Paper Backing"/><g data-name="Wikipedia Cropped"><g clip-path="url(#a)" style="clip-path:url(#a)"><rect style="fill:#fad5cc;fill-opacity:1;stroke:#fef8c8;stroke-width:0;stroke-linejoin:round;paint-order:markers fill stroke" width="439.683" height="86.804" x="314.417" y="553.711" rx="75" ry="75"/><rect style="fill:#fad5cc;fill-opacity:1;stroke:#fef8c8;stroke-width:0;stroke-linejoin:round;paint-order:markers fill stroke" width="439.683" height="104.762" x="85.294" y="1094.986" rx="75" ry="75"/><path d="M505.6 1290c-29.15-10.8-40.89-52.12-61.5-74.51-40.19-65.06-78.62-132.09-104-204.1-69.38-173.45-107-363.3-122.54-550.63-2.15-36.32-5.2-72.34-9.94-108.35 1.28-10-9.32-31.81 4.54-33.31 80.64 6 162.17 4 243.15 10 11.43-5.93 5.41 83.07 9.35 94.78 2.43 68.65 8.47 138.32 21.74 205.75C520.26 868.94 600.35 1057 734.9 1258c5.81 9.76-4.14 11.7-10.74 10.71-73.15 3.1-146 13-218.56 21.29z" style="fill:#3c3873;fill-opacity:1"/><rect style="fill:#fad5cc;fill-opacity:1;stroke:#fef8c8;stroke-width:0;stroke-linejoin:round;paint-order:markers fill stroke" width="439.683" height="104.762" x="500.734" y="223.727" rx="75" ry="75"/><path style="fill:#913125;fill-opacity:1" d="M823.732 31.428c2.45 37.607 14.093 73.294 21.547 110.092 6.05 14.22 9.211 28.47-11.789 20-61.49-12.86-142.1-25.11-196.82 7.14 33.17 39.79 94.91 75.09 142.67 99.17 14.82 12.64-64.53 44.32-80.05 64.64-41.25 31.09-76.34 61.7-106.4 106.91-51.11 46.11 121.63 16.2 144.54 13.2 40.78-9.03 79.11-19.74 114.36-40.74 17.53-3.7 4.59 26.64 5.14 36-5.84 39.49 1.9 78.42 8.32 116.81 1.08 5.28 1.68 17.65 8 17h-.03c26.947-12.113 53.565-41.147 78.57-67.289V97.486c-13.52-23.422-30.047-45.292-47.854-66.058h-80.204zm-44.336 1005.857c-1.491.061-2.67 1.224-3.066 4.266 4.95 52.35 11.16 103.069 26.31 153.619.14 24.91 51.9 99.86 22.75 93.59-52.57 1.36-118.22 22.25-152.66 63.58 33.09 30.99 79.94 36.05 121.44 46.69 12.49 6.43 79.12-4.37 59.49 20.5-14.82 31.09-35.85 105.71-14.66 136.8 42.89-21.75 70.61-51.16 100.36-91.41 5.723-9.319 9.575-15.795 12.43-19.899v-221.367c-7.331 7.77-14.328 13.022-18.79 6.256-39.87-67.91-79.4-136.59-144.91-186.36-1.857-2.486-5.846-6.382-8.694-6.265z"/><path d="M256.06 958.29c-7.6-.4-10.4-9.45-12.61-15.41-20.12-36-18-82.82-25.54-121.52-43.29 16-80.61 48.27-131.26 53.79-13.13.9-56 17.42-56.35-1.54 23.55-42.38 60-75.66 96.91-105.72 19.56-21.08 65.05-36.83 14.18-51.26C104.45 700.75 49.28 673 37.6 636.8c43.06-21.32 94.83-7.51 138.79-4.28 4.83-27.07 7.46-57.1 19.44-81.65 4.68-6.65 16.42-43.94 25.2-31.34 7 78.88 16.57 157.81 33.66 229.23 14.7 41.42 22.07 86 35.86 128 .45 20.08-21.08 71.34-34.49 81.53z" style="fill:#c46b2f;fill-opacity:1"/><path style="fill:#c54730;fill-opacity:1" d="M300.324 40.621c-24.302-.25-95.416 106.98-96.603 124.408-7.42 11.98-15.42-6.479-21.42-11.129C149.14 117 87.999 68 39.119 48.11c-4.859-1.03-8.052.486-9.937 3.91v30.084c7.89 40.638 35.015 104.42 40.437 116.935 24.36 61.01 47.911 44.471-18.869 76.701-4.468 3.203-12.51 8.23-21.568 14.14v68.46c73.263 10.577 134.037-29.123 114.039 10.61-5.34 30.91-21.172 74.48-5.612 101.73l.022-.01c26.65-12.39 58.66-38.3 72.7-69.96.57-15.92-2.391-31.92-6.231-45.92 7.03-12.78.79-25.1 1.69-37.25 7.37-7.54 54.55 4.46 62.62-2.54 26.59 13.3 59.66 1.56 85.3-8.16 17.54-6.69 133-67.39 90-81.75-33.58-7.89-64.21-20.66-99.49-22.28-7.59-1.41-21.86 6.81-22.46-5 2.92-46.38-13.69-87.11-13.91-132.78 1.822-17.299-1.331-24.345-7.526-24.409zm527.215 574.18c-68.81 33.78-163.469 56.708-204.809 127.898-11.66 12.04-46.47-66.23-69.15-78.33-19.34-15.82-78.89-74.939-59.89-14.369 30.68 163.06 71.37 319.37 159.92 460 20.13-24.26 24.52-64.48 31.04-96.62 8.42-24.18-2.25-56.86 3.75-79.23 25.1-3.71 53.54-.29 79.45-6.51 13.36-5 110.96-18 72.15-40C706 804.4 664.61 901 777.48 740.7c10.73-15.08 67.98-120.13 50.06-125.9zM83.713 1149.564c-1.81-.037-3.615.427-5.393 1.577 24.52 63.06 35.05 135.739 54.62 202.529 13.31 78.39 73.14 81.45-39.61 70.25-21.325-.442-42.984.237-64.148 3.312v82.57c39.421 17.65 83.7 26.296 125.449 35.259 25.603-1.328 16.65 16.127 7.52 32.716h147.972c-16.514-42.914 74.959.925 205.428-67.556 10.23-7.61 54.289-21.842 47.289-35.942-30.41-12.09-64.13-24.82-97-30.6-20.48-4.45-41.96-8.878-64.08-8.878-10.13 2.48-14.13-6.711-8.13-13.711 12.47-15.93 75.83-191.53 47.13-187.83-60.22 36.41-113.69 67.89-154.69 120.15-15.42 15.32-26.49-29.95-38.74-38.53-41.9-55.76-85.51-109.86-141.61-151.68-6.215-3.9-14.161-13.472-22.007-13.636z"/><path style="fill:#322924;fill-opacity:1" d="M228.643 33.672c1.827 1.448 4.237 2.229 7.267 1.918 2.942-.017 4.926-.738 6.291-1.918h-13.558zm71.595 0c-46.107 33.386-83.414 78.226-101.908 132.918-41.45-54.14-97.16-99-160.36-125.4-6.166-2.981-10.517-2.81-13.277-.792v31.743c8.961 59.75 30.64 117.602 61.448 169.49 1.7 2.56 10.13 7.65 4 10.51-22.481 9.479-45.392 19.572-65.448 33.556v11.6c22.375-16.593 46.998-30.181 73.457-38.598 4.52-1.18 8.45-2.459 3.17-9.459C74.37 209.63 58.51 163.09 43.25 118c-2.33-4.42-21.53-80.33-6.45-66.56 54.64 24 101.92 62.04 142.64 105.25 8.58 6.65 20.93 35.49 27.47 11.3 19.32-49.66 52.3-95.13 95.69-125.93 2.4 16.03.01 31.94 2.83 48.32 4.89 25.36 7.3 51.58 11.66 77.11 2.46 12.14 1.54 24.11 0 36.2-.73 5.74.74 7.74 7.84 5.74 40.01-8.99 79.18 11.56 117.81 19.56 7.71 2 13.1 2.73 4 11.64-38.74 37.54-87.23 66.4-140.74 75.68a61.52 61.52 0 0 1-29.37-2.16c-5.63-1.92-9.02-10.39-13.42-15.92 41-20.88 84.57-35.92 129-47.57 24.99-20.22-82.88-4.55-89.75-2.15-18.45 4.13-35.78 10.92-53.19 17.79.33-36.06 12.23-71.01 18.54-106.29 2.43-13.82 9.05-26.68 9.43-41a14.39 14.39 0 0 1 2-6.1c6.57-11.5-2.78-15.12-9.68-4.2-7.93 14.74-15.51 29.69-22.39 44.95-15.16 31.83-26.43 65.61-35.16 99.55-48.58-44.79-83.14-103.27-130.86-149.1-35.51-22.3 92.57 165.7 99.85 168.41-54.66 3.375-106.864 19.79-156.307 42.912v12.06c1.464.014 3.158-.386 5.018-1.351 9.52-3.5 18.73 1.748 28.52.558 35.28-1.56 69.859-8.988 104.859-13.238 12.94-1.08 24.55-7.48 38.8-9-24.16 45-88.53 197.71 1.68 60.53 1.08 12.17 2.93 23.94 2.72 35.67l.04-.01c-13.63 27.44-39.69 50.35-66.9 65-1.3.68-2.3 2.12-2.3-.51-4.26-37.72 3.64-76.02 15.29-111.91 1.95-6.3-.57-11.63-8.21-8.91-22.84 5.43-46.57 11.06-70.05 12.06-16.507-.426-33.014-2.244-49.467-3.838v7.998c34.984 6.562 71.252 4.948 106.067-2.63 2.4-.48 11.5-9.05 9.5 1.33-7.39 34.73-20.54 70.568-13 106.378 6.88 34.72 70.4-34.419 78.88-46.369 2.96 14.64 2.77 30.1 4.85 45 1.06 9.91 2.85 19.75 3.79 29.67.57 6.01 2.7 14.49-.3 17.73-23.57 29.48-38.02 65.76-40.3 103.48-.21 3.87 2.74 13.28-4.6 13.28-7.99.05-16.56-1.96-24.31-4.14-17.71-4.96-36.08-4.64-53.51-4.17-9.23-.73-65.6 6.72-61.11 19.81 29.92 48.03 82.35 71 132.23 91.57-51.98 39.57-104.04 83.37-137.24 140.57-.173.301-.58.903-.947 1.454v8.613c.484.26 1.059.492 1.746.684 8.47 2.36 16.952 3.97 26.272 2.53 55-6.39 109.459-22.76 154.539-55.76 3.31-2.89 10.56-6.5 7.56.66-.25 32.09 8.26 120.28 40.34 134 15.95-4.04 31.3-51.472 36.65-67.872 22.69 79.6 53.44 155.191 90.69 228.791 18.86 32.75 36.48 66.65 57.86 97.83 2.62 3.85 1.95 5.55-1.23 7.33-29.42 13.39-55.94 31.47-82.14 50.28-27.25 21.25-56.94 40.28-76.16 69.74-1.35 1.97-3.37 3.53-5 .53-7.79-14.29-16.95-27.62-26.53-40.79-46.59-67.17-101.23-130.88-173.76-170.8-2.64-1.39-6.8.01-10.21.45-.2.02-.67 3.49.09 4.61 17.7 26.25 23.94 56.7 31.52 86.57 5.7 29.03 11.45 58 20 86.37 8.55 35.87 14.32 74 37.8 103.79 3.49 3.92.56 4.45-2.57 3.82-17.34-3.47-34.69-6.41-52.49-6.41-25.14-1.082-50.366-2.8-74.977 2.083v11.394c11.004-2.46 22.164-4.301 33.868-3.896 11.29.39 23.288-.071 34.718-.201 23.85-.54 48.25 3.79 71.67 8.85.97.47 4.441-1.95 5.211-3.71 2.96-6.73-3.99-9.64-6.63-13.87-22.04-32.64-26.93-71.7-38.16-108.64-4.21-15.8-8.78-31.51-12.26-47.51-3.38-15.47-3.5-31.95-8.8-46.63-6.62-21.27-12.46-43.26-23-62.76 3.61-1.29 10.77 4.38 14.32 6.62 14.87 12.1 29.95 24 44 37 41.05 34.1 71.31 78.56 104.42 120 9.11 11.86 17.19 24.53 25.11 37.23 6.39 10.24 12.78 10.41 19.94 1.34 40.58-52.25 99.48-86.71 155.48-120.25-7.02 68.92-28.93 136.14-61.26 197.3-.59 1.18-2.82 1.82-1.42 3.55 1.06 1.31 2.73 3.27 3.94 3.14 45.97-3.26 91.22 9.66 134.84 22.66 12.12 4.43 23.21 11.78 36.48 13 1.23.11 2.33 1.63 3.49 2.49-69.69 52.65-160.53 71.81-246.53 77.08-3.1.25-7.08 1.57-8.88-2.43-4.66-10.28-9.04-20.69-13.5-31.05-.76-1.76-2.29-3.86 1.33-4.25 41.54-5.1 83.71-5.42 124.49-13.71 15.71-6.06 35.67-3.04 49.1-14.88-11.97-4.37-27.53-4.2-40.46-5.37-46.92.39-92.78-3.31-139.78 1.92 32.5-52.29 72.12-98.18 101.78-152.18 7.83-14.43 21-29.23 20-46.51-54.75 51.06-95.08 115.4-146.4 170.4-35.76-83.85-75.73-169.37-132-240.6-.13 1.84-.95 4-.27 5.46 19.19 42.91 37.11 86.47 55.19 129.85 9.07 22.71 15.87 46.31 24.41 69.24 5.98 18.86 17.33 36.39 21.48 55.59-40.39-4.56-80.72-5.77-121.27-8.77-12.8-.94-56.88-4.39-65.09 4.06 31.35 14.1 67.39 17.54 100.89 25.1 27.42 4.63 54.14 12.89 82.14 14.55 3.75.22 7.35 2.41 11 3.68-12.25 18.234-24.858 36.215-37.358 54.264h8.855c13.381-18.844 25.849-38.69 39.573-57.014 1.43-2 1.98-3.95-1.57-4.57-56.02-10.36-112.12-18.9-167.7-31.72 21.72-3.81 43.04 1.94 64.67 0 12.18-1.09 25.5 1.48 37.93 3.74 12.43 2.26 24.91-.28 37.27 3 6.31 1.68 15.41 3.45 20-1.87 3.55-4.12-2.33-10.56-4.33-15.83-22.61-53.29-38.89-108.8-61.26-162.15 34.63 46.69 51.87 102.57 77.21 154.28 7.05 15.41 9.24 15.48 20.19 2 8.05-9.92 16-19.92 24-29.92 26.04-31.11 49.25-64.67 77.45-93.91 3.79-3.86 4.29-11.14 11.58-12.14-31.33 57-74.66 106-105.39 163.05-.83 1.63-2.35 6.06 3 5.63 54.43-4.81 108.31-1.43 163 .19-56.4 8.39-104.69 15.97-160 17.14-4.08-.08-7.43 3.04-6.08 6.71 7.08 18.134 15.299 35.804 23.703 53.383h10.063a367.103 367.103 0 0 0-3.586-7.734c88.36.78 177.29-21.648 251.17-71.068l-.03.01c12.72-7.72 14.15-14.31 3.76-18.99-52.39-25.92-110.74-39.58-169.08-43 34.85-59.28 50.69-122.091 59.16-190.801.16 6.91 1.71 9.49 3.63 12.06 8.19 10.98 15.6 22.56 24.26 33.13 6.47 7.88 12.2 17.95 25.2 16.26 20.44-2.67 40.96-5.21 61.44-7.87 51.09-5.57 102.06-12.4 153.51-14.72 36.87.34 17.01-28.65 5.42-45.31-19.91-31.92-38.17-64.97-58.24-96.73-9.7-13.88-7.82-25.57-1.44-39.88 13.36-27.04 18.02-57.22 23.29-86.72 3.69-19.64 4.04-39.23.11-58.92-.71-3.57-2.75-11.21-.48-10.76 56.55 4.13 114.85-7.42 165-34.42 5.98-3.86 2.67-5.43.67-6.8-7.65-5.27-13.35-12.8-21.92-17-37.63-20.93-76.76-40.86-120.84-41.93.04-1.4-4.94.13-1.78-3.15 45.24-52 87.33-108.72 111-174 6.29-16.93 11.8-34.09 18-51.09 3.94-5.64-3.61-11.28-8-8.11-18.12 16.75-41.22 23.25-63.49 31.68a572.62 572.62 0 0 0-84.28 40.51c-11.36 6.58-21.15 15.44-30.9 24.58-10.84 10.15-22.24 19.45-29.63 32.45-3.54 6.22-7.17 10.38-8.61 8.22-26.2-45.36-59.22-87.25-104.46-114.58-8.79-5.64-22.17-5.54-23.17-21.16-8.92-72.42-15.82-145.14-19.61-218-.73-15.03-.77-30.12-1.53-45.12-.38-7.48 4.14-17.57-10.78-17.43-39.21.07-76.74-2.02-116.27-4.42 18.57-7.03 34.91-16.09 51.51-24.81 11.21-4.34 90.01-60.41 64.54-69-40.67-12.4-82.05-31.18-125.52-25.57-3.35.63-4.12-.91-4.12-4.12 2.06-44.79-13.05-87.93-14.3-132.65.076-2.988.95-20.233-1.598-28.468h-10.854zm58.955 0c-.096.747-.182 1.49-.263 2.209-.86 7.73 4.3 7.509 9.99 7.119 7.852 1.5 11.68-3.673 11.746-9.328h-21.473zm162.938 0c.328 6.335 3.943 12.544 10.459 12.398 9.32.71 14.436-5.806 15.336-12.398H522.13zm181.416 0c-3.322 8.469-1.091 18.502 10.853 17.008 10.36-.43 12.93-9.203 14.05-17.008h-24.903zm115.592 0c1.851 42.403 15.294 83.855 25.39 124.867-5.64 1.34-9.549-3.46-14.779-3.59-16.64-.58-32.3-6.55-48.75-8.78-21.47-2.9-42.81-3.679-64.29-3.419-13.71.09-113.1 8.91-80.8 33.88 44.06 37.67 88.61 77.14 144 96.86-53.74 25.06-99.25 63.85-143.57 102.43-20.34 20.08-37.14 43.57-54.1 66.72-11.31 15.44-10.67 19.57 7.11 22.43 39.2 8.46 78.41 0 117.57-3.83 53.29-4.51 105-21.39 151.38-47.36.16 1.1.82 2.44.41 3.25-6.38 12.69-6.52 26.89-7.24 40.24-2.37 38.5.66 78.59 11.77 115.79 1.91 5.05-1.13 15.93 8.48 14 7.48-1.5 14.14-7.91 20.78-12.68 18.699-14.256 37.066-29.305 53.531-46.074v-11.863c-13.967 14.63-72.942 69.393-74.771 58.918-7-41.89-16.55-84.262-10.38-126.922 2.37-13.15 3.31-26.558 5.09-39.818.27-2 .2-3.53-1.45-4.81-9.42-3.59-25.5 14.25-36.36 16.25-13 4.19-25.41 10.41-38.48 14.47-65.12 19.61-137 31.318-204.5 21.488 47.83-71.89 116.15-126.9 190-170.59 10.12-6.91 27.87-10.619 4.81-21.869-49.82-20.79-90.9-57-134.92-87.54-6.11-4.5-6.68-8.91 2-11.09 54.4-16.22 112-15 167.17-3.8 14.61 1.65 28.49 10.1 43.4 6.68-1.29-9.59-6.12-18.17-8.53-27.4-3.74-15.29-6-31-10.54-46-5.075-19.722-9.002-40.236-10.797-60.838h-8.634zm81.869 0A425.34 425.34 0 0 1 926.75 67.89c6.782 8.797 13.337 17.981 19.281 27.521V81.934c-10.902-16.518-22.514-32.69-34.896-48.262h-10.127zM443.4 35.49c-14.1-.86-18.07 28.19-.87 26.51 15.15-1 17.39-27.13.87-26.51zm428.54 6.35c-4.78 3.7-8.48 7.67-7.07 14.62 3.38 16.66 3.49 33.76 7.7 50.45 3.66 14.53 3 30.18 6.75 44.67 7.29 27.79 11.78 56.55 25.43 82.43 2.74 11.94-17.26-1.56-22.07-2.35-48.53-20.58-98.68-38.12-150.83-46.26-11.86-1-23.88-.54-35.8-.09-1.51.05-3.14 3.73-4.12 6-.23.52 1.76 2.59 3.06 3.11 29.47 12.57 60.19 22.38 89.5 35.19 23.32 11.05 45.89 23.67 68.88 35.42 20 10.2 20.06 10.11 8 20.55C843 300.41 826 316.78 805 328.35c-49 34.57-102.83 60.48-156 87.83-2.13 1.11-5.83 3.58-5.61 4.1 1.35 3.26 4.69 3.12 7.67 2.75 89.61-20.61 179.23-56.25 251.07-114.34 2.05 8.92-1 18.77 1.34 27.4 2.92 11.07 1.91 22.06.59 32.7-1.58 12.65.44 25.41-2.76 38-1.93 7.61-.73 16-1.69 23.89-2.49 33.18-13 65.41-13.14 98.93 7.41-.32 11-7 13.58-12.85 7.75-16.74 17.53-32.5 23.22-50.26 9.255-27.37 17.408-55.286 22.761-83.65v-90.766c-.41.89-.658 1.988-.742 3.256.93 75.31-15.84 147.69-50.27 215.74 1.64-23.4 9.42-44.26 11.77-67.39.94-16.52 20.901-157.33-10.879-140.56-60 50.19-130.41 77.33-204.37 101.69 5.22-4.6 6.73-6.86 8.8-7.63 25.6-9.5 48.08-24.8 71.47-38.36 37-23.72 75.3-45.72 105.06-78.5 5.38-5.31 1.82-10.35-3-13.11-14.08-8.13-28.43-15.82-42.92-23.19-38.16-20-76.3-36.91-117.67-50.28 15.92-6.07 29.15 3.56 44.65 5.07 21.8 2.83 42.28 10.49 62.89 17.1 25.23 8.08 49.48 19.19 74.24 28.76 10.34 5.9 21.8 1.66 17.76-11.56-7.1-25.06-15.5-49.86-21.62-75.23-3.89-27.38-11.53-54.15-14.46-81.69-2.43-1.79-1.6-4.08-.08-6.43 11.66 39.19 31.49 77.05 50.1 114 6.995 12.51 11.502 16.447 19.271 11.459v-11.137c-1.886 2.25-3.775 4.502-5.63 6.748-17.56-28.42-28.67-59.42-43-89.44-10.4-19.08-14.402-40.94-25.462-59.56zm-731.11 4.33c-15.63.27-11.03 24.71 3.3 25.15 8.4-.72 9.27-7.31 9.78-13.26.77-9-7-11.22-13.08-11.89zm59.867 13.01c-6.921.392-9.556 6.562-9.556 12.75.07 9.43 8.579 10.65 15.199 13.5 9.22-1.8 10.41-10.31 10-15.88-.42-6.13-7.77-10-14.2-10.37a13.1 13.1 0 0 0-1.443 0zm371.3 10.06a9.568 9.568 0 0 0-1.267.05c-12.28.71-14.67 25.79 2.7 25.55 15.054 1.472 11.358-25.247-1.434-25.6zm-185.366.95c-13.08.81-10.94 27.1 2.85 24.4 16.65-.84 13.73-24.17-2.85-24.4zm251.805 6.685c-7.96.07-7.413 9.253-9.026 14.355a9.28 9.28 0 0 0 7.84 11.65c23.26 2.89 23.19-23.63 3.94-25.72-1.018-.202-1.931-.292-2.754-.285zm-156.424 6.244c-1.747-.035-3.512.031-5.162.031-7.72 0-7.12 8.06-7.47 12.43-.61 7.57 5.36 12.19 12.49 12.42 10.48.4 11.08-7.76 11.69-17.24-1.244-6.51-6.31-7.535-11.548-7.64zm278.572.16a36.81 36.81 0 0 0-3.385.182c-18.36 3.11-14.36 28.54 4.17 27.09 7.29-.13 10.5-6.87 9.58-15 1.645-9.371-2.872-12.297-10.365-12.272zM370.539 119.16v.03c-12.31.14-11.72 23.89 1.31 21.59 12.82-1.54 10.68-21.95-1.31-21.62zM101.41 135.84c29.68 37.31 55.16 74.75 89.16 107.52 8.5 6.01 14.24 21.77 24.85 22.89 5.59-.25 4.46-5.8 5.18-8.25 11.32-39.82 23.4-80 42.23-117.18-2.99 26.99-13.26 52.51-17.71 79.22-2.55 15.33-4.12 30.83-6.2 46.24-1.67 12.42 7.23 10.28 13.11 8.19 38.14-15.6 74.59-22.24 116.74-26C328.67 261.69 294 271 259.11 292.2c-11.06 6.33-5.48 13.49 2.63 21.33l-54.29-2.85.04-.01c.75-4.1 6.57-8.41 2.31-11.96-5.16-4.26-12.93-3.08-18.57-1.13-18.59 6.41-37.81 8.67-57.07 11.49a637.11 637.11 0 0 1-93.8 9.7c38.45-20.03 79.91-30.18 122.45-35.84 14.04-2.12 39.2-6.26 18.88-21.52-30.19-38.38-56.12-79.63-80.41-121.9-.33-.56.03-1.53.13-3.67zm325.824 4.965c-16.804-.34-20.788 31.294-2.334 29.086 13 0 17.75-29.692 4-28.952a14.037 14.037 0 0 0-1.666-.134zm140.291 39.789c-8.969-.43-9.751 6.494-10.445 13.056-.81 7.68-.03 16.19 10.17 16.05 8.73-.13 15.27-4.84 13.78-14.6.24-9.16-4-13.24-11.6-14.32a20.318 20.318 0 0 0-1.905-.186zm378.506 63.217c-2.958 4.187-5.361 9.128 0 13.859v-13.86zm-735.086 79.236c.343.004.705.033 1.055.033 33.84 4.18 68.58 2.51 102.76 4.08 46.78 1.49 93.57 3.22 140.24 5.91 5.43.39 2.57 5.65 2.43 6.73 1.77 100.54 7.46 201.68 26.77 300.63 20.59 112.73 43.13 226.36 88.44 332.08 41.86 101.59 101.37 194.32 158.86 287.59 3.47 5.62-2.11 4.62-3.45 4.62-55.84 1.22-111.27 8.59-166.69 15.12-16.91 1.89-34.19 1.94-50.71 5.54-14.06 3.07-16.7-6.31-22.56-14.24-14.02-19.01-27.33-38.47-40.69-57.94-58.91-90.75-102.87-190.29-136.86-292.58-22.47-80.9-45.46-162.12-63.12-244.31-16.25-107.6-24.42-216.2-35.84-324.35-.97-8.89-1.45-17.82-2.34-26.72-.18-1.98.676-2.204 1.705-2.193zm-9.115 2.242c8.07 27.96-13.51 47.832-28.81 68.592 1.18-13.56 9.05-23.23 13.13-34.33 4.99-11.37 8.31-24.25 15.64-34.25l.04-.012zM33.602 432.81c-3.98.075-6.955 2.127-8.909 5.076v18.967c1.466 1.915 3.51 3.247 6.166 3.548v.06c15.29 2.27 20.871-27.41 3.551-27.64a12.277 12.277 0 0 0-.808-.011zm52.302 63.81c-19.287.826-19.335 30.298 1.096 27.74 8.44-.64 7.52-10.118 7.91-13.728.19-8.42 1.78-13.65-7.08-14a20.14 20.14 0 0 0-1.926-.012zM26.1 509.725c-.503.001-.965.009-1.407.013v30.158c10.788-2.888 14.239-12.025 12.188-23.826-1.041-5.967-6.708-6.36-10.781-6.345zm190.88 10.265c6.08 59.37 10.73 115.77 21.53 171.77-43.68-5.09-85.66-19.72-128.39-29.72-.81-.26-2.51.86-2.93 1.74.4 15.26 107 58.62 125 62.77-19.4 23.33-45.86 41.25-69 61.07-21.18 16.91-46.43 28.5-66.83 46.5-.55.46-.97 2.15-.72 2.34 11.21 4.93 56.49-21.17 70.21-26.56 31.01-15.6 59.68-36.27 86.35-58 12.51 41.6 21.5 84.25 34.39 125.67l.04-.01c1.91 17.44-18.55 52.86-26.15 70.06-.87 1.71-1.82 9.62-7.17 5.49-23.28-40.13-29.12-88.75-28.28-134.93.1-2.4.69-5.04-2.14-6.64-3.19-1.8-4.13 1.43-6.07 2.5-41.08 24.19-83.12 49.81-130.92 57.19-17.13 3.32-34.57 8.87-52.57 5.65 31.67-59.69 89.88-98.51 139.15-142.49 5.79-4.96 1.14-7.43-2.64-9.25-54.07-22.71-91.22-39.31-130.52-84.71 8.56-4.28 16.82-7.94 25.67-8.4 17.34-.9 34.53-4.87 52.06-2.36 18.56 3.21 37.81 2.25 55.7 8.71 12.5 4.11 9.81-7.77 9.81-12.15.92-39.57 13.71-72.03 34.42-106.24zm729.051 77.79c-.237.03-.473.043-.71.09-14.1.73-16.89 30-.24 27.09.327.047.64.077.95.106V597.78zm-117.47 20.96C805.78 698.82 758.44 770.5 703.92 833.03c-2.63 2.89-9.44 4.08-6.53 9.29 3.21 5.84 10.92 3.51 16.21 4.28 44.49 5.12 85.86 23.13 124.62 44.61 10 5.52 11.1 9.2-.81 12-39.84 17.65-82.52 23.36-125.52 26.15-8.88 1.45-18.57-4.47-26.06 1.73-8.02 6.65-3.54 16.87-2.4 24.76 3.59 51.15-8.89 103.9-29.61 150.15-25.82-50-53.48-98-73.53-150.45-3.14-8.16 4.33-15 7.86-22 5.01-9.91 5.45-9.57 8.94-2.91 21.34 34.53 33.45 74.73 45.66 112.73a94.51 94.51 0 0 0 7.36 7.63c-.57-51.52-9.11-105-32.23-151.67-1.08-2.12-.3-2.13 1.33-2.25 33.12-3.8 66.18-4.2 99.44-2.3 19.13-1.69 38.42.42 57.2-1.69 24.06-4.96-62.76-21.83-67-22.34-26.34-5.73-53.06-4.82-79.56-6.45 19.58-33.68 46.18-63.09 69.28-94.52 9.68-15.21 23.85-27.51 35.85-41.28 15.25-17.53 33-32.42 50-48.1 1.41-1.3 5.43-4.65 2.52-8.4-1.93-2.46-3.87-1.64-6.24 0-65.2 46.9-120.56 105.91-172.7 166.61-15-45.75-40-86.54-68.22-125.09-3.17-3.2-8.15-11.64-13-10.87a5.74 5.74 0 0 0-1.63 7.27c11.99 20.23 20.55 42.09 28.79 63.87 11.38 27.51 15.17 58.31 25 86.31-12.17-6.49-24.32-12.66-36.08-19.49-5.9-3.42-5.03-10.76-6.55-16.3-17.03-63.96-29.66-128.95-42.31-193.88a20.55 20.55 0 0 1 .09-4.31c50.21 25.15 89.3 71.39 116.07 120.24 4.52 12.02 12.24 4.61 16.76-2.78 44.37-71.91 131.29-89.67 201.64-124.84zm44.83 38.86c-15.08 1.41-13.59 26.84 1.82 25.18 18.41 1.96 12.998-26.19-1.852-25.13l.032-.05zm72.64 6.668c-14.958 2.22-13.78 27.288 0 29.127v-29.127zM145.53 680.71c31 7.76 62.5 14.66 93.74 20.76 4.73 1.67 5.54 9.149 4.43 13.049-2.18 7.61-8.609 3.74-13.369 2.11-29.16-9.52-58.06-19.87-85.16-34.52l.36-1.4zm748.862 38.25c-10.58.09-7.31 9.329-8 14.469-1.49 10.59 7.388 11.41 14.638 11.39a9.68 9.68 0 0 0 10.032-9.24l.039-.02c0-15-1.95-16.72-16.71-16.6zm-648.14 8.273c.615.074.344 1.562.73 2.346 6.73 13.91-3.16 19.85-12.16 27-27.85 21.03-57.33 40.25-89.25 54.33l-.571-1c28-18.67 54.07-39.69 79-62.25 7.15-6.24 13.83-13 20.72-19.45.791-.75 1.253-1.01 1.532-.976zm699.78 6.557c-.907.035-1.756.065-2.48.04-5.93-.21-8.571 7.83-8.451 14 .137 6.86 1.86 13.435 10.931 13.355V733.79zm-110.906 10.746c-6.382.022-13.446 4.204-12.936 13.203-.72 11.67 9.31 11 15.33 10.77 8.16-.24 6.32-9.33 7.24-14.77 1.098-6.004-4.003-9.223-9.634-9.203zM556.1 750.98c82.76 134.13 11.34 130.63 132.67 12.63-5.67 12.94-12.43 19.72-18.33 27.25-12.99 16.59-25.16 33.87-37.57 50.87-4.25 5.84-7.75 12.28-12.44 17.72-12.53 14.52 1.62 11.6 8.16 12.13 38.13 1.74 71.61 3.93 110.13 12.57-11.35 3.76-20.95 3.57-30.15 2.33-20.41-2.77-40.53 1.16-60.78 1.37-10 .15-20 .54-30 1.15-6.57.36-18.09-4.2-9.21 11 15.33 27.81 23.42 56 26.67 88.59-13.52-28.57-21.89-54.94-42.37-78.06-4.1-4.86-4.93 2.41-5.47 3.41-4.79 8.73-8.85 17.87-13.21 27.06-3.09-8-6.2-15.67-8.97-23.48h.04c-1.72-5.01 3.42-7.23 5.5-10.56 10.18-16.35 6.66-26.68-11.91-34.13-3.41-1.39-7.68-3.2-9.41-6.09-2.42-4-2.84-9.26-4.11-14 9.82 3.32 18.71 8.62 27.9 13.32 4.35 2.15 7.97 8.14 13.8 3.87 5.49-4.03.16-8.95-.69-12.6-5.07-21.87-11.16-43.52-17.35-65.11-3-10.4-5-21.22-11.76-30.32-1.14-1.53-.54-4.34-1.14-10.92zm335.152 23.983c-4.836.202-9.059 3.831-8.822 12.406l.04-.049c-1.62 14 23.27 14 22.31.65-.08-7.857-7.31-13.267-13.528-13.007zM781.107 797.12a16.045 16.045 0 0 0-1.408.01c-14.39-.33-11.449 23.32 1.121 24 16.217-1.88 15.007-23.42.287-24.01zm164.924 20.863c-6.92.52-12.07 2.46-11.002 11.407-1.098 9.035 4.542 11.001 11.002 11.517v-22.924zm-103.066 7.83c-8.03-.134-8.767 5.568-7.904 11.586-1.26 12.94 8.33 11.93 15.02 11.95l.028-.05c6.94 0 7.54-7.3 7.82-12.38.49-8.78-6.46-10.3-13.26-11a19.719 19.719 0 0 0-1.704-.106zM553.91 880.76c.89.3 1.8.54 2.66.9h.04c11.94 5.09 14.88 12.5 4.3 23.24-1.57-7-8.9-17.48-7-24.14zm357.873 25.185c-5.793-.014-12.066 4.253-11.683 11.754-.13 6.65 3.85 10.21 9.75 10 6.88-.17 9.15-6.238 11.25-10.978v-.022c.534-7.397-4.205-10.741-9.317-10.754zm-869.3 4.045c-5.879.378-7.147 6.977-6.762 9.8.6 4.76-.352 14.17 10.068 11C56.52 933.46 55.43 925 56 919.22c1-9.15-6.37-8.77-12.28-9.22a8.824 8.824 0 0 0-1.238-.01zm69.837 4.79c-8.84.09-8.95 5.83-9.11 7.4-.5 9.55-.53 15.28 6.4 14.64 5.72-.52 13-2.52 13.85-8.91.83-6.56-1.46-13.23-11.14-13.13zm45.106 18.08c-.95.017-1.923.072-2.897.14-6.9.5-6.74 7.63-7 11.27-.7 8.58 5.832 11.07 13.532 10.76 7.48-.31 5.65-6.68 6-7.65 2.572-12.88-2.987-14.643-9.635-14.52zm655.24 19.898c-1.3.033-2.629.202-3.936.472h.03c-12.53 1.71-10.05 24.58 1 23.89 12.64.32 14-6.78 13.8-14.16-.203-7.92-5.264-10.345-10.894-10.202zm-722.598 2.83c-5.18.137-10.543 3.412-10.318 9.672.25 3.74-.34 11.55 7.66 10.6 5.4-.64 12.83.57 11.89-11.12.95-6.29-4.05-9.29-9.232-9.152zm790.28.441c-12.84.427-13.084 23.508 1.002 21.532l.04-.051c7.52-.23 9.31-6 10.3-15.75 1-4.6-4.63-5.78-10.06-5.7-.44-.034-.868-.044-1.282-.03zM205.1 961.061c-7.09.1-7.87 4.78-8.24 10.09-.72 10.3 7.33 11 13.97 11.68 6.44.66 6.7-5.652 7-9.892.58-8.61-4.47-11.998-12.73-11.878zm731.013 1.99c-7.886.041-13.477 3.62-12.924 12.629v.02c.31 4.92 2.221 11.4 8.891 11.13 6.36-.25 14-1 12.64-12.22-2.12-3 1.72-11.07-7-11.52a28.358 28.358 0 0 0-1.607-.04zm-911.42 17.94v22.13c13.583-1.46 14.754-20.864 0-22.13zM145 993.22c-5.37.04-12.07.608-12 10.968 1 10 18.55 12.401 17.85-.539 0-4 .49-10.46-5.85-10.43zm-62.934 21.484c-1.19.018-2.453.108-3.736.225-7 .67-7.75 6-7.27 11.21v.03c.69 7.34 6.74 9.43 12.59 9 6.35-.4 5.43-6.26 5.68-12.76 1.714-6.5-2.103-7.784-7.264-7.705zm863.965 6.982c-1.325 1.112-1.96 2.899-1.422 5.813.19 2.982.688 5.482 1.422 7.586v-13.399zm-49.105.924a14.74 14.74 0 0 0-3.137.45c-12.5-2.37-11.719 8.149-12.299 14.699-.85 9.24 8.77 10.97 14.39 10.58l.04-.02c13.434 0 15.566-26.104 1.006-25.709zm-704.856 4.467c-.43.017-.877.061-1.34.133-10.69 1.78-9.49 22.999-1.31 21.629 13.96 2.654 16-22.283 2.65-21.762zm582.674 2.861c-1.903.038-3.146 1.068-3.545 3.32 6.6 21.68 2.56 44.451 6.24 66.391 10.55 63.4 22.411 129.24 57.311 184.46-58.63.51-120.3 18.08-162.3 60.93-24.51 25.61 104.38 57.49 122 59.4 93.9 9.36 53.42-17.93 36 72.36-5.9 22.93-2.66 45.66-3 68.42-.05 5.98-4.21 22.31 13 15.09 43.626-21.37 81.011-56.089 105.581-98.21v-14.912c-2.395 4.414-5.634 9.42-9.88 15.312-24.48 34.52-55.522 66.49-92.792 87.28-1.6.79-4.91 4.62-6 .7-1.66-6.01-2.05-12.5-2.17-18.8 0-36.74 4.3-75.29 21-108.41 10.53-19.94 11.071-19.61-6.859-23.85-2.52-.59-3.65 1.35-5.35 1.17-35.12-3.18-70.01-7.58-103.38-19.44-6.85-1.14-73.26-24.14-61.74-31.62a221.74 221.74 0 0 1 96.57-50.21c18.94-4.58 38.5-7.52 58.3-6.44 3.86-.03 15.46-1.59 10.75-7.23-4.67-4.59-6.43-10.51-9.15-15.85-35.38-71.91-47.72-149.17-55-228.8 66.12 52.75 113.67 124.38 152.87 198.75.86 2 3.2 3.33 5.61 1 2.277-2.522 4.711-4.94 7.221-7.31v-11.258a3036.76 3036.76 0 0 0-6.13 5.158c-1.83 1.51-3.25 3.31-5-.69-9.86-26-29.11-47.27-42.68-71-10.77-19.1-23.65-36.17-37.15-53-5.487-7.472-64.832-73.015-80.327-72.71zm-644.582 28.88c-1.457.022-2.967.133-4.463.251h.051c-10.82.41-8.37 25.56 4.41 22 8.21 1.2 10.43-3.88 11-10.85.683-9.928-4.682-11.5-10.998-11.402zm-77.91.052a11.273 11.273 0 0 0-1.143.02v.02c-12.46-.19-11.89 20.129.32 20.359 10.453-1.366 12.19-20 .823-20.399zm-27.559 60.377v19.203c7.679-3.214 9.184-17.94 0-19.203zm802.727 1.533c-.819-.062-1.702.14-2.61.639-2.42 1.33-1.66 2.92-.75 5 18.71 43.4 36.78 87.07 55.1 130.64a14509.8 14509.8 0 0 1 27.65 66.78c.79 2-.07 3-2.42 3-20.64.18-139.64-1.71-145.13 14.18-.69 4.84 3.87 3.58 6.82 4 12.38 1.74 24.75 3.62 37.13 5.4 15.37 2.26 30.7 5.45 46.15 6.26 21.36 2.38 44.95-2.21 65.36 1.79-3.16 3.37-2.13 9-4.29 11.71-10.09 12.64-12.23 28.64-18.92 42.64-11.07 23.19-17.37 48.29-23.28 73.29-.4 1.72-3.37 4.65.52 6.38 3.54 1.56 5.01-1.01 6.54-3.32 22.13-32.53 43.87-65.67 58.45-101.9 4.743 10.188 9.068 17.662 12.291 24.037v-16.998c-18.035-40.513-10.729-8.01-61.511 68.78 5.75-34.12 23.6-64.518 34.26-97.208 13.76-18.24-4.15-17.662-19.4-16.942-36.98 1-74.85-1.13-110.92-9 40.87-3.59 82.74-6.31 124-4.75 5.58.08 5.73-2.44 4.12-6.35-18.02-45.26-38.86-90.09-54.79-135.83 21.81 41.03 42.37 82.772 61.29 125.212 1.44 3.54 4.01 7.679 7.91 3.279 4.988-7.1 10.006-14.211 15.041-21.318v-14.194c-7.598 11.151-14.014 21.154-16.021 23.723-31.86-62.74-63.08-125.98-99.2-186.57-.837-1.42-2.025-2.256-3.39-2.36zm-789.11 67.64c-5.69.346-7.612 7.207-6.75 11.52v.06c.85 4.2-1.59 14.49 9.1 10.93 9 1.47 11.87-2.63 12.6-10.86 1-11.14-7.68-11.13-13.76-11.63a7.865 7.865 0 0 0-1.19-.02zm-13.617 72.814v24.264c4.237-1.203 7.684-4.18 6.307-11.268.832-6.968-2.104-10.927-6.307-12.996zm921.338 67.149a1801.428 1801.428 0 0 0-5.861 10.447c-3.19 5.75-3.41 10.64 5.77 10.27.03-.005.06-.006.091-.01v-20.707zm-880.074.306c-5.79.143-11.117 4.796-10.047 14.221.27 7.86 3.59 13.17 11.59 12.22 11.31.65 11.34-7.41 11.28-13.6-.78-8.616-7.033-12.983-12.823-12.84zm-41.264 31.371v12.567c1.008-1.498 1.602-3.43 1.547-5.816.176-2.726-.441-4.979-1.547-6.75zm523.075 21.567c-6.13.125-11.572 4.559-9.307 14.014 2.44 13.09 22.748 11.83 22.738-2.18-.485-7.775-7.301-11.959-13.431-11.834zm110.123 23.879c-6.237.195-12.605 4.848-11.84 13.433-1.23 15.36 25.279 15.841 22.879-.109 1.3-9.255-4.803-13.52-11.04-13.324zm128.562 17.195a11.76 11.76 0 0 0-2.754.238h.06c-17.46.49-22.718 29.371 1.302 24.551 11.08.478 14.094-24.294 1.392-24.789zm-62.803 1.873c-3.638.109-7.847 1.514-11.53 2.276-6.47 1.34-6.4 8.1-6.53 12.18-.28 9.07 6.37 12.23 17.33 12.29 10.14.92 10-10 9.61-16.6-.468-8.28-4.202-10.285-8.88-10.146zm-115.09 25.758c-6.714-.076-11.385 4.548-11.31 11.617.06 5.6 4.4 9.171 12 9.281 6.55 1.06 6.09-5.31 6.51-9.76.42-4.45-.39-10.47-5.86-11.06h.03a15.17 15.17 0 0 0-1.37-.078zm67.983 30.494c-12.914.033-13.97 21.086-2.383 21.754 6.65-.18 13.7-3.09 13-10.92-.01-7.8-2.76-11.01-9.33-10.77-.441-.043-.87-.065-1.287-.064zm89.332 7.158c-.402.01-.815.045-1.244.106-7 1-15.52 2.58-15.42 12.18.1 9.3 7.279 12.07 16.539 13 7.48-1.37 8.33-8.85 8.73-14.85h.06c.337-5.1-2.64-10.578-8.665-10.436zm-741.182 15.297v11.483c19.793 9.743 41.136 16.679 62.118 21.697 88.393 26.129 88.777.424 73.677 32.642h9.67a445.726 445.726 0 0 0 4.621-10.673c2.1-5.06 10.19-12.62-2.43-15.37-23.15-2.47-46.529-7.87-69.279-13.12-26.213-7.604-53.581-15.004-78.377-26.659zm564.114 11.297c-11.237.456-11.189 24.461.552 23.502 17.1.77 18.26-23.85.58-23.47h-.01a8.417 8.417 0 0 0-1.122-.032zm119.254 14.852c-9.43-.21-9.77 8.45-9.82 15.11-.07 9 7.348 9.78 15.868 10.87 7.54-3 6.251-10.83 5.381-17.2-.76-5.47-7.26-8.68-11.43-8.78zm-449.053 3.332c-.923.067-2.016.718-3.328 2.238-9.702 11.224-19.186 22.635-28.598 34.103h8.633c5.27-6.587 10.557-13.16 15.926-19.664 1.36-1.65 4.209-7.85 6.379-3.9 3.831 6.971 6.324 14.71 9.41 23.564h8.054c-3.8-10.03-8.128-19.876-11.804-29.953v.04c-.922-2.53-2.088-6.189-4.287-6.422a2.14 2.14 0 0 0-.385-.006zm267.812 12.408c-14.865.397-17.856 16.355-10.523 23.933h19.084c6.141-7.72 3.644-24.207-8.56-23.933zm113.526 14.039c-6.426.095-9.655 4.599-10.268 9.894h22.504c-.93-5.188-4.274-9.607-10.652-9.833a15.144 15.144 0 0 0-1.584-.061zm131.412 5.818a6.198 6.198 0 0 0-.947.034h.058c-5.289-.04-9.438 1.586-12.324 4.043h18.596c-1.25-2.515-3.076-3.976-5.383-4.077z"/></g><path style="fill:#7b2d20;fill-opacity:1;stroke:#fef8c8;stroke-width:0;stroke-linejoin:round;paint-order:markers fill stroke" d="M101.796 136.98c-2.647 1.161.284 4.339.957 5.93 23.402 40.203 47.958 79.947 76.974 116.388 2.791 3.936 8.078 6.686 8.868 11.77-.006 5.073-6.13 6.667-9.975 7.957-16.305 4.236-33.218 5.42-49.646 9.117-26.455 5.17-52.351 13.186-76.93 24.28-.601 1.905-1.783 7.6 2.042 6.354 29.186-1.552 58.186-5.355 87.002-10.137 17.67-2.679 35.394-5.55 52.422-11.127 5.6-1.53 13.144-2.179 17.042 3.032.653 3.66-2.837 6.491-3.418 9.933 2.022 1.723 5.567.473 8.118 1.123 15.497.75 31.152 1.65 46.546 2.366.043-2.512-3.382-4.041-4.725-6.236-3.021-3.221-5.328-8.96-1.394-12.407 7.563-5.804 16.445-9.679 24.844-14.121 25.882-12.993 54.062-20.451 81.182-30.365 1.843-.182 1.57-2.75-.336-2.114-36.94 3.286-73.617 10.988-108.143 24.696-3.999 1.153-9.687 3.967-13.012.035-1.685-6.364.396-13 .793-19.45 2.61-21.451 5.407-42.957 11.446-63.754 3.825-15.152 8.404-30.271 10.248-45.811-1.499-2.084-2.666 1.493-3.302 2.629-16.833 34.606-28.084 71.584-38.53 108.52-1.44 3.049-.336 8.05-3.933 9.717-6.101 1-10.41-4.472-13.99-8.566-12.85-15.762-28.246-29.22-41.153-44.94-20.35-23.923-38.77-49.411-58.356-73.935-.45-.422-.975-.922-1.64-.884zM201.42 325.826c-3.09 1.918-3.886 6.163-5.67 9.152-6.282 14.479-11.81 29.248-18.85 43.386-1.685 4.374-3.968 8.942-3.901 13.675 1.96 1.429 3.214-2.286 4.507-3.3 10.061-13.144 21.811-26.223 25.594-42.798 1.22-6.453 1.387-13.433-.667-19.699a1.075 1.075 0 0 0-1.014-.416zM556.191 751.738c-1.597 1.745.037 4.68.05 6.807.73 5.185 4.657 9.073 6.064 14.084 6.63 18.776 11.298 38.298 16.682 57.513 3.104 11.585 5.691 23.354 9.635 34.674.772 4.783-5.767 7.688-9.285 4.714-9.981-6.351-20.58-11.818-31.485-16.395-3.676-1.934-2.806 2.175-1.973 4.312 1.02 5.598 3.234 11.77 8.964 14.072 7.671 3.6 17.179 6.849 20.271 15.609 2.38 9.173-3.131 18.219-9.18 24.761-3.193 3.652.34 8.29 1.238 12.131 2.226 5.651 4.008 11.664 6.827 16.961 2.424-1.418 2.791-5.364 4.398-7.783 3.875-7.836 7.337-16.006 11.581-23.626 2.677.38 4.191 3.573 6.002 5.408 16.57 20.397 25.669 45.294 36.637 68.844.49 1.899 3 1.178 2.419-.697-3.022-29.219-12.108-57.683-26.024-83.528-1.028-2.883-3.832-6.042-2.74-9.22 3.92-2.21 8.916-.604 13.21-1.14 21.784-.235 43.556-1.774 65.28-2.817 11.823-.557 23.501.675 35.276 1.351 5.697-.175 11.573-.858 16.938-2.772.841-2.29-3.106-1.95-4.431-2.61-36.597-7.994-74.125-9.845-111.42-11.797-2.021-.191-5.792-.23-5.005-3.23 1.632-5.228 6.311-8.89 9.049-13.562 17.341-25.398 35.934-49.95 54.697-74.334 2.72-4.334 6.447-8.388 7.944-13.307-1.363-2.06-3.329 1.414-4.556 2.159-22.01 22.105-42.81 45.43-61.842 70.157-3.782 4.192-6.686 9.688-11.823 12.373-3.942 1.225-5.238-3.93-6.729-6.413-8.729-20.568-17.034-41.37-27.727-61.035-5.867-10.625-11.397-21.556-18.204-31.588a.864.864 0 0 0-.738-.076zM176.993 1306.905c-1.507 1.733.943 4.287 1.192 6.244 19.488 48.84 35.103 99.181 55.314 147.757 2.016 5.858 6.336 11.01 6.895 17.29-1.075 4.923-7.28 5.531-11.461 5.235-7.601-.672-15.052-3.218-22.8-3.03-12.492-.209-24.828-1.194-37.043-3.855-9.681-2.2-19.679-.59-29.518-1.033-18.313.275-36.633-2.512-54.939-1.02-1.608-.335-3.159 1.962-1.057 2.46 20.559 5.32 41.582 8.68 62.412 12.773 34.202 6.509 68.588 12.055 102.762 18.647 2.2.911-.382 3.656-.97 4.908-7.837 11.208-15.847 22.317-23.253 33.814.326 2.32 3.824.895 5.478 1.386 4.94-.078 10.028.381 14.864-.236 4.6-4.821 8.25-10.757 13.63-14.747 2.943-.586 3.47 3.598 4.55 5.423 1.512 3.022 1.965 6.85 4.16 9.323 8.657-.1 17.488.61 26.037.01-.681-4.24-3.515-8.262-4.991-12.42-2.952-7.297-6.687-14.387-8.664-22.01.556-4.725 6.48-3.92 9.924-4.36 49.996-1.489 99.604-8.56 148.969-16.176 2.244-.62.032-2.674-1.477-2.13-31.966-1.355-63.963-2.418-95.962-2.468-19.63.014-39.315 1.141-58.852 2.216-1.843.55-3.711-.716-2.698-2.696 3.828-9.771 10.146-18.753 15.486-27.9 28.204-45.74 62.58-87.522 88.685-134.597 1.327-1.381-.07-3.34-1.733-2.261-4.906 2.486-6.218 8.706-10.12 12.249-15.314 16.683-29.788 34.105-43.659 52.003a3962.3 3962.3 0 0 1-60.11 74.714c-2.322 2.244-4.789 6.245-8.48 5.716-4.541-3.383-6.145-9.299-8.837-14.089-23.784-49.016-40.765-101.82-72.515-146.612-.296-.347-.712-.71-1.22-.526zM875.707 72.943c5.181 34.175 11.83 68.378 19.94 102.057 5.458 21.528 13.396 42.505 17.573 64.305-.813 8.91-12.22 8.925-18.156 5.184-47.428-18.915-95.021-39.164-145.646-47.75-11.545-2.19-23.612-7.719-35.315-3.63 4.965 3.96 13.272 5.067 19.595 7.899 48.344 17.658 94.592 40.761 139.31 66.153 3.964 2.223 8.868 7.363 4.392 11.656-29.411 33.745-68.839 56.196-106.215 79.922-23.45 14.2-47.252 28.415-72.403 39.16-1.861.72-4.459 5.537-.702 4.725 67.41-21.976 134.57-49.422 190.8-93.485 4.48-3.699 11.915-10.814 17.246-4.336 7.316 10.273 5.607 24.024 6.744 35.932.91 53.604-5.92 107.07-16.877 159.45-.802 1.595-1.438 8.109 1.735 5.24 10.683-20.15 18.233-41.841 26.093-63.206-.056-88.295.111-176.615-.083-264.893-16.925-33.539-33.39-67.397-45.851-102.892-.38-.8-.932-2.714-2.18-1.49zM868.337 1207.377c-1.847 3.569 2.608 8.35 3.124 12.166 14.301 37.265 30.878 73.652 45.062 110.94 1.273 6.603-7.444 3.306-11.593 4.184-35.81.917-71.84.267-107.444 4.556-3.622 1.472 1.807 3.582 3.519 3.432 38.93 7.832 78.885 4.657 118.2 7.76 1.864 1.23 4.158.805 3.831-2.036.431-10.002 1.309-20.328.312-30.161-17.1-37.312-34.653-74.512-54.208-110.585a.876.876 0 0 0-.803-.257zM921.74 1360.736c-14.17 29.927-25.368 61.237-35.451 92.749-.539 1.395-2.447 7.793.905 5.513 13.91-21.184 25.924-43.69 36.693-66.613-.44-10.623.022-21.483-.978-31.958l-.728-.088z"/></g><path style="fill:#804b23;fill-opacity:1;stroke:#fef8c8;stroke-width:0;stroke-linejoin:round;paint-order:markers fill stroke" d="M149.182 680.604c-1.267-.005-2.472 1.055-2.37 2.37.15 1.688 1.86 2.507 3.135 3.302 5.682 3.16 11.69 5.682 17.642 8.28 17.726 7.545 35.753 14.371 53.965 20.647 5.573 1.913 11.118 3.913 16.739 5.68 2.126.47 4.029-1.145 5.109-2.817 2.216-3.32 2.752-7.677 1.503-11.455-1.034-3.006-3.938-4.792-6.757-5.885-5.256-2.017-10.815-3.065-16.296-4.272-17.886-3.66-35.668-7.646-53.427-11.853-6.07-1.373-12.126-2.839-18.255-3.927a4.93 4.93 0 0 0-.988-.07z"/><g data-name="Red Japanese Frames"><path d="M0 20v1560a20 20 0 0 0 20 20h936a20 20 0 0 0 20-20V20a20 20 0 0 0-20-20H20A20 20 0 0 0 0 20zm924 1528H52V52h872z" style="fill:#000;fill-opacity:1"/><path d="m952.1 15.41-23.41 23.42a4 4 0 0 1-2.83 1.17H50.14a4 4 0 0 1-2.83-1.17L23.9 15.41c-1.251-1.259-.365-3.403 1.41-3.41h925.38c1.775.007 2.661 2.151 1.41 3.41zM40 1549.86V50.14a4 4 0 0 0-1.17-2.83L15.41 23.9c-1.259-1.251-3.403-.365-3.41 1.41v1549.38c.007 1.775 2.151 2.661 3.41 1.41l23.42-23.41a4 4 0 0 0 1.17-2.83zM936 50.14v1499.72a4 4 0 0 0 1.17 2.83l23.42 23.41c1.259 1.251 3.403.365 3.41-1.41V25.31c-.007-1.775-2.151-2.661-3.41-1.41l-10.41 10.406-13.01 13.004a4 4 0 0 0-1.17 2.83zM925.86 1560H50.14a4 4 0 0 0-2.83 1.17l-20 20c-2.523 2.52-.736 6.833 2.83 6.83h920.55c1.775-.01 2.661-2.151 1.41-3.41l-23.41-23.42a4 4 0 0 0-2.83-1.17z" style="fill:#000;fill-opacity:1"/></g><path style="fill:#804b23;fill-opacity:1;stroke:#fef8c8;stroke-width:0;stroke-linejoin:round;paint-order:markers fill stroke" d="M245.496 727.664c-2.241.295-3.982 1.92-5.709 3.24-5.525 4.661-10.544 9.876-15.926 14.698-13.944 12.649-28.378 24.755-43.132 36.448-6.305 5.007-12.762 9.817-19.268 14.559-3.236 2.44-6.552 4.794-9.596 7.474-1.202 1.014-.928 3.155.481 3.848 1.574.826 3.33-.102 4.814-.7 5.363-2.496 10.468-5.501 15.636-8.37 16.472-9.239 32.421-19.4 47.91-30.203 7.533-5.328 15.043-10.73 21.98-16.828 2.502-2.298 5.213-4.671 6.326-7.996 1.334-3.855 1.663-8.135.606-12.097-.572-1.95-1.63-4.315-4.122-4.073z"/></svg>