<svg xmlns="http://www.w3.org/2000/svg" viewBox="0 0 976 1600"><defs><clipPath id="a"><path d="M960 22v1556a6 6 0 0 1-6 6H22a6 6 0 0 1-6-6V22a6 6 0 0 1 6-6h932a6 6 0 0 1 6 6z" style="fill:none"/></clipPath></defs><path d="M960 22v1556a6 6 0 0 1-6 6H22a6 6 0 0 1-6-6V22a6 6 0 0 1 6-6h932a6 6 0 0 1 6 6z" style="fill:#a97e6b;fill-opacity:1" data-name="Paper Backing"/><g clip-path="url(#a)" style="clip-path:url(#a)" data-name="Wikipedia Cropped"><rect style="fill:#e4b09b;fill-opacity:1;stroke:#fef8c8;stroke-width:0;stroke-linejoin:round;paint-order:markers fill stroke" width="393.162" height="84.819" x="126.435" y="475.051" rx="75" ry="75"/><path style="fill:#376e46;fill-opacity:1" d="M535.465 280.563c-16.518-.248-36.562 33.414-56.414 31.966-36.35.16-37.35-50.89-70.24-13.51-4.3 2.7-4.952 6.752-.952 9.192 40.82 29.75 54.752 77.67 67.202 123.75 16.34 46.25-5.16 27.56-27.66 7.86-37.86-4.79-39-48.9-77-51.43-25.87 10.45-45.561-2.362-73.311-2.362-35.76 3.66-78.85 8.362-110.76 21.602.38 48.81 135.32 103.4 182.38 77.17 31.86 25 82.55-9.54 109.63 26 4.11 4.82 9-.86 13.57.59 29 67.5 57.82 150.419 115.43 202.609 6.24-1.88 27.56-14.89 18.03-21.82-31.89-47.74-66.89-96.13-83.89-151.51-4.07-7.08 3.03-8.86 6.61-12.7 4.78-12.89 16.94-28.96 32-19.15 43.36 3.57 71.48 59.86 117.91 35.86 71.17 39.67 62.41-8.94 133.17-29.94 36.78-16.26 67.68-7.19 22.94-47.56-33.86-37.24-85.28-50.22-134-44.77-22.96 11.55-27.81-24.67-55.37-20.45-12.73-2.12-24.88 8.39-35.06 12.51-15.05-7.94-34.42-.34-43.17 10.12-29.71 22.73-32.2 57.3-52.63 76.41-31.81-62.49-18.88-150.53 16.79-206.33-4.585-10.175-9.7-14.025-15.205-14.108zM160.699 629.13c-11.315-.027-21.502 5.888-31.398 16.45-44.57-8.27-85.91 3.608-69.84 60.608 25.38 39.91 16.309-.018 19.549 54.692 2.87 18.22 32.56 38.769 50.61 38.219 11.42 1.54 29.59-8.16 37.88 1.39-46.98 47.53-.62 89.08 53.6 64.17 17.12 11.28 38.22 23.49 58 20.74 44.8.32 34.52.38 18.54-33.61-5.65-16.44-9.9-49 11.81-49 6.21 2.53 13.93 13.54 20.4 7.2 2.98-34.45 16.62-69.79 2.56-104.85-5.88-27.86-19-25.3-40.88-21.56-6.84-17.81-2.25-53.47-29.84-52.47-14.98.2-30.62 12.46-35.75 26.1-8.87 15.3-20.23-28.58-60.32-27.7a33.611 33.611 0 0 0-4.92-.38zm799.62 89.988c-19.11 2.299-38.745 10.972-50.88 24.442-60.55-35.28-107.97 32.45-122.42 84-23.1 26.25 26.711 11.19 31.561 29.25-.38 6.11-8.14 7.848-7.65 15.228-1.65 20.91-64.47 31.8-32.75 46.8 34.38 19.41 71.53 39.732 111.82 42.292 27-8.71 42.63 1.87 67.52 6.17v-.022c.973.277 1.898.459 2.798.592V719.12zM269.395 945.58c-14.197.124-25.324 9.568-33.136 20.99-19.98-9.21-52.2-10.53-58.09 14.55-6.94 10.04-3.51 26.61-6.67 38.61-19.59 1.69-45.2-10.99-63.33 6.54-19.29 14.76-24.01 46.49-14.76 67.49-2.72 10.73-24.09 12.27-26.91 21.61-26.46 38.18 15.46 87.49 58.46 79.18 4.939 21.132 22.926 48.846 47.91 47.75 41.3.11 56.87-47.68 73.22-71.29 17.09 12.66 36.02 24.17 59.2 19.41 25.26-.09 27.41-15.25 35.74-31.8 34.23-.4 61.89-30.6 65.39-61.6 8.57-15.59-25.58-16.34-28.32-26.24-4.9-4.49 5.07-18.05 3-27.4-10.28-12.62-34.93-8.08-43.65-21.55-9.63-10.65 16.63-27.76-1.63-32.52-33.22-3.16-25.34-39.27-53.78-41.48-4.453-1.588-8.668-2.285-12.644-2.25zm429.877 126.467c-2.741.01-3.618 1.83-1.543 6.594 16.06 19.91 23.44 63.51-11.14 57.07-10.4.94-31.62-27.08-34.53-13.55.9 11.2 3.8 30.868-5.37 36.198-8.75-.42-21.47 7.56-28.37.81-11.46-12.32-12.18-33.819-26.88-42.919-12.33 6.93-3.69 42.76-30.33 41.76-36.99-2.33-15.52-57.97-28.16-77.15-14.81 23.56-36.38 47.11-44.75 76.31-41.3 27.64-105.85 79-72.85 138.5 25.47 36.26 82.54 21 107-5.8 22.36 27.68 37.59 40.65 72.42 16.09 12.08 5.98 11.19 26.55 18.8 37.72 11.73 34.12 54.12 90.11 93.44 55.3 18.91-.26 33.55 25.59 56.74 21.85 68.42-2.04 82.69-89.47 40.09-133.13 13.7-37.43 20.9-72.14-25.44-98.43-35.22-13.67 31.62-41.4 1.25-80.67-7.31-11.78-18.29-18.96-29.37-19.2-7.657 5.657-41.216-17.387-51.007-17.353z"/><rect style="fill:#e4b09b;fill-opacity:1;stroke:#fef8c8;stroke-width:0;stroke-linejoin:round;paint-order:markers fill stroke" width="448.718" height="84.819" x="453.95" y="106.271" rx="75" ry="75"/><path d="M634.32 1158.65c-25.22-3.39-25.6-39.68-44.54-48-7.67 2.17-3.83 12.91-4.84 18.44-.58 32.75-43.54 37.27-45.67 3.68-5.08-41.08 1.61-85.88 9.16-127.08 11-29.77-6.14-7.17-3.38-37.28-.24-12.62 1.09-25.28 4.46-35.08-.59-7.17-6.43-14.2-5.63-22.34-5.11-21.9-3.1-50.15-20.36-64-20.52-23.64-42.67 15.32-44.52 34.22-6 39.89 24.1 77.25 52.85 106.71 0 5.39 12.87 6.93 6.45 12-25 23.6-51.84 46.59-78.77 66.26-20.17 23.35-106.9 27.92-75.94-20.73 8.14-15.85-37.54-7.61-44.74-23.84-8-7.61-1.69-15 1.23-21.74-.95-6.78 11.45-8.39 18-5.48 25.31 6.69 56.06 1 81.75-4.09 57.86-8.36 51.45-9.63 7.62-41.2-22.41 29.08-111.5 7.26-139.33-17.23-18.51-15.91-19.13-45.6 8.58-43 6.75 0 8.76 2.2 9.43 2.93 14.67 14.28 44.64 38.93 68.37 32.58a6 6 0 0 0-.64-7.26c-10.44-10.59-15.45-24.91-17.9-39.2-25.3-21.8-57.09-59.59-39.75-100.18 3-19 24.69-39.54 37.55-16 5.22 4.7 5 17.42 13.37 17.93 15.3-21.61 18.73-51.24 46.14-59.09 32.91-8.62 27.51 36.28 33.18 56 1.43 5.56 6.95 4.3 11.23 4 20.51-2.47 22.87 24.24 35.17 32.09 10.42-4.43 8.06-21.93 15.84-30.56 3.85-11.51 17.47-11.6 17.9-21.63-10.56-48.76 24.39-93.92 61.66-41.14 14.51-17.95 51.77-39.91 69.08-9.44 13.21 13-11.85 48.28 10.86 40.32 52.1-50.27 63.55 6.41 43.27 52.55-5.19 13.06-9.35 32.76-19.21 41.54-8.77 3.24-3.49 13.93-10 21.93-47.19 79.13 78.33-45.59 103.94-19 40.95 47.8-116.15 92.17-149.94 82-6.12-8.74-13.64 8.48-18.84-2.21-5.17-5.43-2-18.16-12.13-16.59-10.85-5.29-26 2.78-30 14.19 2.17 26.24-24.79 36.54-30.87 57.48 3.16 6.27 9.2 2 14 .89 15 11.55 15.27 41 27.71 56.86 10.1 35.63 49.27 55.91 47.2 95.39.02 10.94-4.26 23.45-19 23.4zM391.61 786c-7.8.25-5 8-5.73 12.92-13.51 23.5-5.52 52.53 8.05 72.29 14.35 5.34 26.67 15.46 38.7 23.29 6.39-1 9.71-9.23 17.2-7.44 15.37-5.8-12.23-39.7-3-57.63 1.9-6.49-3.41-8.09-7.75-10.55-10.43-16.74-27.4-28.05-47.47-32.88zm223.68 37.84c14.26-2 14.74 18.66 25.44 20.69 15.84-17.37 7.69-69.9-14.19-77.22-17 1.38-18.83 2.16-25.4 17.76-6.33 6.72-3 18.7-11.38 22.93-10.26 2.74 0 17.7-7.25 22.32-5.68 3.19-2.12 13.07 4 13 9.49-3.95 15.67-20.91 28.78-19.51zm128 264.71c-58.11-15.18-101-67.74-130.85-116-5-8.27 6.32-12.26 10.43-17.15 4.81-3.25 6.69-11.73 12.93-10.7 41.37 16 90 35.43 136.38 31.3 7.23-1.53 13.71 2 18.73 5.58 27.78 13.84 38.4 52.95-1.17 55.46-12.35 3.63-27.88-7.59-39.5-1.77-3.01 12.99 30.95 45.43-6.91 53.25zM477.85 312.67c-24.23-.47-43.34-40.63-57.65-26-13.57-1.61-21.29-2.67-33.68-4.23-23.26-3.05-44.17-12.74-64.71-21.93-26-7.47-67.52-62.27-21.83-66.07 63.32 3 80.89 65.2 114.8 72.09 5.59-8.38-6.1-21.58 2.21-30.85 2.71-4 9-7.78 4.38-12.94-38.05-71.46 44.62-70.4 32.93 3.3-.71 4.88 1.3 10.86 1.9 16.17-.19 3.77-4.82 7-1.33 10.89 7.84 12.66 34.41 51.27 22.98 59.57zm21.8-9.71c-9.46-15.12 14.45-64.32 24.22-82.4 22.45-34.57 41.43-6.41 50.62-18.24 2.55-49.56 113.13-91.16 72.82-16.65-22.7 22.69-47.5 44-72 59.67-4.82 1.26-10-6.87-14.09 0-13.31 21.14-38.77 43.9-61.57 57.66zm193.82-2.31c-3.26 2.68-117.23-19.29-94.72-28.27 45.38-1.57 87.28-34.71 127.92-10.06 26.46 25.56-7.23 41.82-33.2 38.33z" style="fill:#e59a48;fill-opacity:1"/><path style="fill:#354e39;fill-opacity:1" d="M811.81 938.047c-4.087-.24-6.663 1.48-6.64 6.533 6.69 26.59-29.29 22.42-20.61 34.72 14.11 7.4 26.13 14.66 30.26 28.4 1.98 19.25 11.36 36.25 26.7 49.86 15.88 28.55 22.02 66.61 23.17 96.36 2.06 87.55 1.05 176.91-13.26 263.68-15.92 21.02-13.17-30.64-26.87-30.64-3.17-.44-5.38 3.91-7.17 7.71-8.67 16.14-24.69 18.29-33.13 27.64 2.75 14.71 14.06 26.67 14.44 41.94.92 27.67-7.8 58.89-19 83.84.082 4.712-4.171 13.178-8.903 22.137h64.254c3.947-10.159 8.346-20.222 11.53-30.397-.65-12.53 10.599-20.52 13.349-32.33 18.83-44.85 46.48-89.34 58.61-135 .13-35.72-10.86-69.83-7.56-105.59 1.31-101.09-6.05-201.99-39.29-297.45 1.15-10.63-1.58-10.99-11.52-13.55-10.215 1.193-36.096-17.146-48.36-17.863z"/><path d="M466.26 1139.4c-42.82-7.69-8.88-60.94 7.7-79.25 4.48-14.21 79.08-59.6 63.07-69.62-97.87-68.44-42.34-201-5-126.37 12.9 35.71 13.89 84.42 10.82 123.38-6 7.64 5.77 8.73 5.8 14.73-6.89 53.93-22.34 123.5-82.39 137.13zm226.47-3.15c-57.39-15.24-81.15-86-103-133.34-4.15-21.29-3.19-25.14-24.58-15.7-11.94-7.93 16.38-23.31 20.23-32.85 12.86-11.6 5.51-40.62 25.41-44.79 17.64-3.88 22.29 9.23 27.42 21.17 20.73 2.56 42.69-1.18 63.37-3.06 35.63-11 88.37-28.2 103.31 20-19.57 62-128.3 8.11-170.46-3-7.79 5.75-26.17 16.87-22.76 27 18.91 33.25 36.43 56.67 61.68 77.75 22.89 14.57 62.22 77.06 19.38 86.82zM392.18 995.84c-28.22-2.17-96.57-1.45-86.6-48.26 17.22-14.32 64.08 19.34 95.45 13.9 27.84-1.38 54.35-5.46 79.39 10.7 11.45 14.37-76.14 23.5-88.24 23.66zm1.26-66.84c-116.12-22.16-120.61-183-58.69-100 10.19 15 68.88 90.37 58.69 100zm301.29-34.26c-16.71-3.91 17.29-39.55 18.72-51 51.47-113.98 157.11-28.59-18.72 50.95zm-264.13-3.89c-11.2-3.07-18.09-16.26-30.32-18.76-52-40.31-4.12-128.86 43.08-45.89 3.87 7.58 2.16 17 3 25.15-2.4 9.72 17.27 28.47 6.54 34.55-8.96-8.03-14.1 4.31-22.3 4.95zm209.16-44.63C630.21 837.5 628 821 614.82 823.3c-11.67-2.8-14.29 14.63-23.7 17.84-12.64-26.44 30.15-110.49 52.24-53.31 3.46 17.67 10.45 45.17-3.6 58.39zm-126.23-34.79c-4-.59-6-5-7.92-8.39-6.87-32.18-40-16.58-36.17-38.16 12.85-73.69 78.29-69 71.73 2.86-11.24 8.64-18 20.47-22.39 38.57-1 2.69-2.48 4.9-5.25 5.12zm131.12-475c-26.95-2.83-105.83-35.2-98.79-64.67 37.74-34.13 133.14-112.9 178.59-66.5 11.9 41-83.45 57.51-112.35 64-45.56 11.6 34.09 17.74 39.76 33.74 12.2 11.43 9.59 32.58-7.21 33.47zm-320-2.72c-60.26-7.56-18.81-58.63 20.79-58.95 21.8-1.17 43.48 9.9 66.27 10.62 27.84 10.12-76.31 52.24-87.02 48.37zm163-22.78C473 294.34 468.65 269.22 461 255c-10.48-19.95-11-91 25.7-74.26 5.36 5.21 11.6-1.05 10.61-7.2-6.69-38.46 54.53-77.8 48.93-18.11-12.26 38.29-23.82 68.16-45.41 94.36-5.27 19.26.36 45.98-13.1 61.21zM415 273.85c-105.21-72.14-20.92-155.41 5.88-44.09-21.61 12.59 7.12 38.91-5.88 44.09z" style="fill:#962c2d;fill-opacity:1"/><path style="fill:#451414;fill-opacity:1" d="M529.129 118.443c-1.657-.049-3.36.12-5.09.528-11.24 2.66-28.688 25.499-29.318 37.369-.44 8.36 1.378 17.06-2.352 25.15-18.46-21-28.28-5.26-38.42 9.6-1.61-14.27-13.68-27.26-25.6-28.12-15.37-1.11-16.87 12.33-22.31 21.54-20.79-27.13-55.4-9.31-47.35 23.45.42 1.45-.21 3.2-.35 4.81-100.16-69.34-115.2 30.84-19.56 59.69-53.13.89-79.299 66.46-9.709 65.13 21-1.6 38.54-11.58 57.14-19.76 5.9-2.59 9.95-16.62 21.6-5.24 40 38.06 53.84 91.58 66.67 143.25-8.64-8.3-17-16.29-27.73-21.09-7.79-3.48-17.9-4.8-23-10.58-9.11-10.29-15.61-22.61-26.59-31.87-8.57-7.23-33.51-12.31-42.47-5.62-4.4 3.28-8.63 2.62-13.3 1.07-30.51-9.78-61.94-6.88-92.61.52-21.46 4.18-42.62 11.14-64.94 10.92-4.1 0-8.42 4-6.71 8.49 8.1 29.43 34.68 45.9 60 59.56 37.3 18.19 78.88 36.26 120.86 26.39 4.48-.9 8.41-6.72 14-2.56 16 11.86 35.1 12.22 52.64 8.9 26.33-5 60.55 10.93 70.34 35.43 13.25 33.15 27.48 66 44.81 97.2 9.88 17.83 21.47 34.71 32 52.19 11.17 12-25-2.54-30.14 42.05-30.44-45.28-65.79-12.59-74.31 29.4.36-18.45-5.25-41.51-26.8-41.4-33 3.52-50.2 38.74-52.28 68.86-12.67-35.78-23.55-43.15-45.78-30.79 1.61-27.09-4.19-87.74-43.27-76.43-1.26.44-5.56 3.93-6.21-1.36-1.66-18-1.21-44-23.53-47.82-18.72-3.43-34.74 6.18-44 22.92-1.8 3.25-1.82 14.77-9.13 1.73-13-23.14-56-36.43-81.91-18.12-3.91 2.75-5.35 12.52-14.18 7.77-11.72-6.3-42.6-3.14-51.65 4.79-25.95 22.85-23.66 62.61 4.8 82.54 1.31.91 4.11 1.35 2.8 4-7.94 15.8-2.88 30.82 5.62 43.56 19.59 30.4 59.43 34.08 90.95 21.28-55.6 29-26.29 90.47 30.48 77.83 41.35-15.94 15.91 23.71 90.22 13.29-9.44 12.72-1.66 35.9 16.2 51.67-5.36 1.65-10.4 3.67-11.42 12.27-2-6.18-6.37-5.36-9.45-7-16.4-8.6-41.25-2.56-50.69 12.4-1.93 3.06-2 6.11-7.57 3.45-40.78-21.79-69.63 19.14-59.86 56.26-51.91-17.68-93.15 8.42-84.68 64.45.62 3.73 10.92 10.08-.18 14.87C53 1108.33 44.12 1145.61 62 1171c11.71 20.73 30.89 29.19 53.59 27.62 9.88-.68 9.35 4.73 10.27 10 16.58 51.21 79.21 47.54 102.1 3 6.38-12.63 13.42-24.84 18-38.23 21.25 27.89 82.41 33.63 95.62-3.16.13-20.23 8.41-.35 34.14-18.08 35.95-20.69 26.34-52.17 42.8-65.19 15.17-1.45 27.1-8.61 39.71-15.79-7.15 15.55-18.11 29.41-17.31 47.87.14 15.78 9.72 25.18 25.05 25.3 10.44.08 17.85-6.89 26.83-10.66-4.7 7.27-3.31 18.46-10.8 22.76-32.66 22.28-78.86 57.26-81.79 100-5.61 73.64 75.87 85.69 121 41.24 1.59-1.54 2.84-2.28 4 1.44 8.42 28 51.68 32.08 68.88 10.87.59-.75 2.63-2.93 2.48-.66-.49 7.21 4.22 12.24 6.39 18.28 4.68 13 7.25 27.65 14.91 38.68 11.25 16.2 20.78 34.31 41.25 43.18 15.9 6.89 33.46 8.5 45.76-3.23 12.05-14.31 22.51 27.72 65.2 20.65 7.55-1.09 9.43.2 14.1 7.3 21.14 36.48 5.33 77.42-8.49 113.33-.742 2.454-2.935 7.186-5.608 12.798h9.645c1.427-3.623 2.72-7.305 3.793-11.088 13.14 5.23 32.25 15.9 45.35 6.93-1.3-1-2.57-2.83-4-3a148.59 148.59 0 0 1-26.09-5.94c-7.38-2.38-12.58-4.88-11.24-7.73 7.37-15.62 9.08-33 14-49.37 2.43-8.12-4.86-22.55 12.72-23.89 3.11-.24 8.67-6.46 8.31-12.14-.28-4.61-4 1.58-5.62-.78-1.92 2.43-15.45 12.44-15.84 6.47.47-11.88-5.26-21.41-11.38-30.87-8.24-10.87 14.68-5.67 31.19-32.17 1.39-2 2.59-7.84 4.9-4.88 2.31 2.96 6.13 8 3.86 13.16-1.6 7.76-21.62 20.39-18 24.66 1.81 2.51 3.4.91 5.11 0 7.71-4.25 14-9.8 17.16-19.1.88 11.32 8.93 21.86 8.15 32.16-2.91 15.73-8.72 30.93-13.41 46.33-.58 1.89-3.49 4.16-.75 5.51 35.25-26.38 39.17-192.84 41-240.86-.76-10.06 24.42-1 32.08-6.27.91-.35 5.63-3.76 5.73 1.41 4.63 16.06-16.92 3-16.89 13.76 1.16 8.76 18-4.49 17.15 4.34-3.29 35.15 7.33 69.15 7.54 104.07 2.44 13-10.75 17.64-15.37 4.25-.65-2.06 1.63-6.3-2.26-5.89-3.89.41-4 4.47-4.06 8 0 3.86 3 5.37 4.78 8 3 4.41 12.84 3.73 11 8-17 37.46-35 74.86-52.06 112.17-4.45 7.15-3.52 18-14.79 21.09-14.47 5.88-38.65-5.68-40.23.53-1.46 3.15 2 4.09 3.72 4.6 11.44 3.3 22.83 7.78 35.06 3.51a8.83 8.83 0 0 1 2.94 0c-2.148 8.475-5.12 16.769-8.268 25.028h10.39c.403-1.183.764-2.166 1.037-2.677 16.64-44.67 36.26-87.831 57.84-130.221 8.74-19.64 22.1-38.16 20.58-60.91-12.48-82.36-3.998-165.7-13.638-248.27-3.47-50.85-19.221-98.65-34.221-147-.64-2.23-2.73-8.8 3.3-7.61 23.76 7.28 34.39-8.42 50.51.66 4.827 2.637 10.566 4.868 16.489 6.142v-8.547c-13.02-3.858-24.848-12.754-39.738-7.754-43.85 10.57-87.72-17.94-125.42-37.75-26.76-12.27 10.81-6.851 32-40.611 1.46-2.38-.15-13.92 8.6-8.7 15.2 9.07 29.578 19.52 44.548 29 2.08 1.31 5.591.34 8.441.42-.46-8.88-41.22-30.07-51.12-38.52 10-1.72 19.25-3.76 28.58-4.77 8.67-.94 17.54-6.91 26.16-.07 16.57 17.51 25.22 8.68 18.08 35.42-1.49 12.35-9.3 23.93-14.38 35.85-1.1 4.14-4.55 8.41 1.18 10 3 2 3.44-1.32 4-2.66 7.82-17.65 16.91-34.86 19.47-55.08 13.21 15.08 26.16 29.71 35.7 47.14.95 1.729 2.144 4.993 3.899 6.825v-14.5c-15.25-26.017-34.691-48.657-59.2-66.314 1.72-.88 3.562-2.71 5.122-2.48 6.65 1 13.86-3.691 20 3.929 8.624 10.75 22.142 14.464 34.078 20.316v-8.482c-10.222-4.976-19.888-11.021-29.918-17.655 10.294-.708 20.178-.55 29.918 0v-8.021c-26.977-1.978-53.556.79-81.43 3.912 12.69-8.41 23.66-15.92 34.89-23 6.44-4.08 11.321-13.66 18.741-12.32 4.422.47 17.036 2.84 27.799 3.246v-9.098c-9.01-.277-18.812-.043-21.95-.799 7.42-10.7 14.22-20.488 21-30.298 1.73-2.51.52-4.55-1.56-5.93-1.54-1-2.658-.361-3.908 1.379-15.88 20.55-33.761 42.9-57.291 54.05 4.62-7.89 6.17-53.59-6.82-51.64-3.06.5-1.91 2.92-1.72 4.3 2.52 17.87 9.78 42.56-4.56 56.14-13 11.89-29.05 21-48.11 21.62-9.14.27-15.21-8.4-24.47-7.68-25 1.95-6.68-10.56-4.39-15.53 3.61-7.85 3.33-16.69 6.65-24 17.27-38.4 59.65-82.64 103.47-56.13 3.7 2.24 10.44 11.33 14.26-2.32 2.032-7.254 16.23-14.616 29.399-18.113v-8.92c-11.67 2.049-22.344 7.533-31.62 17.803-2.84 3.14-4.47 6.19-9.65 1.73-10.67-9.2-24.57-11.55-37.41-8.49-29.79 7.11-50.34 27.54-66.44 52.44-4.67 7.22-3.4 16-17.75 8-16.56-9.29-32.558 3-47.378 13.09 4.21-13.9 5.44-28.26 9.86-42 4-12.62-8.52-31.5-21.69-32.09-20.66-1.76-30.841 12-43.381 25-.23-.53-.79-1.2-.63-1.56 3.39-7.7 4.5-15.47 4.63-24.11.35-22.5-16.5-40.12-39-36.63-10.8 1.68-16.64 3.09-23.21-8.39C606.05 644.43 516.23 548 566 515c46.15-10.13 72.09 50.26 118 40.51 6.41-1.6 12.27-9.75 18.22-5.73 43.5 35.42 60 7.16 98.09-15.14 18-9.23 36.9-15.77 55.61-22.89 9.72-3.7 19.45-9.49 30.76-6.7 6.44 1.58 10.21-1.85 12.15-7.23 1.88-5.2-3.11-6.62-6.21-8.52-31.33-19.66-52.28-52.16-89.58-62.93a200.72 200.72 0 0 0-82.35-9.78c-26.58 8.77-18.38-30.26-70-18-11 2.73-19.71 14.4-33 8.41-37.53-6.89-70.12 62.37-82.84 91.61-17.2-65.7-19.29-136.2 18.15-195.11 2-3.17 3.07-3.6 6.57-1 20.53 14.83 41.74 29.8 66.57 36.07 8.38 2.82 18.49 5.77 26.58 1.15 30.37-15.21-5-41.55 10-38.63 14.47 3.49 29 6.67 43.92 3.87 28.76-1.81 45.67-19.51 24.95-44.05-9.3-10.85-23.11-9-36.07-10.62 7.55-5.59 17-6.82 23.33-13.4 7.35-7.59 16.91-16 13.32-26.72-7.22-21.54-34.36-30-56.41-22.26a267.28 267.28 0 0 1-30.7 9c53.77-65.55-37.47-80.92-70.4-7.77-2.28 3.86-2.24 13-6.29 11.15-13.92-6.36-25.29-3.12-36.82 5.61 3-6.71 6.55-12.59 8.36-18.95 4-14.08 12.34-26.87 11.23-42.53-1.032-14.613-10.411-25.633-22.011-25.977zm.848 9.729c8.469-.193 14.89 7.756 12.363 26.187-8.21 31-22.45 57.001-37.05 85.881-.01-23.64-6.12-44.78-4.03-66.35-.416-27.763 16.338-45.437 28.717-45.718zm107.457 20.36c8.997-.24 16.306 3.69 15.046 16.318.74 21.56-60.46 63.86-78.88 76.84-1.2-35.2 10.34-68.6 43.01-87.16 5.805-3.103 13.825-5.812 20.824-5.999zm-208.15 23.73c3.446.098 6.616 2.216 9.226 5.427 18.22 20.16 9.21 41.391 13.72 65.051-6.39-9.35-16.39-14-25.25-20.25-9.73-6.44-16.89-37.71-6.11-46.36 2.882-2.8 5.732-3.945 8.413-3.868zm-50.073 7.898c22.67.47 29 25.83 38.37 42.21.66 1.29 1.37 3.83.82 4.27-15.68 12.69-9.27 27.24-3 43.22-22.24-22.95-57.24-45.35-46.19-81.24 1.66-4.27 5.64-8.62 10-8.46zm98.568.707c4.14-.099 8.118 3.008 10.721 11.063 14 37.79 8.1 76-.8 115.07-14.7-34.91-36.7-68.94-26.33-107 2.162-9.9 9.51-18.968 16.41-19.133zm214.309 13.662c11.962-.165 22.23 3.398 28.902 12.75 6.27 10.8-2.4 16.24-8.54 21.32-47.64 32.4-107.57 39.63-163.59 45.85 13.29-15.02 29.29-25.719 45.31-36.629 18.822-13.88 64.846-42.834 97.918-43.29zm-392.434 4.24c13.314-.22 34.382 7.175 62.266 26.731 7.95 4.77 12.15 15.39 19.06 22.36a315.89 315.89 0 0 0 30.22 26.9c3 2.35 4.39 7.15 9 7.95-33.81-2.62-66.58-10.21-96.75-25.81-45.81-25.296-51.057-57.679-23.796-58.13zm254.25 7.319c9.527-.236 16.59 6.002 11.875 22.172-13.37 31.07-39.63 51.17-66.09 70.7 7.4-26.57 12.422-53.22 27.532-76.2h.039c5.13-9.725 17.118-16.436 26.644-16.672zM427.43 233.039c25.96 15.28 39.51 45.39 49.57 72.73.35.94.56 1.93.83 2.9-22.32-2.1-84-59.6-50.4-75.63zm266.994 24.23c10.07.193 20.041 2.52 29.986 8.35 7.18 4.93 8.32 14.24 6.05 21.9-18.36 19.09-78.21 5.27-101-4.26-8.34-3.21-17.58-4.1-30.24-6.91 33.9-1.012 64.994-19.657 95.204-19.08zm-342.268 20.385c5.722.033 12.304 4.145 18.543 5.256 14.14 2.58 28.39 4.56 43.92 7-20.3 14.57-41.149 26.51-63.799 34.09-60.22 22.58-79.84-34.2-1.06-46.09.779-.182 1.579-.26 2.396-.256zm181.535 5.301c.173-.014.35-.011.53.008.96.103 2.027.699 3.24 2.066 4.63 5.22 15.278 7.37 4.828 18.67-38.38 54.78-34 129.392-18 191.512 15.34 75 55.882 140.74 100.182 202-5.79 2.58-8.782 8.099-13.282 11.209-7.37 5.09-7.87-4.12-11.41-7.24-17.37-15.18-27.199-36.05-39.549-54.82a541.59 541.59 0 0 1-58.74-125.19c-14.13-52-22.28-106.71-44.56-156.1-11.4-23-24.61-44.89-46.42-59.95-1.15-.8-2.05-.82-.28-2.16 4.12-3.13 8.35-6.24 11.87-10 12.63-13.4 15.24 3.84 21.3 7.58 14.4 8.88 27.94 20.51 46.07 14.11 14-5.52 25.07-18.75 37.79-26.73 2.004-1.055 3.835-4.76 6.431-4.965zm15.89 2.045c34.86.94 72.409-4.18 99.349 20.65 5.86 6.35 8.74 13.85 4.83 21.17C640.6 348.51 563.3 298 549.58 285zM298.728 390.023c13.928.062 27.757 2.124 41.171 7.336 9.5 3.6 15.31-2.178 22.9-4.048 24.93-5.3 41.41 17.06 52 36 7.13 10.91 21.06 6.76 30.21 13.66 16.45 12.73 35 26.288 38 48.638-14.46-16.2-31.7-25.998-49.93-35.138-10.58-5.28-23.89-4.18-32.17-13.08-10.05-10.8-18.73-22.892-27.77-34.602-1.46-1.88-3-4.199-5-3.459-8.61 7 16.75 29.74 20.75 36.56-38.94 1.34-64.22-31.72-101.27-36.53-2.11-.29-3.74.06-3.81 1.68a5 5 0 0 0 2.73 3.83c15.91 5.91 33 11.21 46.27 22-50-5.5-92.07-9.63-142.47-25.28 19-3.39 33.36-5.81 47.66-8.59 19.802-4.88 40.372-9.066 60.729-8.977zM664.12 405.95c14.04-.184 25.759 5.886 35.059 18.98 6.55 9.22 15.14 2.51 21.6 1.41 10.89-1.84 21.37-.9 32-.24 12 .74 24.49.211 35.54 5.641 16.43 8.1 36.73 9.51 48.74 25.19 8.44 11 21.66 16.33 30.11 27.85-45.62-11.51-91.6-17.45-138.7-22.49a203.06 203.06 0 0 1 46.84-13.21c6.52-1.85 15 .6 19.71-5-11.9-9.38-41.64 1.86-55.46 5.83-17.24 5.79-33 13.77-52.79 14.09-29.36-1-57.84 9-85.43 18.51 16.83-23.78 40.26-40.9 65.81-54.34 1.85-1.21 5.66-2.46 3.5-5.3-8.84-8.84-60.74 32.71-67.07 42 2.41-9.47.86-19 1.8-28.29.33-3.34 3.19-7.57-1.62-8.17-4-.55-6.77 5.46-6.37 8.29 1.49 10.36-2.45 20.2-1.11 30.79 1.43 27.74-44.34 29.18-52 59.19-7.4-11.9-7.56-12.78 4.92-40.3 11.61-24.36 41.54-82.05 75-69.19 11.41 5.11 16.44-6.62 25.11-9 5.193-1.423 10.13-2.18 14.811-2.24zm-476.271 8.33c37.57 16.2 76.22 18.16 117.34 25-10.61 3.09-55.29 5.39-52.59 11.84.14 3.09 3.24 2.13 5.18 1.9 21-2.52 41.83-5.088 62.42-11.138 9.91-2.92 22.23 2 33.4 3.78 11.17 1.78 22.33 3.819 33.35 6.349-1.22 1-2.45 2.76-3.66 2.75-19.88-.14-36.47 10.71-54.59 16.36-2 .64-5.19 6.4-1.72 7 20.63-5.25 40.4-14 61.69-17.55 37.41-6.22 77 16.1 95.55 48.14-.95-.09-2.32.13-2.75-.41-23.77-32.44-63.63-11-96.26-19.37-1.12-.18-2.75 0-3.27-.64-7.58-9.63-15.45-9-26-3.69-47.12 16.88-141.49-28.37-168.09-70.32zm519.627 57.787c13.097-.06 26.213.61 39.343 1.405 13.92.84 22.66 10.299 33.13 17.279 4 1.93 28 18.35 29 11.29 3.31-3.59-30.08-19.65-34.27-23.3 33.32 3.78 66.15 7.66 98.85 17.12-15.05 5.14-29.53 9.8-43.8 15.14-24 9-46.49 20.48-66.73 36.61-14.82 11.82-26.18 14.52-44.3 1.47-10-7.21-18.38-10.52-29.35-6.93-37.44 21.62-67.14-37.52-112.5-37.72 19-13.1 41.24-17.49 63-23.52 11.35-3.32 20.52 3.61 23.39 15.09 2.81 10.15 11.49 34.16 23.06 35.84 0-2.35 1-5.84-.12-6.86-10.19-9-9.9-23-18.34-34.28 26.33 15.39 52.35 26.37 79.13 36.21 2.67-.35 7.83 1.9 7.59-1.7-.4-5.85-7.11-6.36-11.55-8.14-26.38-9.28-50.67-23.06-75.26-36.23-1.71-.92-4.36-2.51-4.32-3.72.08-2.49 2.92-1.77 4.81-2.07 13.06-2.13 26.14-2.922 39.237-2.984zm-546.66 161.01c1.35.035 2.756.17 4.222.414 28.93 3.34 42.272 13.35 54.672 41.33.28 1 2.529 1.44 3.879 2.14 6.23-15.64 7.54-30 24.5-38 17.94-9.55 32.8-.38 35.15 20.06 1 9.07 1.61 18.07 1.81 27.15.1 4.66 3.66 6.23 7.14 4.55 22.89-11 29.21-8.89 36.44 15.61a165.38 165.38 0 0 1 6.74 41.79c.63 20.44-11.45 38.73-8.49 59.26 0 .22-1.4 1-1.68.86-10.1-6.57-20.32-13-30.13-20-5.75-4.09-4.65-23.29.22-30.81 8.3-12.8 11.14-27.87 15.6-42.2.79-2.51 2-8.27-1.31-8.6-4.57-.46-5.13 5.39-6.5 8.94-5.64 12.72-8.7 27.32-15.38 39.21-5.43-6.5-21.82-79.57-33.65-73.33-4.3 2-.4 7.06 1.16 10.09 14.51 28 21.07 59 29.32 89-22.53-4.65-28.61-27.54-40.62-42.84-7.37-8.82-30-42.94-40.41-42.17a5.06 5.06 0 0 0 .45 4.55c14.72 21 33.74 39.88 45.8 62.43-21-10.42-42-21.53-61.81-33.94-5.68-3.66-7.21-13.6-10.9-20.53a4331.181 4331.181 0 0 0-25.63-47.47 3.94 3.94 0 0 0-6.06-1c-2 1.65-.39 3.67.83 5.87 3.36 6.05 5.58 12.71 8.84 18.82a246.12 246.12 0 0 0 13.49 22.67c3.34 4.9 2.42 11.93 8.49 15.4-30.58-12.82-58.4-31.74-91.34-37.84 15.27 12.34 33.58 18.26 50.53 26.89C160 724.81 185.68 736.1 207.83 752c-29.86 2.12-60.21 3.58-90.1 1-23.24 9.29 56.18 8.83 60.07 8.6 14-.3 27.91-3 41.47-2.49 14.71.56 26.22 13.1 40 18.74 3.14 2.22 18.61 5.17 12.11 10.07-10.67 8.93-21.86 21.28-36.38 12.08-9.53-5.2-20.49-4.49-30.11-8.79-3.28.21-6.4 6.84-.93 7.9 12.86 3.58 25.67 7.32 38 10.86-17.78 11.24-36.31 22.92-56.75 31.17-3.44 1.39-6.84 4.5-5.41 7.85 2 4.75 5-.28 7.25-1.07 25.68-9.25 48.63-23.61 71.24-39.15-.46 5.59-2.39 11-1 15.29 3.92 11.77-2.59 22.35-2.32 33.56-.87 5.47 4.95 5.86 6.41.63 6.42-17.62 6-35.5 4.61-53.87-.29-3.9 8.15-9 13.28-12.59 4.82-3.33 7.56 2.79 11.39 4.26 14.78 5.67.89 12-.33 17.46-3.08 13.73-.3 26.45 3.51 39.35 2.88 9.77 8.59 17.93 14.24 26.14 1.22 1.77.33 1.89-1 1.86-22.51-.44-45.68 4.37-66.57-8.37-10.35-6.43-16.7-17.33-29.43-8.55C174 884.3 122.31 839 170.2 809.07c7.93-4.27 16-8.41 22-15.33-3.31-1-6.68-2.92-9.91-2.73a1305.531 1305.531 0 0 0-50.49 4c-31.21.9-61.31-33.84-47.72-66 .68-1.76-6-7.42-10.19-9.7-18-13.67-18.13-43.52-4.74-60.76 13.26-16.11 37.32-13.65 55-6.58 8.597 2.148 16.402-19.42 36.666-18.894zm490.648 65.774c9.076-.125 17.053 3.41 22.416 12.94 12.42 22.4-14.72 63.44-22 90.22-2.73-22-16.1-39.24-28.15-39.07-15.69 7.25-10.362-4.44-10.542-11-2.03-20.5 1.962-45.45 25.362-50.87 4.437-1.35 8.788-2.164 12.914-2.22zm-75.662.675c10.555-.077 21.156 7.574 25.127 23.985 2 13.57 2.08 27.25 2.84 40.86.74 13.33-9.73 20.22-11.56 31.23-.61 3-.68 6.35-3.27 8.45-.6-.68-1.65-1.31-1.74-2-1.9-17.83-12.57-31.23-27.66-40.09-3-.9-8.86-1-8.92-1.79-.84-10.71-1.87-21.54-.81-32.11 2.126-18.434 14.03-28.447 25.993-28.535zm-67.371 15.387c10.06-.24 22.231 8.604 24.588 19.158 2 8.94 4.68 17.74 7.41 26.49.83 2.64-.87 3.33-2.15 4.33-14.66 10.67-18.81 26.86-24.78 42.54-1.41-1.93-3.33-3.67-4.16-5.83-13.79-38.72-39.67-19.52-36.12-35.41 6-17.19 8.85-38.23 28.73-49.57 1.95-1.115 4.16-1.652 6.482-1.708zm-69.31 8.395c6.827-.208 13.17 4.067 17.839 15.263 3.27 12.84.879 26.44 5.639 39-12.37 10.07-16.79 24.1-20.31 38.9-24.5-37.87-51.04-25.24-45.87-40.12h-.04c1.271-17.625 23.865-52.47 42.741-53.043zm282.632 11.687c7.878-.14 14.417 4.786 16.967 17.977-4.79 30.24-12.482 57.85-25.532 85-1.47 3.35-1.929 2.65-3.529.86-6.8-9.28-19.57-5.91-7.32-17.59a82.54 82.54 0 0 0 6.51-38.802c-.78-9.22-19.28-13.53-29.4-8-.07-.81-.45-1.739-.15-2.369 4.583-15.271 26.323-36.79 42.454-37.076zm-363.613 20c14.156-.158 22.641 30.309 24.129 42.086-11.19 19.72-9.33 44.41 2.07 64.18.62 1.36 2.57 2.79.4 4.16-6.58 4.17-13.9 12.29-19.09-1-4.71-12.1-15-20.12-21.15-31.09-9.65-17.23-14-34.42-4.68-53.84 3.74-7.7 4.6-17.09 11.95-22.41h-.04c2.25-1.416 4.388-2.063 6.41-2.086zm194.53 14.745c20 3.44 28 30.52 28.21 48.65 3.33 27.86-17.66-27.47-51.23 28.32-3.4-3.19-9.56-6.23-9.73-9.58-1.15-20.48 6.94-66.87 32.75-67.39zm71.23 3.153c1.402-.022 2.863.177 4.39.636 15.56 5.72 15.15 37.271 14.62 51.041v.02c.1 5.84.82 11.82-3.15 17.65-5.89-24.35-35.7-34.21-47.52-4.92 4.44-23 3.32-37.41 16.4-54.91 4.234-5.192 9.186-9.426 15.26-9.517zm67.938 7.277c2.976.04 5.782 1.02 7.752 3.41 5.17 8.83-2.27 21.86-4.05 31.68-9.63 26.17-23.54 10.09-48.32 44.74 1.44-12.77 3.83-24.19 3.78-35.6-.09-22.69 14.9-33.13 32.06-42 2.656-1.37 5.802-2.27 8.778-2.23zm-212.887 4.144c17.918-.215 26.478 29.214 29.809 46.715 1.89 6.8-5.3 5.32-8 6.92-16.69 9.73-22 25.85-25.81 43-.59 2.63 1.44 7.791-1.56 7.461-4.27-.47-10-3.16-11.92-6.65-14.71-25.98-17.47-68.64 3.53-92.05 5.183-3.717 9.816-5.346 13.951-5.396zm292.578 9.446c34.96-.165 10.44 41.33-6.619 51.37-22.8 16.26-45.18 35.69-71.46 45.33 11.71-24.61 26.37-49.53 39-74.16 7.21-12.38 21.55-20.09 37.37-22.42v-.08a47.4 47.4 0 0 1 1.71-.04zm-371.01 1.533c14.676-.454 34.309 21.988 39.27 32.707 3.37 6.66 1.731 15.8 2.611 23.79 1.12 10.17 5.7 19.24 10.51 30.11-7.33-6.95-13.67-1-16.18 1.57-8.18 8.46-12-1.34-15.29-3.71-6.34-4.55-12.41-8.93-19.88-11.46-19.35-6.51-23.76-50.01-12.56-65.16 3-5.423 7.027-7.708 11.52-7.847zm-93.01 14.1c3.154-.124 7.074 1.592 11.641 5.607 17.73 23.87 36.66 47.1 51.72 72.59 7.13 12.14 11.82 25.87 22.57 37.41-92.602-23.712-108.005-114.74-85.93-115.607zm307.983 18.355c12.388.537 18.894 21.624 19.508 34.092 3.39 14.58.6 28.18-6.24 41-2.81 9.85-15.46-7.56-28.75 9.9-4.27 6.13-6-6.56-12.41-6.08-13.06-2.45 8.67-10.22 3.24-48.19l-.01.08c-.58-10.78 5.29-19.7 13.32-26.15 3.71-3.028 7.084-4.443 10.125-4.638.412-.027.818-.031 1.217-.014zm-53.64 2.148a17 17 0 0 1 6.437 1.463c18.19 11.4 18.24 53.842 7 70.942-1.94 3.32-4.2 2.48-6.18 3.36-8 3.53-15.098 7.84-19.478 17.75-3.24-21.84-4.79-41.691-11.99-60.651l-.01.08c-4.944-14 9.199-33.36 24.22-32.944zm127.007 9.245c38 2.53-9.92 53.999-21.42 66.119-7.29 7.42-15.708 13.73-23.558 20.61-2 1.78-2 .59-3.16-1.11-8.47-12.49-.43-23.43 1.84-35.39 3.33-17.59 13.22-29.67 25.77-40.53l-.01.08c6.68-5.79 14.648-9.08 20.538-9.78zm-179.19 7.675c.421 0 .852.01 1.292.034 11.83 1.28 14.73 11.53 17.69 20 14.23 36.77 9.41 77.2 11.93 115.37 0 1.54-1.25 3.12-2 4.68-20.86-14.25-34.362-37.73-46.132-60.11l-.01.05c-9.39-20.14-10.849-40.35-2.789-60.21 3.284-8.088 7-19.773 20.02-19.814zm279.6 1.24c5.208-.076 10.5.815 15.49 2.784v-.04c7.88 3.11 6.941 11.31 2.891 18.27-23.89 35.78-79.45 49.6-119.65 55.81-8.59.69-17.18 1.42-25.78 2-1.79.13-4.35 1.09-1.5-2.67 10.1-13.35 23.86-20.56 38.76-27.49A343.59 343.59 0 0 0 765.73 856c6.42-5 14.861-7.816 23.54-7.943zM390.585 874.99c8.516.217 23.427 12.47 29.195 14.94 16.29 9.94-5.159 24.06 21.291 57-25.53-13.01-52.27-32.47-59.69-61.54-1.19-4.74 2.45-6 4.52-8.36 1.094-1.5 2.719-2.09 4.684-2.04zm57.75 16.002c5.147-.088 10.92 3.102 16.736 4.649 15.2 4.05 11.09 17.999 15.34 27.119 12.71 25.75 23.87 46 47.47 65.6a143 143 0 0 1-47.57-19.92c-16.76-10.84-32.56-23.14-40.15-42.84-3.29-8.51-6.46-17.54-2.43-26.14 2.975-6.347 6.6-8.4 10.604-8.468zm-132.129 1.877c3.194-.055 5.874.418 6.955 1.621 29.2 35.39 80.53 33.62 114.34 61.7-37.72 6.59-142.56-3.26-138.34-57.46.495-3.066 10.017-5.74 17.045-5.86zm300.256 20.041c15.198.15 20.68 20.082 9.75 31.99-16.09 19-37.71 30.56-61 38.31 7.78-8.76 15.819-17.29 23.309-26.29 13.2-12.63 7.48-40.55 22.92-43.39 1.772-.44 3.449-.635 5.02-.62zm-41.186.145c3.345-.063 7.057.756 11.164 2.666 18.12 19.05-20.77 57.28-36.83 67-.89-5.97-.478-11.91-.548-17.83l-.01.08c-.911-18.236 5.784-51.532 26.224-51.916zm183.346 4.056c8.998.248 17.313 4.524 25.469 9.819C810 941 803.47 966.84 774.8 971c-44.8 4.09-87.08-13-129-26.17-2.5-.8-7-1.51-6.28-4.74 3.21-10.5 25.48-1.12 34.15-5.47 25-2.28 49.58-6.05 73.15-15.44 3.438-1.313 6.76-1.955 9.992-2.063a30.36 30.36 0 0 1 1.81-.006zm50.818 24.159c19.25 7.94 36.94 15.77 58.73 21.28C856.58 968.27 846 974 835 978.71c-3.64 1.58-7.59 2.2-9.85 5.8 3.41 12.81 35.31-10.77 42.92-13.36 4.93 16.91 9.81 33.56 14.57 50.25v.02c2.63 12.83-13.75 7.51-20.14 13.08-2.56 1.47-8.76.4-6.64 4.77.92 1.91 2.81 2.51 5 2.51 10.41 1.39 29.9-16.87 27.63 1.31 13.32 63 20.41 128.12 17.47 192.51-.71 7.65-9.79 2.47-14.76 4.86-4.46 2.15-10.43 1.48-15.73 1.49-3 0-6.5.12-6.46-5-.28-57.29 6.16-117.14-19.41-170.56-3-5.91 5.37-4.58 8-4.94 5-1.13 24.56-4.68 24.58-10.08-.44-2.82-5.89-2.88-8.6-1.78-8.66 4.39-18.56 5.18-28 4.91-6.26-.15-7.55-9.61-12.58-13.28-24.23-23.91 1.74-42.53-46.56-65.41 19-4.84 24.21-17.73 23-34.54zm-493.511 4.8c1.354-.033 2.842.273 4.492 1.01 25.56 11.43 52.34 17 80.41 18.4 38.66.42 39.42-9.46 78.2 10.44-46.69 13-91 22.55-137.57 9.63-14.7-3.48-27.4-8.46-33.11-24.06-1.5-4.1-2.52-8.05.27-11.31 1.993-2.33 4.328-4.037 7.308-4.11zm319.949 2.596c3.677.023 7.507 3.959 10.764 5.184 18 6.79 36.09 13.21 55 17.24 24.29 6.06 48.34 13 73.6 8.62 16.4 2 32.789 18.449 37.509 33.83-1.41 35.92-66.37 13.46-86.17 4.39v-.04c-37.41-13.49-66-40.43-97-63.61 1.939-4.234 4.09-5.628 6.297-5.614zm-367.357 1.475c6.74-.067 13.827 1.303 20.18 3.1 7.45.79 9.72 7.548 12 13.628 6 15.66 18.92 22.09 33.93 26.25 9.57 2.65.37 7.101-.41 9.111-11.67 28.73 15.43 32.82 37 37.74-12.22 5.06-23.8 10.77-36 14.54-6.61 2-10.22-6.74-16.34-8.48-17-4.85-14.85-22.22-21.66-33.66-8.19-13.76-15-28.34-22.63-42.44-.51-.94-1.21-3.94-3.8-2.41-9.75 1.59 24.39 55.63 25.65 65.51-3.53-.87-7.5-1-10.53-2.74-24.17-13.82-50.4-22.61-76.39-32-3-1.1-5.32-.17-6.36 1.88-1.54 3 1.86 2.65 3.42 3.31 21.82 9.78 43.76 16.88 64.66 28.88a190.28 190.28 0 0 1-65 8.66c-1.94-.08-5.38-1.84-5.45 2.71-.07 4.11 3 3.21 5.27 3.45 25.27 2.68 49.72 1 73.68-9.26 6.47-2.77 14.4 4.5 21 9 3.75 3.77 31 11.64 16 15.78-14.78 2.06-26.85 11.52-40.82 14.9-13.97 3.38-26.89 15.72-41.19 10.78-31-9.22-61.5-22-93.82-25.1-7.17-1.66-9.32-5.51-16.42 1.53 1.07 1 2 2.49 3.21 2.75 12.09 2.63 24.33 4.64 36.32 7.62 22.54 6 41.41 12.19 64.72 18.5-40.68 14.39-77.19 26.68-115.62 43.51-1.39.58-2.24 2.45-3.35 3.72 1.92.7 4.22 2.46 5.71 1.94 16.38-5.69 32.68-11.66 48.9-17.78 3.35-1.26 7.15 1.72 10.77-.93-11.42 14.07-22.74 28.21-34.34 42.12-1.64 2-.88 3.07.28 3.91a6.59 6.59 0 0 0 9-1.31c11.7-13.76 25.48-26.55 33.75-42.2 8.55-16.19 24.21-13 36-19.53 2-1.08 4.34-1.38 7.33-2.29-14.94 31.92-30 61.08-49.15 90.08-1.83 3-6.61 6.5-2.54 9.31 5 8.53 39.92-57.09 44.74-63.51 7.12-12.42 11.67-26.32 18.91-38.65 4.07-7 13.87-5.8 20.91-8.75 24.43-8.08 47.52-19.5 71.86-28.1a5 5 0 0 1 3.17.46c.07 2.07.37 4.43-.48 6.19a224.17 224.17 0 0 0-10.44 26c-2.57 7.7-13 5.8-19.71 8.88-7.74 3.18-46.28 28.59-45 35.81 1.48 1.9 3.62.8 5.61-.44 17.14-11.62 32.92-25.47 53.13-32-7.2 19.13-18.36 36.3-27.75 54.36-.82 1.58-3 3-.27 4.31 13.42 3 42.49-71 49.08-84.27 7.92 13.73 15.88 25 21.67 38.93 2.72 6.59 10.94 4.38 7.29-2.83-12.22-43-55.93-48.76 10-74.43-9.4 21.57-7.28 32.13 15.5 38.67 14.18 4.08 8.92 7.45 7.78 16.25-2.62 20.08-26.42 51.13-46 51-15-.09-21.25 2.46-23.87 17.89-2.28 13.38-16.58 15.08-27.31 16.5-18.33 2.42-35.63-1.67-49.82-15.12-3.09-2.93-5.13-11-9.76-7.85-6.85 4.64-10.34 13.63-11.47 21.6-9.08 32.29-59.31 74.89-88.55 39.8-8.24-8.35-14-19-13.58-31.42.2-6.74-1-7-7.65-5-16.9 5.06-42.12.19-54.47-23.49-13.23-22.54-6.41-52.27 19.81-60.4 12.25-4.82 8.59-13.08 5.75-20.9-6.17-17 1.72-43.32 16-54.33 24.77-24.23 78.12 11.5 68.73-9.75-7.94-17.82 2.13-55.72 25.33-55.72 25.35-2.59 31.71 19 38.08 3.18 4.312-12.75 14.585-16.849 25.82-16.96zm356.507 8.853c.967-.06 2.214.626 3.944 2.586 24.61 26.22 56.399 45.33 87.949 62.14 16.17 5.06 30.18 15.48 35.77 32 1.69 4.43 6.58 8.23 4.28 12.9-3.82 44.85-77.38-19.5-91.72-33.73-6.47-6.1-60.63-67.23-46.94-69.59 3.428.75 3.817-6.128 6.717-6.306zm-18.164 14.139c.764-.044 1.42.33 2.207 1.736 14 25.09 30.18 48.34 51.3 68.33 14.12 13.35 31.52 24.13 39.06 43.65 5.77 11.56 15 36.952-.59 44.202-48.36 5.37-89.74-91.642-105.3-129.522-5.17-14.13-2.79-23.13 11.78-28 .59-.195 1.085-.37 1.543-.396zm-116.287 13.346c5.69.088 9.949 1.057 12.043 3.322-21.63 12.31-46.65 15.378-69.92 23.898-20.58 7.54-40.189 20.862-64.209 17.432-10.46-1.49-19.46-5-26.82-12.32-7.08-7 2-13.002 2.6-19.522.33-3.38 8.11-2.47 12.66-1 12.78 4 26 3.191 39 2.611 18.484 1.333 69.99-14.803 94.646-14.421zm87.785.443c.928-.02 1.797.633 2.578 2.658 4.81 12.44 8.18 25.57 14.24 37.34 12.09 23.51 22.44 48 39.52 68.83 8.75 10.69 18.092 22.44 14.692 38.6-1.42 7.21 1 16.09-10.49 19.56-9.57 2.9-13.641-3.38-17.471-8-24.67-28.91-34.06-66.28-42.81-102.42-4.17-16.32-5.52-33-9.09-49.24-.62-2.82.7-5.38 2.2-4.82 2.27.845 4.59-2.463 6.631-2.508zm-50.955 8.842c2.908-.12 4.851 2.32 8.174 1.256-25.58 24.04-50.4 45.42-78.44 65.98v.01c-13.35 10-28.88 15.47-45.58 17.92-21.85.66-43.69-17.33-22.14-36 10.9-11.91 25.75-17.08 40.7-21.9 24.84-9.08 49.86-17.12 75.92-21.94 6.44-1.49 13.33-2 19.17-4.76.803-.375 1.525-.539 2.196-.566zm29.742 1.482c.52.008 1.06.279 1.622.844 5.26 12.36 7.84 25.4 10.33 38.56 2.56 16.12 9.86 31.41 10 47.9 1.37 21 10.9 67.57-20.24 68.1-21.6-4.19-18.44-44.76-16.18-61.54 1.58-9.4-1.06-19.56.88-28.82 2.588-6.348 5.79-65.165 13.588-65.044zm-12.558 4.113c-3 15.12-5.67 30.441-7.74 45.791-6.77 38.46-30.22 76.28-69.33 87.98-.84.26-1.74.34-1 .2-38-6.8-3.55-56.14 10.46-72.55 20.29-22.69 43.79-42.67 67.61-61.42zm270.043 33.563c3.378-.031 6.494 1.607 9.347 6.629 23.86 31.93 32.89 67.64 34.7 106.94 2.32 44.64 2.87 89.509.16 134.269v.02c-2.57 45.15-5.31 91.41-13.35 135.59-4.75-12.64-8.41-25.17-15.31-36.56 7.81-34.75-.64-66.7-20.18-96.82-4-7.12 5.07-12.52 7.64-18.88 12.67-33.67-11-68.32-41.07-82.08-12.88-6.59-.32-10.86 2-14.43 19.22-29 21.34-61.12-15.94-78.71-7.84-3.7.25-6.8.94-9.21 4.12-14.59-3.54-37.53-16.28-46.45 14.65 5.28 29.73 6.31 45.16 6.15 8.334-.262 15.734-6.4 22.183-6.458zM700.16 1074.68c16.2 10.21 31.27 18.26 50 18.68 22.29.49 39.79 32.7 30.43 52.72a128.78 128.78 0 0 1-15.31 24.42c-19.55 23.41 55.71 23.54 45.18 86.54.57 8.57-18.21 26.17-12.54 30.34 36.08 36.27 38.97 106.38-15.58 126.1v.02c-42.94 16.76-64.49-29.86-76.69-18.63-36.87 34.51-77-20-88.43-52.8-6.18-13.82-10.8-28.34-16.54-42.37-1.8-4.41-4.71-3.15-7.52-.07-32.11 35.67-69 3-67.91-34 .46-7.48-2.68-11.53-8.86-14.2-40.85-19.09-35.95-70-20.4-104.54 7.88-24.63 28.89-37.9 37-62 1.41 28.09-8.52 71.54 27.82 77.14 18.09 1.57 28.94-21.12 28.44-37.33-.18-1.35 1.43-2.94 2.22-4.42 5.73 4.57 7 12.47 11.17 18.22 5.08 7.81-2.65 12.75-4 19.06-1.73 8.35-5.26 16.33-8.17 24.42-2.6 7.21-9.92 7.44-15.47 8.73-18.4 4.26-35 12.6-51.69 20.86-2.57 2.25-15.17 5.65-12.86 9.22 1.17 2.37 3.89 3 6.54 1.87 21.51-9.86 43-19.64 65.95-25.51-.51 24.4-13.31 47-14.09 71.81-.31 3-4.6 7.52.6 8.19 4.06.52 4.7-5.28 5.76-9.34 10.61-38.9 21.15-77.34 34.53-115.28 47.53 79.25 13.32 19.39 9.22 122.9-.26 3.6 1.51 5.45 5.13 5.68 4.57.29 2.76-3.15 2.94-5.19 2-22.29 4.8-44.43 12.15-65.73.73-1.48 2.51-2.75 3.68-.56 7.333 12 14.594 24 21.78 36 .53.89.27 2.28.3 3.44.68 23.1.27 46.3 2.38 69.27 1.43 15.63 6.33 31 9.8 46.39 1.54 4.79 6.74 1.78 5.77-2.43-7.71-33.84-8.78-68.17-9.45-102.8 27.29 43.49 61.23 82 103.55 108.88 0-1.47.55-3.54-.19-4.3-17.74-19.06-39.29-36-54.49-56.81 3.15 0 6.54-.64 9.4.28 17 5.49 34.88 8.5 50.76 17.35.79.43 2.53-.85 3.83-1.33-10.92-20.11-57.92-19.43-76.83-29.62-12-7.55-17.7-26.9-27-38.3-5.72-6.63-1.37-8.29 4-8.41 27.47-.56 55-.71 82 5.64 2.28.54 5-.6 7.43-1-3.75-13.5-79.13-16-92.57-12.33-16.76 2.85-18.21-10.73-23.6-18.31-12.4-17.55-21.69-37.2-32.63-55.81 9.48-1.48 18.77-2.84 28-4.4 11.15-1.89 16.06 8 23.48 12.74 18.89 12.18 39.22 21.47 59.85 30 2.36 1.22 5 2.54 6.38.06 1.53-2.64-.45-4.95-3.14-6.3-23.48-12.89-47.45-20.46-68.15-38.53 11.51-1.78 80.33 4.59 77.23-4.5-.07-2.62-2.82-3.68-5.85-3.67-28.37.11-56.74 0-85.1.13-10.17.79 1.47-8.88-3.78-29.44 49.74 45.51 78.68 1.66 44.14-46.84zm-219.99 90.26c-6.23 21.91-7.68 40.76.4 60.1-7.4-1.42-57.18 2.72-51.3 14.77 2.47 4.28 5.94-1 9.06-1.5 12.68-2.15 25.4-4 41-6.39-8.29 6.1-57.18 57.93-47.9 61.76 3.47 2.94 5.92-2.1 7.9-4.42 8.42-9.89 16.5-20.07 24.95-30.45 2.06 11.26-1.57 22.44 2.5 33.11 1 6 5.41 3.24 6.1-.88 0-12.2-.68-24.4-.66-36.6 0-9.1 7.8-13 14-16.83 2.49-1.52 5 4.68 6.79 7.82 4.5 7.79 13.22 10.16 19.66 15.45 11.66 20.27 1.17 38.6-21.79 46.12-38.69 15.73-81.37.8-80.94-45.64 3.21-45.76 40.46-66.22 70.23-96.42z"/><rect style="fill:#e4b09b;fill-opacity:1;stroke:#fef8c8;stroke-width:0;stroke-linejoin:round;paint-order:markers fill stroke" width="448.718" height="84.819" x="8.974" y="1343.305" rx="75" ry="75"/><rect style="fill:#e4b09b;fill-opacity:1;stroke:#fef8c8;stroke-width:0;stroke-linejoin:round;paint-order:markers fill stroke" width="340.781" height="84.819" x="64.53" y="524.257" rx="75" ry="75"/></g><g data-name="Red Japanese Frames"><path d="M0 20v1560a20 20 0 0 0 20 20h936a20 20 0 0 0 20-20V20a20 20 0 0 0-20-20H20A20 20 0 0 0 0 20zm924 1528H52V52h872z" style="fill:#000;fill-opacity:1"/><path d="m952.1 15.41-23.41 23.42a4 4 0 0 1-2.83 1.17H50.14a4 4 0 0 1-2.83-1.17L23.9 15.41A2 2 0 0 1 25.31 12h925.38a2 2 0 0 1 1.41 3.41zM40 1549.86V50.14a4 4 0 0 0-1.17-2.83L15.41 23.9A2 2 0 0 0 12 25.31v1549.38a2 2 0 0 0 3.41 1.41l23.42-23.41a4 4 0 0 0 1.17-2.83zM936 50.14v1499.72a4 4 0 0 0 1.17 2.83l23.42 23.41a2 2 0 0 0 3.41-1.41V25.31a2 2 0 0 0-3.41-1.41l-23.42 23.41a4 4 0 0 0-1.17 2.83zM925.86 1560H50.14a4 4 0 0 0-2.83 1.17l-20 20a4 4 0 0 0 2.83 6.83h920.55a2 2 0 0 0 1.41-3.41l-23.41-23.42a4 4 0 0 0-2.83-1.17z" style="fill:#000;fill-opacity:1"/></g></svg>