<svg xmlns="http://www.w3.org/2000/svg" viewBox="0 0 976 1600"><defs><clipPath id="a"><path d="M960 22v1556a6 6 0 0 1-6 6H22a6 6 0 0 1-6-6V22a6 6 0 0 1 6-6h932a6 6 0 0 1 6 6z" style="fill:none"/></clipPath></defs><path d="M960 22v1556a6 6 0 0 1-6 6H22a6 6 0 0 1-6-6V22a6 6 0 0 1 6-6h932a6 6 0 0 1 6 6z" style="fill:#9f97ca;fill-opacity:1" data-name="Paper Backing"/><rect style="fill:#d8d5e9;fill-opacity:1;stroke:#fef8c8;stroke-width:0;stroke-linejoin:round;paint-order:markers fill stroke" width="475.642" height="74.294" x="486.782" y="673.171" rx="75" ry="75"/><rect style="fill:#d8d5e9;fill-opacity:1;stroke:#fef8c8;stroke-width:0;stroke-linejoin:round;paint-order:markers fill stroke" width="499.451" height="91.754" x="199.481" y="284.282" rx="75" ry="75"/><rect style="fill:#d8d5e9;fill-opacity:1;stroke:#fef8c8;stroke-width:0;stroke-linejoin:round;paint-order:markers fill stroke" width="197.864" height="91.754" x="5.83" y="503.329" rx="75" ry="75"/><rect style="fill:#d8d5e9;fill-opacity:1;stroke:#fef8c8;stroke-width:0;stroke-linejoin:round;paint-order:markers fill stroke" width="61.905" height="133.333" x="177.778" y="861.905" rx="75" ry="75"/><g clip-path="url(#a)" style="clip-path:url(#a)" data-name="Wikipedia Cropped"><path d="M521 1570.25c-64.87-2.87 22.53-60.56 49-42.06 38.27 12.96-30.8 45.89-49 42.06zm274.09-33.32c-21.61-1.57-39-8.38-44.51-24.76-6.17-13 24.89-16.9 33.95-17.44 9.86-.92 53.27 11.27 43.82 25.84-4.43 1-4.3 5.24-4.73 8.77-7.22 5.73-19.39 6.88-28.53 7.59zm114.54-59.27c-24.74-13.53-20.66-90.75 9.1-95.74 23.65 22.44 33.15 95.08-9.1 95.74zm-314.06-9.09c-26.19-7.43-51.82-54-23.83-70.65 24.36 4.15 52.71 58.91 23.83 70.65zm235-22c-31.39-7.77-37.59-66.79-6.81-79.27 24.4 16.07 36.16 66.91 6.85 79.22zm-126.28-8.35c-24.68-.93-64.56-7.12-71-35.13 2.36-7-16.18-9.44-4.68-15 28.7-3.24 66.39 2.4 83 28.66 1.78 15.13 35.39 19.25-7.28 21.42zm187.81-79.57c-10.17-.75-43-.93-29.46-15 4.35-20.91 28.4-34.84 48.25-34 13.51.4 25.81 2.35 34.62 10.27 2.55 4.71-1.83 10.06 4 14.12-9.43 17.63-37.75 23.22-57.37 24.56zm-34.38-307.09c-38.45 2.9-82.52-34.06-19-36.24 13.73 1.36 43.19 2.75 47.15 18.43-3.56 4.58 3.25 7.65 2.05 12-7.53 6.6-21.43 4.68-30.16 5.76zm-91.22-81.17c-17.69 1.18-48.74-14.21-42.82-33.77 49.76-35.9 137.74 24.54 42.86 33.72zm127.85-33.63c-16.73-13.9-5-69.73 31-79.64 18.71 19.68 8.1 74.48-30.96 79.59zM836.71 847c-5.19-4.61-11.05.54-15.07-3.58-6.38-28.07 5.36-51.91 25.4-66.16a12.6 12.6 0 0 1 5.28-2c5.55.38 8.47-13.3 13.4-4.09 5.21 21.83-8.15 64.51-29.01 75.83zm-113.52-27.4c-33.8-7.07-77.89-22.09-73.75-59.11 10.49-18.74 51.18 5.91 61.66 13.86 12.75 11.73 37.55 38.95 12.09 45.25zm50.62-84.2c-6-.51-60.67-3.79-52.34-18.87 3.68-1.44 4-5.39 3.36-8.77 3.14-8.09 16.8-8.63 24.34-12.42 17-3.75 38.46-.1 53.75 6.59 1.59 11 10.81 8.4 18.83 11.5 9.76 15.15-36.64 21.99-47.94 21.97zm147.76-34.09c-19.57-34.52 9.43-83.56 46.52-96.65 20.06 34.22-20.18 88.06-46.52 96.65zm-299.4-38c-50.27-3.26 5.7-55.34 31-48.89 9.22.66 24.13 1.27 34.15 4.42 3.51 3.05-.42 9.24 3.89 12 2 1.46 1.8 4 .76 6-12.79 19.45-45.17 24.7-69.8 26.42zm-107.25-52c-5.51-1-19.56 1.6-18.29-6.93.87-6.34-5.88-10.63-.21-17.19 19.87-30.44 64.67-28.65 93.72-18.75 12.91 18.18-55.9 44.82-75.22 42.77zM378.09 607c-46.21-22 51.62-83.32 79.51-63.2 2.91 33.76-47.76 55.95-79.51 63.2zm316.73-96.61c-22.26-14.13-35.35-55.16-19-83.61 32.75 10.49 46.53 64.02 19 83.56zm-216.36-2c-26 1.43-82.35-30.6-68.3-59 33.33-5.34 68.73 20.54 72.08 50 8.29 2.67 3.51 10.73-3.78 8.98zm127.75-18.19c-80.91-47.59-21-146.15 8.69-44.53-.89 10.15 8.38 28.56.65 35.47-6.2-.05-3.81 8.86-9.34 9.04z" style="fill:#50b271"/><path d="M556.47 1416.15c-19-4.92-38.1-6.22-41.37-17.88 3.47-25.79 13.29-51.57 18.88-77 8.08-5.38 7.17-11.75 17.58-16.59 5.38-2.25 14.62-7.42 7-13.5-6.54-5.64-18.38-8.27-22.08-16.83-12-5.85-27.44-11.89-39.56-20.27-2.89-2.35-3.16-8.17-8.12-7.72-11.67.15-24.1-10.15-34.09-15.74-1.67-5.35-6.12-7.34-11.12-5.13-9.66-3.51-18.85-9-27.9-12.66-4.11-5.76-6.37-6.81-13.35-5.83-20.89-9.85-40.56-15.37-61.6-23.35-28-3.45-57.45-1.91-80.2 17.08-5.2 12.72 12.31 38.58 22.08 51.62 7.48 2.95 3.88 18.9 11.43 22.1 1.78-1.17 4 5.36 5.05 9 8 12 5 35.74-13.29 35.57-9.82 6-15.83 17.91-31.5 16.16-15.13-3.19-2.65-35.57-16.35-45-5.41-17.48-11.56-13.16-22.39-23.8-21.42-14.59-52.37 124.07-83.36 126.48-2.76.68-7.41.12-9.67-2.09-6.06-5.17-15.93 1-23-4.25-32.92-10.08 1.45-34.27 7.86-52.11 9-20.88-9.08-46.14 3.52-64.42 28.87-24.5 68.34-46.55 75-89.4-13.1-9.75-14.36-31.94-25.14-42.52-30.28-45.57 31.53-50.26 56.12-67.2-34.49-54.17-65.26-124.15-83.35-185.75-15.05-28.13-18.5-63.45-3.34-92.18 7.72-16.59 25.55-16.14 29.42-1.18a6 6 0 0 0 5.85 4.7c12.84 6.69 25.64 23.65 39.54 30.12 49.15 39.44 112.91 38.9 172.83 54.14 207.69 45.78 398.29 170.19 520.27 346-22.28 55-78.14 98.06-131 125.16-18 7.42-54.32 29.56-68.08 23.2-1.52-3.76-5.62-4.14-9-3.06-10.36-6.58-21.87-13-28.65-20.59-6.14-6.44-22.32-7.8-30.22-12-48.03-15.13-53.46 51.29-74.7 76.72zM188.41 885.51c-29 10.31 30.3 145.44 44.79 95 11.89-18-3-26.24-12.41-39.24-14.87-16.54-18.24-42.83-32.38-55.76z" style="fill:#9a7b66;fill-opacity:1"/><path style="fill:#c578af;fill-opacity:1" d="M25.396 36.508v331.117c23.557-5.293 43.657-20.942 48.424-49.525 2.92-14.15 24.56.45 34.92-6.15 36.28-8.63 64.34-34.25 52.7-67.63 20.42-9 42.82-15 48.9-42 3.92-9.24 15.26.61 22.2-1.39 15.12.69 29.8-4.41 38.8-15.08 14.37-12.35 6.07-32.75 10.37-47.35 54.27-.33 90.19 69.89 153.19 44.4 29.79-7.68 18.64-37.7 32-46.18 22.77 5.99 35.15-43.35 44-23.35 5.94 48.88 50.02 31.53 50.31 57.88 17.91 39.59 65.34 6.27 102.19 21.77 32.08 2.16 46.42-40.76 28.18-63.43 10.93-28.42 15.43-6.98 33.76-7.7 49.47 19.13 100.83-7.96 133.47-46.48 17.737 27.076 49.067 55.3 84.047 59.637v-98.54H25.397zm818.407 111.85c-31.875-.122-28.84 70.813-7.352 84.363 21.081-18.278 25.546-57.4 18.389-81.9-4.065-1.678-7.738-2.451-11.037-2.464zm-7.352 84.363-.021.02h.05l-.029-.02zm-518.767-30.852c-21.877-.39-2.665 69.382 36.316 69.871 15.27-12.47-11.11-52.57-19.8-61.55-7.005-5.77-12.465-8.248-16.516-8.32zm413.267 6.73c-21.953-.211-16.517 52.394 40.399 57.868 15.81-6.145-5.53-27.228-10.2-36.336-12.515-15.518-22.88-21.46-30.199-21.531zm40.399 57.868-.01.004h.05l-.04-.004zM486.22 221.22c-26.22 2.89-56.22 43.46-40.86 66.05l.04.02c21.37-7.13 70.26-48.15 40.82-66.07zm456.637 5.299c-20.764 4.945-49.58 26.825-30.906 37.294 8.402-1.329 20.096-1.081 30.906-2.6V226.52zm-30.906 37.294c-.013.003-.028.004-.04.006h.05l-.01-.006zM552.023 297.73c-.655.005-1.333.025-2.033.06-21.16 4.92-44.9 41.84-27.85 57.69 25.309-.817 71.198-58.06 29.883-57.75zm178.15 16.13c-12.692-.096-14.794 27.798-3.474 35.11 16.57 14.05 32.77 23.56 51.57 26.56 14.3-13.43-31.55-51.83-38.85-57.56-3.52-2.864-6.61-4.09-9.245-4.11zm-437.189 8.83c-10.512-.077-18.324 2.12-19.273 7.63-7.72 26.99 27.51 33.77 45.43 32.77 83.351-10.86 11.386-40.127-26.157-40.4zm649.873 1.462c-25.364 7.308-51.962 30.72-12.498 31.118 2.902.556 7.411.147 12.498-.95v-30.168zm-212.982 87.446c-22.076.303-4.709 48.169 45.355 48.812h.02c17.17-4.01-8.25-26.9-13.82-33-14.344-11.54-24.797-15.905-31.555-15.812zm212.982 3.783c-31.839 7.923-63.866 36.396-7.396 35.789 2.349.162 4.846 0 7.396-.422v-35.367zm-195.351 88.015c-31.579.477.48 55.106 39.033 50.893h.022c19.58-4.92-19.032-43.12-29.622-49.78-3.625-.805-6.757-1.153-9.433-1.113zm195.351 14.598c-30.074 9.313-56.825 35.54-6.318 36.506 1.873.01 4.017-.102 6.318-.324v-36.182zM194.38 1313.166c-4.682.035-9.124 2.004-11.908 6.744-7.49 21.2 7.6 49.88 27.75 64.09h.02c11.49-11.85 10.888-40 3.708-55.74-.82-8.184-10.632-15.161-19.57-15.094zm90.834 17.504c-17.76.536-34.682 36.46 15.787 62.33 12.31-2.66 1.82-27.07 2.7-36.86-2.17-18.646-10.414-25.714-18.487-25.47zm84.117 3.92c-16.84-.173-11.895 60.8 14.45 66.49 13.95-10 5.68-36.98 2.68-52.51-7.129-9.918-12.837-13.936-17.13-13.98zm87.86 6.73c-33.03 5.49-13.99 60.68 7.41 65.68 16.76-4.32 15.4-65-7.41-65.68zm-357.33 74.385c-15.412-.157-34.57 3.945-40.19 8.135-18.495 4.319-22.197 34.664.642 37.248 25.768-2.356 44.272-16.27 57.258-27.957 9.365-12.85-2.3-17.268-17.71-17.426zm-39.547 45.383-.024.002h.041l-.017-.002zm132.474-6.274a32.32 32.32 0 0 0-1.383.012c-28.8.857-95.324 38.216-48.074 52.555 14.67.04 27.47-3.1 40.51-15.3 26.53-27.258 22.915-37.087 8.947-37.266zm132.744 14.555c-33.485.311-107.809 37.833-49.691 55.16 28.45-3.37 54.46-31.37 58.58-54-2.398-.828-5.425-1.192-8.889-1.16zm110.781 16.217c-32.088.639-103.828 41.504-41.312 51.625 20.87-1.41 37.54-11.46 50.94-30.63 8.768-14.929 3.183-20.754-8.13-20.995a36.49 36.49 0 0 0-1.498 0z"/><path style="fill:#2b2f13;fill-opacity:1" d="M216.12 1.5c-13.32 1.56 13.64 16.84 7.2 46.48a100.1 100.1 0 0 1-14.43 39.39c-4.8 7.76-12 4.1-18.3 3.38-2.61-.3-7-2-7.22-3.49-2.63-20.73-18.16-28.39-34.86-34-20.95-7-32.94-2.48-45.8 15.49-1.71 2.38-3.89 2.29-6.19 2.12-14.11-1-27.16 3.2-39.4 9.25C-6.25 108.25-3.27 233.44 82.51 214c4.47-1.25 9.95-11 16.74-.4 26.79 46.79 64.21 21.66 61.57 49.51-8.28 51.38-117.37 67.89-103.72 4.72 3.7-9.4 8-20.47 20.15-18.24 10.92 2 15.42 11.37 13.24 23-.25 1.33 1.24 4.26 1.8 4.22 2-.11 5-.55 5.92-2 8.79-13-2-34-17.49-35.95-39.63-.81-49.84 56.9-16 73.9 4 2.17 6.22 4.49 4.43 9.64-8.3 23.6-32.73 50.93-60.02 40.22-2.29-1-4.2-3.38-6.72 0-2.5 3-.52 5.32 2.46 6.75 27.78 17.17 59.47-11.22 70.46-36.2 2.22-4.64 1.69-13.89 6.48-13.38 39.42 5.73 81.65-15.79 87-56.55 2.67-5.82-4-15 .61-16.22 18.27-4.79 32.32-14 42.13-30.56 1.83-3.11.55-10.89 10.24-10.12 40.43 9.41 72.13-19.86 63.67-61.47-1-3.48 6-1.16 7.87-1.44C310 145.79 321.68 161 336 169c35.75 25.58 116.31 47.63 129.34-13.64.35-4.14 1.45-11.42 3.21-11.74 17.18-3.14 30.83-10 35.73-29.58 3.54 23 14.64 36 35.23 45.47 5.13 2.37 14.12.72 15.22 8.19 3.26 22.25 31.29 38.56 52.17 30 11.63-4.74 23.72-6.77 36.13-2 37.74 17.46 75.62-22.75 56.21-58.87-3-7 .46-10 4.33-13.61 1.66-1.44 4.11-4 5.56-3.62 49.22 28.81 118.43 8.82 149-38 15.035 32.429 53.845 60.367 91.077 59.504v-9.708c-25.092-1.247-48.683-15.58-67.326-32.255-28.35-22.89-4.78-56.14-9-85.92-9.58-29.06-9.79 24.08-11.57 30.59-2.88 22.86-13.3 40.79-31.18 54.32-30.78 23.3-64.902 32.95-102.602 20.18-6.89-1.13-19.91.52-14-12.17 1.63-4-1.5-16.52 11.31-10.56 12.41 5.78 25.532 5.848 38.132.778C795.54 83.43 826.26 52 827 15.15c0-2.66-.18-6.42-3.22-6.33-2.87 0-4.13 3.25-4.59 5.85-7.07 43.3-57.47 94.14-102.32 66.84-10.08-7.22-10.19 26.76-28.09 41.71-28.14 27.78-67.47 38.48-106.35 34.91-14.86-1.29-29.43-4.07-42.86-9.82-31.89-11.09-37-80.31 7.95-72 7.75 2 14.72 13 26.61.41 20.65-31.56 102.27-10.16 71.81 28.49-9.43 8.29-33.81 16.9-42.17 4.8-4.14-6.77-1.16-15.15 5.81-20.67 2.52-2 8.82-2.24 5.16-7.36-2.76-3.87-7.26-1.13-10.18 1.1-9.26 7-14.83 15.81-11.65 28.16 5.14 19.57 29.66 17.53 44.77 11.91 75.14-32.95-20.25-102.37-64.15-61.88-3.57 2.72-7 9.6-13.11 6.85-17.11-7.72-32.32-4.6-46.93 6.74-10.3-37.2-57-48.9-82.58-20.66-13.4 15.11-6.08 4.37-29-1.72-30.48-8.9-58.89 19.74-54.83 48.64.46 3.21-.89 4.67-2.8 5.48-24 7.86-47.36-21.35-41.22-44.67 4.78-12.1 2.87-59.29-13.71-58.48-2.7 1.19-2.25 4.41-.69 7.6 12.83 26.23 8.1 61-19.54 74.45-20.89 15-23.74-2.08-44.07-.62-2.36.24-2.42-1.35-1.54-2.88 12.91-22.86 19.81-66.16-7.39-80.5zm249.31 47.49c23.304.023 44.095 18.242 34.03 49.8-2.92 9.59-5.23 19-12.88 25.68-29.44 26.53-50.11-21.48-85.86-4-52.58 17.46-58.61-56.47-7.52-58.1 33.15 2.77 27.24 28.76 36.81 28.35 4.19-1 3.27-5 3-8-.6-5.58-9-11.3-4.17-15.73 9.653-12.298 23.517-18.012 36.59-18zM134.479 61.236c6.62-.134 13.485 1.518 19.05 4.975 11.07 6.79 21.242 12.46 19.932 28.11 1.54 15.52 27.54-5.42 38.78 23.92 4.27 10.81.769 21.818-10.231 29.868-12.65 9.26-25 18.6-40.64 8.56-8-5.13-10.24-2.368-15.08 3.802C135.63 174.08 119.67 174.19 109 162c-14-23 5.67-59.44 33.86-37.86 2.56 2.16 3.72-.32 5-1.2 2.68-1.82.68-3.7-.64-5.34-8.69-10.9-27.76-11.46-40.11-2-15.36 11.73-14.59 38-6.83 51.42 10.86 18.73 33.61 18.37 48.26 4.75 5.67-5.26 9.27-4.87 15.7-2.91 19.66 6 45.23-8.11 55.21-26.54 10.19-18.12.35-29.88-8.17-44 32.89-14 63.47 23.8 65.49 54 6 32.3-30.81 54.31-59.47 41.21-17.07-8.65-6.95 50.65-69.51 43.08-43.53-6.24-36.73-52.57-56.45-38C61.4 217 24.6 197 23.15 162.27c-4.82-43.16 32.28-91.1 79-78.44 5.53 1.75 7.29-5.77 9.68-10.62 3.818-7.765 12.972-11.777 22.649-11.974zm158.095 18.141c1.117.098 1.905 2.048 2.295 3.053 4.26 24.66 29.452 40.18 52.352 32.9 7.36-2.29 7.168 5 10.058 7.76 28.4 27 58.001-10.53 87.461 14.76 4.29 3 14.25.26 12.11 10.35-8.91 52.18-78.94 36.77-110 14.65C330 151.22 315.7 135 294.38 135.79c-19.39-4.1-16.32-27.66-33.31-35.94 12.98-3.7 23.11-9.53 30.28-19.85.442-.483.852-.656 1.224-.623zM691.48 137.16c3.381.06 2.815 6.077 3.05 8.29 5.47 40.66-24.68 51.17-58.84 38-26-4.44-54.58 20.61-70.8-13.82-.51-1.35-2.07-3.03 1.05-2.43v-.03c38 5.66 81.09 4.48 111.63-21.65 3.62-3.64 8.39-7.34 13.18-8.29.262-.051.505-.074.73-.07zm155.366 3.67c-.933.004-1.911.069-2.936.2-39.14 10.8-32.5 61.23-17 88.43 2.64 5.92 8.57 10.53 8.57 17.36-4.83 15.42-.67 31.41-5.22 46.77-15.6-13.76-38.52-20.6-48.51-39.66-11.05-20.26-30.66-60.27-58.76-49.71-13.21 6.27-12.68 17-8.5 29.85 5 15.36 26.94 29.26 40.17 33.25 10.45 3.16 22.79-1.18 31.38 6.26 9.68 8.39 20.8 14.73 30.24 23.18 4.95 4.44 14.24 5.19 14.46 13.86.34 28.71-.51 57.43 1.76 85.89-21.39-12.52-44.55-24-57.37-47.85-5.34-11.85-42.13-50.37-54.47-35.66-26.29 36.66 31.1 60.92 61 65.08 17.24 2.45 29.57 19.15 45.21 27.77 13.46 3.52 5.39 50.17 8.27 63.28.93 12.75 2 20.43-12.71 7.81-10.68-9.15-25.65-14.17-34.19-24.7-12.61-15.56-23-32.42-41.29-42.61-9.67-5.39-18.82-6.18-27.31.11-20.36 18.62 10.13 42.78 27.78 49.5 19.25 9 44.43 0 59.84 19.86 9.31 12 33.18 9 30.51 34.5-2.09 20.09 3.15 40.93 5 61.45.18 2-.16 2-2.11.73-9.31-5.86-19.08-11-28.33-16.93-4.59-3-10.68-3.92-13.28-9.82-9.26-20.29-42.38-71.87-66.31-44.25-13.71 22.81 11.37 44.54 29.7 50.32 16.83 5.31 35.87 1.54 50.86 15.38 12.7 11.64 34.49 14.33 33.7 38.13-.86 25.38 5.08 50.06 10.58 74.71-32.88-32.68-74-54.51-112.4-79.94-6.14-4.08-15.44-4.64-18-12.9-5.11-16.63-10.52-33.31-13.73-50.37-2.4-12.74-13.28-24.45-2.87-39.5 6.94-10 5.4-23.21 2.79-35.81 0-11.82-34.8-64.31-43.23-41-12.3 29.57-7.67 71.24 20.51 90.54 2.07 1.18 5.24-1.34 6.39 2.87 6.92 21.78 10.81 45.6 19.84 66.22-.24 2.32-2.8.81-4.56-.45C684 561.51 638.05 548.6 628 511.67c-2-7.93-10.33-17.4-8-22.65 5.07-11.25 4.88-21.31 3.21-32.63-1.93-27.65-15-59.73-46.87-61-4.37-.41-11-1.13-13.62 6.51-12 33.26 2 71.17 32.26 89.5 5.82 3.56 14.09.56 17.46 6.5 4.91 8.63 7.49 18.54 13.76 26.56.38.48.17 1.42.23 2.14a862.06 862.06 0 0 1-137.84-109.09c-3-3.19-.15-4.56.8-6.17 4.42-7.51 9.22-14.8 13.88-22.18 5.45-8.64 9-21.76 16.71-25.05 18.93-8.06 35.19-18.32 47.12-34.81 15.86-20.24 3.27-48.28-23-35.7-19.11 7.65-28.19 23.85-31.46 44.09-1.25 7.74 3.44 15.53-2.11 23.25-8.46 11.77-15.43 24.62-23.85 36.43-2.59 3.64-4.22 14.9-10.45 8.79-18.78-18.39-35.37-39-53.42-58.18-4.86-5.17-4.57-7.5 0-12.5 5-5.45 8.09-12.65 12.29-18.9 5.42-7.72 5.85-20.45 15.16-25 22.6-10.33 40.34-24.63 49.7-48 3.17-7.94 4.18-16.46-1.17-23.65-4.91-6.59-13.5-7.08-19.82-4.27-25.05 11.14-40.47 30-42.05 58.36 3.53 23.08-11.4 39.72-22 58.46-1.6 2.8-2.38 3.19-4.67.27-10.09-12.93-20.72-25.43-30.71-38.44-5.3-6.9-13.09-14.2-13.81-21.87-.52-24.3-21.68-84.59-52.41-77-10.18 3.72-9.72 15.14-10.62 25-1.29 14.35 11.07 36.52 22.67 45.22 11.13 8.36 27.19 6.12 35.73 19.84 10.59 17 23.13 32.82 35.27 49.77-13.28-2.41-25.87 6.45-39.1-.33-19.37-9.93-39.77-17.38-61.54-19.81C267 307.75 253.56 341 275.68 358c22 16.1 46.89 13.81 70.42 4.3 14.06-5.68 24.82-19.79 42.58-15.49 5.61-2.08 14.25-2.13 18.26 1.79 49.12 54.29 98.78 109.6 159.3 151.32-19.35 2.73-37.12 19.63-57.24 5.19-4.63-3.5-13.44-2.65-15.51-8.12-3.81-10.07-11.07-17.52-17.22-25.48-10.23-17.29-69.92-45.77-73-12.91 7.37 32.42 47.14 62.18 81.58 54.9 3.69-.77 4.72-6.17 9.63-3.76 6.5 3.19 13.44 5.49 20.34 8.22-9.47 3.82-18.89 7.46-28.19 11.41-8.54 3.63-18.38 12.32-25.07 10.28-37.47-12.26-81.12 7.09-98.25 41.87-13.54 27.6 14.19 32 33.95 25.08 23.65-5.82 41.86-19.88 58.39-37.11 6.32-6.58 6.57-17.08 12.55-21.7 26.25-15.91 58.07-23.4 85.83-36.82 12.51-5.62 22.89-6.55 33.75 3.93 15.71 16.65 37.6 24.94 55 39.37-4.33 4.61-10.45 1.51-15.68 3.77-11.75 2.27-25.58 9.51-34.84 5.69-17.4-7.19-34-9.77-52-7.44-18.91 2.43-36 8.2-47 25.24-8.29 12.84-5.77 28.8 5.58 32.85 34.48 9.06 72.58-8.49 96.84-33.22 1-1.11 1.8-3.61 1.23-4.7-2.67-5.12 1.39-4.74 4.07-5.34 9.93-2.25 19.83-5 29.7-7 8.54-1.77 15.84-7.71 25.28-1.57 25.9 17.06 52.41 33.18 78.65 49.65-1.77.63-3.64 1.83-5.54 1.88-10.24.25-20 7.74-30.31 3.31-18.11-7.76-37.53-9.26-56.15-7.68-15.47 1.31-32.21 7-40.07 23.32-3.66 7.59-11.57 15.63-5.53 25 20.27 18.47 63.45 7.3 86.33-5.31C706.25 642.3 694 631.38 702.56 629c8-1.7 15.84-4.08 23.83-5.83 6.65-1.45 15.12-5.55 19.84-3a682.46 682.46 0 0 1 124.46 89.61c-21.47-1.47-41.86.15-61.21-11.41C780.85 684.38 744 681 719 704.08c-4.33 4-9.1 8.31-6.44 15.13 10.53 25.77 82.34 25.43 102.76 12.51 12.54-7.31 23.93-20.08 39.82-14.66 16.43-1.45 28.07 4.27 38.46 18.3 16.3 22 33.27 43.29 46.52 67.48a568.385 568.385 0 0 1 9.087 17.246v-22.984a270.6 270.6 0 0 0-10.678-17.752c-11.15-17-24.68-32.16-13.6-54.44 2.73-5.49 1.931-14.73 5.901-17.24 7.233-4.559 13.149-10.222 18.377-16.418v-16.586c-4.333 5.785-9.145 11.406-14.217 16.994 3.734-13.804 8.748-26.822 14.217-39.681v-21.891c-10.947 22.041-20.364 43.677-27.477 67.271-6.975-32.857 4.698-56.678 27.477-77.695v-11.693c-28.526 19.398-46.95 53.73-38.727 88.638 1.55 5.49 7.57 9 6.93 13.68-1.34 9.91-4.78 19.531-7.39 29.361-8.3-10-16.38-20.1-24.8-29.87-5.76-6.68-15-12-17.38-19.62a187.57 187.57 0 0 1-9-46.7c-.92-17.34-3.63-34.58-5-51.9-.75-9.33-4.23-19.56 10.41-23.29 13.81-2.82 26.45-15.09 40.68-15.72 14.026 6.94 29.359 8.376 44.277 5.73v-8.999a63.28 63.28 0 0 1-33.457-2.29c-10.14-3.56-.38-9.1.6-9.76v.039c10.204-6.943 20.305-14.366 32.857-17.125v-10.09c-9.771 2.181-20.845 7.105-32.707 15.795-7.83 5.41-8.87 15.77-17.77 19.11-12.74 4.79-25.47 9.63-38.4 13.84-2.59.84-5.92 8.69-8.54 1.1-5.86-23.18 0-47.82-5.08-71.39-.46-2.59-2.16-7.26 3.17-9.84 10.91-5.29 20.84-12.9 32.09-17.1 8.43-3.15 13.58-12.64 27.19-7.5 9.875 4.375 25.627 4.809 40.047 1.21v-11.046c-5.608 2.113-11.298 3.59-17.258 2.727-4.43.43-33.218-2.552-22.488-8.852v.041c11.119-11.137 24.94-17.219 39.746-19.943v-8.848c-8.556 1.068-17.024 3.774-23.127 6.76-12.92 5.71-20.52 17.93-31.26 25.92-13.58 10.1-30 16.25-44.61 25.13-6.5 4-5.12.502-5.17-3.368-.23-20.63-.38-41.261-.95-61.881-.13-4.7-2.64-9.76 3.62-12.2 14.79-5.76 27.3-15.55 41.14-23 21.247-17.147 32.5-.511 60.357-7.804V348.32c-11.7 3.553-24.126 3.928-36.338.41 9.686-13.619 22.08-19.977 36.338-21.533V316.97c-7.676 1.1-15.557 3.691-22.746 7.2-11.33 5.68-16.72 18.432-26.3 25.212-17.79 12.6-37.85 21.998-56.42 32.408 1.08-16.46-8.001-65.66 2.259-76 25.52-13.43 46.14-40.198 77.31-38.318 6.044.672 16.101-.22 25.897-2.776v-9.44c-11.863 3.695-24.448 3.438-36.768 4.505-3.15.31-3.729-1.76-2.279-4.76 8.073-16.584 22.606-23.206 39.047-25.098v-9.26c-14.644.704-31.09 8.754-39.207 18.378-7.82 9.37-9 23.07-22.61 29-16.37 6.59-29.19 20.72-44.75 28.7.79-16.94-1-33.9-1.17-50.85-.34-11.69 9.72-18.49 13.56-28.25 6.17-17.526 20.723-76.897-8.184-76.79zm.074 10.88c7-.51 7.49 7.59 6.88 12.69-.56 23.3-2.24 46.42-17.37 64.35-1.59-1.53-4.37-2.9-4.59-4.6v-.01c-2.22-17.48-12.55-33.86-6.87-52.43 3.43-11.21 10.74-19.2 21.95-20zm-527.682 53.491c.267-.012.53-.008.793.01 4.555.31 8.559 4.927 12.02 8.6 13.58 14.29 19.779 31.888 22.869 50.878.53 3.23-.11 3.65-3.54 2.41-26.27-9.54-38.32-24-38.32-47.42-.54-4.74-.38-12.259 3.73-13.929a7.322 7.322 0 0 1 2.448-.549zm416.102 7.71c11 1.86 17.87 13.389 25.52 23.689 3.03 5.57 14.76 19.98 11.55 25.54-18.77-1.24-38.87-11.47-48.53-29.09-5.47-9.79-1.84-19.63 11.46-20.14zm-248.996 12.314c1.323.061 3.381 1.075 3.486 1.775.63 4.14 2.07 8.94.65 12.48-8 21.87-25.22 33.56-45.09 43.81-1.54-26.29 14.34-52.19 40.44-58.03.151-.034.325-.044.514-.035zm70.478 75.255c1.908.01 3.753.576 5.188 2.23 10.87 19-21.34 42.06-36.75 47.94-8.76 3.56-1.51-5.43-4.2-6.75 0-19.62 11.7-36.14 30.2-42.32 1.685-.565 3.655-1.11 5.562-1.1zm173.065 17.606c1.823.077 4.17 1.01 7.232 3.164 17.05 13.07 33.941 30.46 41.131 50.28-18.43-3.69-57.5-20.73-55.28-43.42 1.021-4.838 2.258-10.222 6.917-10.024zm-444.076 8.03c2.16.038 4.395.371 6.289.345 21.63-.32 40.34 10.5 60.24 16.85 3.03 1.03 2.66 3.94.17 5.26-21.8 12.46-51.7 16.288-71.4-.282-5.4-5-5.08-11.298-3.54-16.908 1.25-4.581 4.64-5.331 8.24-5.266zm292.939 79.243c32.85 5.87 32.49 45.392 36 71.852l-1.66.34c-9.62-24.94-22.28-48.432-34.34-72.192zm-7.25 7.871c1.05.92 2.54 1.65 3.09 2.81 10.65 23.87 23 45.17 31.57 70.16-17.71-13.84-32.54-27.26-35.52-49.98l-.05.01c0-7.48-4-16.8.91-23zM734.27 415c18.27 6.34 35.76 22.71 43.19 41.09a9.38 9.38 0 0 1-2.74.27c-16.62-3.41-33.5-6.51-45.45-20.11-6.91-6.44-8.48-21.22 5-21.25zm-58.4 15.73c5.64 26.33 11 51.19 19 75.61-13.73-9.76-27.53-38.78-19-75.61zm10.44 4.3c16.75 18.72 23.82 38.41 15.61 63.2h-.05c-5.31-21.57-10.28-41.74-15.56-63.2zm-267.052 17.568a52.84 52.84 0 0 1 21.672 4.562c14.86 6.44 28.7 16.23 35.56 31.53-23.73-8.54-41.3-27.26-65.75-35.37a52.84 52.84 0 0 1 8.518-.722zm-7.988 6.002c23.31 17.52 45.92 32.88 71.51 45.54-22.63 2.49-63.41-15.76-71.51-45.54zm336.412 47.468c2.05-.022 4.45.548 7.168 1.852 15.46 9.61 24.66 24.72 33.74 39.83 1.3 2.16-.01 3.19-5.86 2.1h-.01c-45.341-4.044-51.737-43.598-35.038-43.782zM450.31 544.494c1.136.017 2.263.056 3.378.115-32.56 14.95-61.158 29.881-83.548 54.391.852-35.137 44.949-55.033 80.17-54.506zm4.32 9.217c-.07.89.228 2.159-.272 2.709v.04c-20.18 24.46-44.31 40.13-76.27 46.53 23.79-22.74 48.502-36.29 76.542-49.28zm97.322 12.576c9.016-.057 18.218.695 26.928 1.533-32.672 5.179-53.87 15.536-81.18 26.813 9.405-22.773 31.228-28.2 54.252-28.346zm38.197 6.072c-12.23 13.12-24.28 20.871-37.79 26.301v.02c-16.39 6.79-34.2 10.88-52 7.05 28.48-17.42 56.55-23 89.79-33.37zm62.268 46.014c7.57-.078 16.109.976 25.852 3.076v.022c2.25.49 6.87-2.232 6.84 2.148 0 3-4.12.72-6.3 1.48-25 8.28-50.42 17.231-74.76 26.891 11.656-22.957 25.656-33.383 48.368-33.617zm32.178 14.928c1.34.014 2.844.517 4.224.66-.7 1.49-1.02 3.428-2.16 4.398v.022C665.5 655 638.36 661 611.59 658.27c24.45-8.49 48.06-16.73 71.73-24.79a3.84 3.84 0 0 1 1.276-.18zm77.87 64.308c12.1.029 23.925 4.193 35.925 5.73.75.09 1.37 1.191 2 1.821-23.1 4-47.95-.46-71.48 3.92-.05-.55-.091-1.1-.141-1.66 7.23-2.79 14.15-6.16 21.49-8.23v.02c4.11-1.16 8.174-1.61 12.207-1.6zm-576.534.143a4.99 4.99 0 0 0-.483.027c-5.73.65-2.23 7.23-.6 11.34-1.31 26.22-8.168 51.081-23.208 73.281-.49-3-4.522-4-2.782-8.31 3.66-9 6.071-18.44 6.131-28.29-.49-7.79 2.9-27.11-8.32-27.83-.69.1-1.84 2.2-1.56 2.82 7.58 16.37-.71 31.66-3 50.58-3.76-15.37-2.69-25-11.21-36.72-2.76-4.64-8.72-12.64-14.63-8.32.11 4.74 3.42 7.8 5.85 11.55 6.67 10.27 7.92 22.64 10.47 34.3 1.42 6.46-7.35 3.82-10.65 7.72-14 16.57-16.45 36.61-18.63 56.74-2.18 20.13 13.22 34.8 17.07 53.3 8.36 35.68 23.71 69.51 36.38 103.84 13.07 24.15 23 49.71 40.58 70.74 4 5 .89 6.8-2 8-19.1 5.16-41.18 1.75-53.35 22-5.34 8.61-9.43 17.15-7.85 27.28 4 24.39 30.91 46 29.58 70.54-23.72 62.81-91 48.73-74.21 111 10.55 54.94-35.31 65.74-18.72 80.79 14 12.4 42.9 16.66 60.31 10.68 14.51-5.65 17-20.52 21.82-33.14 2.28-4.53 4.87-10.83-3.67-10.58a50.21 50.21 0 0 1-24.58-6.51c-9.66-5.21-22.72-8.41-21.65-22.34 2.61-40.55-17.74-42.43 25.12-67.78a151.66 151.66 0 0 0 59.22-92c1.92-10.54 4.47-21.8 13.89-28.79 10.08-7.48 22.62-8.26 34.44-10.49 8-1.51 16.29-3.82 23 4.32 13.32 18.47 33.56 10.23 37 26.55 3.12 14.66 4.91 34.6 19.81 42.15 3-9.16-8.3-26.68-10.06-37.4-.82-2.88-4.5-6.51-1.39-9.48 2.9-2.29 20.18 7.79 18.87 12.5.17 12.8 6.87 23.43 12.49 34.37 1 2 5.44 2.37 8.29 3.49-1.36-10.27-8-19.7-10.26-30-.42-2.61-5.83-9-.91-9.88 5.85-.38 16 3.22 17.26 7.26 5.48 13.7 12 51 29.61 51.42-7.13-17.9-15.36-33.92-20.42-53.4 7.57 12 24.38 8 27.89 19 4.52 18.16 14.44 33.72 25 48.92 3.39 4.2 8.65 2.4 5.07-2.64-6.17-13.73-12.5-27.37-18.88-41-.87-1.85-1.38-5.31.69-4 8.8 5.65 20.83 5.93 26.34 17.35 7.63 15.21 12.24 34.13 28.35 43 2.88-6.17-3.3-11.2-5.18-16.89-4.27-8.52-8.63-17.07-13-25.78 5 1.39 10.57 1.52 14.13 4.28 5.72 4.43 14.92 3.21 17.74 12.62 5.22 15.26 12.27 41.86 27.22 49.57 1.85-6.54-3.85-12.64-5.46-18.91-4.23-10.21-8.29-20.49-11.83-31 3.43 1.14 7.5 1.48 10.15 3.6 5.45 4.35 15.41 1.91 17.54 10.19 4.89 19.08 12 36.89 25.53 51.38.84.91-.69 4.8 2.54 3 4.76-3-.55-8.36-1.45-12.21-5.72-13.49-11.41-27-17.21-40.77 29.39 13.46 59 28.73 84.69 48.69 7.45 7.17 4 18.43 7.92 27.32 5 10.95 5.14 25.75 16.49 32.58-1.45-16.31-8.2-33.08-11.36-48.74 37.83 16.65 21.27 54.61 46 78.11 4.25-12.2-8.09-36.33-11.12-50.39 5.21 4.17 9.61 7 13.2 10.72 5.32 5.42 13.85 7.27 15.33 17.13 2.3 15.27 9.19 29 18 41.59 2 2.68 6.83 1 5.27-3.07-4.72-12.12-8.91-23.86-13.53-36.32 6.42 1.65 10.23 11.1 16.83 6.02v-.03c1.35-1.18-4.27-7.78-8.08-11.09-31.11-27.07-61.12-55.34-94.61-79.57-72.93-49.77-158.43-75.64-238.78-110.45-13.24-5-26.56-9.73-39.92-14.43-7.93-2.79-16.69-3.39-23.54-9.08-32.13-27.06-57.18-62.66-69-103.1-16.09-41.55 13.12-59.7.56-74.85-22.83-24.93-41.22-55.06-44.74-89.57-.12-1.75-1-4.52-3.2-2.23-26 29.68-9.39 74.75 5.78 106.19 17.49 25.24 27.92 18.89 28.78 55.78 9.11 29.46 21 57.54 42.16 80.7 1.05 1.16 2.6 2.25.77 3.51-29-17.67-51.67-49-70-78.48-26.4-46.55-44.06-97.43-60.78-148.06-1.25-3.81-6.89-7.86-3-11.85C151.9 852.25 165.55 827 166 800.5c-.16-4.07-.07-8 2.22-11.37 16-23.83 26.15-49.36 24.63-78.47-.252-4.94-2.043-12.94-6.918-12.908zM807.8 714.975c4.466-.011 8.845.548 12.949 2.416-.75.61-1.57 1.149-2.39 1.609-31.14 18.5-62.53 14-95.29 1.17 23.27-5.08 45.52-1.76 67.48-3.9 5.626-.327 11.51-1.281 17.25-1.295zM662.72 748.81c-45.58.52-12.681 42.689 4.779 55.619 14 10.06 29.42 17.17 46.61 19.61 7.52 1.06 17-1.59 22.44 2.07 45.81 32.64 85.94 74.28 118.19 120.24-4.52 1.83-8.86-1.9-12.68-1.19-33.43 4.76-40.21-29-79.66-25.82-8.29-.26-16.82 3.17-25 5.66-17.77 3.28-28.4 17.74-14.24 33.11 17.83 18.58 55.18 23.6 78.12 12.08 8.42-4.23 15.74-14 22.94-14.24 19-.76 39.29-4.63 52.55 18.62 11.83 20.74 26 40.39 37.89 61.3.73 1.29.82 3.59-1.54 2.89-22.36-2.22-17.63-17.1-39.28-23.5-15.09-7.9-97.72-12.56-70.91 20.61 17.21 19.5 46.33 25.68 71.34 21.35 8.27-2.17 15.71-3.74 22.62-11.08 30.26-7.78 39.79 34.41 52.11 54.26.06.091.143.247.207.35v-19.2c-15.894-31.438-32.564-62.497-50.887-92.55-3.27-5.17-9.47-12.22-8-16 13.18-50.68 63.2-42.29 46.47-108.4-15.1-39-54.5 15.71-55.22 37.2-8.81 45.73 19.82 29.53 1.32 60.89-3.15-2.84-7.34-5.12-9.3-8.63-11.57-20.73-28.87-36.85-43.15-55.36-4.39-5.68-15.56-9.18-11.11-19.2 7.84-26.86 17.42-15.9 31.93-36.75 14.24-18 31.07-57.08 13.38-76.91-3.51-3.1-8.06-.56-11.42 1.33-27 16-48 43-37.39 74.82 3.43 11.39 1.42 18.67-2.54 27.95-2.89 6.8-5 3.81-8 .82-20.33-19.72-41.71-38.18-65-54.39-1.6-1.11-4.66-2.32-2.89-4.74 4.12-5.66.58-10.73-1.51-15-15.77-32.35-43.2-46.17-73.17-47.82zm-3.26 9.888c31.51.218 62.65 21.538 71.828 53.15-17.38-18.03-38.29-27.85-57.19-40.5-6.2-4.17-13.299-6.998-19.939-10.538-.52-.28-.7-1.232-1-1.872a69.79 69.79 0 0 1 6.3-.24zm-447.88 2.041c-2.54-.071-3.476 3.05-4.35 4.8-8 16.63-16.861 32.48-31.221 44-2.6 2.97-14.88 7.28-7.78 11.63 20.89-5.55 43.66-34.93 44.66-53.93h.04c.01-2.09 4.07-4.77-.16-6.26a3.878 3.878 0 0 0-1.19-.24zm439.839 8.72c24.13 13.71 48.44 27.31 71.77 46.14-18.19-3.47-33.95-8.52-48.3-17.8-9.15-6.62-20.69-17.45-23.47-28.34zm-412.87.77c-2.14 2.43-4.89 4.53-6.32 7.32v.03a150.42 150.42 0 0 1-50.22 56.92c-2.9 1.95-1.9 3.79-.9 5.3 3.9 5.05 17.48-7.51 21.74-9.88 17.7-14.54 32.6-33.09 37.6-56.31-.51-.9-1.21-2.14-1.9-3.38zm623.29 1.82c5.17 20.23-8.28 57.94-25.13 70.84 7.94-23.95 19.49-45.75 25.13-70.77v-.07zm-9.47 7.1c0 1.25.49 2.68 0 3.7-9.45 19.14-16.16 40.69-27.26 58.5-4.69-25.75 5.55-47.41 24.26-60.88v-.07a14.4 14.4 0 0 1 3-1.25zm-705.839 5.772c.849.01 1.737.11 2.668.308 21.68 9.49-8.359 67.4-19.289 79.53v.01c-10.3-22.3-6-48.22 4-70 2.713-5.574 6.68-9.915 12.621-9.848zM253.2 795.4c-2.09 1.6-4.91 2.85-6.19 4.98-8.72 14.81-18.418 28.89-32.198 39.48-1.68 1.29-5.35 2.56-3.18 5.66 4.28 5.03 9.47.46 13-2.44 14.13-11.85 30.248-28.16 28.568-47.68zm-9.605 51.309c-1.901-.08-3.841 1.012-4.944 3.262-2.1 4.28 11.82 9 18.27 11 152.34 24.4 304.57 68.899 431 160.279 74.85 50.89 136.33 118.28 193.72 187.68 5.52 5.85 17.22 32.65 26 29.17 1.31-1.28.23-2.05-.14-3.28-4.39-16.56-17.05-28.47-24.2-43.28 1.1.05 2.37-.25 3.26.2 13.57 6.27 28.57 9.33 43.09 11.42-17.27-20.9-53.38-12.78-68.27-39.37l52.35 10.24c-20.79-22.26-59.52-9.91-74.18-38.42 15.01-3.41 30.77 6.89 46.56-2.92-14.67-2.63-28.94-8-42.75-7-19.79 1.41-23.9-15.25-35-23.91 6.64 3.24 13.64 1.22 20.32 2.08 8.86.87 19.37 3.73 27.07-2.27-23.27-13.36-55.73.25-74.36-24 .72-1.81 2.27-.81 3.72-.81 14.59-.48 30.2 4.37 44.1-2.88-.44-.91-1.16-2.66-1.44-2.6-12.58 2.72-24.51-3.23-37.06-2.54-15.03.83-28.66-3.28-37.28-17.45 11.78-1.54 38.55 4.51 45.62-2.3-26.41-8.38-58.39 1.94-80.24-23.94 17.79-.51 38.6 1.83 55.06-6.17-28.96-8.9-64.51 10.62-86.82-17.7 5.51-4 12.96-1.3 19.39-2 14.58-.02 29.23.63 44-5.37-31.61-9.94-65.17 3.43-98.61-11.76 18.58-3.08 43.35-1.42 56.35-11.66-.45-.4-.93-1.13-1.36-1.13-12.92.55-26.02.04-38.71 2.09-15.48 2.53-30.12 4.4-43.12-8 17.91-2.18 35.24-5.16 52.85-13.33-32.18-6.09-64.29 20.8-90.77-6.67 15.82-.45 29.82-7.45 44.82-10.56 2.38-.5 6.8-1.75 6.44-5.94-33.51-4.5-56.64 25.44-92.1-2.65 13.17-4.55 29.92-6.32 40.72-15.55-35.54-4.16-41.45 20.24-83.14-.52 14.31-4.58 35.64-4.87 43.94-18-26.03-3.07-53.47 22.72-78.55 5.49 14.37-3.23 28.6-9.05 44.48-16.55-17.49-2.04-31.08 6.51-45.74 7.69-24.8 2-36.02.01-42.5-5.19 19.05-5.15 39.06-7.47 56.49-18.68-8.58-3.7-16.43 1.32-24.43 2.38-13.69 1.83-27.64 4.11-40.52 8.83-13.06 4.79-24.09-1.99-39-1.47 15.83-3.81 28.71-6.63 43.12-14-23.1-1.5-41.35 8.44-63.47 7.65-21.73-.52-43.04-7.24-64.84-9.82-15.85-1.87-32.22-2.77-47.34-9.3a4.695 4.695 0 0 0-1.856-.471zM925.39 861c7.61 25.2 8.288 48-19.852 70 6.6-23.24 13.072-46 19.852-69.93V861zm-10.157 1.639L894.4 932.71c-7.336-25.038-3.992-35.932 20.834-70.072zm-655.609 28.517c-10.747-.179-17.988 3.71-10.625 23.084 5.53 16.15 10.86 32.76 25.72 43.43 6.46 3.95 13.82 3.28 5.16-3.1-2.03-3.51-4.99-6.55-6.44-10.27-1.45-3.72-8.56-10.76 4.07-9.54 3.7 1.48 11.78-10.13 13.3-5 5.01 12.04 8.76 24.36 8.07 38.62 1.85 3.62-2.63 9.11 2.22 13.35 13.44 10.41 32.17 25.58 49.91 22.21-.18-.88-.07-2.3-.58-2.58-10.56-6.79-28.23-12.36-35.85-21.42 1.04-4.41-1.87-10.34 2.55-13.09 3.4-2.09 6.7 2.06 10 3.54 7.73 2.81 18.1 5.5 24.73-.72-11.77-3.42-24.07-4.91-34.07-12.73-4.71-3.4-2.09-8.5-2.59-12.87 10.8 1.5 23.17 9.36 33.27 2.13-10.07-9.54-42.22-3.09-41-22.42.57-6.08 9.32-.21 12.44-3.21 3.37-3.27 11.55 1.74 10.22-4.16-6.15-9.85-28.53 4.67-38.72-13.09a32.38 32.38 0 0 1 5.26-2.2c3.03-.71 6.33-1.55 6.15-5.16-.12-3.84-3.7-3-6.23-3-7.06-.11-14.18.23-21.18-.11-5.29-.691-10.9-1.612-15.785-1.694zm-70.594 5.352c.688.114 1.397 1.342 2.11 3.762 10.93 21.48 20.38 43.79 40.58 59.26 4.79 3.66-3.11 9.84-3.76 15.38-.4 3.47-3.77 6.58-5.81 9.86-16.61-16.94-26.231-38.87-32.381-61.47-2-7.22.75-15.12-3.26-21.87.787-3.375 1.637-5.07 2.521-4.922zm196.324 8.224c-1.753.05-3.338.751-4.175 2.707-3.52 5.75 52.81 21.24 60 24.24 1.71-.72 4.56-1.669 4.5-1.929l-.02.01c-.66-2.57-.56-5.61-3.93-6.77-9.47-3.27-18.85-6.81-28.34-10-8.21-2.77-16.51-5.3-24.82-7.77-1.05-.31-2.162-.517-3.215-.488zm379.116 24.604c13.018.056 26.133 4.245 39.468 13.975v.039c-27-2-52.599-3-78.359-3.2 12.95-6.795 25.872-10.87 38.89-10.814zM476.71 930.4c-30.18 1.03 32.008 19.1 35.818 24.55 5.04 1.88 6.251 3.55 9.471-1.32 4.51-8.06-39.19-21.78-45.29-23.23zm-90.291.729c-.96.005-1.85.395-2.6 1.621l-.02.04c2 7.32 39.71 15.87 48.81 20.03 1.12.37 3.15-2.03 5.21-3.44-2.04-2.36-3.29-5.21-5.21-5.78-13.64-4.06-26.52-11.02-41.16-11.38-1.645-.037-3.432-1.099-5.03-1.091zm357.658 19.955c20.766.065 41.532 1.819 60.813 4.346-3.02 1.48-5.89 3.25-9.08 4.49v.04c-24.37 9.59-45.23 9.77-66.09-8.64a358.95 358.95 0 0 1 14.357-.236zM475.9 956.16c-3.31 1.76-6.84-1.57-8.62 2.08-.28.58 2.8 3.34 4.72 4.28 12 5.86 25.05 9.65 35.78 18.12 2.94 1.09 7.88-2.57 4.47-5.78-9.77-11.24-23.24-14.95-36.33-18.7h-.02zm-82.091 2.682c-2.43.048-4.023.618-4.479 2.668-.69 3.08 3.07 3.18 5.2 4.08 10.6 4.48 21.16 9.07 31.92 13.16l-.02.07c1.57.6 4.13-1.33 6.25-2.16-6.11-13.71-23.95-13.97-33.66-17.55-1.995-.14-3.754-.297-5.211-.268zm156.681 3.437-6.17 2.67c.59 1.26.84 3.162 1.84 3.692 18.29 9.77 36.65 19.38 55 29 3.28 1.72 5.59-.181 7.21-2.551h-.04c1.75-2.56-1.04-3.28-2.51-4.26a239.27 239.27 0 0 0-55.33-28.55zm-159.867 19.666c-1.524.113-2.972.765-3.562 2.815-1.06 3.7 2.518 4.44 4.638 5.35 8.94 3.82 17.95 7.53 27.15 10.64l-.019.09c2.1.7 6.64 3.02 7.86-1.85.46-9.26-24.37-15.62-32.06-16.62-.884-.11-2.483-.537-4.007-.425zm82.527.535c-23.95.31 21.64 17.57 25.62 21.04 2.9 1.55 3.06-.84 4.52-1.84 2.09-1.38 1.19-1.65.19-3.33-7.26-11.84-19.99-12.17-30.31-15.84l-.02-.03zm78.33 11.32c-8.46 4.72 29.23 20.82 33.14 24.61h-.04c1.97 1.15 3.69 4.48 6.25 1.77 7.35-11.5-30-25.54-39.35-26.38zm-84.779 11.104c-5.685.05-7.273 3.648-1.342 7.385 8.28 4.34 16.711 8.401 25.211 12.291 1.06.48 2.97-.49 4.33-1.12 2.27-1.06.61-2.67.06-3.73-5.61-10.86-17.08-11.22-23.69-14.22l-.02-.03c-1.706-.408-3.237-.587-4.549-.576zm-77.922.317a21.22 21.22 0 0 0-3.69 2.779c-.56 4.71 24.912 13.74 29.872 17.04 4.88 1.67 8.668-2.17 3.728-5.44-7.91-8.27-18.54-11.49-29.91-14.38zm235.65 1.968c-5.27 2.66 8.35 9.68 10.35 12.1 16.23 13.37 32.48 26.732 48.58 40.262 3.69 3.16 4.902-.36 6.692-2v-.051c1.49-1.36 1.548-2.91-.352-4.54-10.16-8.73-19.9-17.97-30.34-26.33-10.27-8.23-19.93-17.84-34.93-19.44zm-82.163 7.975c-2.118.084-4.328.629-6.606 1.826 11.58 9.15 25.44 15.78 37.93 23.78 1.18.7 3.12.13 4.7.13.18-12.3-12.19-15.3-20.12-19.3l-.01.04c-4.02-2.834-9.541-6.728-15.894-6.476zm295.607 4.111c14.702-.167 29.386 3.39 44.637 12.295v.04c-24.61-2.4-45.71-9.6-67.84-9.24 7.796-1.898 15.502-3.007 23.203-3.095zm-381.152 8.446c-4.72 1.83-7.672 4.81-1.102 7.36 6.87 2.89 15.49 12.24 23 9.15 4.81-10.59-13.449-14.971-21.879-16.481l-.02-.03zm356.16 1.873c10.914.162 45.137 9.338 54.568 10.556 5.54 1.29 12.17-1.74 16.73 4.17-18.67 4.27-37.288 4.76-55.378-1.62-20.625-10.058-22.469-13.204-15.92-13.106zm-281.361 2.896-3.53 1.86c8.19 9.93 20.83 14.21 31.48 20.72 1.41.84 2.9 3.5 4.7.5 1.47-2.44 2.04-5.59-.36-7.22-9.67-6.53-18.29-15.25-32.29-15.86zm90.093 7.905c-2.23.13-2.132 3.085 1.567 6.214a3252.596 3252.596 0 0 0 39.91 31.59c1.55.83 4.61 1.33 5.32-1.11-9.46-17-25.17-27.889-42.82-35.099v-.05c-1.413-.97-2.598-1.442-3.5-1.534a2.996 2.996 0 0 0-.477-.011zm-230.44.939c-3.009-.06-6.96.832-11.974 3.275v.032c3.24 5.18 8.92 5.09 13.81 6.5 7.665 2.765 8.914-9.594-1.835-9.807zm131.985 11.877c-19.166-.508 14.04 17.896 18.303 21.238 2.8 2.12 10.76 1.65 10.44-3.17-8.32-8.25-18.482-13.67-26.712-18l-.01.041a39.645 39.645 0 0 0-2.02-.11zm-77.027 5.5c-1.66 1.07-5.53-1.001-4.75 1.719 1.45 5.18 6.969 6.78 11.539 8.36 1.34.47 6.58.02 5.75-2.62-1.74-5.52-7.34-6.63-12.52-7.42l-.02-.04zm157.08.879c-1.21 10.03 33.789 30.54 42.379 39.46 5.19 5.94 7.07-2.33 4.78-5.53-15.6-11.34-27.02-28.47-47.12-33.93h-.04zm95.36 11.54c1.12 8.42 7.538 9.76 11.628 13.42 15.77 14.13 32.39 27.41 46.39 43.41 3.75 5.44 10.82-.71 5.75-5.07h-.019c-17.89-20.79-35.75-41.65-63.75-51.76zm-481.567 7.089c8.778-.016 7.952 15.371 15.695 17.752 5.36 2.16 10.07 9.579 13.72 14.718-1.56.74-3.14 2.182-4.65 2.112-39.05-2.8-56.7 25.309-59 60.869-6.92-32-48.16-56.9-7.6-81.39 10.18-5.85 23.5-4.85 34-11.24 3.273-1.994 5.81-2.818 7.835-2.821zm291.967 3.841c-.88.58-2.881 1.91-2.881 2 3.36 5.41 9.24 7.58 14.36 10.73.17.05 2.6-2.21 2.39-2.95l-.01.04c-1.83-6.6-7.83-7.67-13.86-9.82zm-76.655.66c-2.191-.037-3.82.805-3.925 3.03l-.022.01c1.83 6.92 9.352 6.24 14.192 9.14 1.89 1.16 2.739-.87 2.209-4.54-.083-3.218-7.632-7.556-12.454-7.64zm163.543 5.417c-1.21.063-.078 1.543-.59 2.713 7.24 10.98 20.082 18.2 29.532 27.46h-.041c2.87 2.86 8.35-2.12 5.65-5.25-8.61-11.57-18.9-20.8-33.29-24.72-.578-.158-.981-.218-1.26-.203zm93.06 4.164-3.8 1.51c12.81 17.82 30.381 31.879 45.381 47.879 1.46 1.46 3.27 3.52 5.35 1.52 11.99-7.74-39.78-45.58-46.93-50.91zm-109.294 8.908c-.754.03-1.447.26-2.045.752-4.28 3.54 2.43 7.178 4.72 9.818h-.04c7.62 8.78 16.26 16.641 26.62 22.551 5.61-1.63 6.13-3.38 2.84-7.5-6.98-6.71-13.99-13.42-21.42-19.63-2.973-2.487-7.406-6.12-10.675-5.991zm-83.355 3.432-7.08 2.869c4.77 1.87 12.07 10.07 15.58 3h-.02c-1.23-3.46-4.29-5.01-8.48-5.87zm177.296 14.71c-1.487-.025-2.585.553-3.156 1.89 11.25 13.24 26.35 22.539 36.71 36.759 3.44 6.08 5.98 1.87 8.03-2.43-1.653-6.282-31.17-36.039-41.584-36.218zm-101.76 7.727c-1.652-.02-3.016 1.077-3.806 3.922 4.36 5.59 9.47 10.3 13.66 12.59 6.3 1.27 6.1-1.97 5.1-3.32-2.445-3.038-9.997-13.134-14.953-13.192zm-16.085 20.492c-2.1 6.72 8.7 10.76 12.25 15.09 1.19 1.23 3.808-3.48 3.388-4.87l-.01.04c-2.16-7.07-8.348-9.2-15.628-10.26zm222.75 3.85-2.84.74c12.62 22.36 32.079 41.03 47.369 61.86l.07-.02c1.33 1.66 3.09 4 6.03 1.34 3.55-3.11 1.1-5.49-.55-7.7-15.89-19.47-28.52-42.41-50.08-56.22zm-112.852.105c-.513.01-1.042.35-1.6 1.215-1.43 2.25 1.72 5.24 4 7.64 5.49 5.78 9.97 12.55 15.6 18.17 3.56 5.45 7.541 10.94 10.871 1.01-5.82-10.03-12.55-20.48-24.32-24.6-1.613-.54-3.011-3.466-4.55-3.435zm-383.756.787c-1.215-.076-2.377.852-3.424 3.168 5.26 14.42 7.35 29.46 17.26 41.61 14.24 10.55 1.472-11.36.682-16.92-1.549-3.818-8.66-27.489-14.518-27.858zm-19.925 10.82a5.3 5.3 0 0 0-.749.108c-10.69 3.9-.41 26.53 2.59 33.46.83 3.98 9.572 11.53 11.782 3.45-1.66-3.55-3.201-7.09-4.561-10.66a82.05 82.05 0 0 1-5.18-20.63c-.197-1.829-.368-5.96-3.882-5.727zm389.94 11.735c-1.447.044-2.42 1.263-2.689 3.313-.43 3.28 20.242 20.93 24.942 20.93v-.05c3.78-.12 3.16-3.98 1.68-6.03-6.86-5.6-12.782-13.38-20.862-16.9-1.162-.892-2.201-1.29-3.07-1.263zm104.423.322c1.63 5.89 5.369 11 8.719 16 10.35 13.46 18.75 28.44 31.46 40 3.69 3.55 4.76.07 6.69-3-7.36-9.58-12.54-21.059-20.73-29.859v-.02c-7.78-8.12-13.35-21.98-26.14-23.12zm-524.008 1.034a4.543 4.543 0 0 0-.674.037c-5.96.51-1.328 14.49-.568 18.29 2.85 8.51 5.338 18.45 15.138 21.03 1.03-.34 2.551-.66 2.551-.86a11.54 11.54 0 0 0-2.39-7.48 88.45 88.45 0 0 1-9.52-24.9c-.534-2.26-1.333-6.048-4.537-6.117zm509.758 17.172c-12.096-.123 29.944 41.814 30.478 48.166 2.71 6.94 10.192 2.379 7.432-4.051-5.41-11.64-14.63-20.41-21.89-30.64-4.21-5.93-8.461-11.35-11.721-12.49-1.861-.66-3.274-.975-4.3-.986zm-532.11 1.474c-1.359-.108-2.631.677-3.171 2.961-.77 15.18 4.37 27.5 14.23 38.33 3.51 5.62 10.66 2.32 7.18-3.81-5.05-10.62-13.18-19.67-13.71-32.28.244-2.356-2.263-5.02-4.529-5.2zm433.204 7.967c-1.317.04-2.153.71-2.026 2.324 1.88 5.04 14.381 19.14 13.881 5.66.375-2.58-7.906-8.107-11.855-7.984zm81.82 10.44a3.172 3.172 0 0 0-2.115.685c-5.56 3.94 22.12 32.528 24.44 42.318 2.57 5.32 9.68 2.991 7.17-5.279-1.502-4.056-20.3-37.458-29.495-37.725zm-532.145 1.44c-.6-.006-1.27.077-2.02.264-7.8 3.45 10.41 38.35 14.76 43.45h.04c2.49 3.57 7.3 5.18 11.06 7.78.6-1 1.21-2 1.84-3-.95-5.52-4.15-8.76-6.95-13.15a110.62 110.62 0 0 1-14.08-31.66c-.771-1.966-2.051-3.655-4.65-3.683zm68.28 2.983c-2.82 10.14 11.85 29.42 18.45 37.42 6.64 7.29 8.58 13.341.38 21.861-7.18 7.48-16.13 10-24.86 12.82-21.34 9.31-13.65-21.73-28.6-20.79-4.86 2 .64 9.18 1.39 12.67 4.35 12.78 9.68 25.36 12.61 38.46 4.12 25.82 22.71 14.31 20 22.38-11.78 40.49 46.05 46.06 51 80.33-22.12.9-45.12-6-67.27-5.36-37.9-2.06-26.38-32.84-20.33-57.89 2.71-17.06-1.82-31.5-12-44.53-4.36-5.58-12.72-6-17.59-9.64-9.27-7-16.38-16.56-19.29-28.19-6.54-15.51-14.14 15.89 15.63 32.94-15.12-3-7.69 17.14-25.41-13.47-1.8-3.23-1.57-9.9-6.11-8.1-4.1 2-.8 11.77 2.1 15.23 8.87 11.8 15.19 26 12.94 40.84-9.93-10.44-16.55-23.82-25.37-35.25-1.09-1.54-3.4-2.21-5.14-3.29-1.87 8.78 13.92 30.69 20.95 36.57 19.44 19 42 37.1 47.77 65.39.31 2.19 5.16 7.51.09 7.69-16.92.6-33.9-.36-50.85-.7-18.55 1.65-36.06 1.79-54-4.24-26-6.77-77.14 5.26-71.25 39.45 10 36 56 11.41 75.66-3.21 9-6.68 11.54-20.66 27.59-19.93 26.94 1.23 54-1.64 83.28 2.53-13.64 5.42-19 19.49-34.07 20-9.14.32-18.14 4.09-27.24 6.17-14.22 3.24-23.82 13.66-34.62 22.18-11.19 8.83-10.17 23.85 1.28 32 28.08 17.12 62.26-8.33 75.12-33.87 5.82-11.54 3.07-26.53 17.41-35.14 10-6 18.87-11.93 30.69-10.77 37.27 3.65 69.2 7.06 107.35 13.34-13.91 6.45-19.83 19.53-34.47 19.75-24.61 4.89-63.66 13.36-74.29 38.44-5.33 14.88 7.62 29.82 24.22 29.13 26.91-1.11 44-18.91 56.08-39.84 9.17-14.73 25-43.67 43.08-45.61 31.88 7.74 65.43 12.17 97.18 18.06-13 9-24.56 20.13-43.08 20-24.2-2.59-87.65 27.87-51 54.78 26.3 14.37 63.69-8.16 74.57-32.72 3.07-9 3.47-19.47 13.23-25.18 19.84-16.21 22.19-14.11 45.19-5.35 36.47 9.73 72.22 20.25 107.1 35-29.84 20.29-39.81 7.77-70.44 10.52-18.75 3.28-35 10-48.07 23.93-7.665 8.373-9.023 15.515-5.664 20.57h17.105c-3-.645-5.83-1.555-8.394-2.78l77.203-26.99c-5.291 15.119-24.87 26.264-44.572 29.77h29.029c5.822-3.073 11.25-6.806 16.062-11.09 9.36-10 12.54-25.67 29.09-29.06 7.9-1.62 17.001-10.57 22.541-8.43 35.423 13.359 69.199 30.245 102.233 48.58h21.215c-25.733-14.591-52.244-27.968-77.899-42.3-15.07-9.66-37-8.14-46.25-26.57-6.52-13-22.47-22.33-16.94-40.56.43-15.85-6.689-31.36-15.519-44.84-7.44-10.32-25.06-19.25-32.69-15.15-8.22 8.48-10.74 21.79-8.32 33.79 10.78 52 47.18 34.37 60.5 66.86-18.6-3.58-37.72-12.48-56-18.54-17.8-7-36.75-9.4-54-17.09-6-2.66-14.52-.46-17.76-8.59-3.18-8-6.73-15.84-9.2-24-1.88-6.25-8.69-11.53-6.53-18.13 8.28-21.15 16-69.47-15-74.7-21.52-1.23-28.88 23.49-22.67 43.13 4.12 13 13.45 21.54 22.39 31.36 9.61 10.56 14.07 25.85 20.63 39.15 1.75 3.53.94 4.57-3.4 3.66-23.26-5.64-48.06-7.47-70.72-14.81-5.89-2.82-13.09-38.91-11.12-45.38 5.78-19 3.38-37.48-7.06-54.09-24.48-27.22-50.22 15-23.56 47.06 11.45 16.23 28.39 28.6 29.2 51-14.7-2-29.62-4-43.93-7.75-8.26-2.28-19.29 2.71-24.69-7.95-4.33-8.55-11-17.07-11.75-26-3.71-20.9 6.29-53.8-14.33-67.17-5.46-2.71-2.39-3-.46-5.12 23.06-16.14 8.1-42.81-3.1-60.94-9.18-15.42-20.65-30.22-32.66-43.71zm609.59 14.32c-1.69 7.4 6.7 13.5 10.31 19.34 4 4.23 22.29 25.84 26.15 13.56-5.99-7.69-14.43-13.689-21.33-20.689-5.13-3.78-8.92-10.56-15.13-12.21zm-156.981 5.983c-.75.008-1.56.379-2.44 1.299v-.012c-2.47 2.57 10.65 21.37 15.08 21.38 11.38 1.92-4.52-15.779-7.25-18.169-1.432-1.305-3.14-4.523-5.39-4.498zm-532.52 15.688c-9.91 3 14.36 38.04 22.66 33.26-.25-4.83-4.569-8.09-6.779-12.18h.04c-5.43-6.77-9.11-15.71-15.92-21.08zm682.041 3.36c-.63 4.76 2.44 7.56 5.29 10.76 5.81 4.87 17.92 21.24 24.57 9.87-7.71-7.45-17.32-12.92-25.89-19.45h.02c-1.07-.76-2.63-.81-3.99-1.18zm-24.67 6.3c.72 7.33 20.84 32.27 29.28 34.46 1.96.31 4.3-1.16 6.38-2 .17-.07 0-2.31-.57-2.7-5.64-3.83-9.88-9.33-14.35-14.62h.02c-5.51-6.49-11.39-12.76-20.76-15.14zm-545.72 15.017c1.486.12 1.413 4.714 2.48 6.604 2.95 5.06 3.87 10.53 4.31 18.68-.25 4.29-5.34 7.869-10.13 11.269-2.55 1.81-1.94-2-2.18-2.75-2.1-6.95-5.47-14.12-5.06-21.03.26-4.49 5.5-9.69 9.84-12.53.283-.187.528-.26.74-.243zm296.793 5.975c-.714-.043-1.539.011-2.492.187-24.94 8.38-55.682 13-63.452 43-5.13 20.86-11.798 41.32-12.728 63-.18 5.14-1.042 13.1 3.818 13.82 3.89.58 4.502-1.55 4.442-4.23 2.48-26.31 13.139-51.668 18.629-77.808 2.59 4.85 16.47 66.649 25.79 54.789-3.53-21.2-13.03-42.22-17.72-63.51-.34-1.26 5.97-4.45 9.39-6.38.57-.35 2.79-2.8 3.66.65 2.53 9.96 5.25 19.86 8 29.76 3.01 8.19 7.25 25.44 16.66 27.19.12-.56.51-1.49.31-1.63a8.16 8.16 0 0 1-3.07-4.27c-1.6-16.94-7.94-33.34-11.94-50l-.01.09c-3.13-10 4.46-10.44 10.32-13.41 1.29-.69 2.91 2.42 3.76 5.13 5.32 17.23 11.45 35 23.71 49 1.28-5.67-1.37-8.41-2.66-13.35-4.66-14.46-7.02-29.46-9.53-44.46-.333-2.161.109-7.27-4.887-7.568zm232.908 3.353c-.821-.002-1.665.276-2.541.936-2.36 1.8 3.69 8.79 7.25 11.93 6.15 5.5 8.69 13.828 17.26 17.058 12-2.89-6.94-19.849-11.75-22.629-3.518-2.031-6.66-7.284-10.219-7.295zm-548.258 6.983c2.748.094 1.563 4.892 2.278 6.533 7.28 15.84-1.97 29.788-20.09 29.728-9.88 3.39-2.12-15-9-28.18-3.75-7.12 15.339-.918 24.209-7.298 1.125-.576 1.969-.805 2.603-.783zm517.574 4.306c-2.677-.048-3.178.544-1.918 3.256v-.02c4.06 8.7 10.44 15.38 17.07 21.86 3.42 3.34 6.9 6.61 10.16 10.08 2.2 1.28 6.181.47 5.561-3.16.53-6.61-4.94-8.64-8.47-12.1a83.16 83.16 0 0 0-21.12-19.86c-.472-.03-.9-.049-1.283-.056zm119.43 6.133c-9.473-.063-18.833 1.686-27.066 5.623-11.44 4.72-50.22 34.33-29.75 45.92v.1c27.754 14.895 70.119 9.913 94.736-12.125v-29.248a44.328 44.328 0 0 0-2.986-1.826c-10.39-5.282-22.755-8.362-34.934-8.444zm2.922 8.328c10.077.149 20.052 3.103 28.621 9.375l-1.57 1c-25.66-.91-48.91 4-72 10.69.19-.72.19-1.51.57-1.87v.12c10.878-11.875 26.64-18.958 42.363-19.307a54.617 54.617 0 0 1 2.016-.008zm-141.68 3.885c.98 4.02.852 7.56 2.522 9.67 6.38 8 13.24 15.7 20.18 23.27 2.98 2 7.289.43 5.609-4a137.06 137.06 0 0 0-28.31-28.94zm-576.736.012c6.376.212 13.151 4.414 14.246 11.619 1.45 7.92 7.821 14.999 4.461 23.469 2.85 9.51-4.57 17.21-3.72 26.3.2 2.19-1.48 1-2.24.19-13.22-13.93-22.88-29.94-24.6-49.27-.5-8.745 5.477-12.52 11.853-12.308zm548.187 7.049c1.49 10.83 9.48 18.638 15 27.638 2.96 3.5 4.77 10.14 10.52 9 2.64-.56 1.07-2.688 1.84-4.558-3.34-10.97-12.46-18.182-19.75-26.612-2.09-2.4-3.95-5.208-7.61-5.468zm-22.585 7.595c-.595.03-1.008.402-1.196 1.184.18 4.33 8.941 18.44 16.801 28.58 4.54 5.83 8.76 10.36 10.83 10.97 3.48 1.09 5.79-3.5 4.63-5.91-2.482-3.398-25.317-35.114-31.065-34.824zm213.566 3.028c3.538.024 7.122.122 10.76.287-23.37 18.33-56.001 25.5-82.881 14 .59-.86 1.04-1.98 1.78-2.22v.118c23.038-8.925 45.573-12.352 70.34-12.185zm-651.82.627c8 .23 15.62 3.249 16.43 15.109.54 7.73-.66 16.31 4 23.27-1.92 4.56-2.52 8.63-1.1 12.83-3.22 11.72-34.57-29-31.33-35.57.33-7.85 3.4-15.88 12-15.64zm-173.202 1.93c2.62 5.29 5.59 9.428 10.74 11.548 20.46 7.43 4.182 15.772-.128 30.352-6 9.84-15.002 4.92-21.862 2.5-25.69-9.3 9-29 11.25-44.4zm260.809 1.91c5.092-.186 10.85 4.144 11.842 10.1 2.49 9.19 3.54 18.769 5.2 28.179.99 6.15-3.15 11.35-2.96 17.16.092 3.297-1.927 2.035-3.56.9-12.06-8.38-21.69-34.46-18.3-48.69 1.122-5.28 4.294-7.522 7.778-7.65zm85.5 5.908c18.736-.437 15.438 40.325 12.652 52.492-5.74 20.06-29.41-24.82-25.32-36.81 1.7-4.55 2.12-14.461 11.76-15.631.308-.029.61-.044.908-.051zm-311.566 13.27c3.206-.09 6.68 2.087 9.898 2.581 1.4.21 1.07.5-2.65 6.38-4.81 9-10.48 18.84-21.27 21.62l-4.85-.73c2.88-9.46 8.62-17.89 13.5-26.4v.01c1.62-2.54 3.448-3.408 5.372-3.462zm678.166 2.89c-2.411.027-5.03 1.181-8.008 4.271-20.79 20.2-26.57 76.3 8.71 83.36 4.08.67 9.59 3.72 11 7.12.9 2.72 12.61 34 5.86 30.07-28.19-19.71-59.89-33.24-89-51.46-8.69-5.19-20.32-5.53-26.77-13.93-20.08-26.18-46.62-39.23-80.27-38-49.56 3.45-2.56 51.43 21 58.19 18.55 7.4 37.1 2.73 55.66-2.16 9.3-1.54 18.64-.87 28 4.91 40.17 23 80.52 45.61 117.54 73.67-9-1.23-24.86 3.52-30.59-2.63-16.53-24.83-57.56-33.19-81.9-17.67-18.08 8.18-16.8 22.84-.19 32 21.57 14.63 45.15 17.45 69.22 9 8-2.28 11.63-12.64 21-10.31 9.58 2.37 19.21 1.13 28.77 1 4-.06 7.66-2 11.53 1.08 15.629 11.328 31.163 22.818 46.106 35.02h11.431c-8.56-6.857-13.863-14.083-13.306-26.2.53-11.86-3.38-23.89-3.16-35.8.15-7.58-6.931-16.61 3.369-23.27 25.06-18.23 17.74-89.66-11.39-101.2-17.16-2.18-25.38 29.13-27 42.88-3.18 22.87-3.27 44.13 15.18 61.34 3.28 3 9.15 7.28 8.58 9.76-.75 17.07 2.21 33.18 4 50.24-20.9-14.23-40.82-30.43-61.25-45.48-2.08-1.58-6.5-1.46-5.7-5.56 1.87-9.46-1.57-18.1-3.6-27-1.43-6.26-6-15.91-3.57-18.2 7.72-7.34 9.42-15.67 8.9-24.89-1.15-20 .24-41.18-19.16-54.66-3.538-2.457-6.974-5.537-10.992-5.491zm.953 9.752c17.65 16.26 24.509 44.129 16.369 64.699v.05c-5.36-21.2-10.86-43-16.37-64.75zm-7.33 3.369c4.7 24.58 10.958 44.33 14.138 67.85v.05c-26-10.43-27.788-44-14.138-67.9zm99.42 10.17c20.76 22 26.17 64.25 6.75 88.16-3.22-2.93-1.172-6.62-1.522-9.88v.1c-2.71-26.36-6.418-51.63-5.228-78.38zm-6.26 5.06v83.81c-16.77-16.65-15.43-53.41 0-83.81zm-265.346 1.178c24.266-.067 44.33 7.9 63.584 24.303-26.26-10-51.35-18.001-78.78-23.291l1.26-.15c4.804-.562 9.443-.85 13.936-.862zm-72.855 10.832c16.71 1.32 35.24 37.19 32.57 54.79a554454.41 554454.41 0 0 0-32.57-54.79zm67.773 1.836c21.088-.37 63.343 17.748 82.127 29.305l-1.1.139c-27.36 2.91-71.71-1.17-83-29.35a31.39 31.39 0 0 1 1.973-.094zm-73.103 3.283c7.76 20.8 21.98 38.481 30.39 57.541-20.47-7.41-38.39-31.78-30.39-57.54zm-470.373 12.362c8.062-.002 15.907 1.71 22.773 6.07a31.89 31.89 0 0 1-3.64 4.69c-11.17 10.69-55.24 41.91-65.89 18-3.8-11.82 4.31-16.78 12.4-20.69 10.324-4.406 22.573-8.068 34.357-8.07zm101.408 38.634c1.868.018 2.08 2.09 1.695 3.674v.031c-15.92 56.54-100.54 48.94-54.89 15.68 15-12.43 34.18-14.66 52.29-19.26.338-.088.638-.127.905-.125zm134.025 14.856c-11.16 21.12-24.65 38.59-47.39 46.27v.029c-8.85 3-17.29 1.21-22.93-6.14-6.33-8.26 1.44-14.41 6.32-18.55 18.1-15.37 41.1-17.5 64-21.61zM443 1489.252c3.457.135 5.206 3.524 3.14 7.908v.02c-24.68 55-100.2 36.19-58.77 9.3 16.21-11.16 35.5-13.19 54.05-17.08a6.337 6.337 0 0 1 1.58-.148zm340.6 9.588c14.321-.245 29.502 5.151 43.71 17.97-25.269-1.018-49.782-3.143-74.591-8.076 9.212-6.13 19.789-9.704 30.88-9.894zm-26.27 20.81c18 3.77 36.22 4.57 54.25 7.11 2.76.38 6.2-3.23 8.37 1.08-3.69.97-7.37 2.05-11.06 3.16v.05c-19.16 5.49-35.74-1.15-51.56-11.4zm-198.857 9.608c2.87-.04 5.536.143 7.896.572v.02l-63.09 24.88c5.005-14.034 35.1-25.198 55.194-25.472z"/></g><g data-name="Red Japanese Frames"><path d="M0 20v1560a20 20 0 0 0 20 20h936a20 20 0 0 0 20-20V20a20 20 0 0 0-20-20H20A20 20 0 0 0 0 20zm924 1528H52V52h872z" style="fill:#000;fill-opacity:1"/><path d="m952.1 15.41-23.41 23.42a4 4 0 0 1-2.83 1.17H50.14a4 4 0 0 1-2.83-1.17L23.9 15.41A2 2 0 0 1 25.31 12h925.38a2 2 0 0 1 1.41 3.41zM40 1549.86V50.14a4 4 0 0 0-1.17-2.83L15.41 23.9A2 2 0 0 0 12 25.31v1549.38a2 2 0 0 0 3.41 1.41l23.42-23.41a4 4 0 0 0 1.17-2.83zM936 50.14v1499.72a4 4 0 0 0 1.17 2.83l23.42 23.41a2 2 0 0 0 3.41-1.41V25.31a2 2 0 0 0-3.41-1.41l-23.42 23.41a4 4 0 0 0-1.17 2.83zM925.86 1560H50.14a4 4 0 0 0-2.83 1.17l-20 20a4 4 0 0 0 2.83 6.83h920.55a2 2 0 0 0 1.41-3.41l-23.41-23.42a4 4 0 0 0-2.83-1.17z" style="fill:#000;fill-opacity:1"/></g></svg>