<svg xmlns="http://www.w3.org/2000/svg" width="976" height="1600" viewBox="0 0 258.233 423.333"><defs><clipPath id="c"><path d="M960 22v1556a6 6 0 0 1-6 6H22a6 6 0 0 1-6-6V22a6 6 0 0 1 6-6h932a6 6 0 0 1 6 6z" style="fill:none"/></clipPath><clipPath clipPathUnits="userSpaceOnUse" id="b"><rect style="fill:#fef2c8;fill-opacity:1;stroke-width:16.4993;stroke-linejoin:round;paint-order:markers fill stroke" width="976" height="1600" rx="25" ry="25"/></clipPath><clipPath clipPathUnits="userSpaceOnUse" id="a"><rect style="fill:#fef2c8;fill-opacity:1;stroke-width:16.4993;stroke-linejoin:round;paint-order:markers fill stroke" width="976" height="1600" rx="25" ry="25"/></clipPath></defs><g transform="translate(23.283 63.5)"><path d="M960 22v1556a6 6 0 0 1-6 6H22a6 6 0 0 1-6-6V22a6 6 0 0 1 6-6h932a6 6 0 0 1 6 6z" style="fill:#f4f3ef" transform="translate(-23.283 -63.5) scale(.26458)" data-name="Paper Backing"/><rect style="fill:#fef2c8;fill-opacity:1;stroke-width:4.36544;stroke-linejoin:round;paint-order:markers fill stroke" width="258.233" height="423.333" x="-23.283" y="-63.5" rx="6.615" ry="6.615"/><rect style="fill:#fffbf7;fill-opacity:1;stroke-width:2.19234;stroke-linejoin:round;paint-order:markers fill stroke" width="90.944" height="23.998" x="138.753" y="288.794" rx="13.229" ry="13.229"/><rect style="fill:#fffbf7;fill-opacity:1;stroke-width:9.45624;stroke-linejoin:round;paint-order:markers fill stroke" width="429.992" height="94.43" x="-159.73" y="1155.144" rx="50" ry="50" clip-path="url(#a)" transform="translate(-23.283 -63.5) scale(.26458)"/><rect style="fill:#fffbf7;fill-opacity:1;stroke-width:7.55906;stroke-linejoin:round;paint-order:markers fill stroke" width="343.724" height="75.484" x="-160.589" y="1104.744" rx="50" ry="50" clip-path="url(#b)" transform="translate(-23.283 -63.5) scale(.26458)"/><rect style="fill:#fffbf7;fill-opacity:1;stroke-width:2.50196;stroke-linejoin:round;paint-order:markers fill stroke" width="113.769" height="24.985" x="93.592" y="56.649" rx="13.229" ry="13.229"/><rect style="fill:#fffbf7;fill-opacity:1;stroke-width:2.50196;stroke-linejoin:round;paint-order:markers fill stroke" width="113.769" height="24.985" x="116.088" y="41.078" rx="13.229" ry="13.229"/><g clip-path="url(#c)" transform="translate(-23.283 -63.5) scale(.26458)" data-name="Wikipedia Cropped"><path d="M153.73 744.94c-25.69 1.32-21.26-61.67-8.06-77.7 31.33-3.35 29.15 65.25 8.06 77.7zm506.95-126.19c-43.25-11.57-74.21-132.57-16.13-128.44 33.1 26.98 53.45 99.56 16.13 128.44zM236 618.37c-25.34-5.7-35.35-36.43-35.08-58.61 1.48-2 2.53-5.81 4.89-6.42 6.33-1.15 1.74-12.87 9.66-10.48 30.27 12.76 31.72 38.39 34.09 64.92.44 5.79-7.36 3.11-9.05 7.57a5 5 0 0 1-4.51 3.02zM75.37 576.18c-13.45-24.32 51.82-56.64 73.18-50.25 14.3 15.15-6.62 35.13-22.43 41.83-12.33 5.5-25.86 7-35.25 7.73-5.96-4.25-9.71-2.84-15.5.69zm224.12-17.52c-39.45-8.57-88-117.73-37.1-114.73 35.54 17.69 64.39 82.58 37.1 114.73zm231.29-56.87c-22-14 22.42-105 45.43-79.34 14.42 20.36-9 59.44-26.48 74-7.73 5.67-9.32-2.34-18.95 5.34zm183.61-39.39c-21.31 0-39.29-13-62.37-31.43-14.27-33.71 33.39-23.89 53.8-11.41 22.18 10.28 42.8 44.97 8.57 42.84zM141.54 442c-15.36-.74-17.46.41-18.83-14.22 1.86-28.33 67.69-57.93 90.79-39.63 8.65 32.48-43.73 54.01-71.96 53.85zm198-8.72c-58.44-26.05-46.16-116.64-3.3-58.78 9.11 15.64 24.23 37.47 17.76 54.53-7.23-.92-8.61.58-14.41 4.2zm520.83-2.46c-30.6-12.32-43.63-53.43-41.42-87.48.28-5.56 5.62-3.7 9-2.72 3.49.22 5.26-4.15 9-3.07 29.11 2.31 54.64 82.78 23.47 93.22zm-125.78-56c-29.57-14.5 11.4-57.63 30.43-59.21 8.28 5.38 21.41.54 13.85 18.57-7.21 21.6-25.01 32.9-44.23 40.6zm-313.34-11.91c-34.11-4.09-67.71-52.07-47.56-80.44 31.94-21.18 59.41 64.68 47.56 80.44zm-282.17-21.7c-6.4-.27-1.91-9.62-8.13-10.78a4.05 4.05 0 0 1-1.61-6.63c21-26.46 104-64.05 106.48-21.49v-.09c-34.82 41.96-57.46 29.97-96.74 38.99zm525.6-18.86c-16.43 1.61-68.12-21.09-46.25-43.82 28.43-17.6 111.08 42.58 46.25 43.82zm242-19.7c-20.75-.77-59.06-16.33-59.21-43.45 21.09-17.82 67.75-1.57 75.08 25.15-.69 3.1.16 6.49 3.31 7.83 9.27 9.5-13.92 10.27-19.21 10.47zM249 221.34c-82.18 3.23-31.39-52.91 18.72-51 10-.27 59.78 7.11 50.72 20.44-10.44 21.49-34.95 29.9-69.44 30.56zm382.35-3.79c-69.12-2.22 10.11-61.67 42.67-46.21 37.56 7.28-25.22 50.66-42.65 46.21zM89 215.72c-17.8-18.94 2.94-63.31 23.38-73.86 10.07 2.66 14-5.68 17.91-.25 9.64 29.02-14.13 67.47-41.29 74.11zm766.27-37.4c-19.37 0-34.27-10.32-51.47-22.22-14-8.8-10.69-5.94-9.66-19.86-1.71-19.23 32.86-5 43.75-3.46 23.18 3.22 57.2 47.36 17.34 45.54zm-622.18-33.79c-28.3.23-56.26-56.74-27.91-71.11 26.06 3.39 52.19 54.17 27.91 71.11zm353.2-3.38c-22.07-1.37-48.21-13.36-60.52-29.53-3.2-6.31 7.16-5.7 6.81-11.47 23.1-28.07 133.51 39.52 53.71 41zm-228.9-13.1c-27.78.07-51.63-9-65.44-25-3.87 0-5.41-5.49-2-7.41 38.96-32.45 160.49 19.15 67.44 32.41zM92.44 93.73c-59.18-2-28.19-44.11 14.79-40.15 56.53 5.42 22.84 40.59-14.79 40.15z" style="fill:#677f5b;fill-opacity:1"/><path d="M449.22 1431.25c-27.38-3.77-17.54-50-9.86-68.3 3.53-8.19 2.1-24.11 13.21-26.61 27.51 20.54 38.62 84.19-3.35 94.91zm120.4-121.31c-7.68-1.22-47.15-1.9-44.78-16.72 22.37-22 81.38-52.58 87.58-6.5-3.05 19.45-26.5 22.68-42.8 23.22zm-195-6.94c-17.59-1.31-36.18 4.37-50.6-10.56-13.22-9.71-14.68-36.42 6.39-38 17.27-1.11 90.06 49.07 44.24 48.56zm12.57-98.18c-21.49 3-90-24.25-47.58-43.3 25.39-6.52 110.47 43.05 47.61 43.3zm184-1.57c-19.79-1.16-45.46-3.07-51.85-19.29 56.83-55.06 132.14 12.55 51.89 19.29zm-402.44-64.14c-28.94-3.84 1.91-70.87 14.28-74.48 18.9 14.37 14.13 67.76-14.24 74.48zm229-48c-25.23 2.52-88.07-33.34-46.69-48.21 26.94-.59 113.04 46.42 46.72 48.23zm186.92-9.85c-9-.78-58.6-4.85-42-18.53 13.72-10.65 27.3-20.7 46.88-20.52 49.1-4.36 38.01 43.46-4.85 39.07zM292 1067.43c-24.48-2.54-45.7-18.77-63.79-33.4-6-11.83 18.15-10 25.21-11.34 20.25-2.99 78.4 31.23 38.58 44.74zm-184.35-84c-28.29-2-32.09-35.37-2.93-38.64 12.88-3.9 68.4-5.44 55.91 15.1-14.41 14.59-32.27 22.53-52.97 23.57zm302.68-22.09c-22.49-2.64-45.28-3.87-64.45-21.22-9-8.71-10.75-22.83 6.95-23.21 18.43-5.63 111.87 44.38 57.51 44.46zm180.12-.49c-14.91-1.53-30.27-3.21-44.81-8.33-16.29-12.38 27.1-25.48 39.92-26 34.12-6.07 40.13 30.95 4.9 34.36zm-285.59-3.53c-21.59-3.52-41.53-12.81-56.38-21.69-27-15 14.93-23.35 28.52-19.76 19.19-3.23 64.1 31.78 27.87 41.48zm492.41-27.5c-25.61-12.14-26.84-57.9-17-80.41 27.44 12.37 48.58 66.59 17.01 80.44zm-132.2-40.76C630.51 876 693.44 829 713 839c2.15 22.82-22.22 46.21-47.92 50.09zM130 865c-67.54-12.46-7.08-50.47 45.64-29.48 22.95 15.24-33.5 32.11-45.64 29.48zm765.42-5.65c-28 1.53-46.33-18.67-63.5-36-10.74-9.9 14.39-9.39 19.58-9.59 22.7-5.76 86.39 33.72 43.95 45.55zm-303.22-.47c-95.55 3.88-.48-44.28 30.87-25.81 16.93 19.28-16.06 26.7-30.87 25.81zm-283.92-8.12c-15.82-.32-31-5.89-45.92-16.45-20.5-13.27 13.82-24 25.49-23.44 22.27-4.48 57.83 38.3 20.46 39.85zm104.57-7.91c-78.93 1.67-90.5-99-19.18-37.22 5.41 7.78 37.75 31.3 19.21 37.18zM644 786.26c-60.72-10.89 29.26-60 40.3-32.11-4.39 16.79-25.04 32.85-40.3 32.11zm-317.2-23.5c-18.5-1.71-28.31-21.45-35-34.7-3.55-38.25 84.7 26.16 35 34.7zM875.15 743c-23.36-3-52.77-8-67.18-27.44 15.35-17.22 55.22-17.1 76.75-6.24 19.37 9.14 11.74 35.19-9.57 33.68zm-319.23-3.76c-48.92-.84 60.17-65.24 57.57-21.61-3.2 24.46-39.36 17.75-57.57 21.63zm-121.83-16c-85.37 6-97.4-84.85-39.66-53.63 12.12 8.24 52.57 39.24 39.66 53.67zm384.17-98.06c-65.71 4.75 7.22-47.35 33.93-41.74 57.68 12.94-5.83 44.17-33.93 41.78zm-385.1-8.38c-45.79 5.48-81.27-79-24.73-50.77 9.57 7.54 50.42 49.97 24.73 50.81zm14.3-105.76c-26.25 3.14-78.92-54.8-43.27-71.51 17.1-4.25 58.73 62.16 43.27 71.55z" style="fill:#9577c1;fill-opacity:1"/><path style="fill:#485f47;fill-opacity:1" d="M201.412 17.143a7.096 7.096 0 0 1-.752.646c-9.85 11.34-20.27 22.2-28.28 35.05-3.19 5.12-27.6 12.671-31.25 9.401-21.22-19-61.88-17.17-81.71 2.62-33.3 28.29 56.15 52.67 81.68 9.9 4.92-7.06 9.61-5 15-5.63 2.12-.24 3.53-.63 1.31 2.6-7.7 11.17-14.92 22.69-21.95 34.3-5.41 8.94-7.5 19.27-17.9 25.68-31.24 19.26-46 47.4-38.32 83.09 4 14 11.77 19.41 22.27 6.17 6.33-6.34 13.15-12.54 18-20 11.17-17.15 22.07-34.46 18.05-57-1-5.48-7-9.63-4.23-15.41a373.68 373.68 0 0 1 48.58-73.45c10.55 16.06 5.87 14.85 5.32 31.06a213.54 213.54 0 0 0 8.3 33.83c5.23 15.24 21.14 29.08 38 29.08 18.41 2.07 13.73-30.69 11.58-41.68-2.42-18.22-26.79-41.54-44.9-42.44-2.37-.12-12.56-16.5-11.42-18.52 2.934-8.193 15.704-19.345 24.751-29.297h-12.129zm230.451 0c.403.6.763 1.195 1.037 1.777 9.45 20.12 19.19 40.12 27.95 60.54 3.28 7.63 19.43 16.25.17 24.54-8.06 4-15.73 15.1-25.51 12.39-61.19-10.21-34.2-37.39-105.15-39.22-14.85-.85-29.16 3.83-42.49 10.17-26.17 10 5.06 27.51 17.2 35 19.33 9.09 38.7 13.59 60.81 11.57 16-1.46 28.68-15.12 44.92-13.6 7.08 1.32 14.33 3.82 21.83 4.24.05 0 .12 1.95-.27 2.16-5.89 3.12-8.83 9.49-13.76 13.17-10.26 7.68-17.19 18.15-25.88 27.07-5.3 5.43-8.32 14.74-16.38 15.69-7.72.91-15.5 1.34-23.3 1.6-9-.5-19.33 2.22-27.83-.35-10.19-11-24.06-15.72-37.66-18.5-27.41-5.61-53.83-1.13-75.94 17.09-9.15 7.53-24.37 14.65-16.26 30.59 5.21 10.24 19 12.57 28.39 13.2 30.45 2 61.64 4 87.73-18.32 4.87-4.16 8.09-11.64 14.36-12.49 13.22-1.79 26.73-1.71 40.07-2.34 8.73-.77-4.67 10.93-5.95 13.85-10.33 13.59-20.57 27.26-31 40.78-6.62 8.59-9.08 21.84-22 23.47-25.59-.07-48.25 16.2-75.1 10.21-21.91-5.82-43.79-3.2-65.07 7.09-15.72 8-52.9 29.46-47.15 49.19 10.55 15.11 44.47 3.72 60.66 3.51 21.59-2.31 38.19-13.19 52.86-28.31 5-5.14 5-15.64 9-17.07 22.29-7.83 45.3-13.5 66.42-19.44-13.07 20-26.28 41.67-40.94 62.27-9.6 13.49-9.62 34.5-30.28 39.58-7.2 1.77-15.47 9.41-21 5.84-30.83-20.11-88.94 8-102.82 39-6.06 12.41-5.18 24.2 11.44 22.09 31.49 1.08 65.75-.17 84.66-30.14 5.9-8.94 6.72-22.74 20.87-25.07 3.05 0 12.07-6.31 10.12.26-14.37 30.45-30.77 59.87-44.06 90.85-5.46 12-4.72 28.2-19.72 34.73-4.94 2.15-9 7.64-14.4 7.64-18.14-5.06-36.24-4.27-52.47 4-15.14 7.34-29.84 16.3-40.2 30.87-6.1 8.58-7.8 20.79-1 22.78 26.31 6.78 77.17-5.12 85.8-33.84 3.64-13.15 12.12-19.5 24-22.83-10.31 33.37-20.95 67.84-26.14 103-1.75 12.2-.56 25.81-11.81 35.83-5.75 5.12-8 13.61-9.8 21.54a99.36 99.36 0 0 0 .29 45.38c2.29 9.64 7.7 19.39 16.66 23.39 9.87 4.41 13.28-6 18-12.47 13.82-18.74 12.9-39.23 8.42-60.57-2.13-10.13-13-17-12.62-26.27 2-45.38 15.3-90.62 32.19-132.26 14 23.59 4.51 29.72 4 54 1.36 22 16 43.92 37.27 48.48 6.66 1.43 16.18 2.3 18.16-9.31 1.44-8.45-.89-16.41-1.89-24.52-2.68-21.61-8.82-41.11-31.92-50-9.22-3.54-23-26.42-20.24-32.68 10.64-24.42 21.44-48.76 32.21-73.13.88-1.95 2.37-3.32 3.26-1.86 2 6 5.49 11.17 3.47 18.55-8.19 37.16 10 84.58 42.39 104.89 16.79 8.38 14.26 11.93 6.41 26.75a1485.36 1485.36 0 0 0-70.08 229.6c.48 22.42-38.21 19.27-53.26 14.3-24.27-10.94-88.17-4.6-64.48 35 15.62 16.54 61.21 8.9 75.42-6 9-9.48 18-17.12 31.44-19.22 6.26-1 5.69 2.05 4.76 5.18-2.94 9.86-4.44 19.9-5.93 30-2.72 18.56-7.31 36.87-9.39 55.47-.67 6-2 15.75-3.75 16.32-5.65 1.77-13 4.14-18.86 4.27-2.81.06-5.28-.38-7.08-1.64-20.72-15.93-78-18.39-88.27 8.75-8 54.39 67.73 34.23 87.69 5.12 6.32-7 16.33-2 24-5.16-.35 23.1-4.72 46.86-6.35 70.17-1 9.8 1.79 22.07-3.12 29-13.6 19.18-25.77 38.31-28.1 62.23-1 10.37-4 22.07 8 28.18 35.37 13.26 47.87-44.25 38.1-68.45-4.24-14.61-14.36-27.69-7.8-44.08.68-1.7 1.66-4.89 2.09-4.82 3.55.55 7.51.67 11.26 1.07 4.29.46 8.3 1.31 11.07 3.61 21.29 17.74 43.16 34 70.09 42 18.17 8.06 35.24-12.88 24.79-30.08-13.86-22.21-41.27-28.35-65.55-26.8-13 2.23-25.49 9-39.61 3.8-6.56-2.25-11.93-4-11.42-9.5 5.9-24.52 6.2-51.46 12.77-76.31.53-2.46-1.26-9.8 8.37-7.3 10.88 2.82 20.14 6.18 29.7 12.67 14.73 10 31.19 17.73 49.28 21.29 20.27 6.49 41.31-5.49 30.9-27.35-13.72-24.05-52.91-31.94-77.06-20.82-9.63 4.57-19.53 5.31-29.71 5.2-15.64 1.22-3.79-19.72-4-28.58 2.8-15.93 4.84-32 8.67-47.71 1.06-4.32-1.79-13 6-13.15 7.79-.15 17.27.11 22.73 4.4 14.55 11.43 30.86 17.35 48.1 22.82 16.25 5.16 33.87-4.72 32.39-21.42-1.16-13.12-12-19.86-22.4-26.29-13.66-8.46-39.09-3.15-52.77 9.42-9.57 8.79-18.13 1.53-26.75.09-4-.67.13-6.55.55-9.68 2.81-31.47 15.18-60.54 24.15-90.45 1-3-2.41-15.24 8.88-9.08 7.84 4.28 18.61 8 21.91 14.85 8.23 21.08 29.81 57.62 56.95 39.78 23.3-21.78-18.83-53.5-41-52-23.39 2.15-17.14-4.73-36.83-13.67-1.34-1.09-5.64.46-4.35-3.65 13.72-43.13 26-87.41 44.78-128.58 27.68-39-1-128-53.23-126.91-4.36.27-14.77-9.7-13.19-15.67 4.17-8.86 8.68-17.75 13.45-26.1 12.54-22 21.69-45.91 37.22-66.09.78 1.35 2.15 2.73 2.34 4.25.89 7.13 10 12.29 6.36 19.84-3.41 7.14-3.61 15.08-2.76 21.41.52 42.87 66.63 93.86 67.2 45.4-.4-22.76-17.88-54.75-37.07-67.4-7.62-4.91-19.68-3.82-22.16-16.06-.75-6-10.44-11-7.41-17.37 20.27-30.13 39.53-61.68 62.08-90 4.06 6.95 5.38 15.16 7.91 22.76 2.11 7.43 7.57 16.31 5.31 22.12-5.84 14.95-6.95 29.44-2.85 44.33 4.31 15.66 11.13 30.31 25.85 39.08 6.76 4 14.67 6.13 21.53 10 8.22 4.64 14.11.24 14.92-8.35 2.06-29.31-7.88-68.19-34.82-83.65-4.7-2.79-12.93-3.12-14.65-6.85-6.68-14.44-11.46-29.79-16.73-44.85 10.9-27 36.4-49 55.13-71.56 17.28-17.29 35.82-37.85 58.2-47.85 3 6.45 7.66 12.95 8.08 19.69 4.25 53.22.51 106.61.73 159.84.93 62.09 4.79 124.22 1.72 186.26-.1 3.44 2.46 7.42 1.4 10.28-2.76 7.52.24 14.91-.85 22.41-1.32 9.09-.31 18.5-.31 29.5-2.47-2.79-3.29-4.49-4.62-5.11-19.1-8.51-25.83-29.4-32.76-47.23-8.25-19.42-28.32-60.52-54.09-47.72-21.19 14.72-5.9 46.37 8.49 60.4 8.86 9.24 19.05 17 32.32 20.85 6.91 2 14.37-1.76 20.11 3a148.88 148.88 0 0 1 18.87 17.93c3.38 4 11.06 3.77 11.15 9.7-.88 31.87 3.32 64.49-2.38 95.9-9.56-10.65-28.2-17.59-34.62-29.14-8.76-22.86-36.67-70.34-65.42-59.56-7.05 4-12.08 9.74-11.6 19.41 1.87 23.32 28.63 49.06 53.5 49.21 12-1.54 23.13-2 31.4 10.15 10.65 12.92 31.13 15.5 28.86 37-2.26 26-4.74 50.73-5.74 77.23-8.53-10.18-19.18-16.08-28.55-23.57-9.06-7.24-12.89-18.4-18.66-28.1-10.78-16.11-41.07-43.08-61.75-40.29-23.47 3.77-27.71 33.7-11.8 48.51 20.41 20.38 45.2 27.31 73.69 24.31 16.86-1.78 25 13.59 36.45 21.94 4.22 3.07 11.69 3.68 11.09 12.65-2.34 34.85-3.88 69.75-5.76 105.28-9.19-5.57-18.82-11.53-28.57-17.26-5.13-3-11.84-4.48-15.45-8.7-16.18-22.91-32.27-46.39-58.14-59.56-39-20.2-44 28.68-20.23 46.12 15.85 12 33.18 18.42 53.13 20.34 6.6.63 13-3.62 19.61.52 10.64 6.65 22.16 11.95 32.59 18.89 8.07 5.38 19.12 7.47 17.15 23-3.69 26.78-2.59 54.2-5 81.12-14.93-10-31.4-17-45.18-30-18.67-18.45-42.4-30.07-70-31.14-8.33-.32-15.81-.13-20.56 7.84-13.59 32.19 53 50.44 77.76 47.52 16.9-2.89 33.18-.8 47 10.73 3.61 3 10.7 2.82 10.14 9.8-1.41 17.52-3.41 35-4.57 52.53-1.1 16.47-1.37 33-2.2 49.48-.08 1.51-1.6 2.94-2.46 4.41-9.36-6.06-22.62-4.61-29.68-14.81-5.8-8.39-12.85-15.65-21.48-20.48-19.09-9.46-57.73-35.22-75.33-13.79-5 8.06-5.64 18 2.48 26.15 16.35 17.34 40.36 27.65 64.23 26.64 29.21-6.26 26-8.85 53 3.59 6.67 1.52 7.78 4.81 7.4 10.63-2.13 32.42-4.08 64.86-6.06 97.29-.14 2.42-1.3 3.54-3.53 2.58-8.32-3.62-17.45-6.2-24.64-11.43-9.55-6.93-16.78-17.08-26.4-23.86-16.73-11.78-35-20.48-56.26-21.2-8.35-.28-16.07 1.22-20.64 7.78-22.72 33.27 42.54 48.49 65.44 47.93 30.73-3.21 32.92-6 61.57 9.54 1.28.58 3 1.12 2.89 3.85-1.4 24.52-2.24 49.08-4.06 73.56-.23 3 4.18 11.58-5.63 9.84-9.14-1.63-18.25-3.52-27.26-5.77-7.11-1.77-16-2.22-20.66-6.79-20.06-19.3-45.76-53.21-77.49-42.09-18.87 10.75-10.09 41.37 7.1 49 17.42 9 35.86 9 54.91 6.5 5.65-.75 10-6.3 15.49-4.18 12.76 4.94 26.37 6.17 39.33 10 6.6 1.39 16.84 2.08 13.9 12.26-1.05 4.51-6.28 7.93-7.87 12.46-6.94 19.66-13.82 39.33-17.57 60-1.7 9.35 6.15 33.41 14.05 37.12 17.77 8.33 40.71-4.9 43.57-24.6 1.78-12.32 2.81-24.32 0-36.71a80.08 80.08 0 0 0-22.61-40.52c-6.22-5.65-4.59-17.47 5-16.44 17.74-2.68 35-11.21 52.87-13.44 11.76-1.68 22.38 6.2 33.66 9.29 18.41 5 35.67 2.09 52.49-4.5 14.21-5.57 16.78-18.69 14-31.56-3-13.64-15.48-18.74-27.63-19.29-19-.86-35.24 8.44-50.25 19.24-7.81 5.63-14 14.52-22.59 17.81-15.71 6.06-32.56 9.22-49 13.23-3.53.86-8.76 6.71-8.6-4.86.41-29 6.87-57.37 6.6-86.31a3.18 3.18 0 0 1 1.42-2.53c14.8-5.34 28.76-12.42 42.51-20a6.21 6.21 0 0 1 5-.35c26.48 15.55 61.41 25 89.81 7.54a19.85 19.85 0 0 0 8.55-18.57c-1.5-25.69-36.47-28.5-56.4-23.66-17.65 4.09-31.91 16.06-46.66 25.63-12 7.13-25.54 11.62-38.33 17.43-11.63 10.63 2.32-73.48 1.7-79.36.61-13-1.65-25.26 16.33-29.14 11-2.37 21-8.15 31.71-11.52 30.61-9.91 49.19 18.07 89 1.18 9.68-3.78 19.2-8.39 19.89-20.13-.95-42.42-63.07-29.63-84.39-9.63-11.33 12.38-10.75 15.28-27.52 20.33-13.24 4.84-26.81 8.92-40 14-4.29 1.64-2.7-.86-2.63-2.12 2.44-35.44 3.76-71 6.15-106.39-1.78-14.94 10.48-12.82 20.46-17.32 33.43-18.32 66.66 16.72 101.35 3 31.07-9.52 23.34-43-7.38-45.95-20.63 1.08-39.47 8.24-56.28 19.19-16.08 10.47-35.28 10.51-51.8 18.7-1.63 1-4.47 1.42-4.16-2.22 1.29-23.59 2.62-47.18 3.45-70.78.22-6.19 1-9.27 8.19-11.28 6.07-1.69 12.34-3.25 18.46-4.61 10-2.24 19.35-8.33 30.1-6.86 25.14 2.19 83.08 17.42 91.07-16.9 1.59-6.89-1.73-13.24-8.12-17.29-28-16.63-63.46 7.05-86.55 22-13.14 7.22-28.84 7.13-42.62 12.47-9.61 3.73-8.75-.69-8.44-7.17 1.46-30.81 2.74-61.63 4-92.45.22-5.32-2-10.06 7.74-10.77 19.12-1.41 37.94-6.22 57.36-5.86 18.15.34 36.27-.45 52.56-10 17-7.25 14-35.29-4.56-37.94-31.3-4.69-54.1 12.74-72.42 35.64-10.4 3.13-21.21 4.76-31.91 6.74-10.23 2.68-9.05-4.92-6.81-11 3.71-68.11 4.46-136.23 4.14-204.42.29-14.3 3.5-29 1.24-42.79-2-12.39 1-24.27-.75-36.5-1.55-11 1.85-22.65 1.15-33.89-3-30.62-1-61.36-1.86-92.07-2.74-60.33-.58-120.59-5.89-180.82 22.12 44.85 40.67 91.34 59.85 137.77a4105.957 4105.957 0 0 1 29.75 80.12c2.54 7.14 6.78 16.37 4.31 22.06-6.47 15-11.24 28.45-27.66 37.25-31.69 17-40.06 49-40.14 82.93 3.79 46.61 73-24.29 65.23-63.06-.32-16.13-3.61-33.3 7.16-46.81 10.82 24.7 15.81 52.46 22.72 78.66 1.65 7.52 8.88 14.81 4.49 22.49-21.34 40.44-10.57 118.83 37.92 134.82 8.25 1 17.82-.57 24 6 14.9 15.87 29.32 32.8 37.26 53 3.92 10 22.63 21.69 3.27 34.16-51.14 46.94-49.83 4.15-91.35 35.13-8.17 6.78-19 12.85-12.79 26.22 4.48 9.71 13.68 14.35 23.74 14.13 16.74-.37 36.14-7 44.42-32.57 1-3.2 2.37-7.12 4.85-8.89 13.47-9.54 27.31-18.55 41.09-27.66 2-1.34 3-.88 3.93 2a1290.387 1290.387 0 0 0 15.67 45.24c3.62 9.77 7.58 18.66-4.39 26.29-5.43 3.47-8.84 10-13.51 14.82-24.79 32.51-63.89 13-83.42 60.3-4.15 10.4 1.35 20.65 12 23 22.32 1.3 46.54-19.17 53.58-39.86 2.19-6.58 1.24-15.94 5.53-19.72 9.42-8.31 19.19-16.18 27.65-25.56 6.63-7.35 12.74-14.36 16.24 2.65 2.06 10.71 10.32 20.72 9.38 31.85-1.36 11.77-4.69 23.53-5.2 35.76-.47 18 8.46 63 32.92 56.65 32.56-13.71 14.12-59.93-1.75-80.4-23.12-21-18-12.74-24.72-44.73-3.52-7.67 34.33 7.65 38.9 7.36 4.9 1.31 9.63 3.38 13.55 8.48 8.89 11.58 20.22 21.47 32.72 30 83.572 36.862 72.064-51.443-10.81-49.49-9.56.19-18.67 5.61-27.42 4-14.28-2.65-27.89-8.09-41.6-12.95-3.5-1.24-8.37 2.11-10.64-4.87-6.56-20.15-11-41-19.9-60.46-1-2.24-6.36-9.17-.28-10.73 16.79-3.32 36.81-4 53.43-1C824.5 741.69 852 751.54 881 748.89c52.5-4 16.69-77-63.86-46.83-7.12 2.55-11.94 9.88-19.79 9.88-13-1.21-26-.7-39-.43-5 .07-11.55 6.2-15.37-1.43-9.15-18.26-15.06-38.12-27.83-54.44 20.41-4.22 38.88-12.95 58-19.77 6-2.13 10.53-8.72 17.87-6.37 22.36 6.79 93.1-2.3 93.36-31.78-.33-12.41-12.11-18.91-23.29-20.46-36.43-5.49-64.75 17-82.57 45.72-8.72 3.53-69.78 30.16-72.5 22.17a93 93 0 0 0-24.42-24.89c-14.5-4.88 19.72-31.9-2.58-89.57-5.94-23.57-23.26-43-45.45-50.86-10.75-21.95-13.52-47.8-19.62-71 33.39 13.43 23.6 10.22 45.16 35C679 459.71 699 471.1 725.47 467.2c8.69-1.28 19.2-10.74 16.6-16.28-14.51-33.73-51.33-58-88.52-48.26-6.13 1.47-8.85 12-17.67 6-4-2.7-9.76-3-13.39-6-4.49-3.41-11.49 1.43-13.49-6.16-11.71-43-27.76-84.16-43.85-125.77 6.06-.31 10.1 3.36 13.84 6.23 9 6.72 22.84 3.77 28.73 17.57 10.34 24.25 56.26 48 83.07 30.58 7.67-5 12.57-10.29 5.29-19.09-17.33-20.81-41-41.3-70.21-33.74-6.28 1.68-11.44 7.91-18.21 5.88a103.05 103.05 0 0 1-22.6-9.41c-9.44-5.4-23.26-3.11-27.45-16.06C535.72 199.85 514.09 146 488 95.57c.61-.1 1.38-.48 1.8-.24 4.77 2.79 9.91 3.49 15.37 4 18.83 2 4.1 15 36.55 33.2 18 13.08 65.21 23.62 81.36 6.53 7.55-12.89-4.82-19.17-11.35-25.56-17.29-16.42-43.05-30.3-67.73-24.59-9.52 2.24-18.07 9.31-29 3.85-11.17-6.42-34.37-4.39-40-16.76-9.392-20.973-22.246-39.906-35.03-58.857h-8.107zm195.94 0c25.161 48.22 59.392 90.946 88.748 136.197-6.76.42-11.802 3.46-17.772 6.21-6.37 2.09-11.698 8.17-18.888 6.63a74.25 74.25 0 0 0-69.602 17.19c-9.46 7.92-18.82 18.59-10.93 31.92 5.5 9.3 17.1 7.55 27 8.24 26.31 1.86 57.79-14.68 64.57-41.45 3.42-15.24 16.19-18.16 27.27-25.26 25.07 35.34 42.612 75.13 63.942 112.73 6.11 9.88 18.898 21.17.398 33.29-9.35 7.72-13.779 4.73-23.459 7.43-23.64 11-50.28 36-40.68 64.88 3 5.15 8.87 7.93 14.58 5.75 13.49-5.13 26.83-10.19 38.1-20.31 31.9-28.15-1.21-45.8 27.72-60.71 3.73 14.77 19.87 24.26 14.91 43.5-3.39 13.19-.93 27.95 2.89 42.07C823.16 410 842.21 441.49 871 437c8.36-3.41 6.27-13.38 7.78-20.44 2.7-12.57 1-25.36-1.53-38.07-4.18-21-15.2-36.41-34.51-45.67-5.07-2.44-13-2.73-15.27-6.58-13.91-23.82-27.93-47.83-40.19-72.51a118.21 118.21 0 0 1 23.72 5.53c40.76 7.61 14.33 12.7 56.72 37.93 19.69 17.2 87.67 21.18 59.04-22.02-19.7-29.39-54.22-39.1-87-24.43-2.83 1.27-3.54 6.13-8.33 4.15a130.27 130.27 0 0 0-45.87-9.89c-2.54-.08-3.47-1.61-4.56-3.64-23-43.54-45.23-84.11-75.29-124.53 19.93 8.48 38.82 12.61 57.12 18.54 8.76 2.84 20.7.7 24.76 13.24a16.35 16.35 0 0 0 6.16 8.05c20.35 13.29 38.75 31.28 66.45 27.13 14 .19 24.2-9.2 17.19-23.36-8.48-15.32-18.88-27.63-36.75-33-18.49-5.55-36.4-11.41-55.56-2.81-2.12 1-1.48 5-6.18 3.46-17.69-5.65-36.08-9.2-53.52-15.44-12.29-3.93-24.88-1.15-33.08-14.64-17.328-27.401-39.07-51.946-54.275-80.857h-10.222zm-523.87 40.392a102.32 102.32 0 0 1 3.176.045c4.93.6 19.93 2.17 22.4 6.26-20.82 2.5-45.258 7.3-67.368 11 11.306-13.285 25.986-17.27 41.793-17.305zM135.52 70.94c-22.3 23.89-54.76 21.832-70.93 11.272l70.93-11.272zm69.7 6.49c22.574 5.027 35.569 34.975 33.104 55.175-11.138-18.55-22.055-36.763-33.103-55.174zm-7.5 6.49.04.01c12.38 18.46 24 37 35.68 56.61-22.66.3-38.31-33.99-35.72-56.62zm131.477 5.337c24.872-.35 49.392 8.9 58.422 18.744-31.3-5.13-62.619-9.48-95.619-9 11.045-6.744 24.17-9.561 37.197-9.744zm220.448 8.56C571.215 97.641 602.356 111.98 613 130c-26-11.29-50.28-22.48-76.39-29.61 3.588-1.719 8.057-2.533 13.035-2.574zM301.85 108.35l83 9c-16.18 12.65-63.49 6.11-83.04-8.99l.04-.01zm230.146.853a16.71 16.71 0 0 1 5.174.797h.04c24.11 7.16 47.73 19.65 72.46 23.06-13.45 4.27-27.29 6.09-41.14.94-13.75-6.08-30.74-11.79-39.27-24.56a16.71 16.71 0 0 1 2.736-.237zm273.602 21.615c10.812-.2 20.954 3.672 31.463 5.912 14.79 3.61 24.169 14.08 32.279 25.47-12.49-5.28-24.42-9.9-36-15.33-11.37-5.35-23.38-8.54-35.32-12.06-.48-.14-.68-1.25-1-1.91 1.31-.63 2.55-1.59 3.9-1.77v.04a40.791 40.791 0 0 1 4.678-.352zM126.74 143.471c7.06 12.84-2.36 27.06-6.32 39.24l.04.01c-3.77 10.42-11.55 17.999-20.35 25.449 8.56-21.7 16.39-43.71 26.63-64.7zm-12.23 1.93C107 167.47 97.66 188.54 89 211.72c-2.65-13.53-4-25.84 2.34-38.16 6-10.28 11.91-23.1 23.17-28.16zm681.59.65c27.9 6.28 50.19 17.66 73.43 26.17v.039c-29 8.39-48.93-10-73.43-26.21zm-131.217 27.246c2.172.042 4.217.233 6.088.584-22.97 10.76-42.471 21.758-63.631 30.558 3.57-18.034 36.543-31.55 57.543-31.142zm-398.145 1.078c16.693.012 34.044 4.697 50.262 12.625-25.88-1.92-46.83 3.42-68 6.14-13.36 1.17-26 7.82-39.58 7.41 15.48-18.477 35.856-26.19 57.318-26.175zm414.399 2.857c1.947-.09 1.806 2 .963 3.387-14.59 25.3-39.3 36.521-68.52 32.291 24-12.77 44.39-22.54 67.14-35.63a3.16 3.16 0 0 1 .417-.048zM310.67 197.03c-14.18 17.46-57.96 26.97-100.98 14.9l-.02-.029c33.94-5.35 66.75-14.2 101-14.87zm561.215 59.196c11.153.064 21.952 3.286 32.115 10.304 3.89 3.26 15.16 12.84 14.57 18-22.92-5.76-44.49-17.218-67.08-25.148 6.885-2.096 13.703-3.195 20.395-3.156zM851.74 270.93h.05l72.45 24.9c-28.76 8.99-49.54-4.62-72.5-24.9zm-216.426 8.888c21.111-.07 35.837 14.489 52.266 30.942-23.69-12.08-45.34-20-68-28.4 5.651-1.731 10.863-2.526 15.734-2.542zM383.25 281.37c32.49 15.366 31.75 46.842 37.994 77.514-16.187-25.827-28.625-50.907-37.994-77.514zm-9.25 5.092c10.54 23.79 19.31 48.538 36 71.408-31.47-22.06-43.51-46.678-36-71.408zm-158.97 2.123c4.66.054 9.46.395 14.42 1.035-33.97 9.92-63.6 23.7-97.27 37 24.5-24.675 50.225-38.415 82.85-38.035zm399.84 2.016 67.71 25.23c-26.69 7.2-48.09-.94-67.71-25.23zm-383.929 8.892c.594.003 1.19.035 1.79.098a13.83 13.83 0 0 1-1.622 2.85c-24.55 30.85-55.19 28.59-92 34.77 10.38-9.29 22.112-10.33 31.782-15.76 10.56-5.92 22.71-9 34.16-13.33 8.634-2.279 16.986-8.67 25.89-8.628zm534.22 20.082c.42.004.828.038 1.22.106l-38.711 43.78c-2.015-14.424 24.434-44.014 37.49-43.886zm9.49 3.862c.404-.009.815.083 1.23.294 3.73 1.92-.35 7.72-1.58 10.85-6.19 15.9-17.472 27.16-34.102 32.36-2.54.8-3.078 5.12-7.318 3.46 11.51-13.3 22.74-26.3 34-39.27 2.345-2.712 4.934-7.638 7.77-7.694zm60.699 17.974c1.59.19 3.42-.06 4.72.65 28.94 16.87 30.2 48.94 28.78 80.16-9-30-21.61-54.81-33.5-80.81zM823 343.14c14 29.78 26.24 55.76 38.49 81.74.27.58.62 1.11.93 1.66-.94 0-2.11.46-2.8 0-29.78-18.39-37.69-48.88-36.62-83.4zm-509 14.99c22 14.87 35.3 41.57 38.17 67.3-1.05-.5-2.54-.72-3.08-1.56-6.69-10.24-13.53-20.39-19.72-30.93-2.58-5.94-19.12-31.11-15.37-34.79v-.02zm-10.06 4.71c6.88 24.2 23.8 43.34 35.65 66.37-32.2-19.53-39.04-49.21-35.65-66.35v-.02zm-106.692 23.797c4.236.09 8.357.644 12.262 1.744l-83.81 36.69c6.588-16.94 41.896-39.063 71.548-38.434zm13.553 11.863c-3.01 23.21-53.75 46.23-83.57 37.59 27.92-12.54 55.776-25.07 83.57-37.59zm457.595 13.63c21.813.007 52.7 17.243 59.893 35.4-24.22-13.61-50.58-21.44-76.12-31.51 2.51-.94 4.96-2.02 7.53-2.79 2.65-.75 5.581-1.1 8.697-1.1zm-101.136 7.45c-12.33 26.35-23.62 49.72-34.38 75.79a11.49 11.49 0 0 1-2 2.42c-9.49-21.48 16.22-67.9 36.38-78.21zm8.57 6.85c2.9 24.39-9.33 50.49-28.57 66.88-6.46 5.22-2.26-3.52-1.75-6.12 10.62-19.68 17.34-43.13 30.32-60.76zm78.68 1.41C682 436 705.07 446.68 729 456.2c-26.36 7.8-46.2-5.8-74.49-28.36zm-250.432 15.707c6.82-.283 16.645 7.139 20.742 14.543 3.18 2.71 31.27 53 20.74 48.81-19.2-.52-48.64-27.64-48.46-49.48-.947-9.88 2.312-13.68 6.978-13.873zm-149.963 2.402c.452-.028.896.026 1.295.182 23.35 7.39 37.21 27.999 44 51.049 4.6 16 10.43 31.29 4.91 48-13.77-24.07-28-47.35-40.41-71.51-4.25-8.24-9.42-16-13.18-24.49-.674-1.455 1.43-3.107 3.385-3.23zm-8.275 10.15v.032c17.92 34.78 33.44 67.558 53.65 98.558-38.16-18.57-56.49-64.56-53.65-98.59zm392.865 34.928c1.463-.168 2.79 2.111 4.025 3.143 23.82 18.74 30.4 48.61 34.15 76.9.66 12.85-6.04 23.66-7.42 35.59-.06.5-.86.92-1.32 1.37-10-36.31-16.84-73.93-30.68-109.35-.8-2.15-1-5.88.21-7.1.352-.345.698-.514 1.035-.553zm-14.586 9.133c13.48 37.62 19.87 77.5 36.56 114.59C628 603 603.94 527 624.12 500.16zm-481.86 29.094a35.79 35.79 0 0 1 5.542.605c-23.64 16.05-50.982 24.06-72.432 42.32 1.828-14.568 38.567-43.868 66.89-42.925zm7.93 10.307c-12.19 24.25-34.7 30.05-59.32 31.93l59.32-31.93zm63.721 6.978c27.934 11.83 29.267 35.299 31.623 61.53-14.046-20.408-20.805-41.164-31.623-61.53zm-6.86 10.602c10.22 16.13 15.42 35.24 27.41 50.66 1.31 1.92 3.93 4.22 2 6.42-23.58-5.8-29.25-30.871-32.06-52.451l2.65-4.63zm185.585 6.199c4.673-.131 10.148 2.233 14.234 6.6 14.19 10.79 23.942 26.65 31.852 42.49-21.93 3.32-49.521-14.07-55.471-35.16-1.305-9.467 3.376-13.761 9.385-13.93zm455.006 23.81c6.866-.145 13.626 1.423 19.82 5.42 6.16 6 3.738 15.66-5.522 18.14-21.71 6.86-45.77 15.54-68.59 7.76 4.02-4.4 7.72-9.25 12.24-13.13h.052c11.268-9.26 26.893-17.87 42-18.19zm-470.862 78.91c8.76-.17 13.85 6.43 20.32 10.46 16.52 10.27 28.611 24.53 37.221 42.77-22.76-1.24-44.73-3.18-62.41-19.56-11.8-8.9-14-33.26 4.87-33.67zm-227.799 3.42c.21 24.13-4.77 46.52-1.55 69.61-12.07-8.88-11.23-50.67 1.55-69.61zm10.64 6.85c8.27 14.78 6.12 31.83 2.77 47.67l.04.01c-1.44 6.44-5 11.49-8.66 16.93 1.51-21.45-.84-44.42 5.85-64.61zm692.765 29.455c39.856.478 57.187 30.352 20.484 33.016-30.53-5.13-34.318-4.582-60.148-22.182-2.04-.87.729-2.81 1.529-3.08h.05c14-5.718 26.925-7.888 38.085-7.754zm-251.172 1.59a76.62 76.62 0 0 1 2.107.035c5.21.19 6.09 5.77 6.13 10.26.06 8.19-7.45 12-12.49 12.53-17.13 1.82-34.11 6.94-51 4.35 6.71-6.77 12.04-14.92 21.18-19.27l-.04.01a76.62 76.62 0 0 1 34.113-7.915zm-302.516 13.633c15.199.062 28.29 8.602 36.793 21.361 2.5 6.27 2.4 13.33-3.41 15.39-14.29 7.48-38.68-24.679-36.46-36.689l.01.04a41.303 41.303 0 0 1 3.067-.102zm367.934 29.482c4.66.82 9.509 1 14.219 1.65-3.46 5.94-4.59 13.04-10.3 17.91-16.47 14-31.69 16.11-41.8 5.54-2.36-2.46-2.3-4.59-.73-6.83 9.26-13.19 23.45-16.33 38.61-18.27zM356.34 788.701c.57.004 1.18.065 1.83.19 21.54 5.67 37.35 22.608 50.49 39.648 2.34 3.03 7.61 5.05 5.75 9.9-23.88-.15-50.14-8.65-62.52-31.66-4.021-5.203-4.115-18.13 4.45-18.078zm-69.54 26.06c12.85-.113 25.4 7.162 31.93 17.31 6.24 8.5 1.19 15.29-12.07 14.65-10.29 1.9-69.2-21.37-37.07-26.84l.04.039c5.429-3.528 11.33-5.107 17.17-5.158zm563.805 2.999c17.012-.186 32.772 4.66 46.924 16.78 5.23 4.46 10.71 10.53 7.41 16.21h.01c-4 6.86-12.918 4.07-20.138 3.59-16.95-1.12-27.602-13.11-39.522-22.73-4.27-3.45-5.74-10-12.1-12.07 5.935-1.098 11.746-1.718 17.416-1.78zm-247.12 14.008c5.995-.014 11.852 1.3 17.326 4.591 3.42 2.32 3 5.89 2 9.15-2.32 8.06-10.57 5.002-12.91 6.872-18.49 5.56-34.17-.1-49.93.45-2.21.08-4.471-1.401-6.711-2.151 1.95-1.22 3.81-2.46 5.74-3.61l-.06.01c13.002-6.57 29.223-15.278 44.544-15.312zm-470.089 1.619c15.144.023 32.402 4.306 41.614 6.033 1.6.28 4.45 1.9 1.99 4.58-17 15.3-42.05 21.82-63.08 13.63-4.7-2.39-8.61-4.31-8.69-9.67 3.09-11.296 14.805-14.594 28.166-14.573zm575.594 7.619c1.104.075 1.505.757.55 4.144h.01c-4.11 29.34-64.39 58.67-47.29 24.62 5.91-12.06 16.57-18.75 29.07-22.7 5.17-1.63 9-6.45 15.06-6 1.024.064 1.938-.11 2.6-.064zm72.82 12.144h.01c18.41 15.72 34.9 44.38 22.33 67.62-1.44 3-5.3 6.14-8.54 4.74-6-2.57-8-9.25-10.26-14.67-7.97-18.42-7.73-38.17-3.54-57.69zm-510.128 66.336c14.318.275 28.754 4.586 39.039 16.053 8 8.75 1.479 21.122-10.131 17.272-20.59-5.81-41.68-12.812-58.14-26.952 3.38-1.57 6.62-3.76 10.18-4.58v.041c6.06-1.25 12.543-1.959 19.052-1.834zm83.972 1.01c21.68.055 61.96 24.328 69.035 35.715l-14.35 1.158c-20.25-2.84-62.058-5-66.778-31.58 2.25-3.748 6.567-5.307 12.093-5.293zm232.586 9.674c25.353-.391 35.55 18.069 2.22 26.71-5.46-.76-52.46-5.07-43.52-11.8 15.121-10.66 29.776-14.732 41.3-14.91zm-459.463 16.004c9.792.138 19.417 2.051 29.002 6.467 4.3 1.98 1.22 3.23.32 4.16-48.61 48.49-98.779 3.41-52.529-8.07 7.875-1.698 15.591-2.665 23.207-2.557zm123.953 81.62c69.302 1.205 66.622 77.305-21.97 2.956a10.27 10.27 0 0 1 2.81-1.51c6.899-1.11 13.287-1.547 19.16-1.445zm338.166 18.352c54.863-.7 25.783 51.721-48.675 21.924 14.25-10.79 26.78-21.48 46-21.81v-.04a91.458 91.458 0 0 1 2.675-.073zm-238.019.758c20.741-.387 61.177 25.255 67.863 35.567-1.8.81-3.5 2.04-5.36 2.34h-.04a75 75 0 0 1-71.34-21.92 9.71 9.71 0 0 1-2.26-9.93c1.843-4.166 5.85-5.958 11.137-6.057zm-169.725 21.774a.32.32 0 0 1 .188.111 22.77 22.77 0 0 1 5.37 12.41v.041c7.27 52.64-31.78 69-27.39 39.82 2.52-15.84 6.65-31.27 15.55-45.07 1.827-2.812 5.186-7.533 6.282-7.312zm161.463 96.162c18.407.613 49.487 16.486 54.655 23.94 2.06 3.31 8.85 4.22 8.01 8.28h-.04c-.71 3-3.18 1.45-4.9 1.89-15.86 5.7-74.43-3.71-71.2-26.4 1.01-5.852 6.272-7.95 13.475-7.71zm229.074 1.707c30.37.466 39.266 26.238 9.08 32.264-20.34 1.32-40.24-.102-57.91-11.942-2.43-1.21-1.588-2.81.202-3.95v-.038c19.154-12.216 35.805-16.531 48.628-16.334zm-243.53 91.918c5.3-.102 10.977 3.164 16.302 5.195 16.73 6.89 28.55 20.78 41 32.83-1.83.81-3.651 2.23-5.541 2.33h-.04c-18.52-1.38-39.78 5.55-54.93-9.09-7.16-7.75-13.45-16.72-5.77-26.45 2.752-3.48 5.798-4.754 8.978-4.815zm257.263 8.781c40.721.791 23.628 62.51-59.922 28.924 12.55-11.1 26.32-20.51 42.32-26.17 6.73-2.03 12.601-2.851 17.602-2.754zm-134.813 73.332c.947.093 1.993.806 3.15 2.342h-.038c16.69 21.94 28.14 68.4-2.06 83.53-9.16 3.09-13.841-3.28-16.141-10.26-1.43-4.33-4.69-9-2.49-13.46-.13-15.06 4.7-28.26 9.12-41.64 1.14-3.451 3.347-21.013 8.46-20.512z"/></g><g data-name="Red Japanese Frames"><path class="cls-6" d="M0 20v1560a20 20 0 0 0 20 20h936a20 20 0 0 0 20-20V20a20 20 0 0 0-20-20H20A20 20 0 0 0 0 20zm924 1528H52V52h872z" style="fill:#000;fill-opacity:1" transform="translate(-23.283 -63.5) scale(.26458)"/><path d="m952.1 15.41-23.41 23.42a4 4 0 0 1-2.83 1.17H50.14a4 4 0 0 1-2.83-1.17L23.9 15.41A2 2 0 0 1 25.31 12h925.38a2 2 0 0 1 1.41 3.41zM40 1549.86V50.14a4 4 0 0 0-1.17-2.83L15.41 23.9A2 2 0 0 0 12 25.31v1549.38a2 2 0 0 0 3.41 1.41l23.42-23.41a4 4 0 0 0 1.17-2.83zM936 50.14v1499.72a4 4 0 0 0 1.17 2.83l23.42 23.41a2 2 0 0 0 3.41-1.41V25.31a2 2 0 0 0-3.41-1.41l-23.42 23.41a4 4 0 0 0-1.17 2.83zM925.86 1560H50.14a4 4 0 0 0-2.83 1.17l-20 20a4 4 0 0 0 2.83 6.83h920.55a2 2 0 0 0 1.41-3.41l-23.41-23.42a4 4 0 0 0-2.83-1.17z" style="fill:#000;fill-opacity:1" transform="translate(-23.283 -63.5) scale(.26458)"/></g></g></svg>