<svg xmlns="http://www.w3.org/2000/svg" viewBox="0 0 976 1600" version="1.1" id="svg8106"><defs id="defs8085"><clipPath id="clip-path"><path d="M960 22v1556a6 6 0 0 1-6 6H22a6 6 0 0 1-6-6V22a6 6 0 0 1 6-6h932a6 6 0 0 1 6 6z" id="path8082" style="fill:none"/></clipPath><style id="style8080">.cls-7{fill:#592116}</style></defs><g id="Paper_Backing" data-name="Paper Backing" transform="translate(-9.437 -6.271)"><path d="M960 22v1556a6 6 0 0 1-6 6H22a6 6 0 0 1-6-6V22a6 6 0 0 1 6-6h932a6 6 0 0 1 6 6z" id="path8087" style="fill:#8ccec4;fill-opacity:1"/></g><g clip-path="url(#clip-path)" id="g8098" style="clip-path:url(#clip-path)"><rect style="fill:#cae8e8;fill-opacity:1;stroke:#fef8c8;stroke-width:0;stroke-linejoin:round;paint-order:markers fill stroke" id="rect8776" width="369.11" height="99.311" x="445.107" y="87.277" rx="75" ry="75"/><rect style="fill:#cae8e8;fill-opacity:1;stroke:#fef8c8;stroke-width:0;stroke-linejoin:round;paint-order:markers fill stroke" id="rect8776-4" width="369.11" height="99.311" x="252.055" y="696.735" rx="75" ry="75"/><path d="M484.52 1477.06c-20.62-22-3.86-88.53 37.2-88.65 23.67 26.96-11.02 78.04-37.2 88.65zm216.87-77.91c-22.89-3.31-51.45-45.77-33.28-64.93 3.22-.26 4.66 3.91 8 3.48 2.41 0 4.75-2.42 7.09-.62 19.99 13.03 32.62 48.1 18.19 62.07zm-562.53-207.54c-36-6.76 24.57-63.8 45.06-48.19 4.72 7.35 13.68-6.81 16.45 2.52-1.11 30.79-35.87 43.22-61.51 45.67zm490.5-85.23c-32-17.75 5.21-66.28 25.81-77.32 36.15-2.25-5.28 75.49-25.81 77.32zM287.47 726.53c-28.19-17 3.21-60.18 25.43-72.19 28.6 10.6-4.81 67.19-25.43 72.19zm526-183.63c-4-3.32-10.4-.69-13.16-4.9-2.85-31.25 26.25-55.93 51.73-67.61 52.16-15.39-4.91 74.06-38.61 72.51zM199.7 275.05c-94-1.76-4.24-53.34 37.15-37.83 4.05-.39 10.28-1 9.68 4.95 22.27 23.41-32.71 34.55-46.83 32.88zm137.09-124.42c-23.85 3.65-77.28-86.44-27.48-67.7 20.44 6.27 62.86 52.64 27.48 67.7z" id="path8090" style="fill:#50b271"/><path d="M588.43 1372.54c-25 2.33-35.53-22-53.5-28.94-12.77 7.87-27.3 18.05-43.41 17-7.71.33-12.22-1.66-12.82-12.3-4.31-30.66-42-4.35-41.22-26.33-4.68-38.59 27.21-54.39 43-80.39 20.89-33.31 42-66.53 62.41-102.24 25.41-5.93 26.25 34.39 37.05 50.68 20.41-3.3 37-7.3 58.57 4.26 17.5 9.46-16.65 34.37 13.65 42.62 27.24 9.69-9.38 34.53-19.8 42.16-.73 16.13 10.68 32.24 2 52-2.83 7.13-6.44 6.3-10.92 4.46-34.51-7.41-12.74 35.66-35 37zM543.9 1241c-29.63 5.53-27 40.49 2.52 40.72 25.76-3.24 21.71-39.39-2.52-40.72zm-326-302.19c-46.51-15.15-36.95 20.68-45.76-29-5.3-13.63-32.69-1.94-26.6-18.86 2.8-18.35 23.54-26.33 20.64-40.32-13.33-12.41-16.14-67.36 9.53-55.32 31.85 2.76 22.28-33.52 37.1-33.86 16.24 3.83 31.61 11.65 42.59 23.84 7.75 11.63 24-20.93 56.72-20.47 3.13 0 8.44 1.39 8.85 10.67 3.12 40.8 42.88 4.95 41.95 26.67.65 11.34.25 24.62-7.69 37.15-5.29 10.38 29.61 17 34.58 36.55 4.49 7.08-1.18 13.31-3.61 19-5.94 14.36-8.76 41.87-28.17 31.7-36.17 10.58-20.35-43.13-47.48-49.7-9.68 10-14.28 13.78-29.3 15.37-14.5-2.27 11.44-24.95.49-32.95-9.13-12.57-18.27-10.64-30.1-3.32-5 2.33-9.45 11.67-8.34 17-.49 5.06 4.17 9.71 1.92 14.08-21.46 16.53-14.79 49.79-27.32 51.87zm493.56-155.72c-17.62-3.11-33.27-32.4-23.92-46.39 5.69-15.63.41-22.38 12.24-37.66 3.36-3.69-.56-6.89-1.14-10.5-1.38-11.54 6.59-18.1 5.27-27.32.69-7.32-1.73-18.47 4.79-24.24 5.36-9.62-1.74-24.58 4-36 5-28.18-5-42 22.09-61.65 24.64 5.39 24 36.61 38.95 53.64 9.85-.34 19.32-7.37 29.68-6 48.06 1.59-10.69 23.26 50.2 41.46 2.84 12.51-12.54 29.3-18.66 37.62a6 6 0 0 0 0 8.33c13.88 13.34 24.93 46.8 8.74 63.1-43.16-9.22-16.13 33.13-37.67 31.55-16.72.42-28.56-8.16-41.19-16.7-4.88-3.17-8.39 1.55-10.77 5.34-10.5 10.82-26.31 22.53-42.61 25.42zm30.15-95.93c12.2 4.64 29.94-11.41 26.25-23.84-4-3.48-.42-10.28-5.44-12.9-5.79-5.26-9.62-7.14-17.18-6.81-5.58-1.53-8.8 1.64-14 3.61-7.4 1.79-2.85 10.26-7.67 15-4.29 8.2 7.9 27.46 18.04 24.94zm-.34-278.94c-23-2-1.59-60-4.34-75.51-5.3-22.16 2.91-29.26-25.61-25.06-12.31-.95-.82-14.95-3.74-21.55-2.23-9.5-3.65-14.14-13.33-18.26-3.09-3-6.26-3.19-10.32-3.28-6-1.5-5.26-9.56-11.46-9.48-11 2.19-18.18-16.69-28.33-11.12-1.6 1.6-6.43.78-8.43 1-14.14-4.53-33.5 12.73-39.64 0 3.67-14-9.58-24.88-10.13-37.62 12.14-10.43 31.79 3.24 31.06-21.72 30.66-73.31 37.79 21.39 68.78-26.41 2.27-6.82 8.76-5.82 12.75-.6 11.18 10.9 5.77 33 18.33 39.27 15.35-6.11 77-23.26 61.73 12.59-2 21.21 23.43 15.3 33 22.45 10.75 25.08-37.89 54.15-26.81 61.56 16.75 10 39.24 59.8 13.89 70.14-9.19-1-22.81-7.12-29.72 2.91-12.34 17.74 8.56 39.83-27.71 40.71zm-316.21-51c-44.3-22.19-86.2 10.38-71.27-20 3.24-4.41 6.34-9 2.21-13.07-74.46-33.78 5-34.75-35.16-66.26-4.71-4.53-15.82-13.18-11.56-19.76 13.19-16.75 37.62-17 53.79-21.19 4.09-13.86 3.86-46.12 21.7-51 14.73 9.23 37.08 20.29 45.8-2.34.35-6.54 4.68-10.24 6.4-9.26 19.55 3.18 24.26 28.93 38.65 37.44 14.66-17.42 96.93-18.69 75.34 11.91-8.81 15.53-27.96 12.31-41.86 4.62-10.74 6.35-11.4 21.95-23 30.69-5.14 5 3.91 10.36-.07 15.83-3.32 6.51 2.2 15.73-3.86 21.83-34.93 19.45-6-32.91-45.78-24.32-7.19 1.32-10.88 8.79-13.22 14.87-9.85 14.71 22 20.12 11 32.82-12.53 12.86 4.3 15.73 9.88 25.79 13 12.35-4.56 32.11-19.05 31.44z" id="path8092" style="fill:#f0bcd6;fill-opacity:1"/><rect style="fill:#cae8e8;fill-opacity:1;stroke:#fef8c8;stroke-width:0;stroke-linejoin:round;paint-order:markers fill stroke" id="rect8776-1" width="343.295" height="99.311" x="1.762" y="360.018" rx="75" ry="49.655"/><path d="M237.55 1503.23c-22.65 0-20.35-40.79 3.94-38.06 27.01-.81 24.36 40.88-3.94 38.06zm28.57-74.23c-25.82-11.64-4.78-34.65-49.78-9.47-26.65-9.36-16.27-43-16.94-61.91-17.66-5.74-37-10.4-49.14-25.13-9-22.71 34.55-11.35-.53-54.74 9.09-20.84 36.37-14 54.64-17.92 9.3-26.87 31-53.14 46.13-79.65 4.77-13.52 69.66-91.42 26.72-81a56.16 56.16 0 0 1-42.73 19.35c-14.67-.66-3.35-30.24-27.26-29.31-8-2.1-17.52 14.58-23.22 3-21.91-26 7.5-46.31-3.34-59-11.14-5.86-27.08-17.16-27-31.15 13.14-10.92 29.79-17.8 12.52-35.13-15.84-33.84 36.8-29.41 55.89-28.22 6.75-12.91 4.19-29.85 15.91-42.06 4.1-5.08 12.51-10.57 5.91-17.47-4.2-15.31 9.3-27 23.61-27 30.21 2.12-.76 41.53 17.22 43 10.52 1.6 16.8-12.65 27-14.56 15.65 5.93 17.34 28.72 23 42.33 3 6.83 11.52 2.47 17.11 2.79 9.44-.57 16 5.69 24.37 6.36 65.53-167 90.43-346.44 101.95-528.09.45-10.06 5-24-9.37-21.81-13.36-3.88-47.39-16.64-29.67-30.06 35.06-20.88-24-34.79-.2-53.21 6.86-8.18-6.83-10.47-10.62-14.75-8.89-12-.61-34.18 14.76-31.68 13.43-.11 19.91 10.16 18.47 23.38-1.05 10.64 22.83 7.39 23.1-1.47-.74-21.53 5.83-41.57 20.08-61.26 7.9-10.1 13.39 6.7 24.08 3.86 18.94 3 21.08-19.85 34.22-21.71 24.51 6.11 28.29 34.48 36.66 53.9 23.94-1.72 58.77-9.59 73.09 16.21 1.74 6.24 8.27 3.31 12.79 3.68 22.11 1.19 23 23.72 19.87 39.2 7.11 8.29 21.27-1.82 29.6 4.69 3.66 19.7-4.08 44.17-4.09 62.68C718.74 487.58 714.68 605.2 687.47 714c-.81 16.54-10.84 33.46-8.54 49 22.17 2.73 16.84 53.87 41.88 36.88 61.78-19 14.81 28.67 57.6 29.27 26.26-2 8.34 40.39-2.31 49.6-3.09 3.27-1.52 7 1.22 10 29.26 61.31-8.24 28.13-18.54 41.94-15.89 11.49 7.72 35.37-9.87 37.49-13.94 2.2-25.88 2.54-38.12-8a6 6 0 0 0-8.91 1.42c-7.78 13.48-44.73 37.87-52.87 16.16.64-16.71-4-23.12-18.41-27.13-18.42-5.43-29.06 66.54-40.13 81.59-16.16 37.27-123.4 279.36-166.68 250.87-9.87-.6-35.53-13.39-33.93 5.51-3.71 7.66-23 13.18-15 22.86 70.47 60.12-20.93 28.1 3.78 73.29a7.06 7.06 0 0 1-3.93 11.84c-17.56 8-35.85 2.36-52.63-9.34-13.42-3.39-23.96 39.96-55.96 41.75zm495.76-51.84c-28.28 1.64-28-42.18-1-41.25 25.48-1.43 27.05 41.44 1 41.2zm-214.81-98c-26.22 3.89-28.76-36.68-4-36.33 23.77-2.1 27.52 35.81 4 36.32zm166.15-155c-21.86 0-28.32-40.06-.26-39.5 28.21-4.06 27.59 40.89.26 39.5zM204.36 697.67c-25.92.15-22.65-40.88 3.27-38.87 25.44.51 25.37 41.81-3.27 38.87zm543.31-10.74c-33.69-.55-28.31-40.6-2.4-43.38 27.11-.23 27.73 43.53 2.4 43.38zM243.39 573.46c-6.33-.28-8.39-7.63-5.74-13.2 6.65-50.57-69.75 4.1-39.88-68.15 2.32-5.88-4.16-8.16-8.43-9.27-20.1-9.27-34.37-24.56-43.64-46.76-2-11.82 26-12.65 30.91-27.61 4.81-15.16-27.35-38 5.81-41.25 13-8.48 49.91 1.42 47.11-13.69 2.4-16.47 12.19-36.13 26.33-45.66 8.65 1.49 22.35 19.07 31 17.2 13 1.62 27.86-35.37 41.38-13.08 9.23 11.46 13 24.82 17.07 37.89 11.12 9.27 46-10.76 71.44 7.47 6 3.42 5.75 7.73 1 11.53-45.34 51.49 62.74 36-15.92 85.88-10 9.6 12.71 29.29 7 49.05-3.62 16.91-28.15-1.49-37.44 15.11-16.48 9.79 3.78 37.14-14.65 40.45-17.26-2-34.23-4.72-46.16-18.67-11.48-7.16-24.36 32.52-67.19 32.76zm-22.11-380.31c-32.34.08-29.24-47.75.28-48.09 31.2-.21 31.77 49.43-.28 48.09zM817 154.8c-33.94.33-35.14-52.83-.4-51.74 33.89-.17 33.55 50.46.4 51.74z" id="path8094" style="fill:#e187b6;fill-opacity:1"/><path class="cls-7" d="M976 195.75c6.61 24.12-19.59 25.19-19.16 7.55-.59-11.36 14.56-20.24 19.16-7.55zm-22.75-68.64c.13 24.14 28.89 18 22.75-2.69-2.77-8.96-24.6-9.25-22.75 2.69zm7.87 633c-17.33-3.29-23.93 24.58-5 24.81 13.8 2.55 19.16-23.92 5-24.77zm-8.3-715.1c10.86.4 16.12-4.47 16.34-15 .26-12.1-10-9.9-16.24-10.77-9.76-1.36-10.67 6.47-10.4 13.93.25 7 1.48 13.14 10.3 11.88zM946 324.43c7.91-.92 16-4.76 15.1-15.85-.8-10.32-9.55-8-15.23-7.91-11.35.45-9.79 23.81.13 23.76zm-5.65 499.11c-9.16 1-8.69 10.36-9.79 19.69-1.38 4.89 4.67 7.74 8.39 7.34 17.43-.19 19.77-27.93 1.38-27.03zM939.72 931c-8.14 0-8.32 6-9 11.43.46 7.08 1.28 13.57 10.48 12.57 8.16-.85 11.2-6.87 11.72-13.87.7-9.31-6.19-10.13-13.2-10.13zm2.07-239.36c16-1.46 20-29.59 1.37-28.36-10 .15-9.49 10.55-11.4 16.49-1.44 4.4 2.99 12.73 10.03 11.82zm-17-589.09c6.72-.84 11-6.83 10.07-17-.32-2.13 1.5-8.36-5.62-8.64-17.43-2.56-24.58 29.44-4.46 25.59zM917 428.81c-10.76 1.23-10.53 23.86 1.6 24.14 16.75.87 16.69-25.55-1.6-24.14zm-3.29 1026.36c-7.38-1.25-7.5 6.07-7.4 10.24.13 5.6-.47 13.89 9.64 11.45 6.38 1.4 10.45-2.12 10.76-7.23.47-8.32-5.58-13.19-13.03-14.46zm-24.9-1210.58c-1.08 18.61 25.75 14.5 25.85-1.2 3.34-17.83-25.57-13.24-25.85 1.2zm28 506.79c1.55-15.31-21.89-12.83-21.84-.34-1.66 17.31 23.03 14.8 21.81.34zm-4.53 362c-.59-16.36-22-16.23-19.42.73-.45 5.05.71 10.91 6.38 10.52 5.84-.44 13.76-1.18 13.01-11.28zm-8.33 273.08c-8.92-.16-19.06-.78-16.91 13.77.32 7.23 4 11.24 11.88 10.38 10.96-.16 17.58-22.36 5-24.18zM886.21 162.12c.1 8 4.67 12.77 13.08 13 10.2.53 10.5-7.88 10.46-13.73-.06-8.67-8.58-9.55-14.86-10.24-7.09-.73-8.75 5.74-8.68 10.97zm11.42 1042.56c11.77.32 14.31-25.66-.06-23.9-18.69-.35-18.34 26.22.06 23.9zm-4 322.71c-7.62-.29-13.11 4.88-10.52 13.63-.71 6.65-.83 13.44 7.23 13.77 7 .3 13.29-2.73 12.65-11.74-.44-6.83-.79-15.34-9.32-15.66zM890 30.56c15-.36 21.68-28.59 1.47-27.42C875.2 4 871.52 33.41 890 30.56zm.81 886.59c9.36-.8 9.44-8.39 9.66-14.17.26-6.82-2.69-12.7-11.8-12.16-8.85.53-12.56 4.74-11.77 12.91-.4 10.2 4.1 14.27 13.93 13.42zm.13 89.93c8.16-.94 8.18-7.6 8.09-13.82-.14-9.75-7.8-11.25-14.44-10.78-6.45.46-8.17 6.6-7.66 13.27-1.12 10.25 5.68 12.25 14.07 11.33zm3.42 297.72c1-9-6.41-11.33-12.84-10.62-12.56.65-15.86 27.13.09 24.84 10.39 1.21 11.94-6.91 12.77-14.22zm-19.71-915.95c15.38 1.78 19.37-29.26 6.56-28.19-19.65-1.45-25.42 26.6-6.56 28.19zm9.5 422.49c-.09-8.27-5.06-11.62-12.32-11.24-7.67.41-9 6.36-9 13.78-2.15 16.54 22.75 12.99 21.32-2.54zm-174-20.52c2.9 18.89 5.75-6.52 46.34 2.37 4 .67 7.43 3.57 5 9.57-4.24 10.3 4.85 21 17.1 20.85 33.51.33 16.82 43.84 1.29 58.44-3.69 4.14 4.6 9.91 7.14 15.05a49.6 49.6 0 0 1 3.72 35.84c-1.73 6.5-6.1.39-8.48-.27-7.31-2-14.87-4.4-19.74 2.86-4.87 7.26-6.72 15.78-1.59 24.23 7.39 12.19-5.42 11.85-9.81 12.78-15.12 3.21-30.62 4.27-42.64-9.06-1.12-1.23-2-1.72-3.69.88-9.13 19.27-58.74 44.56-61.67 10.11-.61-5 .21-11.05-4.54-13.57-16.17-8.56-14.56 8.18-16.94 14.43-20.3 53.09-42.14 105.68-69.35 155.61-1.77 3.41 2.56 4.47 4.29 5.17 13 5.15 19.66 28.75 23.54 41.41 11-21.27 23.13-41.49 31.52-63.18 2.82-7.28-.67-18.47-.45-27.88-2.79-17.15 42-80 57.72-58.15 15.14 36.93-15.71 70-45 88-8.44 5.68-11.88 19.35-16.51 29.91-2.45 5.57-8.1 9.66-7.8 17 25-23.44 54.87-41.72 87.69-50.69 3.91-.44 1.46-5.72 1.63-8.69-.16-24.41 33-35.06 46.86-14.85 10.62 14 4 32.8-13.11 39.26-19.07 7.88-22-9.67-35.53-9.06-34.36 15.14-67.57 35.45-94.14 62.37 21-1.75 40.59 1 57.49 14 8.42 7.67-25 28.69 9.22 38.43 15.78 4 10.63 10.46 6.66 19.13-5.83 12.7-15.66 21.53-27.16 28 12 8 25.56 11.19 37.19 19.33 18.9 12.77 42.77 18.51 59.65 34.69 4.35 3.9 7.1 3.46 11.27.25 12.47-9.62 32-3.17 36.84 11.92 17.12 46.9-60.22 46.5-47.75 1.39 3.51-13.21-70.49-40.07-80.72-50.22 2.13 9.81 11.78 20.53 26.28 30.27 20.66 13.88 30.87 33.25 28.65 58.2-.49 5.56-.54 14.38-7.1 15.52-34.33-1.93-51.86-43.12-41.67-74 1.14-4.19-6.84-10.35-9.23-16.16-2.24-5.43-7.9-6.73-10.4-11.52-.57 81.53-25.13 11-37 52.52-.63 2.19-.27 4.83-1.34 6.71-2.64 4.66 3.16 12.34-4.68 14.71-24 9.16-42.54-7.91-59.11-22.9-3.9 8.74-8 18-12.22 27.27-2.82 6.09 2.52 10.27 3.87 15.19 11.52 38.2-16.62 73.61-49.18 89.9-2.22 1.21-8.75.09-8.92-6.94-.36-14.47-3.94-29.24-1.95-43.28 2.33-16.38 11.6-30.27 24.83-41.58 19.93-14 26.65-13 33.2-40.21-13 8.94-54.47 27.42-54.76.18.24-10.59-13.72-19.55-23.75-15.77-22.84 6.64-22.31-28.25-16.45-42.38 2.26-5.1-4.37-4.87-6.92-5-8.73-.33-17.08-2.82-25.55-3.7-7.11-.74-9 9.19-15.15 12.5-26.48 14.28 19 18.42 22 52.52 2.41 16.23-46.16-6.8-24.08 36 7.53 14.08-7.41 13.91-12.39 15.61-20.18 6.91-38-1.25-54.84-12.89-15.64 44.18-48 31.15-65.12 69.49-.94 1.71-1 2.85 2.94 5.54 31.85 24.93-18 69.31-38.53 27-3.15-12.59 3.8-29.26 14.21-30.15 16.51-1.41 19.76-15.38 24.86-25.87 2.35-4.84-3.53-15.43-9.68-19.4-19.51-9.42-30.48 25.5-47.22-3.22-8.12-12.21-10.42-26.76-5.58-39.43 7.45-19.54-7.87-16.14-16.15-17.85-9.32-2-50.27-25.74-32.77-36.5 6.91-3.32 14.85-7.32 13.6-15.82-.91-6.1-3.5-13.29-10.31-17.08-3.61-2-5.92-6.31-4.94-9.88 9.46-18 33.2-22.14 51.92-21.74 5.64 0 4.71-9 7.93-13.43 15.28-20.9 25.7-44.75 40.29-66.22 14.43-21.23 25.9-44.49 38.36-67 .8-1.46-1-4.37-1.63-6.61a9.35 9.35 0 0 0-5.05 4.41c-5.62 10.52-17 13.19-26.95 15-16.32 3.05-29.44 11.18-42.37 20.37-4.94 3.51-.32 8.66-1.82 13.51-7.1 22.89-24.64 32.85-44.75 36.54-7.79 1.43-16 4.52-23.41 3.2-11.8-2.11-13.39-18.42-5.75-29.38 16.53-23.7 39.56-29.88 66.83-30.66 9.49-.27 19.4-8.22 27.83-14.42 4.87-3.57-6.69-23.22-13.77-24.8-6.41-1.44-11.5.15-16.82 3.8-26 12.77-28.79-47-13.69-60 1.93-2.42-2.33-2-3.4-3.31-1.07-1.31-3.43-1.34-4.9-2.4-9.85-6.39-36.11-27.35-18.34-38 17.31-7.75 19.24-19.17 3.69-30.12-19.95-14.24 19.39-20.57 14-40.28-1.53-10.91-6.53-17.53-17-19.5-30.45-3.17-3.39-37.36 8.18-48.91 5.22-5.47-3-9.83-5-14.2-8.45-17.73-4.48-34.92.27-52.17.94-3.41 4.66-6.68 8.94-2.5 6.9 6.74 15.15 4.31 21.48.92a20.89 20.89 0 0 0 10.82-18c2.38-31.91 46.23-3.59 58.38 10-1.42-10.63-31.85-90.35-42-77.22-12 4.21-22.38 0-29.45-8.64-7.89-9.68-7.28-21.37-.5-32.38 21-23.3 58.47 1.9 42.42 30.44-1.3 2.82 4.13 9.6 7.59 13.55 14.29 15.71 19.17 35.62 26.31 54.8 3.81-13 14.06-24.77 9.36-38.47-4.33-32.51 16.09-63.63 47.29-73.06 7.19-2.17 7.86 8 8.57 13 4.43 31.34-10.2 54.53-36.08 68.87-19.15 11.82-17.83 30.61-25.94 47.52 17-11.34 34.68-21.09 55.24-19.23 11.43 1.9-3.28 41.68 33.15 28.9 15.6-5.13 14.75 4.77 15.72 13.24 1.55 13.73.22 27.2-8.09 39.06-1.28 1.83-1.33 3.53 1.29 4.13 42.13 15.16 20 49.26 43.88-33 19.12-68.37 32.22-138.59 44.68-208.69 12.75-71.27 15.29-144 21.6-216 .25-3.09-1.62-1.69-2.65-2-15.48-4.52-32.79-5.18-41.37-22.46-50 57.59 39.06 40.49 3.75 74.15-8.94 8.74-17.15 18.3-29.8 22.91-4.67 1.7 1.94 6.15 3.29 8.52C414 482.81 415 498 410.83 513.7c-1.31 4.9-6.57 4.07-10.19 2.76-21.62-9-35 13.63-28.62 32.55 4.73 12.39-5.11 13.69-12.36 13.71-13.87 0-28.15 1.57-40.05-10-3.75-3.64-10.25-5.16-13.53-10.73-13.69 21.74-33.53 33.25-59.25 35.11-9.68.7-13.18-4.09-13.92-12.8-1.23-58.46-46.33 2.4-45.5-35-1.49-13.19-2.39-27 6.91-38.56.84-1.05.43-1-8.52-5.22-16.4-4.15-69.4-56.38-33.34-63.18 17.75-3.9 21.28-17.61 12.5-33.13-9.31-16.48-12.34-14.61 14-26.05 13.3-6 30.53-2.45 43.73-7 3.81-1.8 4.51-10.61 6.17-16.38 3.59-12.5 10.83-22.7 18.67-32.85 16-20.25 28.88 29.56 49.27 5.29 9.2-10.28 18.42-20.56 27.34-31.08 9.36-11-4.5-14.38-8.15-19.56-13.26-18.83-34.36-11.57-52.59-11.77-4.29 0-8.51 8.42-13 12.66-24 22-59.13 19.4-87.75 10.44-10.58-5.95-9.44-18.3.95-25.71 45-36 86.92-2.54 135.28-6.46-18-16.16-36.54-33.16-55.7-49.48-1.43-1.22-7.07 2.44-10.72 3.9-15.85 6.37-30.6-.56-37-17.42-8.31-20.9 21.5-48.14 41.21-33.18 11.35 8.79 18 19.83 11.54 35.36-1.9 4.57 5 6.27 7.82 8.52 15.07 12.06 29.71 24.35 41.83 39.6 12 15.65 18.59-15.3 56.53-12.93 14.24.61-.31-14 10.18-32.66 2.75-6.31-4.65-8.71-6.5-13.3-4.9-12.21-17.26-10.27-26.44-13.91-26.26-10.24-43.63-36.17-46.7-63.52 1.15-39.61 61.32 3.61 64.65 24.67 14 30.37-3.08 30.67 20.09 53.09 7.79-9.22 9.74-12.9 21.69-7.1 20.17 9.58 29.64 16 37.42-8.89 11.45-23 40.41 20.74 46.11 31.76 1.33 2.47 2.22 1.93 3.58.53 18.68-16.57 54-20.36 73.6-4.08 8.88 8 20.77 9.92 29.54 18 2.79 2.56 11.72-2.8 17.43-1.92 10.29 1.58 12.73-2.88 13.67-8.36.83-17.3 13-30.94 26.16-40.45 3.7-2.52 7.28 1.37 10 4.31 17.29 19.12 18.87 19.13 34.75-.11 17.59-24.36 29.31 20.73 32.12 34.44 19.94-14.93 38.91-33.12 62.54-42.83 9.88-3.33 7.84-11.43 8.77-18.8 2-16.17 14.3-28.83 29.88-28.74 40.93-.31 41.49 63.13-1.45 62.48-10.29-.52-15.54-6.57-22.18-11.49-6-4.47-8.89 1.85-12 3.48-18.1 9.32-34.06 22-52.9 36.62 19.87-7.58 36.42-5 53.47-1.89 9.4 1.7 8.45 7.06 6.84 11.74-15.22 46.46 39.26 7.42 28.76 46.44-1.9 15.22-8.53 28-20.33 36.4-11.11 7.9-8.73 10.58-.38 19.39 17.33 18.3 23 41.1 13.35 65.5-4.4 11.1-13.74 1.64-20.59 2.28-43.77-.47.72 38.67-31.54 42.83-6.23 2-25.45-1.25-24.73 7.31C731.58 461 725.68 504.07 722 546c7.19-2.34 7.42-16.23 13.65-14.45 7.31 2.65 14.34 8.69 19.13 15.06 8.24 11 14.9 23.2 18.39 36.78 2.71 8 15.24-24.2 18.93-26.47 4.89-6.52 2.31-13.31 2.62-19.77 1.13-38.86 32.64-64.9 68.23-72.14 12-.31 16.34 7.19 13.1 21.25-7.07 30.61-27.09 49.33-55.93 58.59-19.35 6.21-24.2 23.43-32.8 38.08-.12.21 1.5 1.94 1.8 1.8 11.95-5.26 23.89-1.35 35.67.4 17.84 4.08-11.23 28.15 20.19 33.77 29.11 5.38 4.71 37.24-6.55 49.59-1 1.22-1.73 1.88-.38 3.17 14.79 10 29.73 64.2 8 70.38-2.49.78-3.65-.61-5.41-1-8.87-2-18.6 5.73-19.62 15-.62 5.65 3.56 13.32-2.6 16.6-19.46 8.87-41.48-4.85-56.91-16.25-2.14-1.46-2.1-.63-3 .56-11.42 15.49-26.15 26-45.11 30.37-1.4.29-5.31 1.17-3.29 3.5zM804 536.57c9.16-11.5 37.15-54.56 52.2-51.38 2.42 2.13-.7 4.46-2.05 5.58-16.38 13.55-28.47 30.69-40.73 48.13 29-8.39 57.58-34.76 54-67.52-4.51.75-9.74.28-13.42 2.45-26 13.04-50.19 31.52-50 62.74zM794.27 130c2.77 27.23 41.81 27.09 44.67-.65-.27-29.12-45.55-29.68-44.67.65zM347 133.38c-5.91-20-16.2-36.94-36.23-45-4.77-1.98-13.91-11.38-17.91-.23 1.74 23.18 20.21 50.17 39.88 56.78 3 2.19 9.07 2.47 4.84-2.06-9-10.18-18-20.32-26.78-30.68-1.12-1.32-5.11-1.83-2.33-5.48 4.39-8.57 28.55 20.67 31 25.62 2.21 3.28 9.74 10.67 7.53 1.05zm-125.52 15.68c-24.47 1-27.66 39.52 0 40.1 27.33.15 25.99-39.86 0-40.1zm28.13 102.71C243 250.46 235.8 255 229 254.55c-13.16.56-25.29 5.8-38.16 7.27-1.74.19-3.78-2.22-5.68-3.43 1.6-1.15 3-2.9 4.83-3.34 17.49-4.41 35-8.6 52.58-12.85 0-.41-.05-.81-.08-1.22-27.7-3.51-53.31-3.75-76.24 14.35-2.42 1.7-3.65 5.3-4.88 8.25-.17.42 3 3.34 4.23 3.07 7.29-1.66 13 3.52 20.1 3.93 22.37.94 49.77 1.82 63.91-18.81zm30.35 464c11.38-9.58 12.05-28.54 26.32-35.36 2.43 11.37-15.63 30.07-18.81 42.17 18.91-9.84 41.2-43.75 27.71-64.91-21.3 11.95-34.72 33.76-35.18 58.05zM222.67 679c-.31-22.06-32.84-20.73-32.35 0-1.89 20.08 33.38 19.31 32.35 0zm-26.27 467.46c-14.75 10.07-29.06 20.09-43.7 29.6-2.59 1.69-6.83 6.08-9.62 1.57-4.5-8 33.46-24 37.72-31.7-16.73-4.08-40.09 12.41-45.4 28-1.18 3.7-6.64 7.12-3.65 10.71 3.85 4.63 10.25 2.81 15.38 1.67 8.77-2 17.28-5 26-7.31 9.12-2.43 24.53-23 23.27-32.54zm45 322.71c-19.8-2.11-21.81 31.39-2 29.95 21.74 1.18 23.08-30.98 2.03-29.95zm280.29-76.76c-5.57 10.18-21 65.86-29.46 62.14-7.75-2.6 18.34-51.21 18.33-61.29-29.53 15.9-33.32 48.5-27.54 77.93.46 2.54 1.93 2 3.16 1.17 23.5-16.57 47.76-44.83 35.54-79.95zm177.49 2.19c1.29.42 3.62 1.53 3.62-1.45 0-20.17-1.93-39.59-21.85-52.73 1.6 6.75 16.22 32.27 10.89 34.38-2.19 1.13-4.39.37-5.77-2.64-5.94-11.19-10-24-17.68-34-7.58 20.56 11.45 50.19 30.82 56.44zm45.31-35.75c.48 18 32.5 19.94 32.31-1.09 1.92-24.91-35.64-22.76-32.28 1.09zm-46.24-256.68c-.71 23.63 32.63 23.71 32.12.2-.65-19.66-33.23-17.93-32.09-.2zm-78.9-10.17c.58 1.42 3.7 5 3.65.6 6.07-10.44 12.06-20.93 18.31-31.26 1.26-2.08 3.18-4.89 6.37-2.27 2.92 2.41.62 4.37-.5 6.8-5.29 11.43-10.52 22.85-17.88 33.17-.52.73 0 2.23.06 3.37 15.38-6.51 35.94-38.9 35.2-56.89.35-12.75-3.32-15.26-7.38-13-18.84 10.93-29 28.21-35.76 48.13-1.23 3.67 1.38 8.02-2.07 11.35zm-29.58-881.16c5.79 10.35 12.11 20.47 10.21 33.24a5.81 5.81 0 0 0 2 2.57c12.18-6.29 25.48-5.69 39.51-5.72-5.76-6.85-18.64-14.73-19.93-21.68 2.14 1.16 2.83-3.46 5.59-1.12 14.45 11 26.85 25.44 43.41 33.13 2.26-8.43-12.48-52.23-2.52-52.51.89-.09 2.56.36 2.69.88 4.24 18.77 6.82 37.91 10.67 56.77 1.11 3.86 6.07 7.28 5.75.89q7-17.42 13.79-34.9c1.14-2.91 3.23-4.07 6.26-3.43 2.75.59 2.18 3.07 1.71 4.45-4.06 11.92-8.22 23.81-12.72 35.57-.77 2-2 4.63-.39 5.18 3.21 1.12 5.72 5.83 9.62 3.31 14.98-9.65 29.75-19.59 44.58-29.47 4-3.75 10.4 2.52 5 5.67-13.18 9.12-26.44 18.15-39.23 27.81-2.27 1.71-7.66 2.47-6.24 6.44.77 2.15-.5 7.27 4.27 6.91 9.33-.68 18.68 1.48 28.1-1.52 4.06-1.29 10.1.05 12.88 4.33 4.61 6.85-33.4 4.75-37.58 5.16-7-.31-7.82 4.28-7.81 8.19 0 4.88 4.59 1.45 6.9 1.72a80.39 80.39 0 0 0 16.12.12c6.91-.57 6.45 3.07 6.54 8.3-5.17 31.27 19.44 24.92 12.58 36-5.29 5.77-6.88-5.27-11.89-5.57-1.3 15.15-2.82 30.33-3.82 45.55-.55 8.47-5.53 20.84 12.27 15.94 5.16-1.42 13.75-4.41 13.42-6.34-1.87-11-3.44-21.89 4.35-31.74 7.79-9.85 19-7.73 27.46-5.34 11.91 3.37 11.24-3.32 11.53-9.93 1-23.62-7.09-42.78-27.76-55.82-3.92-2.47-3.18-6.42.54-8.85 13.8-9 24.32-20.81 28.76-36.75 1.79-6.4 8.52-17.4-8.86-15.1-13 1.71-26.67-15.16-22.28-25.29 2.78-6.4 6.52-12.07-5-14.16-16.9-3.08-32.63 1-48 6.59-12.25 9.36-12.91 9.06-15.28-6.88-3.39-12.12-4.45-28.11-15.87-35.47-13.58 25.65-31.64 24.94-47.63 2.2-2.24-2.37-2.19-1.63-3.82-.35-27.65 22.42-14.11 44.91-29.9 46.18-3.93 1.41-21.75-1-19.98 4.84zm114 84.62c-2.43-14.45-6.71-21.93-18.32-22.34-11.61-.41-17.68 6.44-17 16.95-1.09 19.1 33.87 21 35.29 5.39zm-288.88 65.45c-18.4-9.38-37.31-9.52-57.06-5-4.43 1-10.62 13-14.76.29-34-106.29-30.4 6.55-77.52-37.88-2.95-2.75-9.24-7-9.9-6.36-9.74 9.48-15.3 21.58-21 33.86-3.47 7.52 4.24 24.62-17 20.06-10.64-2.28-23 3.05-34.51 5.29-30.51 2.91 7.26 24.61-3.28 39.6-6.89 9.95-16.47 17.62-28.64 21.06-1.43.4-2.62.94-1.87 2.73 22.12 53.43 60.71 40.22 53.16 56.25-5.86 12.9-15.26 47.12 9.37 39.87 18-5.4 36.41 15.21 29.39 31.21-1.9 4.32-.07 8 2.51 7.55 21.44-3.85 41.76-9.31 54-30.17 3.38-5.76 8.66-7.44 15.4-1.56 9.09 7.93 19.07 17.36 31.92 15.11 4.39-.76 18.91 10.08 15.74-7.8-8-22.49 18.31-44.62 38.2-37.57 13.2 4.44 2.22-35.95-2.9-40.51-10.75-16.94 18.6-16.74 31.46-41.59 6.26-7.63-16.12-7.11-22.39-23.18-11.61-25.92 19.3-38.09 9.68-41.26zM439.18 347c4.46-3.94 8.09-9.9 3.61-16-3.79-5.17-7.76-14.26-14.7-10.88-12.7 5.72-8.79 21-16.85 18.69-2.14-.58-3-2-1.73-4.15 6.91-11.92 13.94-23.78 20.6-35.85 1-1.84 4.73-4 1.54-6.58-1.52-1.23-2.71-4.65-6-2.42-12.88 8.77-25.81 17.46-38.69 26.22-2.15 1.46-4.31 1.78-6.16-.05-5.25-8.09 36.64-27.09 39.89-34.83.34-.54-1.78-3.81-2.81-3.84-15.85-.39-31.72-.61-47.57-.47-3.35 0-6.31-.18-8.76-2.4-9.91-11.07 48.4-3 54.19-5.38 4.48-.11 3-4.25 5-5.92.76-.62.73-3.67.63-3.69-10.7-2.36-18.59-10.2-28.28-14.49-2.45-1.09-5.83-1.56-6.16-5.17-3.48-14.78 30.88 10.32 35.11 12.83.75.53 3.28 3.29 5.35.59 1-1.33 3.44-3.06 3.15-3.72-5.3-12.44-7-25.82-10.59-38.7-.92-3.32-2.64-7.15.84-8.64 7.37-4 11.53 30.57 14.2 36.09.76 2.93 1.34 5.9 2 8.85.89 3.77 12.38.64 13.73-3.82 1.35-4.46 8.85-31.19 14.12-28.84 3.85 1.31 2.85 4.72 2 7.11-1.25 7-14.62 27.23-8.39 31.71 1.08.71 3.08 1.75 3.62 1.32 14.75-11.55 29.21-23.47 36.74-41.37 2.35-5.59 6.45-9.38 11.16-12.66.49-.33 3.18 1.27 3.72 2.47 3.36 7.57 10.36 7 16.65 8 10.46 1.18 14.75-7.11 20.27-13.27.22-.24 2.65-2.76 0-4.79-20.38-15.83-54.31-14-73 4.17-2.79 2.72-6.86 3.23-7.83.36-7-15.15-16.52-31.87-32.07-39-3.81-1.5-2.15 6.7-4.87 9.67-2 2.19-3.4 5-5.45 7.09-8 8.35-23.56 7.77-35.07-.18-3.65-2.52-7.81-10.34-13.64.21-7.65 13.82-11.1 27.77-9.7 43.24.22 2.34.63 4.93-3.18 4.53-19.9-1.27-40.21 3.25-54.13 18.2 3.7 4.5 6.57 10.28 11.23 13.27 16.9 10.85 18.75 27.38 3.71 40.32-2.77 2.39-3.07 3-1.41 4.09 6.6 4.28 11 10.92 18.58 14.52 10.37 5 26.58 8.72 13.08 26.2-2.12 2.75-3.09 6.37-1.26 8.45 1 1.14 5.57-.45 8.35-1.35 38.05-14.03 56.05 18.73 75.23.26zm43.64-94.53c2.86-10.3-18.29 9.52-18.77 13 2.44 4.46-.21 11.31 6.35 11.26 18.6-.13 6.39-17.02 12.42-24.22zm-41.89 4.11c-9.59.77-11.87 7.31-12 16.66-.92 9.2 6.81 12.55 14.12 12.69 20.35 1.56 19.55-32.42-2.12-29.31zM472.78 377c6.82-71.1-17.79-62 52.37-61.94 6.31.26 2.19-6.17 5.69-7.25-1.86-7.37-30.34-10.27-29.68-19.24.54-3.8 4.08-1.57 6.17-1.57 10 0 17.32 7.09 26.1 10.42 4.67 1.77 6.69-3.53 10.62-3.06-2.91-15.3-4.77-30.82-7-46.24-.19-1.54 1.77-3.35 2.73-5 6.49 6.24 8.71 35.23 11 45.63 1 7.83 8.11 2.23 10.58 6.34 1.15 1.9 2.7.56 4-1.38 5.45-8.29 9.74-17.48 17.63-24 1.53-1.25 2-5.3 5-3 2.77 2.08 2.23 6.47.34 8-7.55 6.14-10.41 15.52-16.59 22.58-2.7 3.09-.64 7 1.34 10.37 1 1.76 1.27.14 2-.13 14.62-5.56 29.19-11.27 44-16.36 2.86-1 6.57.49 9.89.83-1.69 2.3-2.91 5.82-5.14 6.67-10.37 3.95-21 7.15-32.32 10.86 22.49 2.47 47.81-2.53 71.28-2.6 2.6-.15 1.91-.49.72-2.37-6-9.42-8.1-18.71-1.19-29.34 1.81-2.79 12.23-5.06 3.19-13.19-17.11-15.42-36.35-12.24-55.89-9.49-29.23 12.75-4.38-17.61-37.13-47.95-5.19-4.93-12.26-9.67-17.67 2.07-6.81 14.76-31.6 19.24-43 8.34-2.44-2.34-2.8-.95-3.87.52-13.56 18.74-20.91 39.33-19.1 62.81.11 1.4 3.34 4.94-3.39 5.59-16.47 1.61-32.56 5.78-44.73 18.94-3.9 4.22-5.71 8-3 10.34 5.84 5.17 13.74 8.92 15.3 17.66 2 11.25-.86 20.51-12.41 25-14.15 5 29.03 27.58 32.16 21.14zm71.33-74.16c-5.2 1.15-6 5.49-6.56 8.42-.56 3.21 3.81 1.45 5.85 1.53 7.72.29 15.47.12 23.4.12-5.55-8.91-12.62-12.27-22.69-10.04zM175.22 907.26c6.83 8.39 2.5 18.44 4.13 26.36 9.22-4.45 18.65-3.9 27.52-1.2 27.31 9.85 1-11.47 35.33-48.11-12.84 5.83-23.93 11.05-35.2 15.85-3.26 1.39-7.33 3.17-10.15-1-1.11-1.64-.45-3.25 1.69-4.22 13-5.91 26-12 39-17.86 4-.89 2.1-3.69-1.06-4-11.69-1.43-23.39-2.69-35.07-4.1-3.14-.38-4.95-2.57-5.46-5.48-3.44-5.92 36 1 40.4.52 2.82.29 4.81.71 6.11-2.47 1.37-3.33-.7-4.6-2.72-6.45-8.56-7.84-16.92-15.9-25.43-23.79-2.58-2.4-1.3-5.17-.83-7.74 0-.3 4.49-.74 5.13.15 6.08 8.47 15 13.76 22.45 20.63 3.72 3.42 5.37 10.57 12.58 6.44 8.2-4.33 2.48-28.2 3.5-36.81.55-4.21 6.61-11 7.91-2.18.53 9.55 1 19.11 2 28.62.22 2.12-2.32 5.57 2.56 6.7 4.44 1 7.36-1.31 9.24-3.87 7.76-10.52 16.69-19.92 26-29 2.19-2.13 4.85-.23 4.23 2.38-5.75 14.2-20.18 23.08-27 36.3 1.78 11.69 39.1-8.41 49.33-2.76-2.63 7.18-16.07 8.57-22.9 10.57-7.36 1.46-17.72.07-20.8 6.88-2.7 6-2.1 13.94-7.69 20.65 10.1-3.36 21.33-.14 23.61-14.42.21-1.35 2-6 4.59-6.31 11.91 5.95 19.13 18.71 25.17 30.76 4.34 9.41-1.64 29.89 21 23.53.48-.14 1.37 1 1.74.77 4.94-2.36 10.83 6.3 14.21.29a139 139 0 0 0 11.93-29.22c1.51-5.19 7.58-9.84 4-15.87-15.55-32.27-46.43-21.78-35.16-39.73 7.45-11.12 8.44-23.21 7.71-35.85-.16-2.89 1.37-6.44-4.9-3.66-18.55 8.23-36.19-3.12-37.05-23-.2-4.56-1.36-7.8-7-6.6-45.6 5.51-40.41 34.4-54 22.29-8.9-8.44-17.6-18.2-30.16-21.05-35.32-18.38.62 23.74-49 29.26-4.17-.14-11.81-6.22-13.18 1.14-12.88 47.67 18.49 49.12 9 57.79a69.56 69.56 0 0 0-24.24 38.09c10.51.11 20.2 1.83 26.93 10.78zm100.46-46c-3.38-7.06-10.51-5.09-15.26-3.83-8.24 1.95-15.46 10.76-12.61 20.7 1.15-.35 2.68-.34 3.4-1.1 9.13-9.6 13.83-2.56 18.69 4.72 1.06 1.58 3.2 5.25 4.59 3a23.51 23.51 0 0 0 1.19-23.44zm10.84 231.82c.61.9 1.29 1.76 1.93 2.64 7.79-13 15.16-26.34 22.43-39.66 2.82-5.26 7.79-12.17 6.26-16.27-2.36-6.34-9.64-10.76-14.51-16.28-3.69-4.19-7.17.34-10.82-.06-5-2.13-3.41 39.56-4.74 45.16-.12 2.6-1.51 4.13-3.89 4.28-3 .18-1.86-2.4-2.27-4-3.33-13-.86-26.06-.12-39.11.12-2.11 2.18-5.46-1.72-6.72-3.7-1.2-5.65 1.72-7 4-7.39 12.31-16.46 23.31-26 34-1.41 1.59-2.46 5.5-5.55 3.14-2.59-2-2.39-5.13-.36-8 9.65-13.41 19.26-26.85 30.43-42.45-16.75 5.16-30.06 11.37-46.25 17-2.23.81-5.88 1.38-7-1.87-1-2.92 2-3.34 4.14-4.24 12.72-5.25 25.38-10.64 38-16.06 5.32-1.66 4.33-8.6-1.52-7.48-16.68-1.36-33.38-2.62-50-4.26-2.89-.29-6.91-1.83-6.74-5.29.2-4 4.37-2.79 6.9-2.61 16.89 1.18 33.77 2.63 50.66 3.86 6.51 2.14 8.54-5.66 3.78-9.53-8.35-7.61-16.61-15.32-24.86-23-2-1.89-7.23-3.07-3.9-6.78 3.33-3.71 7.58-1 10.74 1.79 8.39 7.48 17.06 14.7 24.85 22.76 4.53 4.67 6.44.42 9.41-1.14 2.97-1.56 2.51-3.72 2.36-6.45-.9-16.42-1.53-32.85-2.26-49.28-.93-5.51 7.69-5.28 7.88-.71 1.59 17.07 3.36 34.16 3.82 51.28.11 3.94 2.55 3.24 3.74 4.62 1.69 2 3.21-.67 3.78-1.59 7.14-11.61 13.93-23.44 21.18-35 3.23-9.44 11.62-4 6.67 3.79-6.91 12-14 23.89-20.87 35.9-5.05 3.85 2 7.22 5.78 4.18 5.23-3.65 10.85-6.77 16-10.49 17.15-10.45 36-17.51 41-39.53-6-1.7-11.36-4.54-18.45-3.79-26.95 7-17.51-21.78-30.92-37.66-3.29-4.41-4.7-12.76-13.66-3.12-13.59 14.63-29.61 12.82-42.76-1.89-.93-1-2.9-2.31-3.85-2-19.41 8.18-27.41 29.43-29.66 48.91-.62 3.76-.49 11.73-7.1 10.47-15-2.89-29.51-6.23-44.68.24-8.63 3.68-13.34 13.13-7.68 19.42 13 14.41 11 25.27-5.73 35.42-2 1.22-7.53 2.29-5.93 6 4 9.34 12.19 15.12 19.83 21.49 34.71 11.21-15.79 22.24 9.72 62.18 1 1.44 1 4.86 4.45 2 13.38-11.29 29.79-6.58 37.89 9.25 2.44 4.76-2.56 13.93 5.16 13.86 17.09-.15 31.72-7.53 42.35-21.29 3.78-4.66 6.4-4.78 9.66.02zm56.61-101.48c2.73-8.24 6.76-16 10.71-25.17-14.15 8.77-27.32 16.85-40.37 25.11a5.36 5.36 0 0 0-2.21 3.94c.11 2.66 2.54 1.28 3.92 1.39 9.91-1.09 23.11 8.89 27.95-5.27zm-10.67 15.47c-7.65.48-19.46-5.69-23.22 1.37-6.18 13.14 10.41 14.8 12 24 1.61-3.03 17.57-25.52 11.22-25.37zM288 983.83c-19-1.68-21 28.66-4.12 31.13 24.42 2.91 24.35-29.84 4.12-31.13zm98.95 302c-12-1.84-26.95-6.78-37.82-3.39-15.78 6.87-29.93 17.42-45 26.12-2.35 1.36-2.59 1.78-1.62 4.16 1.17 2.86 2.17 1.16 3.9.87q15.92-2.68 32-4.51c1.38-.16 3 1.9 4.53 2.93-6.67 5.43-23.83 8.06-32.77 8.19-4.41-.22-5.27 2.81-5.59 6.62-.32 3.81 3.06 3.12 4.38 3.66 10.9 4.49 22.13 8.2 33 12.77 2.21.93 3.31 4.52 4.91 6.88-9.05 2.23-30.19-9.51-40.66-12.18-2.66-1-4.84-3.56-7.55.58-7.14 8.8 7.15 19.51 9.87 28.6 3.11 6.16-1.44 11.63-5.86 3.66-8.56-7.3-6.6-27.23-26.14-21.72-3 .86-5.59 0-6.76 4.12-3.49 8.51-6.35 29.36-14.36 33.2-8.29-1.8 6-28 7.19-33.93 1.67-5.18-1.69-11.06-5.09-10.19-9.74.71-36.36 17.91-41.85 11.23-1.22-1.32-1.61-3.63.76-4.55 10.75-4.13 21.59-8.06 32.34-12.23 1.39-.54 5.53.34 3.89-1.29-3.75-3.75 2.12-11-4.61-12.24-6.69-2.55-40.84-1.54-39.11-9.32 0-3.89 3.28-5 5.61-4.76a286.89 286.89 0 0 1 29.88 4.69c3 .66 6.44 2.25 7.89-.07 1.32-2.12 3.51-5.54-1.5-8.77-4.2-3.21-36.29-24.86-24.82-28.38 9.71 4.22 16.84 14 25.7 19.94 3.3 2.54 5.93 8.2 11.76 4.37 3.3-1.34-2.46-5.61-2.35-8.28-5.91-32.75-34.21-20.72-58.87-26.77-16.5-2-32.66-2.5-46.45 9.15-2.5 2.11-3 3.19.16 6.14 32 35.22-11.85 40-2.65 48.66 12.2 12.16 28 21.35 45.95 21.49 15.5.09-8.31 37.26 8.1 55.93 3.64 5.28 7.22 13 16.41 4.29 11.51-11 28.28-9 33.88 4.18 6.85 26.92 48.2-14.6 51.5-26.72 1.5-6 3.77-12.09 11.6-7.44 15.3 10.84 33.48 19.88 52.34 11.38 2.67-1.2 5.32-1.31 2.25-6-10.74-16.41-4.33-30.73 14.58-36.43 2.7-.82 10.19.41 8.53-4.09-5.45-14.85-17.38-25-29.47-34.58-1.91-1.51-5.67-1.74-5-4.78a10.28 10.28 0 0 1 4.94-6.25c7.32-3.4 12.57-9.03 18.02-14.91zm-109 19.3c-25.3-.23-24.77 38.1 3 36 20.79-.26 19.17-36.85-3.03-35.97zm13.21-5.22c2.14 1.87 4.72 4.61 7.26 2.59 11.75-9.35 25.87-14.59 38.8-22.79-8.07-.94-15.47-2.18-22.91-2.56-7.29-.38-16.72-7.86-20.66 5.12-1.3 4.3-1.31 9.11-3.2 13.08-1.18 2.44-.97 3.16.68 4.59zm-2.26-24.38c-7.49-5.82-17.23.8-24.15-4.8-11.39-.76 7.09 29.79 13.77 25.81 9.21-3.14 5.16-14.71 10.35-20.98zm257-133.53c-14.39 19.58-22.1 43.89-37.73 62.93-2.12 2.8-6.38 6.85-3.55 9.88 8.23 8.85 17.65 16.56 26.27 25.07 3.09 3.06 4-1.16 6.16-.94 2.16.22 2-1.32 1.8-2.68-1.91-14.94-4-29.87-5.66-44.84-.76-2.8-1.55-7 2.86-6.63 4.07-.06 4.68 3 5 6.32 1.67 15.07 3.36 30.14 5.31 45.18.13 1 2.35 2.09 3.78 2.58 3.06 2.25 11.89-24.85 15-28.75.5-1 2.73-1.5 4.22-1.64 7.22 12.22-16.94 27.76-6.09 40a2.69 2.69 0 0 0 2.44.43c12.42-5.72 24.79-11.57 37.21-17.29 2.44-1.12 4.93-1.71 6.76 1.39 1 1.68.91 3-.74 3.7-12 5.51-24.18 10.76-36.08 16.53-2 1-6.34.52-5.64 4.43-.06 7.67 30.8 8.46 38 13.63 16.34 14.56-36.51-4.21-40 1.07-1.31 1.69-3 5.25-2.25 6.07 9.69 11.14 19.77 22 29.75 32.84 1.42 1.54 3.85 3.56 1.36 5.2-1.57 1-5.57.87-6.79-.39-9.7-10.1-19.25-20.37-28.31-31-3.93-4.63-6.72 1-10 0-3.6.56-.91 16.15-1.7 20h-.19c0 3.66.19 7.34-.08 11-.12 1.75 1.61 4.91-2.19 4.84-2.79-.06-3.54-2.2-4-4.77a90 90 0 0 1-1-28.61c.51-3.95-5.43-3.16-7.66-5.68-1-1.13-2.06-1-3.29.37-8.46 9.34-17.3 18.34-25.42 28-1.86 2.2-2.89 6.15-5.85 4.11-8.24-7.09 27.15-31.35 25.22-40.58-.5-3.16-2.89-.84-3.86-.57-10.29 1.65-38.12 14.23-45.51 10.69-2.66-8.83 33.85-15.26 40.72-18.87 3.09-1.14 5.14-2.39 4.87-6.08-.15-2.09-.49-3.5-3-3.65a91.7 91.7 0 0 1-26.09-4.88c-7.16-2.57-13.2-1.28-17.53 6.81-11.8 20.6-36.67 35.78-31.13 62.77.46 2.76-.36 9.83 4.92 8 12.36-4.32 29.17 1.9 35.09 13.27 2.67 5.13-.48 14.69 6.4 15.21a54.82 54.82 0 0 0 37.87-12c21.43-18.86 25.41 22.84 59.88 23.86 12.52 3.12 9.84-12.33 11.46-20.6 1.25-11.73 18-21.22 28.34-15.75 10.56 6.2 8.79-35.73 4.74-40.83-1.17-3.14-5.79-4.53-3.88-9.58 3.46-9.16 13.14-10.44 19-16.54 5.86-6.1 11.44-12.45 13.06-20.84.18-1-7.37-3.45-11.37-5.15-10.63-4.49-14.37-15.91-10.94-26.37 1.37-4.2 9.45-10.93 1-14.78-16.14-7.36-33.12-11.25-50.7-3.84-7.53 3.17-11.59.4-13.3-7.56-3.25-13.04-11.48-44.49-26.96-44.49zM521 1248.3c1.57.29 2.85 1.49 4.15-.67 1.3-2.16-.36-2.53-1.34-3.47-7.4-7.11-14.88-14.14-22.13-21.41-1.67-1.68-2.73-2.47-4.09-.17-4 6.83-11.66 11.12-13.08 19.1 11.98 2.16 24.23 4.32 36.49 6.62zm23.63 26.7c19 2.64 19.42-27.6.31-28.06-19.94-2.23-21.08 29.06-.31 28.06zm88.08-368.68c23-79.57 44.45-159.39 62-240.31 9.69-54.07 13.84-109 20.14-163.51 6.24-61.06 11.11-122.28 17.7-183.3.29-2.71-.09-4.52-3.71-4.18-78 3.75-157.31 8.84-235.25 7.22-5.64.05-8.95.39-8.81 4.92-1.64 87.56-7.08 175.68-19.63 262.4-19.56 114.87-41.89 230.65-81.15 340.53-42.58 110.58-104.89 212.35-167.51 312.55-6.63 9.27-12.36 16.75 6 14.25 66.56 2.83 132.83 11.72 199 19.24 8.67 1.61 20.43 7.31 27.69-4.86 16-27.11 37-51 53.44-77.76 55.65-89.68 97.69-186.99 130.09-287.22zm89.74-254.82c-.53-5.7-8.91-12.52-10.72-11.62-6.52 3.26-.67 11.65-4.18 17.69-1.73 3 3.55 3.32 7.29 3.42 7.28 1.62 7.96-5.82 7.61-9.52zm-5.19 17.9c-3.82-.12-9.29-2.64-11.27 1.92-2.31 5.33-3.16 11.51-3.35 17.36 0 1 3.4-2.64 5.54-3.72 4.9-2.47 10-4.76 13.67-10.11-1.74-2.21-3.12-5.43-4.59-5.48zm-45 190.72c.44-.75-6.05-7.85-9.4-7.92-4.5-.09-2.54 7.14-6.45 10.94 5.99-2.21 12.23 3.1 15.82-3.05zM662 870.67c-12.47.59-7.18 11-10.7 16.37-.75 1.15-4.43 3.64-1.24 5.56 7.62-.43 14.56-9.22 21.06-13-2.63-3.86-1.41-9.3-9.12-8.93zm47.48-62.25c-4.13 0-7.72-2.58-10.13-10.41a105 105 0 0 0-15.63-28.76c-9.16 21.6-12.1 46.11-18.62 68.82-1.67 7 5.87 8.63 9.13 12.65 2.51 3.09 8.1 2.48 9.25-.07.19-10.13-5.44-22.18-6.38-32.77-1.84-6.75 6.61-10.25 7.56-2.44 3 6.64 4.8 32.24 10.77 33.52 4.46 1.08 3.76-3.06 4.47-4.87 3.46-4.88 5.5-27.25 12.4-24.77 7.22.54-4.75 25.28-5.37 30.75-.61 1.85-1 2.33 1.23 3.32 1.62.73 1.92 1.3 3.65-.06 7-5.44 14.08-10.73 21.47-15.57 7.42-4.4 14.52 2.14 4.51 6.46-3.35 3.83-25.54 16-22.34 19.89 1.27 2.4 2.07 5.12 6.18 5.12 6.69-.43 13.54.67 20.18 1.95 8.37 1.05 10.32 11-.2 7.74-6.77.08-13.65-1-20.25-1.95-4.4 0-5.39 3.33-7 7.53-1.61 4.2 2.08 4.45 3.29 5.8 6.87 8.61 16.83 14.94 22.32 24.5-15.35 2.89-21-20.65-35.3-21.54-1.21 0-3.5 2.36-3.37 3.37 1.34 9.91 2.92 19.8 4.82 29.62.48 2.48 2.66 5.28-.61 6.6-13.73 3.75-3.87-38-19.08-36.81-1.7 0-4.31 4.55-4.81 7.32-1.5 8.34-6.51 14.76-10.39 21.85-1.68 3.08-4.05 3.19-6.54 2.61-6.38-.43 9.49-25.17 10.21-29.83 1-2.35 4.69-3.93 2.6-7.33-3.18-5.2-6.71-1.1-8.8.58-7.61 6.13-19.31 7.49-23.5 17.12-4.46 10.28-6.92 21.45-10 32.29-10 15.81 19.24-2.13 17.89 37 0 2.1.39 3.7 2.65 3.93 17 1.7 39.13-11.3 45.44-27.23 3-7.68 6.29-2.71 8.71-.43 8 7.56 16.68 12.81 27.07 10.93 3.82 0 7.14 1 9-.27 2-1.35 9.33 1.66 5.47-6-9.6-18.9 7-45 28.68-33.85 1.81.88 2.77-.06 3-2.38 1.06-9.22-1.45-17.41-5.19-25.81-22.38-26.87 11.25-14.24 9.19-60.07.75-10-27.67 7.25-35-23.74-1.11-4.45 4.25-10.47-.2-11.07-24.85-5.66-22.86 1.7-42.44 6.76zM694 888.5c22.44.11 17.46-35.47-3.82-31.94-17.43 2.44-15.92 32.07 3.82 31.94zM719.12 777c11.82-5.74 23-12 32-22 3.21-3.58 5.21-12.47 11.43-8.82 13.16 8.15 26.43 19.5 42.95 18.84 12 .28 4.17-8.36 5.08-12.28 3.7-15.93 17-24.67 32.1-19.48 2.08.72 1.82-.45 2.06-1.46 4.87-20.42 2.61-39.11-12.83-54.85-2.77-2.83-7.79-6.32-2.8-10.8 7.41-6.66 12.52-15.11 16.69-23.59 2-4 12.22-15.12-5.36-15.81-15.86-.63-25-16.19-19.86-30.93.69-2 0-2.34-1.94-2.83-13.75-3.54-26.83-2.55-39.68 4-7.88 4-8.24 3.51-10.55-1.66-9.53-18.09-12.92-41.79-32.33-52.16-3.21 9.75-18.38 10.2-17.36 24a121.28 121.28 0 0 1-2.11 34.71c-3.52 15.91-7.35 30.58 10.55 40.74 4.26 2.42 5.7-1.7 8.64-1.83a2.49 2.49 0 0 0 .36-1.62c-1.61-10.56-9.82-43-2.29-50.1 1 1 2.75 1.91 2.92 3 1.32 8.55 6.17 16.52 3.73 26.09.81 6.26 1.68 12.94 2.53 19.63.53 4.2 4.91-.74 5.83 2.48 6.13-3 9.41-31.78 17.36-26.42 4.38 2.46 0 7.71-.82 11.89-2 7.46-13.19 14.38-1.26 21 6.64 3.84 10.59-4.07 15.87-6.24 6.19-2.54 11.46-7.29 17.26-10.86 4.69-3.47 11.48 2.73 4.56 5.27-10.08 6.9-20.4 13.45-30.59 20.2-.91.61-2.18 2.25-1.94 2.76.87 1.77 2.77 4.8 3.49 4.6 9-2.61 17.85 1.36 26.78.45 4.29-.44 6.79 3.23 6.87 6.28.09 3.56-4 1.61-6 1.67-8.65.27-17.31.13-26 .11-5.82 0-3.47 6.8-7.15 8.64a3.55 3.55 0 0 0 .67 2.48c10.37 7 18.91 16 27.82 24.58 7.16 5.81 1.49 12.25-4.34 5.7-9.36-8.2-18.75-16.4-27.51-25.21-4.78-4.8-4.88 4.29-8.38 2.12-.13-.08-2.29 2-2.13 2.78 1.62 8 3.91 15.91 5.12 24 .58 7.16-6.69 12-7.75 2.19-1.78-6-1.2-26.49-8.14-27.08-1.72-.25-4.8.18-5.24 1.2-4.38 10.12-8 20.59-12.61 30.58-1.53 3.31-2.38 9.81-8.36 7.75-9.08-4.29 14.37-35.62 13.28-43.69-8.18-12-31.18 17.81-32.8 24.9-.51 4.54-2.86 9-2.81 13.45.17 12.7-13.18 24.94.48 38.46 7.39 7.29 9.72 20.35 24.51 13.17zm8.24-111c.8 18 32.79 26.48 35.29 1 .28-10.45-5.84-17.85-16.53-19.43-7.12-1.02-20.33 11.96-18.76 18.43zM854 1481.7c-5.08 0-13-1.18-13.3 8.33-.28 9.66 3.43 15.62 13.8 14.94 7.34-.49 6-6.73 6-7 1.07-10.23.14-16.27-6.5-16.27zm4.71-123.4c.26-15.6-21.92-14.36-21.83.39-.22 10.56 7.4 10.86 13.26 11.15 7.03.36 8.52-6.74 8.55-11.54zm-2.3-188.43c1.44-18.31-21.62-17.42-22.91-.67-.29 5.49-.16 14.53 7.6 14.09 11.58-.08 15.23-6.96 15.29-13.42zM843 1233c-10.84-1.64-10 6.84-11 13.24-1.87 16.48 22.14 11.18 20.86-2.55-.16-5.64-1.26-12.04-9.86-10.69zM829.49 60.58c18.73 1.55 16.7-24.21 2.65-25.37-7.48-.4-11.42 5.24-13.64 12.23 1.84 6.11 3.6 13.23 10.99 13.14zm-4 1356.35c-13.78-2.26-14.71 21.76-.79 20.23 9 .46 11.21-6.69 11.92-12.46.85-6.7-5.29-8.06-11.11-7.77zm-13.76 121.46c-7 .76-3.4 23.2 8.63 22.39 12.73-.56 13.27-22.98-8.61-22.39zm-46.38-80.91c-12.13 0-11.26 24.39 1.27 23.18 14.45-.35 12.5-24.12-1.25-23.18zm-2.71-1401.3c12.27-1.55 5.87-25.86-4.79-23.15-14.35 1.18-13.58 26.62 4.79 23.15zm-24.75 1464.69c-11.92-.51-11.4 18.18.05 17.48 10.12.52 11.27-18.73-.05-17.48zM718 1570.33c-2.35 1.09-4.9 5.35-4.8 10.11.26 12.18 10.29 8.21 16.45 8.19 5.94 0 4.93-7.78 4.75-10.7-.4-7.67-6.97-9.29-16.4-7.6zM675 35.43c1.07 15.93 27.51 11 27.21-8.09.6-8.08-4.28-14.77-14.4-14.47-15.98.74-12.6 12.84-12.81 22.56zm-7.74 1452c-12.54-.93-11.33 23.87 3 21.71 7.73 1.26 8-6 8.46-11 .68-7.2-5.9-10.03-11.44-10.69zm-9.46-1364c20.68.88 23.11-28.57 4.69-26.07-11 1.71-10 11.88-10.09 20.08-.03 5.7 4.48 6.18 5.42 6.04zm-5.59 397.39c-9.25-7.09-18.25-14.52-27.2-22-4.32-3.62-7.08-3.28-10.29 1.72-18.54 27.18-38 60.12-71.34 70.31-6.57 1.44-9.12-3.83-3.6-7.75a239.3 239.3 0 0 0 63.9-71.43c3.33-5.75-3.23-4.52-5.9-5.62-24.53-9.47-23.28-11.21-34.45 10.42-6.65 7.11-11 16.39-16.43 24.63-3.11 4.67-7.71 2.09-11.68 1.82-3-.2-3.58-2.57-4.46-5.34-5.06-16-14.17-29.8-25-42.42C493.11 455.93 526 458 533.43 457a167.6 167.6 0 0 1 32.68 2.75c7.35 1.24 9.27-8 13.19-12.82 6.89-9.41 14.88-18.61 19.4-29.46-16.64 1.82-30.55 11.29-47.81 3.43-7.31-2.92-13.23-8.57-13.57-16.92-.18-4.53 3.71-8.06 8.62-4.26 27.87 22.16 51.47-11.3 71.12-.73 4.68 3.27 3.63 8.28 1.52 11.35-11.41 16.66-17.9 36.45-32.62 51-4.62 4.59 22.62 9.65 25.93 12.94 7.07 3.81 16-26.88 28.42-31.78 3.23-2 6.75-5.16 10.86-3 5 2.61 5.29 8.31 5.74 12.9 2.1 21.33 3.72 42.7 8.15 63.73 1.13 8.87-7.7 9.38-12.83 4.74zm-101-47c-8.16-.86-16.82-1.7-25.89.81 1.59 9 11.07 12.81 12.78 22.1 1.21 5.37 3.79 4.28 6.31.43 2-5.78 22.35-23.72 6.8-23.26zm93.63-.62c-.26-4.68-1.38-9.31-2.12-14-2.54 3.62-5.9 6.94-7.4 10.95-1.65 4.43-9.54 7.4-5.37 12.56 3.57 4.42 9.9 6.62 15 9.81-.01-6.34.26-12.81-.11-19.24zm-19-394.39c16.57-.67 18.57-26.25 1.25-25.38-14.42-.67-19 27.48-1.27 25.46zm-18.59 1456.37c-7.23-.43-7.64 6.26-8.24 11.46-1.13 9.71 6.85 12.9 13.34 13.82 15.08-.28 9.1-26.82-5.1-25.28zm1.11-98.1c4.55-.3 10.57 2 9.46-6-.83-6 .41-13.21-10-12.36-7.53.62-10.57 3.77-10.86 10.81-.42 9.37 6.46 7.18 11.4 7.55zM588 26.87c7.48-.62 10.79-5.76 11.09-13.25.42-10.5-7.84-9.92-14-10.44-7.09-.6-8.55 4.94-8.09 11.52-1.08 7.8 2.34 12.91 11 12.17zM577 652c11.42 11 19.29 36-4 36.51-9.8-.3-12.58 5.59-14.74 12.36-3.28 10.34-2.63 19.56 8.49 25.84 9 3.8 25.73 28.32 15.42 35.71-4.54 3.66-18.19-18.62-22.43-22.1-1.91-2.24-2-.82-2.78 1.24-2.85 12-5 44.85-23.58 26.69-7.67-7-14.3-15.24-22.14-22.08-6.64-11.35-23.68 62.77-26.24 68.72-4.46 15.84-10.31 31.3-14.69 47.16-8.2 23.88-10.62 43.8 19.25 50.77 16.06 5.78 31.91 2.33 47.51-2.57a120.88 120.88 0 0 0 37.89-19.31c1.47-1.13 4.11-3.74 5.49-1.24 2.76 5-2.22 8-4.58 11.33-24.31 32.93-103.06 44.88-123.56 2.56-12.1-25.59 22.5-100.43 28.69-132.87a187.11 187.11 0 0 1 16.26-38.62c1.35-2.42.56-3.29-.52-4.52-12.7-14.41-5-33.25 7-43.12 6-4.91 11.81-9.71 19.16-12.51 1.63-.63 4-3.69 3.64-4.48-2.53-8.54-19.41-6-17.19-14.23 1.05-3.74 3.52-4.79 7.49-4.18 10.16 1.56 20.78 3.46 24.06 14.58 4.57 15.51-8.69 20.65-18.46 27.34-9.13 4.95-23.81 16.23-12 26.55 2.09 2.89 3.09-1.17 4.73-1.76 15.84-8.51 27.88 5.84 27.8-9.5.79-17.36 11.06-29 27.77-31.34 8-.28-3.08-15.14-3.6-19.48-2.93-7.2 6.93-6.62 9.86-3.45zm-47.2 77.08c-19.61-.93 3.06 14.79 7.51 20.73 1.94 2.14 3.46 3.52 5.17-.15 6.02-12.97 1.52-20.6-12.71-20.6zm14.18 838c-11.1-1.89-13 21.57-2.09 21.6 14.5 1.32 14.95-21.22 2.11-21.59zm-1.89-62.08c13.72 2.76 14-19.88 2.33-19.47-13.37-.65-13.78 22.12-2.33 19.47zM511.47 38.58C519 37.9 525.82 33.42 525 23c1.85-8.25-5.48-10-10.57-9.6-12.68-1.01-16.7 25.21-2.96 25.18zm-.23 1011.36c24.65 56.9-37.43 101.84-87 110.75-.9.26-3.4-2.18-3.82-3.73-3.69-6 37.14-20.85 43.35-26.11 20.56-11.65 44.71-33.79 37.58-64.63-4.33-18.74-21.89-34.45-41.54-33-14.66 3.86 20.31 24.8-21.07 44.13-21.52 10.66-43.39 22.18-56.41 43.47-3.37 3.39-6.84 8.65-12.27 5.89-24.81-12.25 3.27-65.2 18.69-78.91 30.56-35.37 98.25-43.59 122.49 2.14zm-66.87.11c-1.52-5.54-.65-10.44-1.24-15.63-34.21 4.43-65.87 35.44-67.88 70a216.26 216.26 0 0 1 56.75-41.85c5-2.76 14.75-3.84 12.37-12.52zm39.25-943.19c19.88 2.71 25.5-24.7 7.82-28.42-11.25-1.09-13 8.16-14.8 17.24 1.69 3.9-.19 10.91 6.98 11.18zm-4.6 1450c-9.36-.31-14.57 3.37-15 12-.36 7.23 5.43 7.82 10.52 8.08 13.11 2.66 19.29-22.6 4.46-20.05zM428 58.8c9.8.18 13.82-6.83 15.3-15.48.9-10.07-6.54-10.06-12.68-10.22-15.85-1.71-18.97 25.33-2.62 25.7zm-14.68 1450.56c-5.84.58-9.81 5.6-8.43 12.8-.47 7.11 2.05 11.45 10.26 10.95 16.28-1.96 14-25.87-1.83-23.75zm3.91-53.28c1.63-15.94-23-10.23-21.26 3.5.13 14.09 23.36 12.55 21.26-3.5zM365.59 38.78c7.49.2 11.61-5.08 11.62-14.22.46-8.13-5.84-10.91-13.37-11.49-6.77-.53-9.53 4-8.79 10.14.84 6.79 1.22 15.32 10.54 15.57zm4.7 405.58c-1.91 5.25-8.38 3.17-13 2.29-12.68-2.39-25.28-5.25-38-7.26-1.5-.23-3.83 3.61-5.39 5.83-.34.48.75 2.32 1.56 3.19q14.46 15.49 29.06 30.88a4.75 4.75 0 0 1 0 7.08c-5.21 3.82-26.18-22.61-30.41-27.11-1.81-2.05-3.39-6.2-7.27-5-8.78 2.63-9 8.79-7.25 16.68 2.17 9.56 4 19.43 4 29.17 0 7.34-4.2 4.64-6.56.6-4.25-11.84-3.28-25.28-6.29-37.5-1.26-6.19-6.82-3.2-10.77-3.23 2.33 2.29-.17 4-1 5.52q-7.68 13.68-16 27c-.74 1.2-2.12 4-4.64 1.54-6.29-4.37 11.91-27 14.48-33.32 2.35-3.78 1.16-6.62-.92-9.57-2.87-4.07-6.11-.76-8.35.43-9.56 5.08-18.9 10.59-28.1 16.31-4.13 3.52-9.41-2.81-4.85-5.8a116.76 116.76 0 0 1 29.61-17c5.95-2.43 4.7-7.32 4.58-11.73-.11-3.89-3.2-4-6.36-4.3-10.24-1.13-20.47-2.44-30.63-4.18-6.67-2.73-4.66-7.36 0-7.76 12.68 1.57 22.14 2.37 31.44 4 6.13 1.09 9.62-2.24 10.95-6.72-2.69-10-20.18-22.31-27.27-31.17-2.13-2.2-3.48-5 0-7 7.37-5.21 24.87 23.53 30.84 28.68.82 1 3 2.15 3.49 1.79 3.35-2.41 9.12-5.22 9.12-7.9 0-11.69-1.67-23.39-2.79-35.08-.29-3-2.31-6.24.65-8.72 6.69-4.72 7.6.12 6.69 5.87 1.46 11.9 2.34 23.89 4.26 35.72.75 4.66 6.34 4 9.87 4.89 4 1 4.07-3.74 5.6-5.86 5.32-7.39 9.9-15.3 15-22.82 1.77-2.59 4.16-4.44 7.72-1.86 4.08 3-.2 5.09-1 6.42-5.88 9.42-12.44 18.4-18.55 27.68-3 4.6 2.4 7.13 3.47 10.78.84 2.87 2.66-.73 3.94-1.12 12.84-3.92 25.49-8.42 38.28-12.47 1.95-.62 4.76-.2 5.38 2.69 1.63 7.12-37.91 16-44.71 18.51-.89.24-1.53 4.38-.94 6.3 1.27 7.01 55.34 5.77 51.06 14.63zm-59.58-17.84c-2.8-27.9-38.11-19.66-37.65 7.88-1.39 10.7 6.8 14.92 16 16.25 10.05 1.46 22.68-12.65 21.65-24.13zm45.2 1126.38c-10.35-2.18-9.73 19.35.25 18 12.95 1.32 13.84-18.73-.25-18zm-15.81-79c-5.82-.13-10.22 3.15-9.69 9 .4 4.53-2.37 12.28 7.83 12.2 12.1.77 15.26-20.51 1.86-21.21zm-25.66 45c-6.4.4-12.95 0-13.48 8.89-.4 6.71 1.15 12 9.08 11.39 13.22 2.58 18.14-20.44 4.4-20.33zM288.2 32.67c5.72-.42 11.89-3.27 10.85-11.46.27-5.23-1-10-7.1-10-14.35-2.16-18.69 21.17-3.75 21.46zM271.13 1563.3c-6.48-.92-6 5.33-6.38 11.77-1.39 8.21 7.36 9 12.74 9.13 5.71.11 7.34-7.27 7.28-12.09-.1-8.39-8.42-8.06-13.64-8.81zM213 53c17 1.07 16.64-25.37-.19-23.91-13.66-.15-13.05 24.01.19 23.91zm-2.55 57.9c13.94 1.21 12.16-22.78-.61-21.42-15.27-1.2-14.5 21.69.6 21.38zm-10.77 1444c-12.37-2-12.17 22.49 2.64 21.69 13.25.11 12.29-23.88-2.65-21.71zM158.65 74c8.2-.2 10.72-5.1 10.49-12.43-.26-6-.85-12.13-8.95-11.5-5.3.42-13.95-2.14-13.8 6.65.12 7.33-.25 17.58 12.26 17.28zm-28.18 1453c-14.1-2.55-15.63 20.74-1.83 20 5.67-.32 12.11-.92 12.18-8.3.06-6.27-1.31-13.08-10.35-11.7zM121.15 26.52c16.37 2.1 17.56-26.36.67-25.21-14.72-1.26-13.33 24.07-.67 25.21zM121 156.63c-10.23-.07-12.53 9.34-13.59 16.28-1.35 8.81 7.51 11.78 14 11.7 16.59 1.16 16.59-28.76-.41-27.98zm3.82 1300.15c3.35-12.22-7.41-10.3-13.47-10.71-10.24 1.52-7.15 22.93 5 21.11 6.82-.18 9.83-2.91 8.48-10.4zm-19.61-1117.9c9.49-1.19 7.88-10.12 9.4-13.95 1.5-9.6-4.93-11.84-8.67-11.49-16.84-.5-19.75 27.83-.73 25.44zm-3.07-224c12.8 2.21 11.47-7.53 11.77-15 .32-8.19-7.15-7.43-11.85-7.39-7 0-10.27 5.6-9.74 12 .44 5.35.68 12.51 9.82 10.38zm6.86 983.55c3.92-13.71-17.7-18.94-18.67-4.75-2.33 18.32 20.94 18.98 18.67 4.75zM97.34 863.58c11.23-.75 10.27-22.36-2.51-21.13-8.55 0-9.2 6.8-9.7 12.45-.77 8.7 6.87 8.76 12.21 8.68zM72.24 744c-.94 8.3 5.26 11.59 12.05 10.62 11.45-.62 12.93-24.35-1.82-21.62-8.82-1.94-9.58 5.37-10.23 11zm.4 396.51c-13.7-.56-13.37 24.51 1.4 24.59 9.77.43 11.64-6.38 11.86-13.35.27-8.3-4.69-11.83-13.26-11.2zM69.14 231c-8.76.49-9.81 7.11-10.79 18.12-.18 1.14 2 5.92 7.16 5.44 6-.55 15.22.18 15.16-9.19-.03-6.54-1.41-14.93-11.53-14.37zm-.56-173.86c8.57 1.15 8.48-5.72 9-11.06.7-7-1.53-13.22-9.92-12.93C52.05 32 52 58.13 68.58 57.14zm-9.49 1420.23c-10.11.69-9.4 20.61 1.35 22.07 4.14-3 11.88-2 12.47-9.44.75-9.41-6.62-12.38-13.82-12.63zm-2 83.25c-10.28 1-10.77 20.09.48 18.68 16.6 2.12 14.87-21.8-.48-18.68zm-6.8-160.44c.16 6.32 2.46 11.18 10.65 11 12.41 1.11 8.16-22.77-2.29-21.89-5.92-.08-8.51 5.21-8.36 10.89zm3.63-371.56c10.75-.16 8-10.2 8.91-16.59.77-5.47-2.7-11.29-8.28-10.65-16.7.45-14.18 28.18-.63 27.24zm-9.09-610c18.34-.28 18.66-27.07 2.07-25.56-14.9-1.37-16.14 25.46-2.07 25.54zm13.82 847.21c.1-10.14-20.52-13.56-19.07 1.84.14 3.72 1.1 11.08 8.64 9.36 8.72.81 10.26-5.87 10.43-11.22zM48.77 165.15c15.85 1.26 10.6-25.34-2.14-25.79-10.81-2.21-16.1 26.97 2.14 25.79zm-3 634.28c6.87.14 9.84-3.79 9.25-11.33 2-8.47-4.14-12-11.23-11.77-11.5.67-13.21 24.67 1.95 23.1zm-7.21-471.49c11.69-2.09 8.71-24.87-4.21-23.07-15.23-.75-15.88 25.92 4.21 23.07zM30.39 1070c-15-1.42-15.52 25.5.33 25 9.47.14 9.59-7.38 10.2-13.6.7-7.09-3.7-11.13-10.53-11.4zM17.1 1291.31c-13.8-2.94-21.34 21.78-2.76 25 6.14.47 11.49-3.85 11.32-10.28-.16-5.78.06-14.36-8.56-14.72zm-6.56 230.15c-14.08.37-12.16 27.38 2.59 25.69 18.72-.8 13.56-27.46-2.59-25.69zm-.28-60.22c4.58-.23 13.17 3.38 12.81-8.59-.65-5.52-1.64-13.07-10.52-13.45-6.54-.28-10.84 4.14-10.49 11.24.26 5.32 2.08 11.11 8.2 10.8z" id="path8096" style="fill:#311d18;fill-opacity:1"/><ellipse style="fill:#894d70;fill-opacity:1;stroke:#fef8c8;stroke-width:0;stroke-linejoin:round;paint-order:markers fill stroke" id="path8699" cx="290.476" cy="431.746" rx="20.591" ry="25.263"/><rect style="fill:#cae8e8;fill-opacity:1;stroke:#fef8c8;stroke-width:0;stroke-linejoin:round;paint-order:markers fill stroke" id="rect8776-7" width="278.196" height="80.23" x="689.788" y="1136.713" rx="59.287" ry="40.115"/></g><ellipse style="fill:#894d70;fill-opacity:1;stroke:#fef8c8;stroke-width:0;stroke-linejoin:round;paint-order:markers fill stroke" id="path8699-3" cx="551.587" cy="316.667" rx="17.642" ry="18.914"/><path id="path8094-7" style="fill:#bb2f3a;fill-opacity:1" d="m481.814 323.015-3.216 63.548c1.442 4.543-.178 11.644-.438 17.457-8.319 131.171-23.617 261.19-56.15 386.205-36.575 131.726-83.65 242.944-135.635 331.884-10.582 21.31-33.135 50.304-35.875 58.07-11.758 20.603-35.34 58.944-46.13 79.651l188.359 20.123c6.776-4.878 23.52 2.679 31.06 3.137 43.28 28.49 150.522-213.6 166.682-250.87 8.14-11.066 16.05-52.88 26.99-72.095L687.47 714c27.21-108.8 31.269-226.42 43.459-338.33.01-18.51 7.75-42.98 4.09-62.68-8.33-6.51-22.49 3.6-29.6-4.69.024-.118.043-.245.066-.364z"/><ellipse style="fill:#894d70;fill-opacity:1;stroke:#fef8c8;stroke-width:0;stroke-linejoin:round;paint-order:markers fill stroke" id="path8699-6" cx="277.778" cy="1323.809" rx="19.229" ry="19.473"/><g id="Red_Japanese_Frames" data-name="Red Japanese Frames" transform="translate(0 .319)"><path class="cls-7" d="M0 20v1560a20 20 0 0 0 20 20h936a20 20 0 0 0 20-20V20a20 20 0 0 0-20-20H20A20 20 0 0 0 0 20zm924 1528H52V52h872z" id="path8101" style="fill:#000;fill-opacity:1"/><path d="m952.1 15.41-23.41 23.42a4 4 0 0 1-2.83 1.17H50.14a4 4 0 0 1-2.83-1.17L23.9 15.41A2 2 0 0 1 25.31 12h925.38a2 2 0 0 1 1.41 3.41zM40 1549.86V50.14a4 4 0 0 0-1.17-2.83L15.41 23.9A2 2 0 0 0 12 25.31v1549.38a2 2 0 0 0 3.41 1.41l23.42-23.41a4 4 0 0 0 1.17-2.83zM936 50.14v1499.72a4 4 0 0 0 1.17 2.83l23.42 23.41a2 2 0 0 0 3.41-1.41V25.31a2 2 0 0 0-3.41-1.41l-23.42 23.41a4 4 0 0 0-1.17 2.83zM925.86 1560H50.14a4 4 0 0 0-2.83 1.17l-20 20a4 4 0 0 0 2.83 6.83h920.55a2 2 0 0 0 1.41-3.41l-23.41-23.42a4 4 0 0 0-2.83-1.17z" id="path8103" style="fill:#000;fill-opacity:1"/></g><ellipse style="fill:#894d70;fill-opacity:1;stroke:#fef8c8;stroke-width:0;stroke-linejoin:round;paint-order:markers fill stroke" id="path8699-0" cx="692.063" cy="870.635" rx="17.642" ry="18.914"/><ellipse style="fill:#894d70;fill-opacity:1;stroke:#fef8c8;stroke-width:0;stroke-linejoin:round;paint-order:markers fill stroke" id="path8699-09" cx="286.508" cy="1000" rx="17.642" ry="18.914"/><path id="path8096-8" style="fill:#311d18;fill-opacity:1" d="M278.322 222.234c6.905 6.215 13.81 12.447 20.559 18.506-48.36 3.92-90.281-29.54-135.281 6.46-10.39 7.41-11.53 19.76-.95 25.71 28.62 8.96 63.75 11.56 87.75-10.44 4.49-4.24 8.71-12.66 13-12.66 18.23.2 39.33-7.06 52.59 11.77 3.65 5.18 17.51 8.56 8.15 19.56-8.92 10.52-18.14 20.8-27.34 31.08-20.39 24.27-33.27-25.54-49.27-5.29-7.84 10.15-15.08 20.35-18.67 32.85-1.66 5.77-2.36 14.58-6.17 16.38-13.2 4.55-30.43 1-43.73 7-26.34 11.44-23.31 9.57-14 26.05 8.78 15.52 5.25 29.23-12.5 33.13-3.94.743-6.816 2.03-8.794 3.736v19.764c8.862 17.014 32.2 37.166 42.135 39.68 8.95 4.22 9.36 4.17 8.52 5.22-9.3 11.56-8.4 25.37-6.91 38.56-.83 37.4 44.27-23.46 45.5 35 .74 8.71 4.24 13.5 13.92 12.8 25.72-1.86 45.56-13.37 59.25-35.11 3.28 5.57 9.778 7.09 13.528 10.73 11.9 11.57 26.181 10 40.051 10 7.25-.02 17.09-1.32 12.36-13.71-6.38-18.92 7-41.55 28.62-32.55 3.62 1.31 8.88 2.14 10.19-2.76 4.17-15.7 3.17-30.89-5.16-45.58-1.35-2.37-7.96-6.82-3.29-8.52 12.65-4.61 20.86-14.17 29.8-22.91 35.31-33.66-53.75-16.56-3.75-74.15 8.58 17.28 25.89 17.94 41.37 22.46 1.03.31 2.9-1.09 2.65 2-6.31 72-8.85 144.73-21.6 216-12.46 70.1-25.56 140.32-44.68 208.69-23.88 82.26-1.75 48.16-43.88 33-2.62-.6-2.57-2.3-1.29-4.13 8.31-11.86 9.64-25.33 8.09-39.06-.97-8.47-.12-18.37-15.72-13.24-36.43 12.78-21.72-27-33.15-28.9-20.56-1.86-38.24 7.89-55.24 19.23 8.11-16.91 6.79-35.7 25.94-47.52 25.88-14.34 40.51-37.53 36.08-68.87-.71-5-1.38-15.17-8.57-13-31.2 9.43-51.62 40.55-47.29 73.06 4.7 13.7-5.55 25.47-9.36 38.47-7.14-19.18-12.02-39.09-26.31-54.8-3.46-3.95-8.89-10.73-7.59-13.55 16.05-28.54-21.42-53.74-42.42-30.44-6.78 11.01-7.39 22.7.5 32.38 7.07 8.64 17.45 12.85 29.45 8.64 10.15-13.13 40.58 66.59 42 77.22-12.15-13.59-56-41.91-58.38-10a20.89 20.89 0 0 1-10.82 18c-6.33 3.39-14.58 5.82-21.48-.92-4.28-4.18-8-.91-8.94 2.5-4.75 17.25-8.72 34.44-.27 52.17 2 4.37 10.22 8.73 5 14.2-5.384 5.375-14.117 15.651-18.854 25.423v19.64c2.222 1.96 5.666 3.325 10.674 3.846 10.47 1.97 15.47 8.59 17 19.5 5.39 19.71-33.95 26.041-14 40.281 15.55 10.95 13.62 22.37-3.69 30.12-17.77 10.65 8.49 31.61 18.34 38 1.47 1.06 3.83 1.09 4.9 2.4 1.07 1.31 5.33.89 3.4 3.31-15.1 13-12.31 72.77 13.69 60 5.32-3.65 10.41-5.24 16.82-3.8 7.08 1.58 18.64 21.23 13.77 24.8-8.43 6.2-18.34 14.15-27.83 14.42-20.372.583-38.377 4.183-53.074 15.846v11.068c8.444-8.972 21.198-15.934 32.273-15.677 1.665.038 3.293.24 4.862.623-3.625 6.55-31.625 19.107-37.135 27.636v4.854c2.77 3.132 6.618-.784 9.033-2.36 14.64-9.51 28.951-19.53 43.701-29.6 1.26 9.54-14.15 30.11-23.27 32.54-8.72 2.31-17.23 5.31-26 7.31-1.106.247-2.277.517-3.464.755v7.066c5.089-.664 10.335-2.29 15.404-3.22 20.11-3.69 37.65-13.652 44.75-36.542 1.5-4.85-3.12-10 1.82-13.51 12.93-9.19 26.05-17.319 42.37-20.369 9.95-1.81 21.33-4.48 26.95-15a9.35 9.35 0 0 1 5.05-4.41c.63 2.24 2.43 5.15 1.63 6.61-12.46 22.51-23.93 45.77-38.36 67-14.59 21.47-25.01 45.32-40.29 66.22-3.22 4.43-2.29 13.43-7.93 13.43-18.388-.393-41.611 3.606-51.394 20.808v5.98c.873 1.968 2.448 3.744 4.414 4.833 6.81 3.79 9.4 10.978 10.31 17.078 1.25 8.5-6.69 12.5-13.6 15.82-.41.252-.777.512-1.124.778v11.52h11.043c-.475-.455-.955-.905-1.42-1.368-9.2-8.66 34.65-13.438 2.65-48.658-3.16-2.95-2.66-4.03-.16-6.14 9.48-8.01 20.082-10.278 31.143-10.263 5.028.007 10.152.487 15.308 1.112 24.66 6.05 52.96-5.98 58.87 26.77-.11 2.67 5.65 6.94 2.35 8.28-5.83 3.83-8.46-1.83-11.76-4.37-8.86-5.94-15.99-15.72-25.7-19.94-11.47 3.52 20.62 25.17 24.82 28.38 5.01 3.23 2.82 6.65 1.5 8.77-1.45 2.32-4.89.73-7.89.07a286.89 286.89 0 0 0-29.88-4.69c-2.33-.24-5.61.87-5.61 4.76-1.73 7.78 32.42 6.77 39.11 9.32 4.615.85 3.306 4.53 3.237 7.966h10.125c-5.169-10.727.456-26.171 16.547-26.025l-.03.03c14.65-.582 20.33 15.15 16.532 25.995h16.19c-.56-.226-1.122-.446-1.68-.676-1.32-.54-4.7.15-4.38-3.66.32-3.81 1.179-6.84 5.589-6.62 8.94-.13 26.1-2.76 32.77-8.19-1.53-1.03-3.15-3.09-4.53-2.93a604.53 604.53 0 0 0-32 4.51c-1.73.29-2.73 1.99-3.9-.87-.97-2.38-.73-2.8 1.62-4.16 15.07-8.7 29.22-19.25 45-26.12 10.87-3.39 25.82 1.55 37.82 3.39l-.03.03c-5.45 5.88-10.7 11.51-18.02 14.91a10.28 10.28 0 0 0-4.94 6.25c-.67 3.04 3.09 3.27 5 4.78 7.46 5.911 14.852 12.042 20.704 19.356h11.953c-12.71-17.177-34.816-22.177-14.476-33.146 6.15-3.31 8.038-13.24 15.148-12.5 8.47.88 16.82 3.37 25.55 3.7 2.55.13 9.18-.1 6.92 5-3.833 9.246-5.381 27.374.401 36.946h36.084c-7.514-4.392-17.172-5.913-25.033-3.166-5.28 1.83-4.462-5.24-4.922-8-5.54-26.99 19.33-42.17 31.13-62.77 4.33-8.09 10.37-9.38 17.53-6.81a91.7 91.7 0 0 0 26.09 4.88c2.51.15 2.85 1.56 3 3.65.27 3.69-1.78 4.94-4.87 6.08-6.87 3.61-43.38 10.04-40.72 18.87 7.39 3.54 35.222-9.04 45.512-10.69.97-.27 3.36-2.59 3.86.57 1.93 9.23-33.461 33.49-25.221 40.58 2.96 2.04 3.99-1.91 5.85-4.11 8.12-9.66 16.96-18.66 25.42-28 1.23-1.37 2.29-1.5 3.29-.37 2.23 2.52 8.17 1.73 7.66 5.68a90 90 0 0 0 1 28.61c.46 2.57 1.21 4.71 4 4.77 3.8.07 2.07-3.09 2.19-4.84.27-3.66.08-7.34.08-11h.19c.79-3.85-1.9-19.44 1.7-20 3.28 1 6.07-4.63 10 0 9.06 10.63 18.61 20.9 28.31 31 1.22 1.26 5.22 1.39 6.79.39 2.49-1.64.06-3.66-1.36-5.2-9.98-10.84-20.06-21.7-29.75-32.84-.75-.82.94-4.38 2.25-6.07 3.49-5.28 56.34 13.49 40-1.07-7.2-5.17-38.06-5.96-38-13.63-.7-3.91 3.64-3.43 5.64-4.43 11.9-5.77 24.08-11.02 36.08-16.53 1.65-.7 1.74-2.02.74-3.7-1.83-3.1-4.32-2.51-6.76-1.39-12.42 5.72-24.79 11.57-37.21 17.29a2.69 2.69 0 0 1-2.44-.43c-10.85-12.24 13.31-27.78 6.09-40-1.49.14-3.72.64-4.22 1.64-3.11 3.9-11.94 31-15 28.75-1.43-.49-3.65-1.58-3.78-2.58-1.95-15.04-3.64-30.11-5.31-45.18-.32-3.32-.93-6.38-5-6.32-4.41-.37-3.62 3.83-2.86 6.63 1.66 14.97 3.75 29.9 5.66 44.84.2 1.36.36 2.9-1.8 2.68-2.16-.22-3.07 4-6.16.94-8.62-8.51-18.04-16.22-26.27-25.07-2.83-3.03 1.43-7.08 3.55-9.88 15.63-19.04 23.34-43.35 37.73-62.93 15.48 0 23.71 31.45 26.96 44.49 1.71 7.96 5.77 10.73 13.3 7.56 17.58-7.41 34.56-3.52 50.7 3.84 8.45 3.85.37 10.58-1 14.78-3.43 10.46.31 21.88 10.94 26.37 4 1.7 11.55 4.15 11.37 5.15-1.62 8.39-7.2 14.74-13.06 20.84s-15.54 7.38-19 16.54c-1.91 5.05 2.71 6.44 3.88 9.58 3.326 4.189 5.107 33.196-.209 40.006h10.1c1.39-6.368 2.24-15.999 2.34-30.367 2.5 4.79 8.158 6.091 10.398 11.522 2.39 5.81 10.37 11.97 9.23 16.16a54.55 54.55 0 0 0-.802 2.685h24.318a85.729 85.729 0 0 0-3.394-2.406c-14.5-9.74-24.152-20.46-26.282-30.27 6.658 6.606 40.31 20.285 62.043 32.676h13.77c-16.44-13.24-37.842-19.045-55.102-30.707-11.63-8.14-25.19-11.33-37.19-19.33 11.5-6.47 21.33-15.3 27.16-28 3.97-8.67 9.12-15.129-6.66-19.129-34.22-9.74-.8-30.76-9.22-38.43-16.9-13-36.49-15.75-57.49-14 26.57-26.92 59.78-47.23 94.14-62.37 13.53-.61 16.46 16.94 35.53 9.06 17.11-6.46 23.73-25.26 13.11-39.26-13.86-20.21-47.02-9.56-46.86 14.85-.17 2.97 2.28 8.25-1.63 8.69-32.82 8.97-62.69 27.25-87.69 50.69-.3-7.34 5.35-11.43 7.8-17 4.63-10.56 8.07-24.23 16.51-29.91 29.29-18 60.14-51.07 45-88-15.72-21.85-60.51 41-57.72 58.15-.22 9.41 3.27 20.6.45 27.88-8.39 21.69-20.52 41.91-31.52 63.18-3.88-12.66-10.54-36.26-23.54-41.41-1.73-.7-6.06-1.76-4.29-5.17 27.21-49.93 49.05-102.52 69.35-155.61 2.38-6.25.77-22.99 16.94-14.43 4.75 2.52 3.93 8.57 4.54 13.57 2.93 34.45 52.54 9.16 61.67-10.11 1.69-2.6 2.57-2.11 3.69-.88 12.02 13.33 27.52 12.27 42.64 9.06 4.39-.93 17.2-.59 9.81-12.78-5.13-8.45-3.28-16.97 1.59-24.23 4.87-7.26 12.43-4.86 19.74-2.86 2.38.66 6.75 6.77 8.48.27a49.6 49.6 0 0 0-3.72-35.84c-2.54-5.14-10.83-10.91-7.14-15.05 7.027-6.605 14.274-19.125 17.018-30.89v-16.687c-2.21-6.393-7.78-10.76-18.308-10.864-12.25.15-21.34-10.55-17.1-20.85 2.43-6-1-8.9-5-9.57-40.59-8.89-43.44 16.521-46.34-2.369h-.04c-2.02-2.33 1.89-3.21 3.29-3.5 18.96-4.37 33.69-14.88 45.11-30.37.9-1.19.86-2.02 3-.56 9.89 7.31 22.49 15.56 35.388 18.213v-10.305c-12.679-2.595-23.55-11.43-34.347-18.117-6.22-3.65-8.222 5.24-11.432 8.82-9 10-20.18 16.26-32 22-14.79 7.18-17.12-5.88-24.51-13.17-13.66-13.52-.308-25.76-.478-38.46-.05-4.45 2.298-8.91 2.808-13.45 1.62-7.09 24.621-36.9 32.801-24.9 1.09 8.07-22.36 39.4-13.28 43.69 5.98 2.06 6.83-4.44 8.36-7.75 4.61-9.99 8.23-20.46 12.61-30.58.44-1.02 3.52-1.45 5.24-1.2 6.94.59 6.36 21.08 8.14 27.08 1.06 9.81 8.33 4.97 7.75-2.19-1.21-8.09-3.5-16-5.12-24-.16-.78 2-2.86 2.13-2.78 3.5 2.17 3.6-6.92 8.38-2.12 8.76 8.81 18.15 17.01 27.51 25.21 2.003 2.25 3.987 2.967 5.438 2.704v-7.406a13.094 13.094 0 0 0-1.097-.998c-8.91-8.58-17.45-17.58-27.82-24.58a3.55 3.55 0 0 1-.67-2.48c3.68-1.84 1.33-8.64 7.15-8.64 7.497.018 14.972.108 22.437-.037v-7.896c-8.02.04-15.992-2.924-24.087-.576-.72.2-2.62-2.832-3.49-4.602-.24-.51 1.029-2.15 1.939-2.76 8.53-5.65 17.143-11.172 25.638-16.865v-8.351c-5.645 3.54-10.82 8.125-16.869 10.607-5.28 2.17-9.229 10.08-15.869 6.24-11.93-6.62-.74-13.54 1.26-21 .82-4.18 5.2-9.43.82-11.89-7.95-5.36-11.23 23.42-17.36 26.42-.92-3.22-5.3 1.72-5.83-2.48-.85-6.69-1.72-13.37-2.53-19.63 2.44-9.57-2.41-17.54-3.73-26.09-.17-1.09-1.92-2-2.92-3-7.53 7.1.68 39.54 2.29 50.1a2.49 2.49 0 0 1-.36 1.62c-2.94.13-4.38 4.25-8.64 1.83-17.9-10.16-14.07-24.83-10.55-40.74a121.28 121.28 0 0 0 2.11-34.71c-1.02-13.8 14.15-14.25 17.36-24 19.41 10.37 22.8 34.07 32.33 52.16 2.31 5.17 2.67 5.66 10.55 1.66 5.917-3.015 11.882-4.838 17.938-5.597v-8.887c-2.59.393-5.185 1.083-7.779 2.224-.3.14-1.919-1.59-1.799-1.8 3.4-5.792 6.223-11.979 9.578-17.735V521.73a69.79 69.79 0 0 0-2.177 15.421c-.31 6.46 2.269 13.25-2.621 19.77-3.69 2.27-16.22 34.47-18.93 26.47-3.49-13.58-10.15-25.78-18.39-36.78-4.79-6.37-11.82-12.41-19.13-15.06-6.23-1.78-6.46 12.11-13.65 14.45 3.68-41.93 9.58-85 11.25-127.67-.72-8.56 18.5-5.31 24.73-7.31 32.26-4.16-12.23-43.3 31.54-42.83 2.275-.213 4.826.693 7.378 1.585v-9.384a25.126 25.126 0 0 1-3.578-.76c-8.46-2.39-19.67-4.51-27.46 5.34-7.79 9.85-6.22 20.74-4.35 31.74.33 1.93-8.26 4.92-13.42 6.34-17.8 4.9-12.82-7.472-12.27-15.942 1-15.22 2.52-30.398 3.82-45.548 5.01.3 6.6 11.34 11.89 5.57 6.86-11.08-17.75-4.73-12.58-36-.09-5.23.37-8.87-6.54-8.3a80.39 80.39 0 0 1-16.12-.12c-2.31-.27-6.9 3.16-6.9-1.72-.01-3.91.81-8.5 7.81-8.19 4.18-.41 42.19 1.69 37.58-5.16-2.78-4.28-8.82-5.62-12.88-4.33-9.42 3-18.77.84-28.1 1.52-4.77.36-3.5-4.761-4.27-6.911-1.42-3.97 3.97-4.73 6.24-6.44 12.79-9.66 26.05-18.69 39.23-27.81 5.4-3.15-1-9.42-5-5.67-14.83 9.88-29.6 19.82-44.58 29.47-3.9 2.52-6.41-2.19-9.62-3.31-1.61-.55-.38-3.18.39-5.18 4.5-11.76 8.66-23.65 12.72-35.57.116-.34.238-.747.315-1.176h-8.213c-.023.055-.05.1-.073.157a3238.76 3238.76 0 0 1-13.789 34.898c.32 6.39-4.64 2.971-5.75-.889-2.313-11.334-4.17-22.77-6.203-34.166h-8.73c2.155 11.96 5.215 24.844 4.094 29.026-14.568-6.765-25.918-18.75-38.274-29.026h-9.527c3.592 6.164 13.78 12.81 18.73 18.696-14.03.03-27.33-.57-39.51 5.72a5.81 5.81 0 0 1-2-2.57c1.206-8.104-.902-15.14-4.082-21.846h-9.906c11.518 23.003.17 40.537 23.627 30.305 19.54-2.75 38.78-5.93 55.89 9.49 9.04 8.13-1.379 10.402-3.189 13.192-6.91 10.63-4.81 19.92 1.19 29.34 1.19 1.88 1.88 2.219-.72 2.369-23.47.07-48.79 5.07-71.28 2.6 11.32-3.71 21.95-6.91 32.32-10.86 2.23-.85 3.45-4.37 5.14-6.67-3.32-.34-7.03-1.83-9.89-.83-14.81 5.09-29.38 10.8-44 16.36-.73.27-1 1.89-2 .13-1.98-3.37-4.04-7.28-1.34-10.37 6.18-7.06 9.04-16.44 16.59-22.58 1.89-1.53 2.43-5.92-.34-8-3-2.3-3.47 1.75-5 3-7.89 6.52-12.18 15.71-17.63 24-1.3 1.94-2.85 3.28-4 1.38-2.47-4.11-9.58 1.49-10.58-6.34-2.29-10.4-4.51-39.39-11-45.63-.96 1.65-2.92 3.46-2.73 5 2.23 15.42 4.09 30.94 7 46.24-3.93-.47-5.95 4.83-10.62 3.06-8.78-3.33-16.1-10.42-26.1-10.42-2.09 0-5.63-2.23-6.17 1.57-.66 8.97 27.82 11.87 29.68 19.24-3.5 1.08.62 7.51-5.69 7.25-70.16-.06-45.55-9.16-52.37 61.94-3.13 6.44-46.31-16.14-32.16-21.14 11.55-4.49 14.41-13.75 12.41-25-1.56-8.74-9.46-12.49-15.3-17.66-2.71-2.34-.9-6.12 3-10.34 12.17-13.16 28.26-17.33 44.73-18.94 6.73-.65 3.5-4.19 3.39-5.59-1.597-20.71 3.94-39.169 14.572-56.096h-9.276c-8.044 13.1-19.957 22.847-32.076 32.336-.54.43-2.54-.61-3.62-1.32-6.045-4.347 6.329-23.485 8.214-31.016h-8.648c-3.441 7.624-6.483 18.351-7.295 21.036-1.35 4.46-12.84 7.59-13.73 3.82-.66-2.95-1.24-5.92-2-8.85-1.057-2.183-2.35-8.917-3.98-16.006h-8.247c2.085 9.216 4.032 18.47 7.775 27.256.29.66-2.148 2.39-3.148 3.72-2.07 2.7-4.602-.06-5.352-.59-4.23-2.51-38.59-27.61-35.11-12.83.33 3.61 3.71 4.08 6.16 5.17 9.69 4.29 17.58 12.13 28.28 14.49.1.02.131 3.07-.629 3.69-2 1.67-.52 5.81-5 5.92-5.79 2.38-64.1-5.69-54.19 5.38 2.45 2.22 5.41 2.4 8.76 2.4 15.85-.14 31.72.08 47.57.47 1.03.03 3.15 3.3 2.81 3.84-3.25 7.74-45.14 26.74-39.89 34.83 1.85 1.83 4.01 1.51 6.16.05 12.88-8.76 25.81-17.45 38.69-26.22 3.29-2.23 4.48 1.19 6 2.42 3.19 2.58-.54 4.74-1.54 6.58-6.66 12.07-13.69 23.93-20.6 35.85-1.27 2.15-.41 3.57 1.73 4.15 8.06 2.31 4.15-12.97 16.85-18.69 6.94-3.38 10.91 5.71 14.7 10.88 4.48 6.1.85 12.06-3.61 16-19.18 18.47-37.18-14.29-75.23-.26-2.78.9-7.35 2.49-8.35 1.35-1.83-2.08-.86-5.7 1.26-8.45 13.5-17.48-2.71-21.2-13.08-26.2-7.58-3.6-11.98-10.24-18.58-14.52-1.66-1.09-1.36-1.7 1.41-4.09 15.04-12.94 13.19-29.47-3.71-40.32-4.66-2.99-7.53-8.77-11.23-13.27 13.92-14.95 34.23-19.47 54.13-18.2 1.57.164 2.417-.182 2.862-.806h-45.576c-12.311 7.124-17.708 15.61-25.227 5.805a156.013 156.013 0 0 0-4.855-5.805h-14.682zm499.502 0c4.203 6.436 11.694 11.63 19.074 10.996v-9.58c-1.824-.3-3.556-.721-5.068-1.416h-14.006zm-560.672 16.873c8.23-.001 16.682.777 25.338 1.873.03.41.08.81.08 1.22-17.58 4.25-35.09 8.44-52.58 12.85-1.83.44-3.23 2.19-4.83 3.34 1.9 1.21 3.94 3.62 5.68 3.43 12.87-1.47 25-6.71 38.16-7.27 6.8.45 14-4.09 20.61-2.78-14.14 20.63-41.54 19.75-63.91 18.81-7.1-.41-12.81-5.59-20.1-3.93-1.23.27-4.4-2.65-4.23-3.07 1.23-2.95 2.46-6.55 4.88-8.25 15.764-12.444 32.796-16.219 50.902-16.223zm264.662 10.432c.136-.01.261-.008.377.008.858.12 1.166.992.63 2.924v.039c-6.03 7.2 6.18 24.09-12.42 24.22-6.56.05-3.91-6.8-6.35-11.26.378-2.738 13.562-15.601 17.763-15.93zm-37.974 6.88c18.789.199 18.607 30.998-.79 29.51-7.31-.14-15.04-3.489-14.12-12.689.13-9.35 2.41-15.89 12-16.66v.04a19.065 19.065 0 0 1 2.91-.2zm353.058 11.05c-5.132 6.84-11.702 12.626-19.267 17.56-3.72 2.43-4.461 6.382-.541 8.852 8.792 5.547 15.3 12.205 19.808 19.838V300.56c-.047-.05-.091-.101-.138-.15-8.285-8.742-10.674-11.455.138-19.212v-13.73zm-111.449 5.65c11.61.41 15.89 7.892 18.32 22.342h-.029c-1.42 15.61-36.38 13.71-35.29-5.39-.68-10.51 5.39-17.362 17-16.952zm-135.982 29.086c7.31-.11 12.824 3.466 17.334 10.705-7.93 0-15.68.17-23.4-.12-2.04-.08-6.41 1.68-5.85-1.53.56-2.93 1.358-7.27 6.558-8.42v.03c1.888-.419 3.67-.64 5.358-.665zm-231.719 6.774c6.39.04 13.635 10.683 25.322 47.22 4.14 12.71 10.33.711 14.76-.289 19.75-4.52 38.66-4.38 57.06 5 9.62 3.17-21.29 15.34-9.68 41.26 6.27 16.07 28.65 15.55 22.39 23.18-12.86 24.85-42.21 24.65-31.46 41.59 5.12 4.56 16.1 44.95 2.9 40.51-19.89-7.05-46.2 15.08-38.2 37.57 3.17 17.88-11.35 7.04-15.74 7.8-12.85 2.25-22.83-7.18-31.92-15.11-6.74-5.88-12.02-4.2-15.4 1.56-12.24 20.86-32.56 26.32-54 30.17-2.58.45-4.41-3.23-2.51-7.55 7.02-16-11.39-36.61-29.39-31.21-24.63 7.25-15.23-26.97-9.37-39.87 7.55-16.03-31.04-2.82-53.16-56.25-.75-1.79.44-2.33 1.87-2.73 12.17-3.44 21.75-11.11 28.64-21.06 10.54-14.99-27.23-36.69 3.28-39.6 11.51-2.24 23.87-7.57 34.51-5.29 21.24 4.56 13.53-12.54 17-20.06 5.7-12.28 11.26-24.38 21-33.86.66-.64 6.95 3.61 9.9 6.36 30.923 29.158 40-9.417 52.198-9.341zm412.303 6.011c2.494.156 2.754 1.838 2.5 4.21-6.59 61.02-11.461 122.24-17.701 183.3-6.3 54.51-10.45 109.44-20.14 163.51-17.55 80.92-39 160.74-62 240.31v-.03c-32.4 100.23-74.44 197.54-130.09 287.22-16.44 26.76-37.44 50.65-53.44 77.76-7.26 12.17-19.02 6.47-27.69 4.86-66.17-7.52-132.44-16.41-199-19.24-18.36 2.5-12.63-4.98-6-14.25 62.62-100.2 124.93-201.97 167.51-312.55 39.26-109.88 61.59-225.66 81.15-340.53 12.55-86.72 17.99-174.84 19.63-262.4-.14-4.53 3.17-4.87 8.81-4.92 77.94 1.62 157.25-3.47 235.25-7.22a7.822 7.822 0 0 1 1.21-.03zm-441.559 38.106c-1.046.038-2.442.613-4.271 1.904-2.96 2.48-.94 5.72-.65 8.72 1.12 11.69 2.788 23.39 2.788 35.08 0 2.68-5.769 5.49-9.119 7.9-.49.36-2.67-.79-3.49-1.79-5.97-5.15-23.47-33.89-30.84-28.68-3.48 2-2.13 4.8 0 7 7.09 8.86 24.58 21.17 27.27 31.17-1.33 4.48-4.82 7.81-10.95 6.72-9.3-1.63-18.76-2.43-31.44-4-4.66.4-6.67 5.03 0 7.76 10.16 1.74 20.39 3.05 30.63 4.18 3.16.3 6.25.41 6.36 4.3.12 4.41 1.37 9.3-4.58 11.73a116.76 116.76 0 0 0-29.61 17c-4.56 2.99.72 9.32 4.85 5.8 9.2-5.72 18.54-11.23 28.1-16.31 2.24-1.19 5.48-4.5 8.35-.43 2.08 2.95 3.27 5.79.92 9.57-2.57 6.32-20.77 28.95-14.48 33.32 2.52 2.46 3.9-.34 4.64-1.54a670.963 670.963 0 0 0 16-27c.83-1.52 3.33-3.23 1-5.52 3.95.03 9.51-2.96 10.77 3.23 3.01 12.22 2.04 25.66 6.29 37.5 2.36 4.04 6.56 6.74 6.56-.6 0-9.74-1.83-19.61-4-29.17-1.75-7.89-1.53-14.05 7.25-16.68 3.88-1.2 5.46 2.95 7.27 5 4.23 4.5 25.2 30.93 30.41 27.11a4.75 4.75 0 0 0 0-7.08 5273.236 5273.236 0 0 1-29.06-30.88c-.81-.87-1.9-2.71-1.56-3.19 1.56-2.22 3.89-6.06 5.39-5.83 12.72 2.01 25.32 4.87 38 7.26 4.62.88 11.09 2.96 13-2.29 4.28-8.86-49.79-7.62-51.06-14.63-.59-1.92.05-6.06.94-6.3 6.8-2.51 46.34-11.39 44.71-18.51-.62-2.89-3.43-3.31-5.38-2.69-12.79 4.05-25.44 8.55-38.28 12.47-1.28.39-3.1 3.99-3.94 1.12-1.07-3.65-6.47-6.18-3.47-10.78 6.11-9.28 12.67-18.26 18.55-27.68.8-1.33 5.08-3.42 1-6.42-3.56-2.58-5.95-.73-7.72 1.86-5.1 7.52-9.68 15.43-15 22.82-1.53 2.12-1.6 6.86-5.6 5.86-3.53-.89-9.12-.23-9.87-4.89-1.92-11.83-2.8-23.82-4.26-35.72.626-3.954.392-7.477-1.99-7.759a2.785 2.785 0 0 0-.428-.015zm320.285 43.773a22.1 22.1 0 0 0-1.218.012c-17.628.638-38.104 21.537-61.62 2.84-4.91-3.8-8.799-.27-8.619 4.26.34 8.35 6.26 14 13.57 16.92 17.26 7.86 31.17-1.61 47.81-3.43-4.52 10.85-12.51 20.049-19.4 29.459-3.92 4.82-5.84 14.06-13.19 12.82a167.6 167.6 0 0 0-32.68-2.75c-7.43 1-40.32-1.07-27.67 18.16 10.83 12.62 19.94 26.42 25 42.42.88 2.77 1.46 5.14 4.46 5.34 3.97.27 8.57 2.85 11.68-1.82 5.43-8.24 9.78-17.52 16.43-24.63 11.17-21.63 9.92-19.89 34.45-10.42 2.67 1.1 9.23-.13 5.9 5.62a239.3 239.3 0 0 1-63.9 71.43c-5.52 3.92-2.97 9.19 3.6 7.75 33.34-10.19 52.8-43.13 71.34-70.31 3.21-5 5.97-5.34 10.29-1.72 8.95 7.48 17.95 14.91 27.2 22l.02.05c5.13 4.64 13.96 4.13 12.83-4.74-4.43-21.03-6.05-42.4-8.15-63.73-.45-4.59-.74-10.29-5.74-12.9-4.11-2.16-7.63 1-10.86 3-12.42 4.9-21.35 35.59-28.42 31.78-3.31-3.29-30.55-8.35-25.93-12.94 14.72-14.55 21.21-34.34 32.62-51 2.11-3.07 3.16-8.08-1.52-11.35-2.686-1.445-5.448-2.067-8.283-2.12zm-314.693 12.375c7.952-.218 15.402 5.07 16.627 17.276 1.03 11.48-11.6 25.59-21.65 24.13-9.2-1.33-17.39-5.55-16-16.25-.26-15.49 10.798-24.875 21.023-25.156zM642.721 459.2c.74 4.69 1.859 9.32 2.119 14v.08c.37 6.43.1 12.9.11 19.24-5.1-3.19-11.43-5.388-15-9.808-4.17-5.16 3.72-8.13 5.37-12.56 1.5-4.01 4.86-7.332 7.4-10.952zm-104.116 13.762c4.32.004 8.526.43 12.606.86v.08c15.55-.46-4.8 17.48-6.8 23.26-2.52 3.85-5.101 4.94-6.311-.43-1.71-9.29-11.19-13.1-12.78-22.1 4.535-1.255 8.967-1.674 13.285-1.67zM712.143 639.8c2.414.028 9.81 6.357 10.306 11.701v-.03c.35 3.7-.33 11.14-7.61 9.52-3.74-.1-9.018-.42-7.288-3.42 3.51-6.04-2.34-14.43 4.18-17.69a.896.896 0 0 1 .412-.081zm33.293 7.717a5.7 5.7 0 0 1 .683.054c10.69 1.58 16.811 8.98 16.531 19.43-2.5 25.48-34.49 17-35.29-1-1.522-6.268 10.83-18.644 18.076-18.484zm-230.014 1.394c-3.147-.156-5.154 1.058-6.072 4.33-2.22 8.23 14.66 5.69 17.19 14.23.36.79-2.01 3.85-3.64 4.48-7.35 2.8-13.16 7.6-19.16 12.51-12 9.87-19.7 28.71-7 43.12 1.08 1.23 1.87 2.1.52 4.52A187.11 187.11 0 0 0 481 770.72c-6.19 32.44-40.79 107.28-28.69 132.87 20.5 42.32 99.25 30.37 123.56-2.56 2.36-3.33 7.34-6.33 4.58-11.33-1.38-2.5-4.02.11-5.49 1.24a120.88 120.88 0 0 1-37.89 19.31c-15.6 4.9-31.45 8.35-47.51 2.57-29.87-6.97-27.45-26.89-19.25-50.77 4.38-15.86 10.23-31.32 14.69-47.16 2.56-5.95 19.6-80.07 26.24-68.72 7.84 6.84 14.47 15.08 22.14 22.08 18.58 18.16 20.73-14.69 23.58-26.69.78-2.06.87-3.48 2.78-1.24 4.24 3.48 17.89 25.76 22.43 22.1 10.31-7.39-6.42-31.91-15.42-35.71-11.12-6.28-11.77-15.5-8.49-25.84 2.16-6.77 4.94-12.66 14.74-12.36 23.29-.51 15.42-25.51 4-36.51-2.93-3.17-12.79-3.75-9.86 3.45.52 4.34 11.6 19.2 3.6 19.48-16.71 2.34-26.98 13.98-27.77 31.34.08 15.34-11.96.99-27.8 9.5-1.64.59-2.64 4.65-4.73 1.76-11.81-10.32 2.87-21.6 12-26.55 9.77-6.69 23.03-11.83 18.46-27.34-3.28-11.12-13.9-13.02-24.06-14.58a13.927 13.927 0 0 0-1.418-.15zm-200.242 8.76c13.49 21.16-8.8 55.07-27.71 64.91 3.18-12.1 21.24-30.8 18.81-42.17-14.27 6.82-14.94 25.78-26.32 35.36l.04-.05c.46-24.29 13.88-46.1 35.18-58.05zm-108.985 5.283c8.11-.166 16.32 5.017 16.475 16.047 1.03 19.31-34.24 20.08-32.35 0-.245-10.365 7.765-15.88 15.875-16.047zm504.74 5.652c2.093.075 4.415.735 6.325.795v-.03c1.47.05 2.85 3.27 4.59 5.48-3.67 5.35-8.77 7.64-13.67 10.11-2.14 1.08-5.54 4.72-5.54 3.72.19-5.85 1.04-12.03 3.35-17.36.99-2.28 2.853-2.79 4.946-2.715zm-182.851 60.436c.532-.003 1.104.01 1.717.04l-.031-.02c14.23 0 18.73 7.63 12.71 20.6-1.71 3.67-3.23 2.29-5.17.15-4.31-5.755-25.72-20.688-9.226-20.77zm-315.066 36.55c2.656.078 6.622 1.45 12.693 4.608 12.56 2.85 21.258 12.611 30.158 21.051 13.59 12.11 8.4-16.78 54-22.29 5.64-1.2 6.8 2.04 7 6.6.86 19.88 18.5 31.23 37.05 23 6.27-2.78 4.741.77 4.901 3.66.73 12.64-.26 24.73-7.71 35.85-11.27 17.95 19.61 7.46 35.16 39.73 3.58 6.03-2.49 10.68-4 15.87a139 139 0 0 1-11.93 29.22c-3.38 6.01-9.27-2.65-14.21-.29-.37.23-1.26-.91-1.74-.77-22.64 6.36-16.66-14.12-21-23.53-6.04-12.05-13.26-24.81-25.17-30.76-2.59.31-4.38 4.96-4.59 6.31-2.28 14.28-13.51 11.06-23.61 14.42 5.59-6.71 4.99-14.65 7.69-20.65 3.08-6.81 13.44-5.42 20.8-6.88 6.83-2 20.27-3.39 22.9-10.57-10.23-5.65-47.55 14.45-49.33 2.76 6.82-13.22 21.25-22.1 27-36.3.62-2.61-2.04-4.51-4.23-2.38-9.31 9.08-18.24 18.48-26 29-1.88 2.56-4.8 4.87-9.24 3.87-4.88-1.13-2.34-4.58-2.56-6.7-1-9.51-1.47-19.07-2-28.62-1.3-8.82-7.36-2.03-7.91 2.18-1.02 8.61 4.7 32.48-3.5 36.81-7.21 4.13-8.86-3.02-12.58-6.44-7.45-6.87-16.37-12.16-22.45-20.63-.64-.89-5.13-.45-5.13-.15-.47 2.57-1.75 5.34.83 7.74 8.51 7.89 16.87 15.95 25.43 23.79 2.02 1.85 4.09 3.12 2.72 6.45-1.3 3.18-3.29 2.76-6.11 2.47-4.4.48-43.84-6.44-40.4-.52.51 2.91 2.32 5.1 5.46 5.48 11.68 1.41 23.38 2.67 35.07 4.1 3.16.31 5.06 3.11 1.06 4-13 5.86-26 11.95-39 17.86-2.14.97-2.8 2.58-1.69 4.22 2.82 4.17 6.89 2.39 10.15 1 11.27-4.8 22.36-10.02 35.2-15.85-34.33 36.64-8.02 57.96-35.33 48.11-8.87-2.7-18.3-3.25-27.52 1.2-1.63-7.92 2.7-17.97-4.13-26.36-6.73-8.95-16.42-10.67-26.93-10.78a69.56 69.56 0 0 1 24.24-38.09c9.49-8.67-21.88-10.12-9-57.79 1.37-7.36 9.01-1.28 13.18-1.14 41.093-4.57 23.507-34.242 36.308-33.868zm470.703 3.659a105 105 0 0 1 15.629 28.76c2.408 7.824 5.997 10.406 10.123 10.41 19.578-5.06 17.588-12.42 42.437-6.76 4.45.6-.91 6.62.2 11.07 7.33 30.99 35.75 13.74 35 23.74 2.06 45.83-31.57 33.2-9.19 60.07 3.74 8.4 6.25 16.59 5.19 25.81-.23 2.32-1.19 3.26-3 2.38-21.68-11.15-38.28 14.95-28.68 33.85 3.86 7.66-3.47 4.65-5.47 6-1.86 1.27-5.18.27-9 .27-10.39 1.88-19.07-3.37-27.07-10.93-2.42-2.28-5.71-7.25-8.71.43-6.31 15.93-28.44 28.93-45.44 27.23-2.26-.23-2.65-1.83-2.65-3.93 1.35-39.13-27.89-21.19-17.89-37 3.08-10.84 5.54-22.01 10-32.29 4.19-9.63 15.89-10.99 23.5-17.12 2.09-1.68 5.62-5.78 8.8-.58 2.09 3.4-1.6 4.98-2.6 7.33-.72 4.66-16.59 29.4-10.21 29.83 2.49.58 4.86.47 6.54-2.61 3.88-7.09 8.89-13.51 10.39-21.85.5-2.77 3.11-7.32 4.81-7.32 15.21-1.19 5.35 40.56 19.08 36.81 3.27-1.32 1.09-4.12.61-6.6-1.9-9.82-3.48-19.71-4.82-29.62-.13-1.01 2.16-3.37 3.37-3.37 14.3.89 19.95 24.43 35.3 21.54-5.49-9.56-15.45-15.89-22.32-24.5-1.21-1.35-4.9-1.6-3.29-5.8 1.61-4.2 2.6-7.53 7-7.53 6.6.95 13.48 2.03 20.25 1.95 10.52 3.26 8.57-6.69.2-7.74-6.64-1.28-13.49-2.38-20.18-1.95-4.11 0-4.91-2.72-6.18-5.12-3.2-3.89 18.99-16.06 22.34-19.89 10.01-4.32 2.91-10.86-4.51-6.46-7.39 4.84-14.47 10.13-21.47 15.57-1.73 1.36-2.03.79-3.65.06-2.23-.99-1.84-1.47-1.23-3.32.62-5.47 12.59-30.21 5.37-30.75-6.9-2.48-8.94 19.89-12.4 24.77-.71 1.81-.01 5.95-4.47 4.87-5.97-1.28-7.77-26.88-10.77-33.52-.95-7.81-9.4-4.31-7.56 2.44.94 10.59 6.57 22.64 6.38 32.77-1.15 2.55-6.74 3.16-9.25.07-3.26-4.02-10.8-5.65-9.13-12.65 6.52-22.71 9.46-47.22 18.62-68.82zm-20.862 82.95c3.35.07 9.84 7.17 9.4 7.92l-.029-.03c-3.59 6.15-9.83.84-15.82 3.05 3.91-3.8 1.95-11.03 6.45-10.94zm-395.351 3.984c3.183-.01 6.27 1.105 8.172 5.076v.05a23.51 23.51 0 0 1-1.19 23.44c-1.39 2.25-3.53-1.42-4.59-3-4.86-7.28-9.56-14.32-18.69-4.72-.72.76-2.25.75-3.4 1.1-2.85-9.94 4.37-18.75 12.61-20.7 2.078-.552 4.612-1.239 7.088-1.246zm425.556.13c18.803-.026 22.324 32.29.936 32.186-19.74.13-21.25-29.5-3.82-31.94.997-.165 1.96-.244 2.884-.246zm-29.72 14.352c6.228.307 5.31 5.315 7.775 8.934-6.5 3.78-13.438 12.57-21.058 13-3.19-1.92.49-4.41 1.24-5.56 3.52-5.37-1.771-15.78 10.699-16.37.482-.023.929-.024 1.344-.004zm-351.547 13.93c3.205.09 4.554 4.68 6.713 7.574 13.41 15.88 3.97 44.66 30.92 37.66 7.09-.75 12.45 2.09 18.45 3.79-5 22.02-23.85 29.08-41 39.53-5.15 3.72-10.77 6.84-16 10.49-3.78 3.04-10.83-.33-5.78-4.18 6.87-12.01 13.96-23.9 20.87-35.9 4.95-7.79-3.44-13.23-6.67-3.79-7.25 11.56-14.04 23.39-21.18 35-.57.92-2.09 3.59-3.78 1.59-1.19-1.38-3.63-.68-3.74-4.62-.46-17.12-2.23-34.21-3.82-51.28-.19-4.57-8.81-4.8-7.88.71.73 16.43 1.36 32.86 2.26 49.28.15 2.73.61 4.89-2.36 6.45-2.97 1.56-4.88 5.81-9.41 1.14-7.79-8.06-16.46-15.28-24.85-22.76-3.16-2.79-7.41-5.5-10.74-1.79s1.9 4.89 3.9 6.78c8.25 7.68 16.51 15.39 24.86 23 4.76 3.87 2.73 11.67-3.78 9.53-16.89-1.23-33.77-2.68-50.66-3.86-2.53-.18-6.7-1.39-6.9 2.61-.17 3.46 3.85 5 6.74 5.29 16.62 1.64 33.32 2.9 50 4.26 5.85-1.12 6.84 5.82 1.52 7.48-12.62 5.42-25.28 10.81-38 16.06-2.14.9-5.14 1.32-4.14 4.24 1.12 3.25 4.77 2.68 7 1.87 16.19-5.63 29.5-11.84 46.25-17-11.17 15.6-20.78 29.04-30.43 42.45-2.03 2.87-2.23 6 .36 8 3.09 2.36 4.14-1.55 5.55-3.14 9.54-10.69 18.61-21.69 26-34 1.35-2.28 3.3-5.2 7-4 3.9 1.26 1.84 4.61 1.72 6.72-.74 13.05-3.21 26.11.12 39.11.41 1.6-.73 4.18 2.27 4 2.38-.15 3.77-1.68 3.89-4.28 1.33-5.6-.26-47.29 4.74-45.16 3.65.4 7.13-4.13 10.82.06 4.87 5.52 12.15 9.94 14.51 16.28 1.53 4.1-3.44 11.01-6.26 16.27-7.27 13.32-14.64 26.66-22.43 39.66-.64-.88-1.32-1.74-1.93-2.64v.05c-3.26-4.8-5.88-4.68-9.66-.02-10.63 13.76-25.26 21.14-42.35 21.29-7.72.07-2.72-9.1-5.16-13.86-8.1-15.83-24.51-20.54-37.89-9.25-3.45 2.86-3.45-.56-4.45-2-25.51-39.94 24.99-50.97-9.72-62.18-7.64-6.37-15.83-12.15-19.83-21.49-1.6-3.71 3.93-4.78 5.93-6 16.73-10.15 18.73-21.01 5.73-35.42-5.66-6.29-.95-15.74 7.68-19.42 15.17-6.47 29.68-3.13 44.68-.24 6.61 1.26 6.48-6.71 7.1-10.47 2.25-19.48 10.25-40.73 29.66-48.91.95-.31 2.92 1 3.85 2 13.15 14.71 29.17 16.52 42.76 1.89 3.08-3.313 5.268-4.501 6.947-4.454zm42.043 81.834c-3.95 9.17-7.98 16.93-10.71 25.17-4.84 14.16-18.04 4.18-27.95 5.27-1.38-.11-3.81 1.27-3.92-1.39a5.36 5.36 0 0 1 2.21-3.94c13.05-8.26 26.22-16.34 40.37-25.11zm-67.57 17.334a16.84 16.84 0 0 1 1.73.066c20.23 1.29 20.3 34.04-4.12 31.13-16.352-2.392-14.986-30.942 2.39-31.196zm29.953 21.267c5.05.042 11.457 2.34 16.238 2.04 6.35-.15-9.61 22.338-11.22 25.368-1.59-9.2-18.18-10.86-12-24 1.41-2.647 3.951-3.433 6.982-3.408zm138.369 13.385c-24.455.127-50.084 11.147-65.842 29.385-15.42 13.71-43.5 66.66-18.69 78.91 5.43 2.76 8.9-2.5 12.27-5.89 13.02-21.29 34.89-32.811 56.41-43.471 41.38-19.33 6.41-40.27 21.07-44.13 19.65-1.45 37.21 14.26 41.54 33 7.13 30.84-17.02 52.98-37.58 64.63-6.21 5.26-47.04 20.11-43.35 26.11.42 1.55 2.92 3.99 3.82 3.73 49.57-8.91 111.65-53.85 87-110.75-11.741-22.151-33.676-31.643-56.648-31.524zm204.806 13.371c3.077-.226 5.447 3.373 5.163 13.733.74 17.99-19.822 50.38-35.202 56.89-.06-1.14-.578-2.64-.058-3.37 7.36-10.32 12.589-21.74 17.879-33.17 1.12-2.43 3.42-4.39.5-6.8-3.19-2.62-5.11.19-6.37 2.27-6.25 10.33-12.24 20.82-18.31 31.26.05 4.4-3.07.82-3.65-.6 3.45-3.33.84-7.68 2.07-11.35 6.76-19.92 16.92-37.2 35.76-48.13.76-.424 1.509-.68 2.218-.733zm-216.267 2.633c.59 5.19-.282 10.09 1.238 15.63 2.38 8.68-7.369 9.76-12.369 12.52a216.26 216.26 0 0 0-56.75 41.85c2.01-34.56 33.67-65.57 67.88-70zm270.523 53.828c8.084-.191 16.39 4.291 16.715 14.121.51 23.51-32.829 23.43-32.119-.2h.03c-.57-8.864 7.29-13.73 15.374-13.921zM499.28 1221.15c.716-.01 1.461.655 2.4 1.6 7.25 7.27 14.732 14.3 22.132 21.41.98.94 2.64 1.31 1.34 3.47s-2.581.96-4.151.67c-12.26-2.3-24.51-4.46-36.49-6.62 1.42-7.98 9.08-12.27 13.08-19.1.595-1.006 1.133-1.422 1.69-1.43zm43.846 25.676c.586.006 1.191.044 1.814.113 19.11.46 18.692 30.701-.308 28.061-20.121.969-19.682-28.367-1.506-28.174zM264.75 1270.73c6.92 5.6 16.66-1.02 24.15 4.8l-.03.03c-5.19 6.27-1.14 17.84-10.35 20.98-6.68 3.98-25.16-26.57-13.77-25.81zm37.36 3.936c3.915.108 8.356 2.284 12.2 2.484 7.44.38 14.84 1.62 22.91 2.56-12.93 8.2-27.05 13.44-38.8 22.79-2.54 2.02-5.12-.72-7.26-2.59l-.03.03c-1.65-1.43-1.86-2.15-.68-4.59 1.89-3.97 1.9-8.78 3.2-13.08 1.724-5.68 4.498-7.442 7.684-7.596a9.99 9.99 0 0 1 .775-.008zm316.792 55.732c-1.903-.048-3.863.223-5.795.758h10.213a15.022 15.022 0 0 0-4.418-.758zm141.514.456a23.298 23.298 0 0 0-3.25.302h7.563a24.379 24.379 0 0 0-4.313-.303z"/></svg>