<svg xmlns="http://www.w3.org/2000/svg" viewBox="0 0 976 1600"><defs><clipPath id="a"><path d="M960 22v1556a6 6 0 0 1-6 6H22a6 6 0 0 1-6-6V22a6 6 0 0 1 6-6h932a6 6 0 0 1 6 6z" style="fill:none"/></clipPath></defs><g data-name="Paper Backing"><path d="M960 22v1556a6 6 0 0 1-6 6H22a6 6 0 0 1-6-6V22a6 6 0 0 1 6-6h932a6 6 0 0 1 6 6z" style="fill:#f4f3ef"/><circle style="fill:#f6cac9;stroke-width:7.55906;stroke-linejoin:round;paint-order:markers fill stroke;fill-opacity:1" cx="411.794" cy="507.498" r="349.789"/></g><g clip-path="url(#a)" style="clip-path:url(#a)" data-name="Wikipedia Cropped"><path d="M83.08 1604c-8-4-82.21 6.61-87.08-4 9.18-4.24-17.87-619.55 9.7-607.66 18.06 9 35-20 55.77-18.55 11.36.81 10.27-3.68 16.2-9.6 54.68-23.27 107.2-42.51 163.09-56.08 136.45-27.22 281.3-24.67 417.38 16.75 20.1 6.33 48.58 19.93 65.63 34.76 5.14 4.63 8.37-3.08 12.4-4.24 38.46 10.34 74.72 34 109.05 54.32 47.2 30 98.11 56.88 134.78 99-2.17 97.15 1.56 398.73 0 491.25.86 11.74-892.91.05-896.92 4.05z" style="fill:#4a5340;fill-opacity:1"/><path d="M976-4C972.06.23-5-12-4 0 8.8-4.22-30 1046.18 12 994.06 160.61 906 337 870.79 508.23 890.85 680 904.7 846.74 986.54 976 1098.48 982.94 1096 984.65-1.93 976-4zM666.34 721.53c-61 72.21-139.87 108.31-225.12 116.43-94.22 3.51-172-20.72-239.07-76.13-55.46-45.84-94-103.41-110.88-173.74-28.76-119.84-.5-226.27 83.51-315.52 55.44-58.91 126-92.62 207.12-99.76C488 163.46 579.82 197.84 654 273.47c54.3 55.4 85.9 123.69 92 201.72 7.25 92.67-19.42 175.01-79.66 246.34z" style="fill:#653737;fill-opacity:1"/><path style="fill:#988f54;fill-opacity:1" d="M433.129 881.383c-13.711.017-27.497 1.86-41.129 1.117-35.57-2.07-70.22 4.11-105.37 8.12C215 902.38 145 924.76 79.13 955.16c-14.6 7.23-73.2 28.66-73.13 43.15 2.93 7.65 12.51-.65 17-2.72 30.25-24.86 68.21-19.75 104.11-15 65.51 10.35 131.44 32.28 183.91 73.71 8.23 6.58 19.19 9.19 25.4 17.38-7.79 3.07-15.31 7.41-23.37 9-38.79 8.88-73.54 28.83-109.87 43.92-37.15 13.79-69.72 35.61-103.52 55.78-33.56 22.63-66.95 45.88-93.33 76.8-2 2.22-5.14 5.09-5.14 8.45-.18 4.27 4.47 5.23 8.39 1.63 78-80.41 182-128.67 285.34-168.19 15.69-5.33 31.22-10.89 47.44-14.9 17.94-4.44 34.5-14.33 54.1-7.21 16.1 5.85 32.64 10.49 48.94 15.78 15.53 5 29.08 14.09 43.5 21.39 13.23 6.69 26.94 12.4 39.16 21 9 5 24.25 20.13 33.22 20.31-.22-1.35-.12-3.71-.72-3.9-6.23-2-8.15-8.64-13.13-12-12-8-24-16-35.58-24.51-33.84-24-67.12-31.4-108.08-45.83 82.74-15.36 157.45 34.51 219.79 82.67 4 3.47 10.76-.25 4.56-3.45-40.49-45.16-86.32-65-140.85-86.88 76-7.32 153.37 11.57 228.74 23 2.85.46 7.87 0 8.59-1.5 1.46-3.16-3.33-2.4-5-4-97.66-31.67-204-38.6-305.68-24.08-2.88.44-6.79 2.5-8.42 1.32-9.87-7.16-19.28-15-28.72-22.69-63.86-49.7-139.87-81.62-218.9-97.54 13.72-4.2 26.84-8.8 40.27-12.16 12.84-3.21 25.06-11.18 39.14-6.78 61.16 20.6 115.8 55.66 170.16 89.65 14.78 9.59 29.07 19.94 43.71 29.77 2.14 1.45 4.54.21 6.13-1.78 2-2.47-.31-3.77-1.8-4.77-19.7-13.24-36.5-30.17-58.62-40.59-50-29.63-97.42-63.46-155.26-77.4 22.69-4.23 40.4-11.55 62.76-8C378 928.2 437.76 977.2 500 1021.53c1.19.85 2.87 2.7 3.94 0 .56-1.42 1.65-3.06-.58-4.74-51.93-40.79-105.78-79.92-166.67-106.12-7.83-4.13-17.61-3.8-24.92-11.18 115.36-9.2 234.13-6.71 345.05 29.15 39.72 10.29 67.32 39.73 101.75 59.76a574.706 574.706 0 0 1 83.94 92.77c11.77 16.86 22.54 34.07 30.67 52.95.54 1.26 2.36 2 3.58 3 3.42-19.41-25.13-58.08-36.46-75-28.42-40.68-63.55-73.52-103.94-102.68 37.81 11.25 72.81 33.32 106.78 53.74 35.92 21.95 72.1 43.79 105 70.2a149.057 149.057 0 0 1 4.686 3.91v-14.694c-20.58-17.609-43.747-32.46-66.316-47.356-51.77-33.12-104-63.93-162-85-90.19-39.66-187.73-54.92-285.51-58.74-1.955-.085-3.912-.12-5.871-.117zm-278.338 60.59a56.17 56.17 0 0 1 15.379 2.316c81.56 20.93 159.18 59.001 223.29 113.772-13.62 3.42-28.23 8.43-43.23 10.4-9.37 1.23-15-9-22.22-14.07-72.49-52-159.62-87.272-249.53-86.282 26.35-7.585 49.419-26.419 76.311-26.136zm639.064 231.59c-60.568-.373-121.276 6.976-179.666 20.976-37.23 7.75-71.068 24.53-105.298 40.38-20.86 9.46-39.83 22.24-56.92 37-14.14 12.21-26.922 24.251-47.432 21.151a40.23 40.23 0 0 0-14.6.1c-21.53 4.92-43.839 3.64-65.369 9.25-75.84 14.19-150.75 37.44-219.44 73-34.34 21.25-72 38.47-100.75 67.47-2.12 2.24-5.63 5.17-3.12 8.06 3.22 3.6 5.74-1.05 8.1-2.81 79.17-61.73 172.64-101.35 269.75-125.23 105.73-27.33 133.56-15.42 228.09 35 89.91 46.34 163.06 116.66 228.41 192.75 1.32 1.45 2.66 3.71 4.8 1.71 2.32-2.12-.5-3.52-1.5-4.88-80.32-114.23-198.86-198.9-330.43-244.45 60.59-.15 81.85-5.35 135.15 29.36 93.46 55.89 178.71 127.81 244.37 215 5.01 8.49 12.61 4.15 5.8-3.51-72.27-102.43-172.6-182.38-284-239.32 65.84 8.94 91.09 4.22 145.93 46.87A957.899 957.899 0 0 1 838 1528.19c5.77 7.39 8.85 17.67 21.49 22.53-59.53-94.53-137.73-166.99-232.37-225.07 11.14-1.9 18.32 3.5 26.32 5.5 24.11 6.01 49.04 8.39 70.7 23.39 74.24 48.56 137.13 111.96 187.13 185.13 3.51 5.08 6.41 15.02 11.86 13.34 4.61-1.43-2.36-8.01-4.6-12.14-44.31-78.62-111.72-140.27-186.24-190.18 25.08 4.15 46.14 17.41 69.42 26.41 37.95 15.03 75.53 30.95 111.22 50.82 13.556 7.55 26.742 15.779 39.896 24.057v-6.561c-15.411-10.196-30.795-20.512-46.486-30.205-91.46-56.45-195.63-86.42-300.32-106.72-30.7-7.01-62.22-12.491-93.49-15.071-14.99-.22-29.88-2.49-45.06-1.15-8 .71-17.12 2.34-25.62-1.74 54.13-47.99 175.48-101.46 247.62-95.53 85.32 23.72 162.95 76 219.37 143.92 4 4.34 8.32 8.45 11.79 13.18 1.29 1.74 1.55 4.78 4.21 3.33 2.42-1.32 3.24-3.95.63-6.63-57.56-73.44-132.92-133.23-224-158.71 13.55-3.93 26.91-1.14 39.55-3.42 26.21-4.73 49.96-.48 72.61 13.33a576.222 576.222 0 0 1 85.81 64.57c17.59 14.25 27.93 36.77 46.85 48.77 2.98-4.79-16.01-26.53-19.8-32.17-33.77-41.04-74.38-71.54-122.32-96.09 51.086.134 99.642 3.914 148.656 14.59v-6.176c-51.742-13.203-105.301-19.601-158.97-19.931zM422.38 1386.428c-2.858.055-6.122 1.916-8.988 1.992-48.13 10.31-94.702 27.61-139.442 48-77.76 35.49-151.799 86.17-198.379 159.23-1.38 2.36-5.47 6.64-.75 8.82 7.42 3.46 19.22-23.32 26.22-28.32 16.24-17.61 32.87-34.92 50-51.7 5.6-5.51 12.61-11 19.92-13 70.94-16.37 145.13-11.33 216.22 1.78 2.99.66 6.8 4.71 8.11-.73 1.31-5.44-4.68-5.72-8.08-7.44-65.5-15.96-130.91-19.5-198.72-7.91 14.39-9.21 25.73-19.41 41.39-22.21 21.26-3.8 42.35-8.09 63.94-10.5 42.93-2.77 86.07-1.81 127.93 8.53 1.47.36 4.08 1.19 4.47-1.56h-.01c-2.59-13.71-61.87-16.03-75.43-18.21-30.52-4.81-60.91.43-91.62 2.36 30.79-13.21 60.92-27.69 92.5-39.11 23.71-9.02 47.4-18.13 71.71-25.5 1.08-.33 1.73-2.06 2.58-3.14-1.057-1.059-2.272-1.407-3.571-1.382z"/></g><g data-name="Red Japanese Frames"><path d="M0 20v1560a20 20 0 0 0 20 20h936a20 20 0 0 0 20-20V20a20 20 0 0 0-20-20H20A20 20 0 0 0 0 20zm924 1528H52V52h872z" style="fill:#030101;fill-opacity:1"/><path d="m952.1 15.41-23.41 23.42a4 4 0 0 1-2.83 1.17H50.14a4 4 0 0 1-2.83-1.17L23.9 15.41A2 2 0 0 1 25.31 12h925.38a2 2 0 0 1 1.41 3.41zM40 1549.86V50.14a4 4 0 0 0-1.17-2.83L15.41 23.9A2 2 0 0 0 12 25.31v1549.38a2 2 0 0 0 3.41 1.41l23.42-23.41a4 4 0 0 0 1.17-2.83zM936 50.14v1499.72a4 4 0 0 0 1.17 2.83l23.42 23.41a2 2 0 0 0 3.41-1.41V25.31a2 2 0 0 0-3.41-1.41l-23.42 23.41a4 4 0 0 0-1.17 2.83zM925.86 1560H50.14a4 4 0 0 0-2.83 1.17l-20 20a4 4 0 0 0 2.83 6.83h920.55a2 2 0 0 0 1.41-3.41l-23.41-23.42a4 4 0 0 0-2.83-1.17z" style="fill:#000;fill-opacity:1"/></g></svg>