<svg xmlns="http://www.w3.org/2000/svg" viewBox="0 0 976 1600"><defs><clipPath id="a"><path d="M960 22v1556a6 6 0 0 1-6 6H22a6 6 0 0 1-6-6V22a6 6 0 0 1 6-6h932a6 6 0 0 1 6 6z" style="fill:none"/></clipPath></defs><path d="M960 22v1556a6 6 0 0 1-6 6H22a6 6 0 0 1-6-6V22a6 6 0 0 1 6-6h932a6 6 0 0 1 6 6z" style="fill:#b0dedc;fill-opacity:1" data-name="Paper Backing"/><rect style="fill:#e3f2f7;fill-opacity:1;stroke:#fef8c8;stroke-width:0;stroke-linejoin:round;paint-order:markers fill stroke" width="440.348" height="96.824" x="461.24" y="136.51" rx="75" ry="75"/><rect style="fill:#e3f2f7;fill-opacity:1;stroke:#fef8c8;stroke-width:0;stroke-linejoin:round;paint-order:markers fill stroke" width="313.364" height="71.427" x="20.65" y="515.11" rx="75" ry="75"/><rect style="fill:#e3f2f7;fill-opacity:1;stroke:#fef8c8;stroke-width:0;stroke-linejoin:round;paint-order:markers fill stroke" width="440.348" height="96.824" x="193.292" y="949.23" rx="75" ry="75"/><g clip-path="url(#a)" style="clip-path:url(#a)" data-name="Wikipedia Cropped"><path d="M434.47 1288.88c-65.17-10.39-131.57-15-197-21.8-31.77.49-44.58 2.15-20.15-30.85 60.57-96.47 120.21-195.52 161.2-301.72C423.65 798.07 455.3 653 469.59 510.36c3.29-58.52 11.3-117.11 9.26-175.64.85-19.33 17.88-7.23 28.91-10.49 274 11.47 229.55-79.86 212.94 145.82C701 724.1 616 1108.86 437.47 1291.88z" style="fill:#3c3873;fill-opacity:1"/><path d="M277.27 1505.46c-8.3-2.54-2.08-17-1.43-23.51 5.72-29.48 24.42-52.92 37.32-79-7.41-15.81-58.8-8.33-57.2-19.73 27.73-45.9 75.68-90 129.78-96.32 16.78-3.54 49.71 15.79 62.62 1 17.2-22.61 31.31-53.17 52.57-69.66 15.65 8.74 45.5 7 52.71-11.56 8.42-16.9 11 30.19 35 27.13 11.74 3.68-6 35.78 7.52 42 2.41 32.69 23.4 41.06 48.28 43.92 6.78 71.68-47.63 131.7-100.2 174.6-19 28.72-28-14-32.13-29.54-1.4-5.09-7.59-5.36-10.92-2.09-23.74 14-48.62 11.26-73.71 12.37-46 1.93-105.8 10.09-150.21 30.39zM844.64 1495c-36.58 4.09-60.44-21.94-79.46-43.19-60.1 32.6-70.94 11.23-80.66-49.64.55-31.1-11.74-89.79 26.74-97.11 16.3-9.34 24-26.48 33.57-42.16 9.54-12.19 24.15-16.91 27.56-33.18 2.18-5.65 8-10.33 3.25-16.45-8.1-22.56 46.36 21.67 56-18.24 6.4-36 121.17 34.39 119.25 58.88-5 12.1-18.76 20-28.22 28.47-12.33 6.06 21.32 35.85 12 66.73-2.65 43.64-20 93.09-15 140.67-4.65 2.83-10.65 1.84-16.23.65-19.6-4.43-37.92 6.89-58.8 4.57zM232.87 895.08c-41.21.86-84-8.35-124.5-2.41-13.32-3.43 3.23-17.14 5.71-23.76 45.37-62.89 34.26-32.3-20.77-63.27-29.45-19.85-69.07-36.48-83.06-67.79 13.48-6.15 31.34-6.16 45.93-14.38 37.58-13.69 70.7-38.4 111.16-44 16.17-8.84-15.89-38.28-23.1-48.87-6.55-7.84-3.1-10.81 4.55-12.61 68.94-34.23 155.89-20.13 219.38 21.14 86.28 54.16 67.34 70.83 46.11 153.4-3.91 91.47-109.82 103.91-181.41 102.55zM718 885.9c-12.11-12.92-11.77-26-33.74-26.58C644 859.48 664 828 669.28 804c.92-4.7 7.9-4.15 9.29-8.55-4.26-14.61 4.64-27.5 11.37-39.69-17.9-73.38 48.45-99.56 110.91-104.52 27.9-4.53 56.32-5.89 83.87-12.21 6.39-.21 20.09-14.58 22.33-3.4-11.82 127.4-99.48 124.48-37.79 160.58 60.32 29.12-67.77 86.52-93.77 87.33-5.41 2.25-11.61-3.75-13.44-7.18-13.15-16.45-34.05 2.16-44.05 9.54zM444.45 638.8c-12.15-15.21-2.71-46.27-14.12-63.5-4.1-1.85-9.24 1-11-5-39.77-120.48-190.17-43.86-132-97 13.58-15 43.7-26.53 65.63-28.93 16.23-3.42 30 15.45 43.93 14.57 1.94-30.22-24.57-64.18-36-93.52-1.3-8.77-10.91-5.13-17.11-6.68-9.51-.23-46.74-13.73-33.71-27.32 20.18-.08 40.81.7 54.44-13.67 22.47-10.81.45-28.34 25.89-31.53 12-16.94 22.1 5.93 16.67 19.19-1.2 5.44-9.15 9.17-5.05 15 4.8 8.81-14.6 16.92-4.71 24.36 25.65 55.67 73.81 138.63 64.26 205.07-3.24 24.59-7.35 50-11.15 73.94-1.19.12.3 16.04-5.97 15.02zm271.17-60.34c-8.12-5.31 1.32-38.23 5.25-48 .71-8.85-4.2-18.6 0-28.25-.35-21.45 16.81-29.29 27.22-43.29 37.26-59.34 104-51.55 146-8.34-10.67 10-33.06 7-47.09 12.32-55.37 18.78-93.35 76.77-131.38 115.56zM152.68 394.62c-15.88-3.77-16.08-2.64-9.5-18.83 9.4-39.77 42.07-77.14 85.85-76.65 11.11-.43 8.42 16.95 17.59 18.43 7.8 1.26 25.93 6 27 14.57-21.05 14.95-56.51 10.38-79.17 26.89-16.45 7.72-26.28 27.2-41.77 35.59zm274.5-137.08c-13.72-2.77-2.49-20.91-5.42-28.75-1.38-5.92-3.87-27.81 7.56-22.76 39.21 4.56 112.06.1 130.29 39.85 9.57 2.92 2.27 10.85-5 8.91-42.47-10.69-84.44-2.24-127.43 2.75zM200 242.33c-13.58-5-24.44-21.76-39.32-25.56-21.7-9.94-53.52 10-72-2.3 14-23.88 46.46-41.91 77.14-44.83 19 3.24 49.19 5.26 41 30.79-3.82 9.87 11.18 35.73-6.82 41.9zm211.63-54.42c-9.32.11-10.7-10.08-17.91-11.9-42-14.67 26.75-36 40.42-46.38 28.5-12.79 56.1 11.19 81.22 21.56 5.16 4.14-2.56 10.5 1.52 16.3-43.73 11.73-51.42-20.22-105.27 20.42z" style="fill:#5f7e5e;fill-opacity:1"/><path d="M633.56 1316.37c-54.08-6.51-24.68-65.79-39.62-83.41-24.41 3.54-27-36-39.77-24.51-6.47 16.27-66.56 22.9-48-4.44 26.42-45.13 53.06-87 73.37-135.3 20.1-42.11 36.74-85.92 51.5-128.64 3.18-19.68 13.27-41.58 18.51-60.32-.87-11.63 5.37-31.48 20.37-21.57 14.41 5.43 30.87.54 39.61 19.06 2.25 3.94 2.46 10.69 8.31 10.6C728 882.67 734 869 746.41 871c16.06-.74 22.21 19.35 39.26 19.85 13.31 2.64 21.67 12.82 22.92 27.93 4 12.71 19.59 26.5 18.48 39.95-10.22 32.35 12.27 11.39 26.1 25.65 11.45 16.94-1.68 38.38 19.74 57.63 6.85 12.16 5.34 25.21-4.07 34.91-12.73 14.88-5.47 43.09-27.58 50.06a6 6 0 0 0-1.61 10.13c10.19 8.52 9.6 26.46-1.47 34.47-5 8.4-3 19.45-9.35 27.73-19.44 33.18-57.82-12-59.38 10.09 11.87 37.35-24.31 39.31-33.51 66.26-21.91 48.37-64.9 26.59-102.38 40.67zM311.94 329.91c-30.29.11-70.69-5.57-79-36.6-29.54-.17-44.32-37.38-23.67-59.58 6.32-8 .72-20.47-.47-30.38-7.88-18.87 42.64-62.18 57.86-59.92 26.62-7.76 36.2 37 47.73 24.23 10.37-17.29 22.16-21 39.37-21.61 22.91 5.43 24.21 29.56 45.62 37.91 27.88 20.25 16.2 31.55 18.69 55.27 6.05 22.87-13.93 42.46-33.07 47.93-3.66-.65-7.8 1-8.27 5.13-3.73 29.59-37.89 39.12-64.79 37.62z" style="fill:#9d3250;fill-opacity:1"/><path style="fill:#293928;fill-opacity:1" d="M944.295 7.307c-.334 0-.68.028-1.035.084C921.59 6.8 922.3 32.9 937.08 32.6c17.39.503 17.567-25.307 7.215-25.293zM541.359 9.699c-13.46.59-10.17 26.401 4.15 24.701 8.88-.12 11.001-8.79 11.311-15.88.47-10.87-10.15-7.6-15.46-8.82zm311.362 3.781c-7.18.22-16.762 2-15.522 12.81.8 6.71.99 16.57 12.24 12.19 17.57 2.07 17.232-23.43 3.282-25zm-642.133 4.14a11.653 11.653 0 0 0-1.707.11c-6.93.93-17.53 1.6-17.92 13.18-.29 9.66 7.18 10.7 13.36 10.74h.048c5.61 0 14.641.59 13.281-9-.74-5.212.83-14.925-7.062-15.03zm196.299 1.036a8.433 8.433 0 0 0-.987.043c-8.48.87-14.13 5.691-13.14 13.291.38 7.7-.3 13.01 8.4 13.3 13.24.48 11.89-10 13.57-17.3 1.135-4.95-2.953-9.267-7.843-9.334zM56.63 22.176c-9.89.083-12.02 23.147.59 22.594 6.32 0 13.618-1.46 13.718-10.29.08-6.16-1.848-11.58-12.228-12a7.179 7.179 0 0 0-2.08-.304zm703.613 1.222c-.29-.003-.59.02-.894.073-9.48.94-17.65.1-17.92 8.26-.21 6.19 4.14 13.74 10.75 14.75v-.01c18.842 3.206 17.075-22.953 8.064-23.073zM497.62 38.75c-11.8.77-13.289 28.61-.129 28 20.09 1.9 21.69-28.09.13-28zm198.022 11.871c-1.238-.065-2.62.11-4.15.578-18.34-4.54-14.43 23.04.91 21.73 13.593 1.46 15.204-21.678 3.24-22.308zM156.39 54.752c-5.928-.076-12.2 2.932-14.309 9.068 2.92 6.18 1.29 15.99 9.58 16.65 7.9.64 16.48-4.31 17-13.65.723-7.937-5.553-11.982-12.271-12.068zm734.45.959c-6.85 0-12.87 5.478-12 14.818-1.75 8.14 2.22 13.381 10.51 13.201l-.01-.02c17.54 2 18.56-28.11 1.5-28zm-627.577 5.494a5.643 5.643 0 0 0-1.022.055c-7 2.31-18.65-1.06-18.68 13.77 2.66 3.9-.01 13.36 8.44 13.62 15.335 3.023 21.296-27.028 11.262-27.445zm551.638.277c-6.797-.046-12.707 4.293-12.06 13.668.5 7.28-1.28 15.63 10.07 13.91h.01C830.7 92 832 61.89 816.27 61.55c-.46-.041-.916-.064-1.37-.068zM87.693 64.555C76.71 65.36 75.607 93.089 88.77 90.81c7.11-1 14.22-3.911 14.31-13.391.06-7.66-2.75-12.62-13.06-12.65a7.398 7.398 0 0 0-2.327-.215zm-67.058 6.492v7.752c.9-2.395.89-5.173 0-7.752zm374.916 1.982c-6.334.054-8.75 4.661-8.75 11.711-.9 8.26 5.249 11.45 12.129 12.05 13.15.36 10.48-24.36-2.06-23.71a14.614 14.614 0 0 0-1.32-.05zm219.922 2.86c-1.278-.076-2.758.126-4.453.662-19.02-3.91-20.63 25.2-3.32 25.28 13.52 1.322 20.119-25.213 7.773-25.942zm-277.336 1.386a6.474 6.474 0 0 0-.926.094c-6.1 1.06-15.892-.669-15.352 10.881.39 7.25 4.231 11.04 11.141 10.69 7.32-.37 10.48-5.08 10-12.94.469-3.75-.46-8.844-4.863-8.725zM764.77 84.97c-5.564-.166-10.732 2.915-9.87 10.031-1 11.24 7.62 12.51 14.93 12.62 4.92.08 6.86-5.85 7.17-10.72.887-7.384-5.925-11.743-12.23-11.931zM195.2 107c-7.95.63-15.45 2.23-13.7 15.67 1.36 2.58 1.05 10.1 8.5 10.17 20.59 2.16 19.25-26.14 5.2-25.84zm745.818 3.834c-16.981.156-15.217 28.653 2.472 26.076 5.77-.59 11.52-2.88 10.42-7-1.62-10.86-.3-19.06-11.19-19a16.381 16.381 0 0 0-1.702-.076zm-805.082 1.719c-15.082-.658-18.766 24.755-4.166 25.646v.022c11.89.51 13.55-8.572 14-17.602.25-5.27-3.62-7.84-8.34-7.92a14.076 14.076 0 0 0-1.494-.146zm562.355 3.174c-6.989-.134-14.46 3.673-13.291 12.773.41 9.15 7.32 10.1 14.25 10.57 8.55.57 9.62-5.31 10.15-14.72.849-5.32-4.942-8.506-11.109-8.623zm-666.055.906c-13.038.669-15.69 21.544-.756 22.556h.07c5.95-1.43 15.19.002 15.09-9.298-.06-5.59-3.35-12.122-11.66-13.112a13.529 13.529 0 0 0-2.744-.146zm421.827 3.478c-18.604.173-35.55 13.266-51.823 21.758-10.58 4.37-19.11 23.36-35.45 3.64C355.56 132 320.12 144 309.91 163.66c-2.28-2.8-5.25-5.3-6.74-8.48-5.47-11.68-31.39-22.61-43.26-18.11-20.24 5.15-40.97 39.53-55.62 39.76-49.41-32.35-101.27 9.6-139.78 39.92-5.58 3.51-10.77 16.37-.27 11.93 4.54-2.41 9.1-1.32 13.64-1.63 11.608-.8 23.227-1.576 34.86-2.33 22.14-1.43 45.51-10.16 64.65 8.45 5.87 5.7 19.31 6.16 17.1 17.28-4.49 21.19 9.6 33.2 23.22 45.53-18.44 5.47-37.8 8.59-51.31 24.21-19.82 28.57-32.31 61.75-41.39 95-.61 2.4-3.23 6.31.48 7.4 4.01 1.18 8.74 2.76 12.74-1.73 24.94-26.3 46.69-59.9 84.46-67.79 15.95-4.31 32.45-7.14 47.77-13.07 15.51-5.99 25.97-5.53 36.37 6.47 9.34 10.75 21.4 16.09 35.34 17.55 4.21.44 10.91-.9 12.21 1.21 15.91 28.43 29.65 59.1 38.29 90.51-24.91-23.59-52.56-19.46-80.67-4.94a214 214 0 0 0-61.89 34.55c-16.13 13.28 11.53 14.98 20.95 15.52 37.75-1.4 96.24 1.79 122.06 33.23 28.41 43.63 54.29 98.99 40.41 151.73-59.14-66.92-150.67-107.87-240.39-90.09-12.86 4.21-68.93 13.71-55.44 33.26 11.73 14.2 21.3 29.85 31.44 46.41-53.32.107-96.59 43.572-148.505 52.653v10.519c14.235-1.93 27.305-7.526 40.595-12.852 38.09-13.81 73.07-41.53 114.72-42.53 6.26.06 6.5-3.12 4.26-6.94-9.92-16.93-18.93-34.47-33.13-48.57-6-5.95 2.83-5.51 4.22-6.22 27.2-13.99 56.97-19.14 86.79-18.65 71.8 1.25 150.88 38.23 191.27 98.75 3.08 5.24-1.03 15.08-2.64 22.63-3.18 14.77-6.9 29.42-10.49 44.1-12.78-7.42-30.78 1.29-40.78-11.3-6-7.54-13.46-14.91-17.23-23.26-2.94-6.51-2.3-15.43-4.63-23.36-4.81-16.37-12.86-30.96-21.56-45.28-5.4-8.84-11.39-17.44-21-22.44-3.68-2.48-5.88 1.63-3.21 4.34 21.18 21.38 30.78 48.91 42.13 76.21-12.6-10.79-23.89-20.91-35.67-30.44-25.08-20.08-55.91-31.11-83.78-46.8-2.7-1.26-7.95-5.82-10.44-.92-3 5.9 3.77 6.28 7 7.23 11.09 3.28 18.45 12.83 29.09 16.63 18.68 6.66 33.77 19.45 50.39 30.55-25.26-6-52.31-6.78-76-18-.5-.3-3.53 2.18-3.36 2.7 10.25 16.12 70.89 22.39 90.81 25.39 8.66 1.05 14.12 10.59 20.86 16.47 8.58 7.46 12.96 18.7 22.87 25.15 2.6 1.69 3.55 5.91 5.6 9.59-21.89-1.87-43.05-4.71-64.27-5.19-18.59-.42-26.36-17.57-41.51-23.57-17.98-6.29-71.27-34-86.48-22.03 35.82 12.99 74.82 22.08 105.82 45.83-27.66-.68-54.92.9-82.44 1-38.86-2.07-76.84-3.28-115.37-4.91 6.26 10.81 25.19 9.52 36.19 11 38.12 1.23 70.72 4.57 109.72 1.57-27.69 12.48-47.37 23.88-73.46 28.94-1.92.61-5.26 1.25-4.26 3.61 6.6 11.39 55.82-10.22 63.6-16.85 44.83-27.81 98.18-11.06 147.18-10.7-19.64 20.72-45.04 32.85-68.47 48-15.59 10.09-28.12-1.79-42.17-1.44-19.41 1.37-38.9-.1-57.54 7-1.78.49-4.59 2.13-4.59 3.24.06 2.59 2.81 3.04 5 2.79 27.37-3.27 51.08-8.7 79.08-1.33-34.8 11.96-64.91 24.12-99.8 31.2-1.19.3-3.95-.76-3.1 1.55.64 1.72 3.56 4.03 5.08 3.78 51.95-8.47 101.94-27.17 147.67-53.17-7.9 22.25-25.53 40.3-46.53 50-5.12 2.1-3.23 7.99 2.25 6.49 27.76-9.23 46.49-33.83 55.49-60.83 2.93-8.75 16.92-13.19 22.72-21.75 13.14-19.4 31.3-11.94 48.3-11.58 19.31.42 5.43 12.53 4.94 18-1.02 11.48-5.68 22.57-7.91 34-10.12 36.66-50.24 48.35-82.71 57.76-69.56 18.41-141.32-1.68-211.2 5.41-1.8.25-1.23-1.82-.8-2.7 11.67-16.71 20.67-35.27 36.19-49.37 3.17-2.85 9.64-7.67 6.87-13.85-2.77-6.18-9.91-3.36-15.05-4.36-41.48-10.51-76.36-37.65-109.29-63.87-2.13-1.795-4.017-3.881-5.835-6.055v12.996c6.676 7.006 13.95 13.48 22.586 18.998 13.07 8.33 25.62 18.15 38.93 26.33 80.99 44.1 58.25-7.91 13.76 81.58-5.65 8.58-4.552 15.3 7.448 12.58 17.92-4.37 35.92-1.33 53.92-.85 78.49 3.75 164.09 9.611 233.09-34.759-37.88 138.46-118.369 262.06-191.119 384.9-8.82 11.65-4.51 22.93 11.09 23.12 12.77-1.32 25.21 2.62 38.21 2.74 21.24.21 42.56 3.83 63.63 7.33 14.09 2.34 28.59-.18 42.74 4.72-16.14 6.42-29.33 18.36-44.33 27-13.43 5.74-80.5 67.74-53.84 77.74 12.61 2.9 25.68 3.79 38.33 6.55 19.35 1.68 9.44 11.38 1.54 21.22a150.67 150.67 0 0 0-19.46 37.88c-3.62 8.16-22.36 71.2 2.33 53.31 43.83-21.18 95.53-25.46 143.46-30.18 28.1-2.36 57 1.81 82-15.8 1.6-1.15 1.84-.31 2 1.17 1.47 13.66 8.05 25.56 14.76 36.94 1.85 3.13 3.36 17.1 12.59 8.26 43.16-36.95 87.46-76.43 108.29-130.6a119.48 119.48 0 0 0 8.48-61.81c-.18-1.51-.03-2.48 1.89-2.7 8.44-.96 16.88-2.86 25.26-2.58 2.15.07 10.41-3.86 8 1.65-6.46 14.82-8.22 30.23-9 45.69-1.81 31.18 1.23 89.47 28.8 108.54 14.68 7.05 30.11-1.9 45-6.16 6.21-1.77 13.58-14.11 19.21-2.11 17.49 37.21 60.82 42.75 97.32 38.07 14.97-1.62 29.6-9.26 45.15-3.18 21.17 8.74 8.63-20.2 10.63-30.78 4.67-40.32 12.53-80.26 17.51-120.41 2.31-19.44-3.59-37.05-15-52.89-.83-1.15-1.31-3.9-.64-4.53 5.46-5.23 10.57-11.36 17.07-14.85 9.83-5.27 16.67-20.72 10.56-29.14-25.71-37.3-68.46-56.57-111.13-66.67 12.23-26.75 12.19-36.57-.49-43.67 13.55-4.74 23.23-18.1 23.84-32.59.19-20.47 24.98-32.24 15.64-54.47-6.17-15.97-18.91-28.46-16.76-49.1 2-19.28-15.91-28.83-36.15-23.73 7.94-10.72 4.07-20.81.63-31.9-3.44-11.09-14.59-17.14-16.57-29-1.98-11.86-6.82-22.29-22.82-25.45 34.11-5.82 60-25.94 86-47.16 34.45-23.16-.28-54.52-25.68-64.41 43.12-49.76 56.04-82.98 65.53-147.47.68-3.68-.43-12.13-4.63-8.85-17.15 13.35-37.29 16.55-57.29 18.75-46.47 6.35-97.33 6.01-137.7 32.72-2.94 1.84-6.16 7.76-9.8 3.84-2.05-2.21-.76-8.04-.14-12.12 3.38-22.29 8.63-44.31 9.7-66.94.18-17 34.32-46.45 45.93-61.09 23.85-23.17 46.24-48.98 76.24-64.17 20.1-7.36 42.39-5.87 61.68-15.87 2.76-1.44 7.49-.02 8.21-4.36.81-4.87-2.23-7.78-6.5-9.69-30.64-17.23-60.91-35.01-97.71-29.78-35.17 4.98-51.55 41.29-75.33 64.09 5.9-53.31 8.65-106.62 9.5-160.23.09-3.2.15-6.64-4.38-6-9.27 1.29-18.59-1.25-27.93 1.41-73.88 4.84-148.24 7.21-222.34 11.21-1.59.11-10.73-6.43-9.73 4.37a187.9 187.9 0 0 1 .23 26.82c-1.1 21.8-2.88 43.69-5.4 65.48-1.88 16.25-.57 33.06-2.63 49.49-1.04 8.29 1.18 17-3.53 26.94-7.56-49.96-30.41-93.11-51.41-138.24-3.32-6.36-13.73-11.54-7.19-21.36 24.11-32.9-5.42-63.31 22.3-73.14 26.97-4.57 54.38-6.78 81.72-8.78 26.8-1.96 51.93 10.09 78.54 10.69 7.69 1.29 14.19-5.71 6.49-11.11-7-5.24-13.65-11.08-21-15.8-42.29-27.54-95.57-34.94-145.36-34.23-6.58.35-4.11-7.81-8-10.47-.38-.28-.11-2.6.49-3 19.07-12.51 37.87-22.62 62.92-16.95 15.39 2.92 57.65 10.65 69.91 1.2-3.26-15.88-64.2-43.68-80.63-50.18-5.491-2.362-10.829-3.327-16.038-3.279zm-2.934 9.88c21.804-.18 42.533 16.77 62.39 24.75-21.45-3.03-41.01-13.462-62.34-9.462-14.67 2.73-27.639 11.1-40.939 18.15-7.42 3.95-16.06 15.952-25.87 1.952l.05.039c-1.72-2.42-1.04-3.11.54-4.07 16.9-9.5 33.58-19.5 50.9-28.18a39.42 39.42 0 0 1 15.269-3.18zm419.642 1.759c-6.576.207-12.455 4.073-11.56 12.05.69 7.77 1.5 16.82 7.75 17.29 16.42.17 20.87-6.17 20-16.61-.388-8.5-8.736-12.964-16.19-12.73zm-603.494 15.262a34.1 34.1 0 0 1 1.573.049c16.48 0 28.28 11.128 34.28 29.308 3.93 11.95.55 12.331-10.71 12.541-15.43.3-25.7 11.72-28.63 26.3-5.19 25.9-16.67 48.51-31.19 70.07-16.16 14.21-42.53-26.67-20.19-49.08 7.56-9.76 1.78-22.35.34-33.35-2.55-19.51 11.24-26.79 23.59-35.79 10.627-9.212 15.06-20.19 30.937-20.048zM87.2 148.15c-.76-.004-1.508.03-2.228.09-11.65 1.36-10.67 24.21.94 22.7h.019c8-.3 9.8-7.51 10.87-13.18 1.453-7.683-4.285-9.578-9.6-9.61zm263.063 1.686a21.36 21.36 0 0 1 2.998.144c18.65 2.63 14.37 21.21 43.78 37.21 9.65 6.88 18 15.13 18 30.41-3.85 9.93-.21 21.81-.21 33.7-.48 15.52-15.54 23.25-26.66 31.19-3.13 1.23-7.55 1.31-7.19-3.2-4.57-31-37.01-40.66-50.21-65.8l.05.04c-5.93-10.77-17.74-18.1-17.29-32.64.19-6.89 11.75-24.28 18.47-26 6.125-1.574 11.484-4.903 18.262-5.054zm116.172 3.793c15.193.263 30.742 4.617 46.435 13.111l.05.04c-10.32 1.46-21.87-1.9-33.74-3.4-57.65-9.14-59.42 34.02-76.42 15.16 20.022-16.94 41.468-25.295 63.675-24.911zm306.533 1.62c-5.072.153-9.792 3.937-9.637 11.751-.05 5.28 2.36 13.28 7.91 13.39 6.06.12 14.78-1.88 13.75-12.26-.074-8.568-6.275-13.057-12.023-12.882zm42.273 17.68c-5.74-.04-8.41 4.81-8.24 15.94.79 15.4 30.17 12.152 27.83-3.308-.82-11.85-11-11.591-19.59-12.631zm-649.611 1.214c11.94-.303 24.433 2.974 38.021 11.537 1.64.78-.48 9.4-.86 14.4-12.52-4.32-23.57-14.68-37.21-13.93-22.86.95-44.7 9.17-66.05 17 22.528-14.805 43.305-28.43 66.099-29.007zm474.697 4.505c-5.432.172-10.122 3.333-9.365 10.233-.04 8.06 3.79 12.218 11.86 12.318 7 .09 12.54-1.84 12.14-10 .562-8.055-7.65-12.772-14.635-12.55zm57.354 12.204c-10.455-.02-11.896 8.208-12.09 15.619-.23 9 8.6 7.069 13.6 7.289 13.362 1.589 13.339-23.402-.47-22.88h-.02a21.38 21.38 0 0 0-1.02-.028zm-535.682 4.859c13.397-.075 26.734 3.98 40.422 15.7 4.76 3.32 3.12 24.74-1.97 26.83-1.46.6-4.61-2.102-6.61-3.792-9.77-8.45-19.32-16.969-31.83-21.449-23.19-7.41-45.93 2.88-69.39 1.13 24.555-6.7 47.05-18.295 69.378-18.42zm131.943 1.371c.453-.014.91-.011 1.37.008 12.34.52 20.05 8.12 25.52 18.12 7.53 13.79 16.688 25.86 30.528 33.93 29.01 22.44 30.151 65.06-10.709 74.18-26.09 6.85-123.96 2.44-96.13-42.96 11.1-14.92 20.84-30.15 22.93-49.76 1.801-17.06 12.462-33.088 26.491-33.518zM929 204.459c-7.41-.268-8.576 7.556-7.43 12.701 1.7 7.94.64 21.11 14.83 19.59a13.14 13.14 0 0 0 11.39-13.65c-.51-8.54-.1-19.9-15.22-18-1.325-.4-2.511-.603-3.57-.641zm-502.75 4.562c.91.037 2.56 1.899 3.76 1.899 30.63-2.06 59.87 4.76 89.53 10.87 10.75 1.46 22.11 6.86 32.6 15.86-41.29-16.96-84.14-13.3-127.14-11.3-.15-5.55-.45-11.23.63-16.62.096-.53.317-.72.62-.709zm341.928 17.87c-9.418.342-11.82 23.251.861 21.74 4.33-.49 13.001.94 11.701-8.16-.95-6.47-1.94-14.021-11.63-13.541a6.06 6.06 0 0 0-.932-.04zm-289.942 5.875c28.288.02 56.145 4.625 82.084 17.634-11.56 1.44-20.74-1.9-30.25-4-13.25-2.92-26.75-2.22-40.2-.22-20.32 3.05-40.91 4.24-61.24 7.17-3.5.6-3.07-.61-3.63-3v.01c-4.76-20.11 9-14.36 19.92-15.74 11.112-1.168 22.247-1.862 33.316-1.854zm414.25 39.851c-5.506-.041-10.69 1.78-11.486 9.383-2.4 16.47 22.81 24.18 25.86 6.14.77-8.35-1.83-15.28-13.27-15.49-.369-.018-.737-.03-1.104-.033zm-493.01 11.438c1.669-.18 3.143 1.498 4.393 6.945 5.6 28.19-26.71 26.26-24.28 14.38.66-4.59-.279-15.93 6.391-13.46 5.219 1.925 9.826-7.47 13.497-7.865zm-310.675.943a18.317 18.317 0 0 0-1.551.012c-11.8.59-8.06 10.35-8.9 16.78-.84 6.43 5.08 9.41 9.58 8.86 6.63-.83 15-2.24 13.13-11.84 0-8.39-4.693-13.546-12.26-13.812zM935.76 295.43c-7.7.19-9.5 8.24-10.87 13.51-1.61 23.33 28.48 20.06 25.69-.4-.4-8.16-7.64-13.29-14.82-13.11zm-706.504 7.707c4.653.19 4.536 6.261 7.555 8.652-65.61 14.81-56.541 24.371-92.051 76.371-.28.43-1.31.4-2.02.55 13.39-44.32 33.12-83.23 85.52-85.53.355-.043.686-.056.996-.043zm-201.768 7.992c-2.6.04-4.924 1.05-6.853 2.633v20.925c1.4.395 3.056.535 5.025.313 16.9 3.79 20.63-23.83 3.14-23.81a10.662 10.662 0 0 0-1.312-.061zm345.852 5.767c4.811-.037 7.975 8.349 25.42 5.784-.75 2-1.04 4.41-2.33 6-13.43 16.54-29.02 29.59-52.05 26.05-13.29-2.06-26.44-6.07-34.29-19.37 20.69-.12 42.3.75 57.3-14.9 2.56-2.602 4.346-3.55 5.95-3.564zm353.781 4.038c3.49-.083 3.787 1.979 3.45 4.716-11.98 115.48-20.34 231.48-37.85 346.3-45.81 208.22-105.94 420-237.25 592-11.76 19.94-13.662 24.61-35.862 18.22-20.99-3.71-42.218-4.44-63.218-7-45.16-4.61-90.39-11.17-135.82-12.3-18.06 2.32-13.53-4.47-6.18-14.16 62.55-100.44 125.309-202.12 167.879-312.92 26.18-69.11 40.56-142.44 56.79-214.3 22.25-89.27 34.08-180.94 39-272.8 1.26-38.16 7.79-75.81 4.79-114.1-.23-8.02 2.14-5.81 7.08-6.38 56.3.08 112.66.02 168.81-3.5 22.53-2.09 45.05-3.2 67.64-3.73.263-.025.508-.04.741-.046zm-490.295.996c11.8-.13 23.05 2.41 31.444 7.96 5.33 3.11-6.52 3.79-8.57 5.02-51.86 9.27-70.94 17.28-107 55.71 8.83-13.74 17.75-27.39 26.57-41.14 10.5-17.325 35.03-27.302 57.556-27.55zm633.572 6.814c-.529.029-1.075.09-1.638.186-8.06-.7-13.16 1.75-13.94 10.93-1 12.14 8.46 15.45 16.21 16.59 16.032 1.714 15.774-28.6-.632-27.706zm-476.912 18.938c4.799.174 5.477 8.785 6.744 11.238 15.77 30.37 28.6 62.08 40.31 94.17 7.68 21.06 14.62 42.56 19.49 64.4 2.21 9.92-1.1 21.18-2.45 31.76-3.78 28.55-8.47 57.06-13 85.55-9.37-95.7-35.74-186.15-80.16-271.31a61.37 61.37 0 0 0 22.72-12.63c2.69-2.358 4.747-3.236 6.346-3.178zM72.6 364.607c-10.671-.433-10.407 21.05.28 20.104 5-.33 13.12.998 12.52-8.262-.4-6.1-1.19-12.749-10.52-11.449a9.497 9.497 0 0 0-2.28-.393zm863.638 27.676a18.6 18.6 0 0 0-2.898.317c-7.61 1-8.6 7.18-7.84 10.5 1.29 5.67 1.72 13.06 5.7 15.12 22.102 5.262 23.692-26.442 5.038-25.937zM20.635 409.008v28.338c8.102.697 12.203-6.584 12.154-16.086.556-7.117-5.532-11.385-12.154-12.252zm796.242 10.646c6.684.117 13.833 1.33 21.533 3.826A125 125 0 0 1 877 439c-10.3-.82-18.82-.71-27-2.32-53.37-4.19-95 48.32-126.78 83.99a59 59 0 0 1 1.64-18.1c-.81-18.25 14.34-26.47 23.85-38.09 18.932-25.276 39.202-45.333 68.167-44.826zm31.674 24.123c12.087.026 25.624 2.161 41.449 6.604-15.43 3.02-29.71 5.619-43.89 8.619-46.38 13.28-99.87 77.25-130.53 115.46 6.17-18.5-.98-37.01 16.33-50.17 9.83-7.48 15.43-20.3 24.43-29.15 32.745-32.534 55.95-51.44 92.21-51.363zm-494.485 4.534c7.503.174 15.337 2.187 23.664 6.939 22.4 12.78 31.31 34.36 34.84 62.36-27.73-54.76-72.36-56.27-121.43-45.67 20.896-8.146 40.418-24.154 62.926-23.63zm-285.802 2.673c-6.723.273-7.448 5.705-7.655 14.686C58.39 479.13 85.05 482.13 83 465c-.85-7.76-4.45-13.6-13.31-14a14.82 14.82 0 0 0-1.426-.016zm92.584 22.528c-.576.01-1.171.054-1.787.129-8.36 1-9.512 8.049-10.192 13.879-3.53 11.42 3.58 15.48 11.65 15.02h.01c16.47.115 18.158-29.367.319-29.028zm173.88 2.412c22.649.326 44.122 7.83 58.752 27.486 8.52 10.43 15 22.04 23 32.7 6.88 9.2 7.11 21.99 8.66 33.59.04.3-.47.71-.75 1.05-26.69-65.11-62.23-76.26-129.57-80.34-5.9 0-13.25 2.47-18.9-2 17.925-7.472 38.825-12.774 58.809-12.486zm-301.51 23.433c-5.06-.227-10.99 3.217-12.583 9.137v6.535l.015.08c1.08 7.74 4.96 11.99 11.95 11.73 11.1-.41 5.61-10.77 7.68-13.73 2.458-9.367-1.827-13.517-7.061-13.752zM895.69 508c-3.95 4-14.21-1.19-14.6 8.81l-.009-.02c-1.85 19.93 23.36 21.28 23.54 1.47a10.62 10.62 0 0 0-8.93-10.26zm-788.2 18.21c-10.65.18-18.13 6.13-18.21 17.53.38 15.28 25.76 9.81 28.21-2.37-1.72-6.57-.68-15.32-10-15.16zm84.094 10.831c-.461-.007-.936.007-1.424.04-7.06.52-11.69 4.94-11.15 12.64.42 6.057.91 12.581 8.17 11.539 9.43-.66 16.69-1.66 15.87-12.18-.58-7.444-4.546-11.935-11.466-12.039zm744.482 15.914c-15.626.508-18.234 24.048-.505 24.115 14.7 2.35 15.698-25.17 2.058-24.09a16.394 16.394 0 0 0-1.553-.025zM39.498 584.23c-7.447.187-8.184 9.055-7.768 12.95.53 5.48-.83 15.37 8.91 15.62h.07c16.46 3.74 22.36-27.5-.47-28.56a10.013 10.013 0 0 0-.742-.01zm817.205.637c-.37-.01-.746.003-1.133.043v.02c-8.09.14-13.68 3-13.53 10.81.17 9.45 3.75 15.54 15.45 14.18 13.815-1.046 10.66-24.728-.787-25.053zM770 589.62c-15.56-.11-22.1 24.461-2.23 22.791 10.95 1.85 13.09-21.69 2.23-22.79zm133.02 45.631c-3.02 29.25-12.33 57.09-24.4 83.64-11 19.53-26.8 36.36-39.3 55-2.52 3.69.83 7.27 4.13 8.87 13.06 6.33 22.73 17.01 34.06 25.51 11.9 8.91 2.26 14.45-2.1 18.56-15.21 14.4-32.59 25.86-50.68 36.72-16.48 9.88-34.1 13.04-52 16.51-2.05.37-5.83-3.08-7.31-5.63-7.92-13.69-36.61-8.43-42.76 3.65-.85 1.67-3.16 2.6-4.79 3.87-5.26-16.41-16.97-25.55-33.26-26.55-6.62-.8-12.98-1.75-18.62-4.66-7.8-4.06-1.74-10.37-.8-15.37 1.96-10.23 5.09-20.23 7.85-30.23.25-.78 1.81-1.99 2-1.86 9.35 6.09 21.21 4.96 29.35 16.75 9.73 14.11 26.4 22.79 44 27 13.62 2.38 27.64 9.27 40.85 2 .2-.08.26-1.54.2-1.54-27.07-7.07-57.21-6.62-76.21-31.94 39.86 12.69 73.55 10.41 114.18 3.41 1.08-.14 2.94-2.11 2.76-2.65-.61-1.76-1.62-3.59-4.21-3.38-26.44.65-53.98 8.07-79.8 1 1.27-1.35 2.3-3.26 3.87-4 18.03-8.48 35.75-17.87 55.85-20.78 7 .21 4.71-6.31-1-6.25-25.71-.04-49.66 12.78-70.37 26.91-5.8 4.14-14.08-2.39-21.35-3.64-9.45-2.49-20.92-4.23-29-9.7-1.15-2.49 1.54-1.26 2.36-1.7 24.84-14.31 51.55-25.82 75.35-41.75 14.64-12.83 32.28.16 47.94-5.72 4.61-3.67 35.08-3.84 30.72-10.94-.74-1.23-4.14-1.4-6.24-1.17-16.55 1.84-33.07 3.9-52.42 6.22 30.94-22.11 55.91-38.97 82-63.76 1.48-1.27 1.56-2.6 0-3.72-3.6-2.6-6.26-.07-8.81 1.93C819 705 783.13 731.51 741.92 753.67c13.76-23.19 22.53-45.81 41.36-64.4.71-.64.27-2.56.36-3.88-18.78-.85-48.84 55.86-52.31 73.06-.73 3.42-6.85 6.09-10.93 8.3-12.81 6.94-25.83 13.5-39.56 20.62 1.4-11.78 8.07-20.46 12.79-29.9 8.77-17.57 18-34.91 26.77-52.47.68-1.42-.63-3.82-1-5.82-1.46.93-3.53 1.5-4.3 2.82-8.64 14-15.56 29.33-24.91 42.85.5-16.17 5.53-33.08 10-48.63v-.03c3.58-10.19 15.6-13.38 24.21-18.94 54.44-33.69 122.43-15.29 178.62-42zm23.58 126.22c-6.399-.176-12.33 3.392-11.83 11.84-.65 12.05 6.44 16.74 16.16 17.54 8.26.68 8.76-7.07 10-12.55 2.897-10.186-6.104-16.602-14.33-16.83zm11.847 89.321c-6.19.234-9.134 5.338-9.047 11.568.08 6.34-.45 16.12 8.9 16.24 16.24 2 22.17-29.149 3-27.599a13.7 13.7 0 0 0-2.853-.209zm-276.885 8.838c3.887.025 9.193 4.278 13.848 4.672 12.26 1.01 24.32 1.819 30.49 14.699 4.27 8.89 5.85 18.37 2.83 28.07-.85 2.72-2.51 2.32-4.37.32-5.29-5.67-10.91-10.57-18.52-13.57-4.51-1.71-7.14 2.84-10.73 1-5.61 1.95-8.61-11.66-16.94-13.58-2.43-.98-6.03-1.94-4.87-4.81 2.31-5.67.95-14.29 6.69-16.53a4.194 4.194 0 0 1 1.572-.271zm84.647 15.223c3.256-.003 6.716.866 10.361 2.818 7.37 9.37 16.58 14.86 28.32 17.18v-.03c12.88 2.55 18.73 12.48 19.67 24.33 2.58 14.33 17.8 21.23 18.48 39.89.23 15.45-16.77 24.32-26.77 32.88-28.35 12.86-2.73-23.51-42.78-34.86-1.16-.44-2.49.24-2.49-1.88 0-23.01-25-25.53-38.13-38.43-.95-.92 2.87-6.52 4.17-10.08 4.793-15.438 15.06-31.807 29.169-31.818zm-93.521 13.857c1.047.087 2.105.818 3.203 1.64 20.76 13.79 10.058 43.52-6.442 56.18-1.75 1.48-9.42-3.29-13.85-6-1.07-.67-1.17-5.2-.07-6.91 7.95-12.46 7.442-27.57 13.112-40.83v-.03c1.372-3.205 2.7-4.161 4.047-4.05zm29.08 12.25c10.207-.158 25.662 28.393 38.873 33.002 7.43 4.09 16.279 6.17 19.879 15.09l-.03.049c4.84 11.99-6.77 9.13-11.43 11.47-3.32 1.64-8.25 1.28-10.78 4.43-15.28 17.44-30.28-25-67.86 12.82 3.2-8.58 1.1-16.21 2.2-22.81.8-4.95 10.29-8.04 13.8-14.24 6-10.54 12.56-20.84 10.17-34-.3-1.57 1.33-4.67 2.7-5.12a4.993 4.993 0 0 1 2.478-.691zm206.71 6.178c-17.97.215-13.135 30.101 4.641 28.183l-.01-.02c13.8-1.81 13.41-29.41-2.82-28.09a17.712 17.712 0 0 0-1.81-.073zm-256.07 41.888c.36-.014.768.048 1.233.205v-.03c8.36 2.93 12.36 8.88 11.32 18.53-3.21 14.29-5.39 31.17-14.39 46-1.42 2.34-2.751 2.24-5.301.9-10.13-5.31-16.37-9.12-9.13-23.63 5.62-11.27 10.76-24.11 13.5-37.16.158-.866.254-4.711 2.768-4.815zM76.45 965.027c-.393.006-.796.04-1.209.104v-.031c-14.67.14-14 26.74 2.52 24 13.795 2.683 10.894-24.242-1.31-24.073zm665.653.518c10.226.07 20.686 4.08 25.068 11.455 3.63 6.11 4.57 13.76 7.1 20.58 4.75 12.79 16.16 21.31 21.54 33.94 11.13 27.74-18.71 43.33-40.71 40.92-16.91 4.78-15.22-10.73-19.28-19.09l-.03.05c-22.79-37.23-13.51-35.91-22.04-73.51-1.47-5.2 6.21-5.97 9.71-8.77 4.758-3.828 11.645-5.623 18.642-5.575zm-59.186 5.158a39.27 39.27 0 0 1 11.924 1.887c9.26 3.28 10.77 10.56 11.85 17.28 3.51 21.99 3.02 44.67 19.17 63.25 4.15 4.8 7.32 13.21 5 20.36l-.03.01c3.66 28.87-32.46 42.21-52.56 36.03-13.97-4.25-26.98-9.15-38.54-18.37-7.6-6.06 1.17-8.98 2.32-11.45 9.03-19.39 10.78-41.63-5.72-56.26-2.31-2.04-1.96-4.96.43-7.37 6.34-6.36 7.79-14.88 10.61-23a39.27 39.27 0 0 1 35.546-22.367zm254.555 1.486c-16.1-.64-17.1 30.19-.34 29.6 17.54 1.29 18.69-28.62.34-29.6zm-100.479 10.2c11.884-.162 19.748 6.214 17.678 28.021-4.25 13 8.36 22.32 14.75 33.65 6.55 11.64 3.98 22.49-3.45 30.16-15.49 17-3.73 46.31-32.49 51-8.18 1.27-36.91 4.32-30.67-10.47 6.41-16.14-1.64-28.54-12.5-39.59-1.33-1.35-1.51-1.78-.2-2.94 22.72-20.09 23.46-40.86 2.46-62.86-2.64-2.76-5.8-6 1.36-7 11.82-1.62 16.78-14.28 27.62-17.28v-.03c5.527-1.532 10.792-2.598 15.442-2.661zm-702.252 25.04c-7 .38-13.05 5.12-12.36 13.41.54 6.45-1.9 16.221 10.19 14.161 18 3.46 18.32-28.56 2.17-27.57zm473.875 7.624c.35.027.715.14 1.096.347v-.03c35.06 12.57 44.21 63.86-.33 77.29 5.91-12.77 11.718-25.18 17.308-37.7.33-.75-.85-2.69-1.85-3.43-2.45-1.86-4.47.31-5.22 1.91-6.58 14.02-15.73 26.82-19 42.47-1.06 5.06-7.69 8.8-11.94 8.39-4.64-.44.33-4.96 1.11-6.78 8.05-18.65 16.761-37.02 25.121-55.53 1.12-2.47-.16-5.78-2.28-6.25-6.24-.37-19.07 31.06-23.07 37.63-3.65 5.23-5.22 20.25-10.31 22.09-10.21-5.44 2.1-17.4 3.88-25 5.07-11.09 10.22-22.14 15.15-33.29 3.159-3.816 5.088-22.529 10.335-22.117zm-562.883 25.66a21.029 21.029 0 0 0-1.732.027c-6.72-.54-7.18 7.82-7.32 13.42-.19 8 4.59 12.08 12.49 13.16 22.581-3.361 14.183-26.158-3.438-26.607zm695.608 37.447c11.39 5.91 23.26 3.67 34.61.67 13.82-3.59 15.02 8.32 18.63 15.09 9.01 16.84-7.11 26.01-13.48 38.33-8.54 21.8-11.69 44.22-41.32 43.06v-.03c-29.97.86-53.78-16.12-74.7-35.24-6.52-6.82 5.09-8-7.84-29 36.05 18.27 81.1 4.54 84.1-32.88zm-604.049 1.756c-7.523-.413-8.861 5.913-9.47 12.363-.84 8.88 3.25 13.661 12.08 13.711 21.36 1.19 18.8-24.85-1.02-25.9a15.42 15.42 0 0 0-1.59-.174zm495.043 11.447c7.672 13.407 26.246 20.009 24.896 35.647-.15 12.77-3.8 18.76-13 22.28-8.76 3.36-13.22 12.22-19.37 18.89-21.98 20.93-41.04-14.73-41.73-34.62-3.767-25.067 32.304-32.464 49.204-42.197zm-62.156 8.076c5.56 19.128-5.392 55.333-32.328 59.221 10.653-19.557 21.335-39.095 32.328-59.22zm329.982 15.881c-14.65.39-15.1 28.79-.16 29.35 9.34.67 14.78-5.58 15.16-15.18 1.19-11.44-7.22-14-15-14.17zm-860.85 6.795c-7.32.126-15.552 5.35-14.37 14.074h.07c-.1 19.08 27 17.271 24.87-4.359.268-6.825-4.876-9.812-10.57-9.715zm756.3 7.877c7.062.03 16.997 8.013 27.76 5.617l-.03.01c11.88.44 19.66 6.882 19.59 19.522 1.46 6.67-5.13 9.648-8.13 14.388-5.34 8.58-3.35 19.571-9.18 27.461-15.74 21.5-40.32 7.48-56.45-5.86-17.34-13.15 11.54-11.93 18-52 1.829-6.984 4.74-9.153 8.44-9.138zm-681.024 8.975c-.543.007-1.104.044-1.686.113h.04c-6.72 1-14.78 2.45-14.41 14.41.33 10.62 7.56 11.59 15.29 12 15.752 1.463 17.586-26.758.766-26.523zm545.273 7.584a12.62 12.62 0 0 1 3.532 2.449c8.7 10.98 20.56 17.55 32.49 24.26 6.17 3.46 11.658 9.47 10.658 16.64-.95 6.95-2.81 15.58-13.62 15.09-27.13-2.73-37.78 36.72-64.64 26.27-9.04-3.93-18.64-2.58-27.94-2.19l-.028.01c-43.84 2.43-37.64-53.46-22.74-79.89 6.45 11.19 10.75 23.41 23.08 30.25 10.81 6.26 25.73 3.54 31.34-7.55 6.16-12.17 20.388-14.93 27.868-25.34zm-94.84 6.77c-11.24 15.82-4.288 35.85-13.718 52.25-6.86 11.85-37.19 18.709-45 7.849-2.84-3.94 4.009-6.42 5.789-10.12 5.68-11.82 12.35-23.2 19.17-34.42l-.03.01c2.88-4.73 8.54-.43 12.79-2.41 7.42-3.5 14.7-7.05 21-13.16zm151.426 27.697c.309.012.594.07.844.193 22.75 11.7 34.602-10.152 45.432 21.578a45 45 0 0 1 4.558 19.531c.64 29.75-20.83 16.97-34.83 51.52h-.049c-24.93 49.5-58.18 21.86-93.95 37.8-11.82 4.04-31.39-8.83-33.33-21.89-1.35-9.1-3.99-18.24-3.77-27.3.64-25.71-.78-27.58 25-21 32.37 8.19 38.09-24.78 73.56-28.94 13.07-2.84 18-16.39 13.59-28.77a4.12 4.12 0 0 1-.06-2.18c.952-.217 2.08-.58 3.005-.542zm-636.383 5.996c-10.879-.013-13.752 8.022-15.001 14.406-.49 11.5 2.82 16.39 10.66 15.25 9.7-1.41 12.77-10.55 15.16-18.63 2.29-7.72-3.37-10.66-9.74-11a23.216 23.216 0 0 0-1.079-.026zm762.97.25c4.165.01 8.716 4.482 12.279 5.076 33.86 5.94 62.83 25.41 86 50.34 15 15.51-4.09 18.12-8.75 25.71-3 4.9-8.711 8.37-13.711 11.75-17.33 11.2 19.23 22.16 11.87 68.53h-.05c-1.86 46.44-21.95 92.23-14.14 138.53-3.93-.11-8.25.8-11.72-.53-12.98-5-24.95 1.81-37.25 3-19.04 1.84-37.39 2.64-55.87-3.6-31.09-8.19-36.42-46.98-51.69-36.83a110.19 110.19 0 0 1-47.12 14.86c-29.6-25.63-31.49-112.22-17-147.29 2.92-7.15 11.76-4.99 17.48-8.29 17.41-10.06 25.29-27.61 35-43.55 17.3-19.58 18.34-7.99 30-38.58 1.88 7.04 11.88 23.26 9.88 28.41-11.67 12.93-18.87 28.61-27.09 43.67-4.39 8.05-13.71 9.16-20.56 13.58-16.45 10.63-23.33 26.83-29.52 43.83-1.61 4.42-5.72 8.34-3.55 13.72 3.78 18.95 16.96-49.58 46.44-55.86-8.45 17.97-40 87.81-22 102.17 3.92.13 3.07-4.88 3.16-8.1.51-17.52 4.83-34.22 10.83-51.4 8.01 19.02 9.34 37.99 7.07 57.44-.15 1.3-3.17 3.32.56 4.18 3.32.78 4.85-2.38 5.26-4 5.72-22.88 4.17-45.08-7.15-66.2-3.83-7.16 2.44-12.45 4.54-18 5.6-14.75 12.77-28.94 19.83-43.1 4.04-8.09 9.05-15.7 13.72-23.47.47-.73 1.63-1 2.47-1.49 13 19.98-.35 30.82-5.44 48.23-7.08 29.27-13.24 59.82-4 89.45 1.08 2.87 2.55 6.53 4.55 5.14 2-1.39 2.78-6.09 2.4-9.09-3.88-34.96-1.98-70.29 12.47-102.85 23.62 54.38 15.5 30.78 12.5 84 3.12 26.83 8.96 53.01 20.44 77.49 1.35 1.63 1.21 6.56 5 4.3 2.97-1.78 1.61-5.56.61-8.19-8.69-23.97-24.23-73.56-15-96.83 13.7 35.17 28.98 71.11 57.55 96.74 1.21 1.44 3.52 4.24 5.84 2.16 2.68-2.41-.68-4.16-1.92-5.68-18.34-23.05-34.19-45.86-43.34-74.53 19.6 15.23 37.53 25.73 52.19 44.37.65.67.46 4.21 3.25 1.5 5.1-10.34-22.8-33.73-31.43-38-23-13.71-37.69-32.25-43-58.49-.96-4.72-4.11-8.95-5.78-13.57-1.36-3.78-7.32-8.18-3.26-10.92 25.12 4.32 50.12 24.05 69.9 40.4 2.95 2.59 7.34 5.89 8.19 3.29 2.11-6.44-5.07-9.89-8.79-13.6-19.15-17.42-41.65-33.79-67.37-38.93-12.66-4.05-9.5-17.27-14.66-25.68-10.86-17.65 6.93-11 12-13 6.06-2.39 13.53-1.1 20.32-2 9.7-1.28 13.18 7.76 19.87 11.44 11.94 6.58 23.45 14.16 37.81 14.1a7.49 7.49 0 0 0 6.67-4.28c-1.37-3.28-7-2.13-10-3.28-12.77-2.65-23.8-8.65-34.56-15.65 13.78-3.67 27.08 1.11 40.5 2.33 5.93.53 12.5.36 17.83 4.62 1.58 1.25 3.28-.87 3.38-2.52-.78-14.58-73.56-15.85-89.48-15.4 17.48-10.72 32.85-18.85 51.62-17.85 9.44 1.91 10.37-5.96.3-6.18-22.23-3.41-41.72 4.48-56.53 19.15-8.41 8.29-17.34 5.97-25.73 8.29-4.57 1.25-6.04-7.97-7.57-12.39-2.83-7.66-8.74-13-11.26-20.57 20.74 10.38 49.14 13.25 57.14-13.11 2.053-6.842 4.721-8.923 7.571-8.916zM557.66 1206.88c4.07 16.75 12.26 28.599 30.55 30.869 5.09 26.17-13.3 49.38-31.08 66-29.99 21.66-39.88-31-93.77-18-3 .61-6.67-1.81-11 2.66 11.15-18.36 24.99-31.8 34.15-48.87 3.25-6.01 8.39-11.92 13.25-16.92l-.03.01c1.71-1.76 10.6 3.07 16.03 5.34 10.9 3.43 41.31-7.88 41.9-21.09zm-537.025 23.965v24.261c.387-.022.784-.052 1.195-.097 4.19.66 10.78-.44 8.7-5.46-2.566-6.172-1.366-16.625-9.895-18.704zM82.42 1261c-8.34.36-15.57 2.68-15.57 14.24-1.25 7.16 6.11 11.22 10.45 11 16.36.37 18.79-25.81 5.12-25.24zm509.86 15.37c2.3 22.96 17.94 48.52 43.72 44.73 6.14-1.01 7.31 3.2 6.95 7.99-5.05 71.15-57.9 132.09-112.42 171.15-9.4-9.28-11.28-28.9-16-41.5-3.7-11.02-11.27-1.79-15.27.59-22.58 13.47-47.4 10.72-71.84 11.81-50.66 2.98-103.43 8.99-150.06 30.41 2.43-34.81 19.51-67.5 41-94.5 4.79-5.87 2.37-8.09-2.72-10-18.06-6.8-36.18-13.72-56.06-11.94 19.27-39.08 56.27-62.24 91.27-85.24 19.46-11.48 41.14-10.16 63.41-5.48 34.78 10.97 79.32-16.7 106 18.1-33.78-.08-69.56-2.16-103 6.43-8.18 1.51-60.25 13.21-57.81 21.79 14.6 1.31 27.68-5.81 41.44-9.47 1.13-.35 2.65.5 4 .79-7.91 15.34-24.55 22.41-39.45 29-2.69 1.12-6.53 2.4-6 5.4 8.41 9.19 39.81-13.37 48.08-19.18a14.72 14.72 0 0 0 5.36-6.78c5.78-16.51 20.74-15.15 33.59-17.21 29.18-5.67 56.44-3.67 86.6-1.67-14.31 8.83-27.33 17.32-40.9 24.83-3.35 1.85-8.49.64-12.8.53-9.95-.47-66.68 4.53-65.95 15.53.12 1.11 2.85 1.49 5.12 1.29 18.07-1.57 35.47-9.22 56.33-5.79-21.83 12.72-42.16 21.6-61.74 35.13-8.22 7.47-18.56 3.39-27.71 5.24-19.86 5.09-47.88 14.46-62.32 28.35-.07 5.96 6.6 2.07 9.33.4 16.3-6.754 32.65-13.36 49.05-19.82 1.78-.7 4.07-.1 7.49-.1-8.05 3.91-52.76 39.26-42.94 45.26 2.8 2.08 3.72-1.03 5-2.52 17.06-19.77 39.29-32.38 61.67-44.85 10.04-5.59 18.72-13.48 30.14-16.68-6.47 19.54-21.47 35.75-33.47 52.44-1.36 1.84-1.85 5.16.15 5.56 13.47.27 43.52-51.62 45.69-65 16.73-12.78 36.89-23.15 55.27-34-5.03 23.42-20.21 44.81-33.82 64.59-2.23 3-6.62 6.49-2 10 5.02 3.8 5-2.53 7.09-4.78 19.88-20.34 28.86-47.01 37.48-73.34 3.34-7.71 12.96-8.91 18.87-14.46 5.52-5.2 12.91-8.39 18.65-13.39 4.39-3.89 6.04-.59 5.94 2-.62 15.34 4.11 31.48-2.2 45.78-4.19 9.52-12.99 17.17-20.35 25.08-4.72 4.08-25.05 35.51-17.8 38.77 1.89.38 5.75-1.65 6.35-3.41 6.73-17.95 18.24-33.73 31.73-46.82.18 1.27.74 2.61.48 3.78-5.75 23.42-9.41 47.46-17.82 70.11-.43 1.5-1.25 4.45 1.75 4.82 13.58-7.02 16.79-44.89 22.36-59.43 5.52-18.81 4.02-38.24 6.68-58.58 9.19 11.31 13.29 23.72 15 36.89 2.23 5.87-.87 35 5.71 34 3.41.12 4.28-3.34 4.28-5.1 6.77-70.03-46.32-76.14-20.58-105.14 5-4.92 11-15.14 14-22.39zm-562.41 32.688c-.346-.001-.707.009-1.082.03-2.8.163-5.644.409-8.154 1.056v28.507c.403.036.81.07 1.256.069 8.21 0 18.19-2.37 16.66-13.58-.736-5.425 2.055-16.06-8.68-16.082zm102.75 15.345c-1.243.015-2.474.1-3.621.186-13.67 1-13.74 28.13 1.17 28.83 10.64-2.17 14.06-9.85 13.74-19.77-.26-8.06-5.9-9.308-11.289-9.246zm67.994 29.828c-15.872-.59-16.33 24.18-.666 25.479 7.84.58 10.08-5.68 10-11.83-.1-5.52.711-13.382-7.799-13.512h.05a16.384 16.384 0 0 0-1.585-.137zM54.551 1377.36v.032c-7.58-.25-12.871 5.129-13.631 13.548-1 10.46 4.66 15.86 14.23 15.91 9.2 0 9.21-8.458 10.78-15.458-2.13-5.75-3.78-13.792-11.38-14.032zm-33.916 49.063v23.681c8.776-2.694 7.992-19.048 0-23.681zm76.566 4.062c-6.274-.1-10.144 2.772-8.47 10.946-1.08 7.79 2.2 11.61 8.49 12.07 12.42 2.08 17.28-19.89 4.67-22.5-1.665-.311-3.242-.492-4.69-.516zm72.914 24.094c-.471.016-.97.07-1.496.162-10.54.16-15.48 4.19-15.67 13.34.33 17.44 26.72 15.45 25.56-.54h.02c-.225-5.167-1.345-13.205-8.414-12.962zm471.645 3.592c-13.21-.22-6 30.6 10.62 26.81 10.92 2.64 9.37-7.07 9.38-12.38 0-12.87-10.33-14.23-20-14.43zm-593.692 28.19c-6.368-.342-13.142 5.522-12.648 16.88-.42 14.41 24.58 12.44 23.25-1h.04c.282-10.448-5.022-15.58-10.642-15.88zm701.762 8.48c-16-.12-17.3 23.21-2 23.75 12.96.27 14.54-21.59 2-23.74v-.01zm-165.959 15.142c-15.597-.637-15.111 25.964 2.84 25.829 16.19.65 14.089-26.91-1.281-25.68a14.844 14.844 0 0 0-1.559-.149zm-382.951 2.34c-14.074-.254-16.325 26.512-1.71 26.428 15.68 1.53 24.06-23.08 4.63-26h.05a12.603 12.603 0 0 0-2.97-.428zm749.32 3.897c-6.666-.082-13.602 4.784-12.05 13.98.49 4.84 0 12.361 6.49 12.361 7.93-.06 16.48-2.5 16.56-14.14.553-8.203-5.118-12.129-11-12.201zm-141.465 5.279c-1.802-.016-3.74.168-5.775.502-13.89 3.18-14 32.21 9.47 26.83 6.25-.94 10.24-5.29 8.57-11.88.78-11.57-4.455-15.384-12.265-15.452zm-687.156 1.322.01.002.031-.002h-.04zm.01.002c-10.849.536-11.15 9.204-12.139 15.627-.94 6.16 4 10.25 10.31 10.48 14.717 1.71 14.669-24.145 1.829-26.107zm548.271 2.276a19.519 19.519 0 0 0-1.76.033c-10-.19-8.08 8.519-9.24 14.459-1.85 10.38 4.89 13.56 12.54 13.14 19.316-1.82 16.185-27.151-1.54-27.632zm-236.324 1.779c-.655.019-1.33.06-2.025.123-10.54 1-8.531 9.24-8.551 15.89 0 11.88 9.33 11.34 16.93 11.4 7.6.06 8.08-5.86 7.05-11.77 1.604-11.25-3.579-15.927-13.404-15.643zM744 1555.211c-6.89.2-12.69 3.139-11.32 10.478.24 9 4.15 14.29 11.45 14.16 11-.19 10.23-9.998 10.7-17.128.42-6.72-6.29-7.64-10.83-7.51zm-690.146 3.447a34.283 34.283 0 0 0-2.415.082v.03c-8.14.56-10.83 4.87-10.35 11.66.5 7.13-.279 16.15 9.731 14.89 8.4-.26 15-.65 16.18-9 1.537-10.978-1.637-17.624-13.146-17.662zm461.863 6.596a8.715 8.715 0 0 0-1.137.057c-8.31.33-11.75 7.998-12.31 15.228-.88 11.43 8.41 8.77 15.53 9.31 13.525-.707 9.423-24.405-2.083-24.595zm-229.938 3.412c-9.29-.236-12.441 5.163-12.91 12.494-.21 13.15 8.251 14.61 16.461 14.44 10.19-.22 11.16-9 11.51-16.38.41-8.57-6.04-9.73-13.12-10.43a26.508 26.508 0 0 0-1.94-.124zm-103.263.152a13.72 13.72 0 0 0-1.516.121c-12.56 1.87-11.37 31.63 4.39 28.09 18.03-1.608 12.473-28.572-2.874-28.21zm428.904.09a14.98 14.98 0 0 0-1.6.092c-9 0-8.88 6.79-8.91 13.87-.95 7.78 2.83 11.46 11.3 12.35 18.29.95 15.323-26.359-.79-26.312zm280.271 5.856c-.42.015-.855.057-1.31.127l-.012-.022c-17.48-2-17.85 26.65-1.76 23.91 12.73.213 16.112-24.49 3.082-24.015z"/></g><g data-name="Red Japanese Frames"><path d="M0 20v1560a20 20 0 0 0 20 20h936a20 20 0 0 0 20-20V20a20 20 0 0 0-20-20H20A20 20 0 0 0 0 20zm924 1528H52V52h872z" style="fill:#000;fill-opacity:1"/><path d="m952.1 15.41-23.41 23.42a4 4 0 0 1-2.83 1.17H50.14a4 4 0 0 1-2.83-1.17L23.9 15.41A2 2 0 0 1 25.31 12h925.38a2 2 0 0 1 1.41 3.41zM40 1549.86V50.14a4 4 0 0 0-1.17-2.83L15.41 23.9A2 2 0 0 0 12 25.31v1549.38a2 2 0 0 0 3.41 1.41l23.42-23.41a4 4 0 0 0 1.17-2.83zM936 50.14v1499.72a4 4 0 0 0 1.17 2.83l23.42 23.41a2 2 0 0 0 3.41-1.41V25.31a2 2 0 0 0-3.41-1.41l-23.42 23.41a4 4 0 0 0-1.17 2.83zM925.86 1560H50.14a4 4 0 0 0-2.83 1.17l-20 20a4 4 0 0 0 2.83 6.83h920.55a2 2 0 0 0 1.41-3.41l-23.41-23.42a4 4 0 0 0-2.83-1.17z" style="fill:#040101;fill-opacity:1"/></g></svg>