<svg xmlns="http://www.w3.org/2000/svg" viewBox="0 0 976 1600"><defs><clipPath id="a"><path d="M960 22v1556a6 6 0 0 1-6 6H22a6 6 0 0 1-6-6V22a6 6 0 0 1 6-6h932a6 6 0 0 1 6 6z" style="fill:none"/></clipPath></defs><path d="M960 22v1556a6 6 0 0 1-6 6H22a6 6 0 0 1-6-6V22a6 6 0 0 1 6-6h932a6 6 0 0 1 6 6z" style="fill:#b0dedc;fill-opacity:1" data-name="Paper Backing"/><rect style="fill:#e3f2f7;fill-opacity:1;stroke:#fef8c8;stroke-width:0;stroke-linejoin:round;paint-order:markers fill stroke" width="440.348" height="96.824" x="512.83" y="105.036" rx="75" ry="75"/><rect style="fill:#e3f2f7;fill-opacity:1;stroke:#fef8c8;stroke-width:0;stroke-linejoin:round;paint-order:markers fill stroke" width="440.348" height="96.824" x="189.35" y="551.588" rx="75" ry="75"/><rect style="fill:#e3f2f7;fill-opacity:1;stroke:#fef8c8;stroke-width:0;stroke-linejoin:round;paint-order:markers fill stroke" width="257.808" height="90.475" x="3.636" y="348.413" rx="75" ry="75"/><g clip-path="url(#a)" style="clip-path:url(#a)" data-name="Wikipedia Cropped"><path d="M781.63 1549.7c-38.86.64-75.38-3.25-110.94-24-14.07-6.42-25.57-29.7-42.16-23.55-32.62 14.51-71-.39-103 13.2-13.62 8.12-22-.08-25.85-13.72-30.64-50.9-30.32-123.2-.26-176.05 15.6-13.22 42.18-2.53 47.84-31 .66-2.29 2-4.48 4.57-4.48 18.78 16.44 24.74 33.52 56.22 25.14 6.38 4.28 9.82-1 14.77-3.62 15.88-8.87 35-9.77 51.16-11.23 68 6 60.44-73.1 100.18-54.87 39.06 15.68 63.6 52.27 81.82 88.16 8.85 14.3 14.36 36.88 32.27 41.54 13.88 3.93 1.93 14.85-5.6 18.73-65.56 39.69-67.25-13-62.43 97.33 2.54 63.18 50.78 54.81-38.59 58.42zm-692.1-144.36c-25.63-1.22-61.85-7.42-80.25-22.07C54.4 1360 30.8 1295.53 65 1259.65c21.06-16.23-32.91-33.19-38.9-52.42-7.8-18.2 23.26-30.78 37.48-43.23 21.53-14.8 90.88-37.15 101.14-4.6-3.65 39.74 55.69 42 79.24 61.28 25.9 10.37 21.78 64.24 59.91 52.74 8.57 1 27.5-20.78 30.19-7.59-17.76 39.49 19.21 53.13.93 67-20 21.88-42.24 42.1-69.35 54.63-20.36-.12-35-21.37-52.5-30.2-6.17-4-9 3.85-12.58 7.24-33.34 26.65-69.72 38.59-111 40.8zm754.67-185.78c-23.85-15.91-44.42-40.28-61.14-64.75-11.46-13.68 4.86-14.44 13.43-20.88 15.64-10.1 14.45-32.59 24.67-45.63 5.42-.92 5.09-6.43 4.65-10.71-.06-4.82 9.87-20 14.28-24.45 28.13-23.57 14-45.55-3-71-36.29-55.77 46.54-35.09 75.75-23.64 42 17.93-39.82 43.56 19 63.07 22.95 14 31.15 40.48 48.14 57 0 5.74-.48 50.07 0 54.32-1.55 2.73 3 31-2.62 31.34-29.39-28.28-58.35 5.49-92.72 0-5.8-.09-5.88 5.83-6.87 10.16-7.6 16.38-18.11 37.25-33.59 45.19zM81.6 1063.18c-81.73-2.37-96-13.45-42.44-82.25C29 970.21 12.52 958-2 954.35c-5.61-1.71-.2-100.76-2-104.18 0-3.49 3.6-4.37 6.49-4 23.62 19.51 47-19.44 73.14-17.22 14.33-2.26 15.87-45.4 33-61.55 10.77-16.93 23 23.38 36.3 21.7 46.49 17.13 112 39.14 120.26 97.16-1.92 7.27 6.85 22.67-5 22.38-46.06-12.86-57.93 28.73-64.26 63.31-1.18 2.86-5.09 4.32-4.15 8.08 1.28 18.14-20.22 29.72-21.61 47.87 1 35-62.22 32.76-88.58 35.27zm600.06-227.35c-9.64-3.15 2.17-18.23 2.67-24.94 8.95-26 16.44-52.26 15.94-80.29-.78-73.8-26.66-155.41-79.19-210.67-4.18-12.35-21.72 2.38-30.34-6.4-27.21 9.24-34 59.17-35.39 88.36-4.55 9 15.93 46.31 2.22 40.91-97.08-72.64 5.59-135.95-21.55-196.42 7.65-8.16 22.41.62 29.93-5.15 15.91-8.06 34.21-10.65 47.46-24.09 12.9-22.41 28.29-4.52 40.66 3.88 11 6 22.27 1 20.39 22.06 2.89 18.25-17.93 42.55-3.17 51.08C750.16 583.87 777.16 713.1 736.88 828c-6.48 14.14-27.24-13.94-55.22 7.83zM338.5 811.41c-14.51-3.51-19.94-11.27-27.62-20.13-24.29-28 23.6-38.78 35.3-50-.47-23.58-13.23-52.5-11.71-77.15 1.13-10.13-1.47-76.7 15.44-61.73 51.21 62.74 120.18 41.31 165.46 97.42 14.27-2.29 61.54-33.6 63.17-8.23C583 801.5 566.81 764.24 488 789.77c-5.13 11.49-6.46 16-16.33 5.56-8.71 3.1-14.63-1.22-23.36-3.8-34.04 29.96-74.72-8.1-109.81 19.88zm-111-414.58c-47.77 1.34-91.34-23.62-137.55-27.73-9.24-16.58 20.4-29.63 23.72-44.55-18.8-17-42.84-28.18-63.09-55.46-8.69-11-21.68-26.22.91-27.89 52.87-6.85 85-62 140-56.24 19.32-29.72 28.86-75.4 60.19-90.73 36.32 55 143.93 92.83 142.12 164.58-35.2 27.65 7.28 61.28-10.94 63.72-14.56-3.8-28.65-11.36-43.77-7.92-22.63-5.35-48.32 18.58-40.82 44.25 2.8 32.46-48.69 36-70.8 38zm556.29-87.49c-4.87-1.74-18.19-.9-14.16-8.77 9.81-10.81-.05-23.71 2.68-35.76-1.94-10.43 4.67-22.09-.71-31.81-3-13.54 50.91-49.68 66.89-50.44C863 186.74 886 211 895.58 231.6c-6 9.71 13.25 10.8 11 19.3-12.49 6.24-29.67-10-44.07-5.91-41.43.01-52.51 44.6-78.76 64.35z" style="fill:#5f7e5e;fill-opacity:1"/><path d="M438 1348.65c-42.32-14.82-123-12.67-104.5-76.77 1.72-5.13-4.46-9.68-8.87-6.82-21.42 13.19-49.37 15-57.5-16.68-8.58-52.57-97.19-33-102.06-89-16.61-45.94-24.33-58.53 16.21-90.19-30.87-43.2 10.42-63.27 18.06-106.87 3-15.64 4.48-32 17.56-44 13.19-19.73 53 0 50.36-16.7-4.7-12-3.24-24 4.6-37.73 20.15-18.34 42.43.94 58.72-37.94 13.69-29.57 47.06-27.85 74.29-20.25 26.94-3.28 52.87-10.5 75.5 10 16.45-21.51 20.19-39.13 56.49-34.73 26 1.19 52.2-27.89 76.45-2.25 9.33 8.13 21.17 10.4 31.54 11.89 40.75 9.65 10.41 63.4 31.89 52.79 32.74-33.49 74.63 2.81 98.55 27.26 7.37 6.32-2.73 28.26 9.16 31.13C831.59 903.37 819.4 952 835 981c49.48 55.8-9.13 64.35-20 116.09-7.29 54.7-66.76 26-26.81 67.88 15.53 36.08-32 55.74-42.39 87.58-14.48 29.67-37.87 46.88-67.36 46.51-42.36-5-91.23 43.46-120.43-5.73-11.93-11.94-18.95 27.25-35.79 23.52-33-1.82-53.63 30.41-84.21 31.83zm-14.07-761.23c-23.34-2.95-32.51-35.42-57.93-44.66-23.05-14.18-25.82-33.79-10.55-56.12 6.24-17.95-35 2.06-44.47-30.61-6.57-16.31-.6-29.33 2.39-44-1.8-41.47-40.3-91.11 25.6-97 11-5.77 56.87 23.46 51.4 1.24-30.67-37.51 18.71-62.15 29-98 19.48-35.59 58-7.9 78.67 8 17.72-21.39 6.35-52.36 54.93-47.59 24.42.76 36.16-22.76 60.77-21.64 18 0 39.87 9.35 45.11 29.86 8.3 11.49-3.09 32.66 9.34 37.84 30-18.6 82.89-28.61 101.12 11.23 3.78 21.22.35 47.29-2 68.1 89.91 35.57 30.48 46.89 27.8 97.57-.21 80.54-78.8 8.35-80.49 29.84 2.88 19.9-23.65 51.58-42.15 41.29 11.33-70.95-3.44-31.39-42.15-73.51-22.52 15.37-43.44 37.17-73.6 39.89-6.68 2.59-18-.91-23.11 5.33 16.86 29.93-3.79 92.18-45.21 90.11-5.74 31.14-31.67 55.82-64.47 52.83z" style="fill:#9d3250;fill-opacity:1"/><path style="fill:#293928;fill-opacity:1" d="M253.65 86.326c-2.863.11-6.363 3.616-13.08 10.244-11.92 11.8-22.45 24.26-30.8 39.25-7.13 12.79-13 25.58-17 39.51-.65 2.27-1.05 7.08-5.16 5.27-43.93-7.54-76.61 34.4-114.73 49.25-11 4.79-22.49 9.39-35.25 8.09-2.8-.29-7.29-.1-6.81 5.7 11.9 32.93 40.17 58 69.67 76.21 2 1.1 9.85 2 6.14 5.68-7.11 7.08-11.27 16.21-18.32 23.07-5.37 5.21-6.86 12.73-6.62 18.69.36 9 8.92 5 14.8 6.24 19.28 4.12 39 8.25 56.85 16.25 42.6 15.47 92.27 20.76 133.1-2.38 4.06-2.76 10.31-10.2 13.13-7 19.66 22.91-2.69 44.78 3.05 69 5.08 16.62 21.54 37.82 42.25 35.71 2.86-.29 5.38-.82 2.66 4-25.95 50.92 22.76 54.1 46.18 83.67 14.35 28.42 55.71 24 74.78 5.44 11.15-10.3 22.4-21.2 20.95-38.67 0-.46 2.08-1.75 2.83-1.51 8.34 2.68 15.62.89 22.22-5.07-26.55 89.55 62.45 139.21 51.51 106.36-10.42-33.3-6.76-71 9-102.62 4-7.05 8-18.33 13.88-18.66a47.07 47.07 0 0 1 41.82 20c59 79.46 80.52 187.18 45.4 281.14-9.29-37.68-29.35-29.15-56-42.25-12-7.46-22.84-18.14-39-14.09-2.05.51-2.14-1.34-1.79-2.6 3.49-15.4 17.2-89.66-10.61-83.11-16.13 4.72-32.85 7.65-48.1 15.33-1.7.85-4.83 5.25-7.39.75-16.6-26.28-48-39.86-77.2-44.3-34.5-7.67-61.05-30.37-87-52.84-5.67-4.78-12.36-9.13-13.94 3.67-2.6 21.08-7.62 41.65-6.54 63.44 1.18 24 6.09 46.67 13.58 69.14.69 2.07 1.54 5.84.72 6.39-8.83 5.81-18.18 10.83-27 16.66-21.46 14.17-19.87 35.25 2.89 48.25 4.94 2.82 11.57 8.41 11.66 12.85.23 10.9-19.58 29.78-30.17 32.61-12.24 3.28-27.91-.53-34.43 18.11-3.26-16.8-20.24-29.42-31.81-41.26-33.8-36.53-89.26-28.63-111.61-68-2.44-4.57-5.72-8-10.26-1-3.24 5.05-8.11 9-11.54 14-9.62 13.86-16.72 28.92-19.38 45.71-.68 4.32-1.88 6.66-6.64 6.37-17.01-.893-31.348 10.834-45.968 18.271v11.824c3.87-1.7 7.48-3.75 10.358-5.506 11.66-7.18 23.06-13.689 37.06-14.619 4-.26 10 1.6 11.14-4.57 3.8-21.48 12.8-40.67 24.8-58.6 1.57-2.34 3.75-5.79 6.4 0 18.25 34 66.3 30.16 95 53.14 17.56 12 31.28 27.31 43.93 44.15 7.6 10.11 1.89 21.23 4.9 31.46.55 1.89.21 4 .28 6.07-2.42-.11-5.18.51-7.2-.46-15.7-7.5-47.9 7.88-52.17 25-3.46 13.89-7.19 27.71-10.86 41.79-18.85-11.45-12.7-25.59-15.13-44.06-1.33-10.67-5.3-21.23-5.15-31.8.11-7.74-9-14-1.6-23a63.65 63.65 0 0 0 14.92-42.58c1.21-5.57-5.72-4.39-6.2.37-1.9 13.59-8 25.47-14.9 36.91-2.9-7.52-18.41-44.27-26.59-41.81-2.66 1.76-1.31 5-.25 6.67 15 22.87 22.28 47 28.36 74.08-14.22-12.5-27.37-23.72-40-35.48-2.47-2.3-3.69-7.92-7.58-4.35-3.07 2.8.46 7.33 3 9.87 12 11.87 23.18 25.16 36.93 34.64 15.45 10.66 9.73 26.74 14.63 39.93-2.31.29-.17 4.94-3.32 3.82-4.75-1.69-9.68-3.44-13.8-6.23-15.71-10.67-33.21-17.68-50.27-25.65-4.17-1.94-10.65-3.81-11.55-7C91.63 903.58 69.73 855 56 858.62c-1.61 4.5 13.12 20.12 15.47 26.21 4.9 8.34 9 17.18 13.26 25.86.48 1 .45 2.55-1.58 1.91-16.37-5.11-32.67-10.47-49.15-15.17-1.638-.467-3.545-1.052-5.428-1.125v8.468c6.553 2.83 16.349 5.115 18.889 6.157 20.77 6.21 42.89 12.36 61.35 23.2-21.42 11.58-47.49 15-72 14.79-2.73-.13-5.312.27-5.772 3.32-.25 11.15 61.201-2.19 69.281-4.26 8.49-1.73 14.77-11.83 25.67-5.38 10 5.92 21.74 9 31.52 15.22 22.73 4.4 4.66 14.86-6.55 23.87-15.56 9.62-28.06 26.12-50.08 21.43a88.75 88.75 0 0 0-36.07 2.55c-1.54 3.45 3.69 5.63 6.83 5.48 10-.22 20.24-4.13 31.21.8-7.43 4.16-39.73 13.3-39.53 18.4 1.74 2.5 9.18-.13 12-.46 20.46-4.89 38.13-16.85 57.12-24.49-2.11 9.33-16 21.91-15.07 30.82 8.27 6.47 28.33-41.32 34.89-45.33 8.5-5.65 17-11.52 22.88-20.22.55-.81 2.41-1.58 3.2-1.25 27.12 14.75-12.12 37.43-12.16 57.87-.74 4.71 2.25 12.1-4.38 15.34-41.367 19.975-88.904 20.113-133.228 10.77v9.635a95.14 95.14 0 0 0 20.377 3.785c32.28 3.49 66.11 2.54 97.42-7.31 11.27-3.72 23-14.38 31.05 4.68 1.09 2.56.541 3.63-.669 4.32-28.24 15.51-40.23 43.21-23.65 73.11-46.475-11.486-93.132 10.93-124.528 44.872v11.457c2.003-4.13 8.147-7.02 11.117-10.18 7.48-7.94 16.67-14.58 26-20.42 26.51-17.33 59.682-24.179 90.522-16.269 4.62.77 4.518 5.73 4.488 8.3-.74 41.19 43.47 43.89 71.89 57.79 2.57 1 2.291 1.83.741 4.55-9.49 16.68-21.28 8-33.43 4.34-12.73-3.81-25.57-7.43-39.26-7.71-5.77-.12-12.19-1.69-16.15-9.56-4.87-12-41.94-38.4-53.25-27.53-.63 2.46 1.42 3.35 3.47 3.94 16.66 4.83 30.67 13.82 43 27.76-13.06.22-47.28-14-54.55-4.82-.61 3 2.14 4.24 4.19 4.65 25.89 5.11 51.76 8.66 77.53 14.82-14 2.81-26.21 12.47-41.5 9.51-9.13-2.05-12.55 9.28-.91 7.92 19.47 2.7 36.64-4.85 53.62-12.49 11.88-5.35 20.64 3.78 30.92 5.65 14.27 4.84-40.55 45.27-45.63 53.13a11.55 11.55 0 0 1-9.1 3.63c-21.14-.42-41.61 2.76-60.9 11.91-3.86 1.84-8.4 4.31-6 8.8 2.14 4 6.65-.26 8.89-1.43 16.51-8.58 34.33-9.89 55.44-11.93-27.38 23.07-51.8 38.57-76.89 61.77-1.4 1.28-4.71 2.26-3.26 4.62 1.66 2.69 5 1 6.73-.19 21.48-15.23 42.81-30.68 64.47-46.3 1 17-11.31 29.47-19.87 42.59-1.89 2.83-7.52 5.86-3.14 9.1 8.59 5.64 22.94-25.62 27.1-31.92a38.49 38.49 0 0 0 3.41-25.51c-.64-3.4 8.31-8.67 13-13 9.06-8.16 17.79-16.7 27.29-24.32.14 2.48 1 5.19.29 7.42-4.41 14.22-3.29 29.67-9.78 43.4-2.74 5.8-5.57 11.59-7.84 17.57-.67 1.79-4.66 4.38-.58 6.05 13.47 2.08 22.26-43.54 24.61-54.4a147.55 147.55 0 0 0 2.28-27.66c0-3.41 4.6-7 7.37-10.23a36.38 36.38 0 0 1 5.54-4.79c4-3.1 6.93-11.4 11.87-8.57 6.11 3.51 5 12.09 4.54 19-2.81 22 5.76 42.37 15 61.87.49 1.07 2.58 1.4 3.93 2.08 4.51-11-5.82-21.18-7.3-32.15-1.66-8.65-.29-16.89-2-28.52 7.28 10.41 35.9 68.36 43.1 63.8 2.55-11.31-20.75-40.18-26.15-52.27 3.87-1 25.47 8.15 32.15 12.79 3.85 2.68 8.69 3.94 13.14 5.71 2.84.47 2-4.55 1.19-5.2-16-9.37-30.76-21.52-50.28-22.07-3.6-.11-2.78-2.87-3.71-4.19-5.47-7.8-10.81-15.76-15.47-24.06-6.64-11.81 6.75-13.38 11.24-18.83 3.18-3.85 6.94 2.23 9.87 5.49 7.67 8.52 10.25 19.56 15 29.46 13.32 25.56 44.53 19.16 63.57 3.94-17.85 56.33 21.53 50.96-.13 67.27-9.87 10.67-19.56 22.46-31.76 29.74-11.61 6.93-20.69 18-33.77 21.86-9.48 2.8-40-25.48-51.14-31-9.06-5.67-11.07 5.13-15.39 8.8-34.87 28.65-87.25 45.13-132.23 38-12.796-2.362-24.958-7.01-37.138-11.02v11.068c34.04 16.356 75.566 15.692 110.989 3.262 25.22-8.73 50.648-18.17 68.628-39.87.64-.77.89-2.49 3.16-.5 9.86 8.62 19.731 17.46 32.231 22.26 7.63 2.93 14.68 10.29 23 7.91 15.77-4.5 27.81-16.14 40.63-25.69 14.2-10.58 28.07-22.11 36.06-38.81.83-1.73 2.32-.54 4 .13 21.17 10.84 45.68 9.88 66.85 20.18 30.72 14 54.46-4.7 81.06-20.56-9.25 9.17-11.48 19.07-13.64 27.83-11.64 39.9-13.86 83.57.27 123.07 4.94 17.82 17 32.58 25.69 48.85 1.26 2.36 2.77 1.53 4.5.39 20.85-16.9 53.91-11.87 79.57-15 13-.61 27.61 1.48 38.7-9.29 1.42-1.38 4.14-2.41 6.4.37 15.62 19.29 35.44 33.2 58.83 40.62 44.56 16.1 93.28 12 139.81 8.09 2.66-.25 6.81-.54 8.89-5.68 4.08-10.1-5.91-10-8.87-14.72-17.45-33.46-12-72.07-8.89-108 .08-3.15.39-5.77 5.43-5.52a62.61 62.61 0 0 0 18.37-2.2c18.33-4.69 32.91-16 46.9-28 3.5-3 9.21-5.49 7.73-11.49-1.7-7.68-12.26-1-18.63-8.11-12.33-10.34-16.74-25.38-24-39a316 316 0 0 0-34.94-51.43c-36.25-49.82-80.08-32.89-60-52.23 11.48-12.28 29.19-20.26 28.8-41.1 0-2.43 2.1-.42 2.94.63 10.32 13 23.31 23.25 36 33.68 3.92 3.22 9.57 9.33 14.5 4.09 13.31-14.13 26.55-28.57 32.18-48.1.51-1.75-.46-8.57 5-6.11 9.12 4.06 17.59.57 25.7-1.81 19.82-5.8 39-18.89 59.8-2.82 8.45.58 2.86-6.62-1.44-9.1-26.58-22.69-54.14 10.56-83.16 4.87-12.29-3.15-12 2.45-13.6 12.55-4.92 15-15.76 26.14-24.59 38.66-2.9 4.11-5.73 4.86-8.23 2.29-18.71-19.2-39.67-36.48-53.64-59.82-16.09-22.14 18.38 7 34.36-62 6.74 13.53 6.24 27.67 9 41.06-3 8.08-9.65 14.94-13.06 23-1 2.09-4.69 6.25-.62 8.27 7.47 3.65 13.06-19 17.26-25.8 3.43 9.57 4.47 37 13.38 36.94 3-.34 1.37-4.66 1.08-6.87-2.84-21.49-12.83-41.49-12.55-63.28 7.84 5.91 16.09 12.49 24.75 18.49 3.07 2.13 6.93 5.68 11 1-8.67-16.87-43.08-20.14-42.27-47.48 0-3.49 13.21-25 16.31-23.39 7.86 4 17.51 5.5 23.12 12.82 12.14 15.87 22.36 33 32 50.56 1.79 3.25 4.35 8.19 9.73 7.35.84-.13 2.26-4.36 1.57-5.24-10.66-15.37-18.3-32.75-29.36-47.7 25.35 9.86 49.68 26.43 71.47 43.5 3.51 2 22.81 21.8 24.37 16.67 1.68-2.57-.61-4.5-2.27-6.42-15.82-19.56-38.11-31-57.57-45.79.66-.3 1.35-.92 2-.85 8.93 1 18.07-2.12 26.89 1.64 3 1.27 5.47-1.46 6.46-3.47 1.83-7-24.76-6-29.41-6-23.21 4-42.32-9.86-62.77-18.46-28-6.09 16.54-20.51-11.24-55.44 10.53-5.27 23.12 4.9 33.69 7.94 2.54 1 6.1 3.72 7.22.52 2-8.15-23-11.31-28.71-14.89 6.91-5 22.89-10.35 25.56-16.53-10.39-7.81-40.64 21.06-43.5 15.7-4.15-10.37-11.9-19.42-12.16-31.16 0-1.74-6.27-4.08.88-6.16 16.7-4.86 32.81-3.08 49.42.37 59.24 17.93 35.16 13.5 23.86 44.82-1.75 5.19-8 13.31 2.18 16.87 28.61 9.09 45.7 34.3 59.56 59 4 7.46 12.83 6 6.85-3.39-12.17-26.85-29.62-48.91-57.28-61.7-1.68-.78-6.13-.79-4.88-3.78 3.85-9.24 8.09-18.32 14.58-26.21 6.19-7.52 7-10.37 4.57-11.76-16.25-9.44-31.46-20.26-50.91-23.81-38.76-10.22-53.12 9.67-52.8-8.22-.76-20-22.53-35.77-40.18-35.91-4.52 0-4.24-2.32-4-5.36 4.62-29.47-19.48-41.55-40.77-55.51-7.37-4.28-4.39-9.83-2.29-14.28 18.71-42.09 19.86-88.79 18.55-134-7.1-74.26-38.19-147.7-89.59-202.18-3.56-3.8 2.67-6.06 2.16-9.55 0 0 1.25-.52 1.61-.3 6.14 3.73 12.4.72 17.11-1.8 17.59-9.39 29-23.62 29-46 14.65 13.61 32.22 15.41 49.24 16.55 45-2.7 20.2-54.48 42.54-78.54 5.86-7 13.18-15.77 9.83-25.46-3.76-10.9-9.25-21.63-20.21-28.27-2.29-1.38-9.47-2.56-6.5-7 17.54-25.09 36.87-60.22 72-57.71 15.53 1 30.5 7.45 43.95 16 6.16 4 13.94.68 8.16-6.33-15-31-55.12-96.63-95.42-80.31-14.84 9.24-29 19.19-42 31.07-4.28 3.92-8.65 14.46-14.08 10.25C749 202.08 719.78 198 695 206.42c-9.54 3.7-18.33 9.36-26.93 13.87 9.75-45.08-34.36-87.6-80-62.38-13.59 7.81-26 17.77-43.68 15.25-27.7-4.42-46.16 23.9-46.15 49-2.59-7.53-10.12-8.77-15-13-13.55-11.72-29.52-16.89-47.1-12.12-21.64 5.27-25.38 26.52-34 43.75-10.59-12.73-17.14-28.79-27.87-41.46-12.17-15.66-26.77-29.05-42.47-41.23-12.14-9.42-23.53-19.83-35.92-28.88-11.79-8.61-23.61-17.07-31.19-29.79-5.366-8.994-7.794-13.23-11.04-13.104zm-2.013 11.88c.372-.017.783.299 1.244 1.255 7.16 14.93 20.48 24.269 32.34 34.809 39.81 34 87.44 62.28 107.5 113.31a7.39 7.39 0 0 1-1.692 8.31c-20.43 18.9-19.36 39.74-6.36 62.51-15.44-2.69-29.358-11.76-46.358-7.74-10.95 2.16-21.302-10.35-23.702-20.94-3.63-16.07 5.191-27.63 9.391-41.3 3.78-12.55 8.37-46.63-4.41-54.95-.89 2-2.74 4.2-2.5 6.09 2.09 20.65 2.29 41.06-7 60.14-10.34-37.33-23.09-71.6-41.15-105-.86-1.82-2-3.71-5-2.13-3.31 1.76-.71 3.22-.15 4.66 9.27 24 20.46 47.28 27.3 72.22a89629.792 89629.792 0 0 1-36.56-32c-3.41-4.14-7-5.52-12.16-3.64 15.26 22.48 38.91 38 55.34 59.49 8.38 10.77 4.38 29.43 9.36 42.32-7.78-7.6-18-8.34-27.08-10.53-22.82-5.49-44.74-10.75-61.82-29.65a89.78 89.78 0 0 0-46.21-26.74c-3-1.78-7.44-6.61-9.2-2.54-2.12 4.93 3.93 8.66 8.32 10.42a153.57 153.57 0 0 1 54.11 36.56c-22.81-3.49-43.58-6.47-66.15-8.22-16-1.18-32-2.35-47.83-5.68-2.41-.51-5.4 1.76-8.13 2.75 2.22 5.4 7.84 6.07 12 6.7 24.43 2.88 48.43 6.22 73 8.53a160.43 160.43 0 0 1-43 17.54c-3.3.83-2.64 3.68-2 4.47 10.21 7.72 45-16.33 58.63-17.94 10.45-2.72 23 1.58 34.42 3.92 20.24 4.16 40.3 9.23 62.16 14.32-24.44 14.76-50.29 18.47-76.7 26.86-3.19.87-6.84-2.56-9-4.12-8.29-5.91-18.5-6.29-27.06-11-1.73-1-5.19-1.57-6.44 1.68-1.1 2.88.73 3.57 3.3 4.56 7.32 2.81 14.39 6.27 21.56 9.49 1 .45 3.31-.65 2.7 1.62-.27 1-2.08 2-3.34 2.26-16.83 3.46-33.7 6.76-50.53 10.22-.88.18-1.55 1.43-2.31 2.18 2.34 1.26 5.06 4 6.95 3.55 12.78-3.32 26-2.27 39.06-6.41 13.07-4.3 28.28-4.22 41.43-9 1.45-1.33 4.45-1 6.76-1.37.48 3.79-3.64 3.25-4.86 5.1-7.44 11.21-18.52 18.19-29.15 25.68-2.53 2.93-17.87 7.91-15 11.74 1.21 1.56 2.47 3.28 5.27 2.1 50.59-20.29 35.36-42.53 94.15-63.82 7.28-4.79 17.08-6.27 22.29 1.82-.67 1.63-2.06 3.54-3.62 4.14-16.25 6.19-24.58 25.95-19.31 43.19 6.09 20.76-38.3 29.5-51.85 31.72-51.55 8.11-100.39-22.36-150.47-26-3.92-6.21 22.9-35 29.52-39 3.21-2.28-.53-6-2.77-7.05-32.29-15.67-58.69-40.85-77.52-71.12 25.55-6.47 49.75-14.18 71.31-29.88 22.81-14.86 47.5-33 76.46-30 12.45 3.84 11.61-8 13.69-14.25 9.63-28.91 23.38-55 47.2-74.84.487-.406 1.006-1.349 1.627-1.375zm361.488 62.853c17.735-.23 37.283 8.884 41.875 26.841 8.88 24.31.75 49.69-8.25 70.85-4.93 5.51-17.33-29.13-45.68-14.37-1.68.81-6.18-2.91-8.66-5.27-12.13-11.53-38.5-12.59-53-4.43-11.5 5.89-17.42 16.24-26.38 24.16-7.44-17.57-7.24-38.48-.2-56.98 5.71-13.56 17.6-21.14 35.64-19.39 16.95 1.64 30.15-6.14 43.17-15.26 5.738-4.012 13.424-6.047 21.485-6.151zm224.74 26.285c15.504-.232 29.94 13.262 54.385 42.086-13-7.81-20.09-16-30.69-18.85-14.25-3.85-26.57-2.14-38.75 7.22-16.21 12.46-32.53 24.71-47.39 39.74 8.75-30.14-10.55-25.36 6.74-34.54 25.633-23.11 41.14-35.439 55.705-35.656zm-391.601 17.834c13.648-.111 29.02 8.155 38.586 16.431 12.81 9.09 13.54 24 17.82 36.93 5.26 15.87-1.35 23.371-18.91 24.441-22.59 1.38-34.73 23.92-29.32 43.7.76 2.81.88 3.45-1.36 5.52-14.54 10.15-6.81 15.58-15.16 14.53-26.48-11.41-69.09-41.86-47.92-74.31 14.26-15.63 24.91-33.21 33.08-52.57 5.314-10.6 13.845-14.596 23.184-14.672zm280.982 7.49c22.153.33 44.55 17.854 39.293 41.752-4.26 29.11 10.572 41.06-23.158 60.91-21.54 13-45.35 14.74-68.8 19.06-12.73 3.13 5.069-23.43-22.331-61.51-2.09-3.29.37-4.51 1-6.25 3.28-9.36 6.92-18.6 10.73-27.75 5.34-12.79 18.17-16.12 29.02-21.69l-.03-.06c8.39-4.32 17.82-4.7 27.44-4a41.079 41.079 0 0 1 6.836-.462zm121.334 3.85c20.111-.285 37.712 22.943 54.36 32.722-35.94-14.24-69.75-9.74-93.77 22.37-7.54 10.11-13.75 21.21-21.24 31.36-4.29 5.82-9.57-1.06-15.2.07 8.27-10.5 5.09-21.2 2.89-32.04-1.5-7.32 5.77-9.8 9.71-13 16.63-13.72 32.77-28.4 51.81-38.67 3.907-1.9 7.716-2.76 11.44-2.812zm-284.834 23.414c18.834-.265 32.43 10.977 22.873 17.507-4.66 8.21-4.659 17.511-7.299 26.141-15.24 30.55-27 17.78-20.29 60 .51 7.94-2.43 13.7-9.28 17.23-27.7 15.53-47.78-37.76-78.94-34-7.24.95-11.23-.63-9.75-7.91 0-15 9.87-25.3 24.38-25.79 16.61-.55 25.61-11.86 33.29-24.05 12.552-21.756 30.368-28.923 45.016-29.128zm49.752 12.968c24.227-.5 37.137 38.842 44.152 57.18 8.28 55.85-47.65 116.43-101.59 125.14-42.41 6.78-84.63-12.22-101.58-53.53-4.63-11.16-9.15-25.54-.6-36.12 20.3-27 48.32 12.54 65.46 26.79 6.72 5.95 15.56 3.45 22.71 2.2 20.31-1.74 33.56-24.36 26.25-42.88-3.74-11.75 2.11-18.63 8.75-24.66 21.74-17.15 10.13-48.35 32.79-53.75a23.332 23.332 0 0 1 3.658-.37zm155.121 57.864c.45.006.91.098 1.381.297l-.03-.061c17.18.13 39.81 17 42.8 32.14 2 10.06-6.65 16.06-11.41 23-16.34 20.86-3.55 53.08-18.75 65.13-21.39 12.66-50.55.07-65.66-17.08-3.31-3.81.75-13.85 1.12-21.05.62-16.76 23.31-30.57 12.83-47.39-8.73-9.21-2.25-13.27 5.4-16.51a119.84 119.84 0 0 0 26.78-15.59c1.804-1.34 3.587-2.913 5.54-2.886zM339.73 318.92c37.22.94 61.93 22.54 92.65 36 10.57 3.45 8.59 13.47 10.06 20.48 3.37 23.87 23.74 35.82 11.9 37.48-23.93 4.92-43.13 19.17-63.58 31.21-24.45 17.54-53.12 52.71-76.09 10.43v-.03c-9.71-29.39 14.7-44.46-4.48-77.17-15.24-30.1-4.4-58.09 29.54-58.4zm376.45 19.016c5.182-.314 7.936 10.025 7.49 15.314-1.18 15.31-14.86 26.26-16.3 41.9-.49 14.39-4.62 28.86-21 27.9-18.77-1.17-34.61-7.21-46.14-19.93-7.7-8.51 4-14.12 7.94-20 8.27-12.32 15-25.09 18.86-39.38.34-1.28 0-2.8 2-2.66a182.38 182.38 0 0 0 46.64-3.08 3.97 3.97 0 0 1 .51-.064zm-86.936 72.107c9.843.07 18.798 16.68 35.717 19.297 7.62 1.59 5.94 10.06 5.45 14.09.75 34.19-22.412 63.87-57.542 67.3h.031c-31 11-32.51-31.9-63.57-29.73-9.38 2.05.77-23-9.59-33.08 19.57-3.45 20.9-1.92 27.36 14.92 9.11 18.87 32.94 25 44.2 10.85 4.91-6.18 6-31.86-.85-41.66-7-9.2 2.91-6.6 6.3-12.64 4.655-6.868 8.643-9.374 12.494-9.347zm-170.652 10.21c8.746-.198 16.358 4.277 23.597 10.987 2.53 2.35-1.37 6-10.59 9.71-16.13 6.55-37.109 41.52-33.449 58 2.52 11.29 11.79 17.77 22.73 20 19.42 3.89 26.75 18.39 16.62 35.42-10.76 18.08-25.94 29.34-50.1 28.72-10 1.85-17.37-4.31-23.64-13.69-8.93-13.36-22.4-21.9-35.67-30-58.72-41.74 43-99 77.8-115.75 4.516-2.25 8.726-3.306 12.702-3.396zm249.097 6.075c4.237-.22 2.357 5.972 3.25 8.442-.01 15.53-17.939 35.85-31.199 36.15v.08c-3.49.08-5.43.88-3.47-4.87 9.87-22-2.28-34.26 6.28-33 7.77.92 14.27-2.11 21.12-5.5 1.738-.858 3.042-1.25 4.02-1.302zm-107.468 5.121c2.67 7.21 5.33 14.411 7.59 20.551-2.36 8.87.118 19-11.202 20-13.13 1.25-19.998-7.54-25.548-18-10.3-19.27 12.799-8.8 14.939-16.93 4.83-.83 9.53-3.92 14.22-5.62zm-105.59 8.012c57.68 1.86 49.08 51.639 16.43 84.709-7.56 6.5-16.182 9.1-22.532 1.07-8.72-11-21.6-12.54-32.66-18.18-17.7-9.63-6.129-34.24 5.711-44.16 10.16-9.21 18.57-22 33.05-23.44zm54.611 49.777c2.497-.025 4.934 1.077 6.867 2.512 6.07 4.52-2.678 8.72-4.638 11.84-9.68 15.43-12.521 32.68-16.881 49.71-1.23 4.8 1.78 9-.4 13.34-.19.38 1 1.46 1.54 2.21 1.78-2.53 4.68-4.86 5.16-7.61 3.53-20 8.92-39.31 18.63-57.15 1.27-2.32 3-9.26 8.83-5 14.16 10.29 13.74 12.6 2.65 27.39-18.25 25.28-27.6 84.78-11.32 112.9-52.2-29.92-45.25-97.13-19.42-142.77 2.464-5.446 5.772-7.34 8.982-7.372zm114.887 4.604c1.62-.1 2.855 1.29 4.012 2.777 17.46 22.43 35.23 44.68 47.42 70.67C757.49 647.52 761.67 741.55 733 826.9c-.76 2.64-2.36 2.48-3.56 1.77-16.71-10-32.46-6.31-47.82 3.16 5.15-17.11 11.92-33.23 15.96-50.52h.03c18.95-81.93-5.83-172.66-53.79-240.47A83.13 83.13 0 0 0 626.26 521c-7.13-4.09 23-9.52 34.47-25.07 1.317-1.433 2.427-2.029 3.399-2.088zM345.779 603.42c21.2 24.45 49.7 42.26 80 53.77 29.39 7.59 62.94 11.47 79.66 40 8.67 13.91 15.49 3.39 23 1.14 13.75-4.09 27.23-9.11 41-13 5.25-1.5 5 5.07 5 7 1.15 24.12 1.73 48.46-5.9 71.67-2.91 8.83-14.06 9-21.7 10.57-16.52 1.81-34.329-1.21-49.189 9.29-1.3-6.69 14.7-26 21.47-26.86 12.29-1.51 24.49-3.81 36.69-6 1.9-.34 4.27-2.94 2.8-4.27-10.31-9.56-28.71 4.2-40.4 1.46 5.48-8.79 12.88-16.45 19.5-24.44 2.21-2.49.63-4.28-.36-5.67-2-2.78-3.26.69-4 1.42-15.38 12.88-25.72 29.86-37.69 45.4-8.37-12.62-10.14-28.89-19.36-41.39-2.18-3.28-4.08-10.39-8.43-7.55-4.67 3 .09 8.91 2.09 13.06 6.73 14 15 27.41 20.3 41.91 2.68 7.34-5.68 14.26-8 21.8-.42 1.4-1.43 2.62-2.8 5-18.11-33-45-58.95-67.59-88.69-6.63-9.29-1.95-20.77-3.13-30.9-1.78-4.93 3.91-15-4.12-14-7.66 3.08-3.51 24.08-3.57 33.56-8-8.1-37.93-56.85-43.38-51.35-7 5.75 36.46 54.23 42.16 63.86 3.5 4.49 9.53 7.06 9.45 14-6.22-.64-48.91-19.32-47.66-10.79.31 5 5.58 6.41 9.57 7.53 15.66 4.39 31.37 8.87 47 13.25 7.83 2.19 12.81 14.55 19.05 22.33l26 32.4c1 1.29 2.55 2.64.92 4.21-14.51-5.42-28.89-13.07-45.12-14.63-9.55-1.22-13-13.56-18.34-20.56-3.56-2.62-6.46-10.12-10-7.73-4.73 3.2 1.3 7.32 3.34 11.07 2.51 4.61 4.68 9.31 10.59 14.29-7.85.32-37.26-7-35.45 2.66.28 5.06 6.86 4.74 10 4.54 16.06-1 30.89 5.6 46.58 6.68 4.42.31 8.66 3.24 13 5-25.54 10.46-40.7 4.93-65.74.54-25.57-3.72-29.16 22.78-43.28 7.34h-.02c-8-8-15.29-16.67-22.87-25.07-2.28-2.52-.13-4.18 1.47-5.29 12.44-8.57 24.81-17.26 37.55-25.36 10.25-6.5 4.49-14.67 2.28-21.66-11-34.39-10.58-70.78-7-106.09.52-5.16.69-11.56 4.63-15.45zm241.266 168.385c6.837-.086 14.321 2.465 23.676 10.006 9.79 8.53 21.64 11.12 33.6 12.84 36.07 13.85 17.818 52.74.548 74.56-3.41 4.83-6.17 5.098-9.83.568-15.76-19.54-47.998-16.239-60.488 6.051-1.07 1.91-2.252 4.37-5.442 3.8-4-.71-2.08-3.48-2-5.5 2.55-20.75-2.558-52.69-30.048-51.28-18.94-.7-39.78 28-42.84 11.26-12-25.83 4.368-50 32.648-49.33 29.455 4.671 42.704-12.757 60.176-12.975zM374.13 803.502c6.727-.039 13.768 4.241 20.808 5.488 16 2.83 31.521-2.29 47.211-4.1 18.6-1.91 37.67 13.52 42.33 30.91 1.18 3.42 4.81 7.81 1.79 10.29-2.76 2.27-8.27 2.92-12 2a41.53 41.53 0 0 0-51.71 37.14c-17-26.62-60.42-17.28-72.51 9.8-11.34 19.18-43.55 10.34-58.13 35.9-15.78-20.45-32.92-39.88-16.55-64.93 4-7 11.54-6.11 17.19-6.36 42.84-1.34 36.35-55.29 80.23-56.07.445-.043.892-.065 1.34-.068zm332.129 29.705c19.826-.03 30.03 12.859 42.71 20.764 8.36 5.21 17.57 9 22.86 18.69 8 15.53.17 41.278-13.4 52.128-12.95 18.18-29.95-7.67-48.34-2.09-5.13.79-7.8.301-7.08-5.869 3.33-32.43-60.63-28.57-51.24-40.79 15.48-14.48 26.14-34.53 47.83-41.86h.01a15.71 15.71 0 0 1 4.7-.93 47.76 47.76 0 0 1 1.95-.043zm-168.768.215c3.695-.05 7.21 1.027 10.518 3.719 8 5.79 8.26 14.518 9.39 23.798 1.86 15.27-3.82 23.892-17.04 30.272v.01c-12.46 6-21 17.908-34.57 23.068-24.62 9.2-56.46-7.73-59.22 35.22-6.11-17-11.79-31.13-16.29-45.65-4.59-14.78 5.05-36.998 18-44.058 8.78-4.78 18-1.591 27-1.551 22.483 1.83 44.412-24.587 62.212-24.828zm73.961 31.38c6.878.07 11.408 4.74 19.377 13.727a49.17 49.17 0 0 0 31.83 16.211c18 2 32.39 12.27 29.89 26.23-2.54 13.05-15.26 20.94-25.2 28.61-5.91 9.42-12.03 8.7-19.29 1.23v.01c-15.49-14.31-38.66-16.31-58.57-10.38 1.34-15.61 6.53-37.62-4.43-51-12.09-14.36 4.39-17 10.23-19.73 7.064-3.333 12.037-4.949 16.163-4.907zm-219.877 13.214c12.602-.048 25.045 8.358 30.543 27.115 4.53 15.36 11.061 30.08 16.881 45.7-21.75-10-49.72 3.998-56.08 27.528-1.91 7.07-23.92 27.52-30.07 26-8.1-1.93-14.5-7.998-21.23-13.138-7.68-5.85-17.71-8.23-24.72-15.42-17.13-17.56-16.6-43.491 10.66-52.881 20-6.86 35.4-17.2 50.1-33.54 6.598-7.34 15.294-11.331 23.916-11.364zm176.336 11.543c9.649-.072 15.98 8.247 14.549 32.55v.01c7 31.06-30.84 30.76-42 54.4-7 13-21.61 10.52-33.07 14.33-3.84 1.27-8.11 2.27-12.06 1.93-10.15-.87-22 5.56-27.09-12.16-3.5-12.2-13.211-22.58-12.311-36.86.64-10.13 10.65-17.81 20.64-16.64 17 2 32.8-1.439 47.1-11.799 13.944-11.705 31.837-25.67 44.242-25.761zm219.592 16.101c3.81.066 7.696 2.767 10.807 4.1 18.39 7.87 22.67 18.87 23.15 39.36-.4 24.21 17.388 43.86 29.068 63.8 4.15 6.98-4.789 29.68-14.299 38.08-35 26.8-15.07 85.57-72.84 85.45-9.22-2.13-21.41-9.52-33.34-17.49-2.12-1.42-.09-1.69.55-2.35 14.73-15.16 18.84-34.29 18.23-54.25-.65-21.29 1.69-40.15 19-55.72 14.69-13.21 11.24-43.5-5.47-59.33-14.73-12.8 8.48-12.54 16.79-35.14 2.472-5.018 5.39-6.561 8.354-6.51zm-543.697 5.64c7.261-.096 15.375 1.98 24.244 6.76 36.78 23.86-.3 49.86 48.26 75-13.21-.46-24.381-.62-35.881 1.46-21 3.81-41.41 34.7-34 54.44 1.13 3 .7 3.17-3 3.27-18.89.5-37.41 2.81-55.27 10.19-7.1 2.91-8.1-6.85-10.63-10.71v.04c-7.56-11.56-3.8-30.78 5.28-41.73 11.24-13.54 17.14-29.51 20.49-46.85 2.16-28.06 16.786-51.553 40.507-51.87zm463.23 18.48c3.623.022 7.369 1.02 10.434 1.79 22.92 5.78 40.729 18.72 47.209 42.74 6.47 28.55-28.39 34.85-26.14 68.59-.91 22.71.88 46.43-15.23 65.82-25.51 28.03-68.31 20.21-95.98-.06h-.05c-3.59-2.45-6.48-5.92-10.05-9.25 32.36-5.92 20.66-25.73 32.64-42.11 14.7-12.16 15.78-27.1 8.9-43-6.6-15.27-2.34-29.85.44-44.7 1.47-7.88 9.37-10.14 14.45-13.64a114.42 114.42 0 0 0 23.68-22.12c2.575-3.13 6.075-4.083 9.697-4.06zm-96.545 15.15c14.377-.226 40.52 13.641 40.438 25.16-4.29 9.76-4 21.47-4.1 33.23-.08 9.85 7.29 17.72 6.31 27.9-.7 7.2-1.68 13.72-7.8 18.32-9.87 7.41-8.65 19.65-13 29.47-12.27 26.49-50.67.21-67.07-9.91v.01c-26.09-19.09-26.39-55.39-19.78-83.73 3.69-11.69 15-17.85 25.11-24.49 11.17-7.32 23.12-11.76 35.85-15.42 1.193-.342 2.555-.517 4.042-.54zm-187.232 9.69c15.75 3 26.35 12.49 33.57 26.06 2.29 4.3 9 9.2 5.62 13.05-16.19 16-37.77 27.13-49.69 47.58-4.4 7.43-9.17 15.62-15.96 20.33v.01c-4.71 3.27-10.88-4.07-16.3-6.78-14.11-6.32-39.85-37.9-15.82-46.41 29.22-8.999 26.2-50.92 58.58-53.84zm-394.688 12.5v10.444c1.6 1.138 3.194 2.28 4.797 3.416 1 .72 2.301.53.611 2.11a513.912 513.912 0 0 0-5.408 5.998v14.035C34.082 996.185 39.581 990.061 43 986c8.762-8.976-7.011-13.75-14.428-18.88zm504.56 23.735c1.197.018 2.463.13 3.708.075-4.59 8.94-2.81 51.52 4 61.49-12.25-.49-23.75 11-25.57-8.19-1.7-10.64-8.93-19.5-9.28-30.51 0-.93-2.31-1.78-3.55-2.67-9.2 8.93 7 40.53 12.19 48.88-8.29 2.49-11.43 13.48-16.41 3.4-7.91-13.11-15.29-26.47-21.16-40.61-1.54-4.12-6.39-5-6.07.54 2.33 18.21 12 33.14 21.88 47.93 1.34 2 2.64 3.58 0 4.85-3.2 1.51-4.17 9.52-9.31 4.66-11.93-11.32-24.1-22.54-32.81-36.8-1.86-3.06-5.27-4.57-8.4-3-4 2 .35 4.6 1.11 5.86 9 14.93 19.6 28.53 33.29 39.76 6.47 5.31-2.28 8.93-4 13.16-1.29 3.15-3.63.14-5.68-1.22-11.21-7.38-22.64-14.41-34-21.58-3.63-2.29-7.14-4.79-10.9-6.81-5.09-2.63-7.39 2.22-3.36 5.39 12.75 9.19 25.88 17.92 38 27.86 3.27 2.68 13.9.74 8.69 11.55-5.83 12.09-12.23 1.79-17.53.87-9.13-1.58-17.81-5.81-26.64-9-4.76-1.89-5.18 3.85-2.13 5.91 11.93 8.83 26.15 12.22 40 16.34 3.08.92 1.61 3 1.06 3.72-3.15 4.13 2.25 15.33-9.79 12.11a161.82 161.82 0 0 1-35.82-14.33c-11.21-6.12-12.44-17.23-13.38-27.74-7-44.9 33.92-77.34 65.61-102.55a5.88 5.88 0 0 1 5.29-1.26c20 3.74 39.16.66 57.67-7.59.97-.435 2.097-.512 3.293-.495zm-232.155 10.057c12.783.125 25.232 4.66 37.904 8.447h-.031c11.29 3.36 6.31 12.62 8.55 18.75 7.55 21.14 25.47 34.901 46.22 41.461 4 1.22-.14 7.1-.32 10.65-5.71 45.54 17 48.16-1.13 57.28-14.5 9.46-28.8 20.33-49.58 19.52-29.25 1.91-54.52-19.92-52.52-51.16-1.35-17.34-12.79-28.79-23.66-40.19-22.27-23.35-10.34-49.67 14.12-60.58 6.96-3.097 13.75-4.243 20.447-4.178zm237.392 58.485c7.467.197 10.917 7.352 15.97 11.853a110.89 110.89 0 0 0 37.222 21.86c4.93 1.73 9.94 22.39 8.57 28.1-4.63 19.32-22.31 20-36 25.22-12.85 4.89-22.571 13.1-31.541 22.51-21.988 28.386-69.498 15.722-65.71-21.39.92-40 28.86-72.54 65.61-87.06 2.22-.813 4.156-1.139 5.88-1.093zm-297.383 1.414c14.66-.072 17.624 13.432 25.664 20.048 16.24 13.4 11.74 34.72 18.07 52 21 38.37 64.12 40 99.86 20.66-7.77 14-10.79 30-11.21 45.65-.25 9.74-2.5 16.291-9.95 22.811-10.25 9-18.85 19.82-28.35 29.68-18.79 19.56-55.93 30.44-64.07-4.41-15.4-54.93-77.05-36.39-98.73-74.33-4.19-9.18-2.21-20.28-7.12-29.7-18.15-26.35-11.1-51.72 16.05-66.58v.04c18.14-11.41 39-13.56 58.33-15.82.497-.032.983-.047 1.456-.05zm365.268 35.728c6.15.101 3.96 9.338 7.445 12.451 18.86 17.56 42.681 29.16 68.791 28.42 5.43.32 2.91 6.64 2 8.69-5 11.09-12.6 18.26-25.65 21.42-42.71 14.36-44.77 55.31-106.57 49.25-6.48-.67-2.44-6.77-2.82-9.88-1.33-11.06-4.25-21.2-11.43-29.82-2.14-2.55.85-2.81 1.51-3.6 12.62-15 30.66-20 48.13-26.45 20.49-7.53 27.22-32.15 14.23-49.5 1.8-.705 3.225-1 4.364-.98zm115.574 29.412c10.683.195 17.512 12.059 27.192 15.2 14.41 4.67 27.63 10.958 35.69 25.708h.05c5.47 10 1 32.841-10.18 40.641-35.82 27.38-38.95 89.93-96.06 87.53a155.46 155.46 0 0 0-64.4 13.49c-23.74 10.68-47.77-1.08-57.11-26.87-4-11.1-9.06-21.78-7.65-35.55-1.85-14.63-3.34-23.64 14.08-18.78 51.12 4.54 62.35-38.67 103-51.76 36.2-10.82 19.67-39.38 31.56-40.71a46.45 46.45 0 0 0 13.8-5.87c3.744-2.222 7.037-3.083 10.028-3.029zm-317.683 9.406c1.049-.104 4.444 1.015 6.185 2.012 14.4 8.25 29 15.002 46.18 16.272 5.67.42 3.37 10.24 6 15.49 11.48 24.32 43.8 32.54 64.44 14.84 4.42-3.61 9.91 1.639 11.73 12.379 4.2 17.31 4.58 44.57-11.28 57.16-17.93 14-54.53-14.8-84.7-5-26.12 6.11-45.91-1.51-58.39-26.34-4.9-9.75-2.77-22.31-.69-33.55 2.38-19.48 8.38-37.41 20.28-53.14h-.05c.042-.068.145-.108.295-.123zm-375.573 68.127v13.8c10.383 12.309 22.898 22.326 36.258 31.486 3.1 2.12 2.94 2.68.35 4.61-7.43 5.54-11.35 13.87-16 21.42-16.035 22.263-11.33 54.163-20.608 78.313v20.196c23.622-26.641 10.19-82.715 41.748-114.12 14.15-7.43 6.46-12.06-1.51-18.34-14-11-29.54-20.829-39.4-35.849a10.794 10.794 0 0 1-.838-1.516zm345.617 20.008c1.166-.03 1.922 1.213 2.49 2.838 7.32 20.67 25.132 29.33 43.792 34 10.53 2.61 22.82-2 34.33-3.2 29.67-4.3 61.58 26 86-2.57.18 12 4.78 22.46 3.77 33.91-.84 9.52-12.61 24.3-22.33 24.4-23.24.19-41.662 11.99-60.052 24.06h.022c-28.86 21.09-57.871-9.24-88.531-9.25-49.52-4.61-45.5-59.29-17.18-87.09 4.64-5.49 10.2-10.2 15.1-15.48 1.042-1.126 1.89-1.6 2.59-1.618zm385.28 22.633c4.055.024 9.227 1.67 13.271 3.195h.02c48.22 19.07 69.73 68.72 93.06 110.85 4.89 7.61 10.41 17.59 21.93 19.07 1.24.16 2.31 1.64 3.45 2.5-3.38 2.94-6.33 6.8-10.24 8.64-10.46 4.91-18.89 13.43-31.28 15.24-9.3 1.36-18.43 3.84-27.93 3.27-3.69-.22-5.44 1-4.78 4.77 3 17.34-4.26 33.91-3.83 51 .23 8.89 3.27 17.76 3.09 26.6-.1 18.34 3.63 38.25 17.68 51.4-54.91 4.95-112 8.34-161.12-20.32-14.6-7.2-28.84-33.07-46.82-23.33-32.24 13.29-70.75-1.12-102.21 12.82-17.27 8.6-16.4-5-20.63-12.17-30.57-51.83-29.2-119.81-.27-172 11.48-12 35.58 5.74 49-33.52 1 .68 2.58 1.12 3 2.08 8.57 20 33.06 29.58 53.19 23.06-18.52 28.89-56.81 35-73.82 65.87-2.36 6.13-18 18.58-13.93 24.58 1.62 2.23 2.7.72 4-.32 10.44-8.33 15.77-20.89 25-30.21s18.72-18.77 32.53-25.53c-21.61 34-40.26 66.4-46.72 105.1-1 1.67 1 2.62 2.55 2.59 8.34-1.47 7.79-20.81 11.95-27.74 5.62-13.67 11.44-27.19 18.88-40.8 3.76 15.54 2.79 30.72-.34 45.79-.62 6-6.51 21.35-1.37 25.16 10.55-1.66 13.49-52.36 12.09-62.31-.81-8.53-7-17.19-1.42-25.44 13.94-20.21 29.12-39.61 44.28-58.93 1.52-2 2.46-2 4.16.11 6.94 8.72 14.6 16.87 21.45 25.67 5.48 7-.73 14.4-.93 21.63-.32 11.12-4.12 22.08-5.24 33.24 0 13.27-6.81 48.92 3.16 57.17 6.77-10.18.45-33.11 4.54-46.91 11.2-76.38-1.54-58.66 46.14-4.6 4.63 5.69 3.51 16.92 3.86 25.08 1.06 24.69 8.37 47 23.51 66.66 6.65 11.74 11.41.81 5.56-6.13-12.73-19.25-18.91-40.35-20.45-62.91 25.66 23 50.68 46.66 76.92 69 2.45 2.08 6.12 3.49 8.07 1.25 2.2-2.51-.62-5.35-2.75-7.5-30.6-30-60.72-61.19-88.52-93.66 26.16-3.15 47.51 9.89 68.54 21.86 2.21 1.28 4.71 5 6.93 2.23 2.22-2.77-.66-6.39-3-8.06-23.38-18.42-52.64-26-81.56-29.09-6.28-1.66-10.54-11.12-15.58-17.19-10.26-13.13-22.24-25.15-31.2-39.18 19.76-3.87 39.48-2.26 59.34-1.16 10.58.38 15.79 6.38 21.23 12.59 6.4 8.14 41.82 39.1 50.57 30.36 1.89-3.93-2.77-5.36-5.13-6.37-16.21-7-28.34-18.92-42.08-33.26 16.55 4.77 31.64 4.4 45.67 10 16.44 6.54 33 12.82 49.57 19 1.09.41 2.75-.68 4.14-1.07-.75-1.53-1.09-3.83-2.31-4.48-14.39-7.65-29.52-13.56-44.63-19.69-19-7.72-39.45-7.93-58.65-14.11 18.56-13.43 43.12-19.51 66-18.59 3 .19 8.54 4.64 8.51-1.52 0-4-6.07-6.06-11.1-6.58-40.55-6.25-70.75 32.42-111.13 22.42-11.57-2.76-23.23 2.4-34.7 4.45-6.42 1.15-5.5-5.33-11.47-5.14 21.68-8.14 42.54-7.21 62.87-9.89 30.69-3 47.62-30.42 61.82-54.51 1.143-1.53 3.175-2.1 5.609-2.085z"/></g><g data-name="Red Japanese Frames"><path d="M0 20v1560a20 20 0 0 0 20 20h936a20 20 0 0 0 20-20V20a20 20 0 0 0-20-20H20A20 20 0 0 0 0 20zm924 1528H52V52h872z" style="fill:#000;fill-opacity:1"/><path d="m952.1 15.41-23.41 23.42a4 4 0 0 1-2.83 1.17H50.14a4 4 0 0 1-2.83-1.17L23.9 15.41A2 2 0 0 1 25.31 12h925.38a2 2 0 0 1 1.41 3.41zM40 1549.86V50.14a4 4 0 0 0-1.17-2.83L15.41 23.9A2 2 0 0 0 12 25.31v1549.38a2 2 0 0 0 3.41 1.41l23.42-23.41a4 4 0 0 0 1.17-2.83zM936 50.14v1499.72a4 4 0 0 0 1.17 2.83l23.42 23.41a2 2 0 0 0 3.41-1.41V25.31a2 2 0 0 0-3.41-1.41l-23.42 23.41a4 4 0 0 0-1.17 2.83zM925.86 1560H50.14a4 4 0 0 0-2.83 1.17l-20 20a4 4 0 0 0 2.83 6.83h920.55a2 2 0 0 0 1.41-3.41l-23.41-23.42a4 4 0 0 0-2.83-1.17z" style="fill:#050201;fill-opacity:1"/></g></svg>