<svg xmlns="http://www.w3.org/2000/svg" viewBox="0 0 976 1600"><defs><clipPath id="a"><path d="M960 22v1556a6 6 0 0 1-6 6H22a6 6 0 0 1-6-6V22a6 6 0 0 1 6-6h932a6 6 0 0 1 6 6z" style="fill:none"/></clipPath></defs><path d="M960 22v1556a6 6 0 0 1-6 6H22a6 6 0 0 1-6-6V22a6 6 0 0 1 6-6h932a6 6 0 0 1 6 6z" style="fill:#d28e79;fill-opacity:1" data-name="Paper Backing"/><rect style="fill:#fad5cc;fill-opacity:1;stroke:#fef8c8;stroke-width:0;stroke-linejoin:round;paint-order:markers fill stroke" width="388.889" height="104.762" x=".221" y="135.83" rx="75" ry="75"/><rect style="fill:#fad5cc;fill-opacity:1;stroke:#fef8c8;stroke-width:0;stroke-linejoin:round;paint-order:markers fill stroke" width="439.683" height="104.762" x="451.587" y="688.889" rx="75" ry="75"/><g clip-path="url(#a)" style="clip-path:url(#a)" data-name="Wikipedia Cropped"><path style="fill:#c54730;fill-opacity:1" d="M253.826 94.057a3.59 3.59 0 0 0-.562.002c-14.079 1.16 3.882 89.15.457 97.36-30.85 2.32-192.802 33.321-104.932 72.321 103.65 63.21 100.56-17.35 56.65 114.4-12.01 41.79 92.51-25.4 96.76-43C314.92 320.47 345 405.42 368 410.26h.01c34.81-75.54-27.04-74.78-15.64-91.18 27.15-11.8 6.4-27.32-2.23-43.47 26.75-37.05 71.78-97.23 46.34-136.84C272 193 358.25 184.76 258.72 96.67c-1.925-1.683-3.544-2.513-4.894-2.613zM739.03 131.09c-5.49-.039-9.312 5.148-10.34 17.82-3.07 28.44-13.19 56.44-7.5 85.51 6.35 13.6-3.4 16.55-15 14.68-85.18 13.24-195.158 76.09-27.298 78 42.96-11.45-7.602 49.29-4.602 107.71-7.9 45.19 87.852-51.26 102.262-60.73 13-10.3 26.63 65.16 55.36 74.53 23.681-21.4 27.858-68.878 27.958-97.68-1.68-10.83 6.532-10.86 14.602-9.92 14.845.717 4.724-23.788-1.532-27.07-5.67-5.03 2.25-10.87-1.75-17.16-4.87-14.66-29-30.06-44.76-27.85-10.63-3.36-9.339-20.03-13.439-29.36-.418-19.465-51.343-108.32-73.96-108.48zM557.492 465.436c-6.819.138-9.807 3.757-6.172 12.714 61.35 128.33 32.83 39.36-46.36 145.67-61.65 64.06 71.59 19.39 95.87 15.68 8.61 39.98 1.99 94.42 29.08 129.11 42.82-32.05 57.15-83.52 81.6-121.27 28.16 13.11 54.87 31.14 87.67 36.06 9.85 2.43 12.47-6.27 8.35-12.91-12.35-32.89-29.25-66.93-58.74-88.59-4.26-2.4-6.46-8.61-1.46-11.61C777 553 806.32 529 820.92 503.68c2.39-35.4-122.76 17.13-139.28 31-5.78 5.8-10.68-2.12-12-6.78-5.71-7.38-13.33-11.47-20.1-17.14-6.624-9.08-69.772-45.775-92.048-45.324zm-94.596 996.525c-54.331.108-110.934 5.254-160.226 9.408-23.53 9.05 22.68 98.76-67.22 72-17.36 6.35-38.26 6.361-53.77-4.799-11.08-12.14 27.63-48.88 7.63-57.88-58.105 11.55-111.964 26.236-166.863 43.367v45.046H609.03c22.891-34.913 63.362-88.84 35.15-88.244-17.3 2.84-8.248 41.251-39.468 39.631-42.78-.7-21.08-15.71-44.63-27.83-27.03-9.43 8.189-29.52-34.901-28.15h-.12c-19.99-1.862-40.903-2.591-62.164-2.55zm509.096 41.904c-17.856 12.012-43.874 9.84-61.691 19.946-3.94 6.71-11.34-2.451-13.22 8.109 1.721 10.777-5.957 24.56-14.759 37.183h89.67v-65.238z"/><path d="M216.12 1496.07c-7.39.78-25.17-2.73-19.58-11.65 15.45-32.08 13.55-67.46 18-103.49 1.89-82.71-34.86-172.59-13.08-256.52 5.37-18.28 31.68 11.64 35.93-4.89 16-55.3-136.9-23.53-109.32-187C143 802.64 85.86 743.61 177 622.61c-20-41.13-14-37.68 21.1-18.71 23.54-13.18-42.49-56.35-59.31-63.67-15-7.43-15-14.56-5.44-22.86a6 6 0 0 0 1.22-8.53c-20.37-26.58-32.17-57.38-33.16-90.49 8.1-18.54 30.24 59.94 42 65.27 3.8 5.29 10.22 1.62 11.54-3.53 13.51-31.82 4.57 46.26 50 85 6.59 8.54 34.61 34.52 33.6 9.28-16.18-24.5-37.64-46.08-50.75-73-4.59-8.15 5.23-10.32 8.9-15.88-3.48-17.07-18.48-30.81-22.21-49.06-22.48-95.63 37.47 67 57.58 24.49 14.07-4.75 4 28.26 5.2 36.58-1.1 25.66 11.77 59.65 29.37 75.4C300 564.71 319 597.92 346 608.08a599.75 599.75 0 0 0 83 19.06c5.21-3.21 13.08 39.77 5.28 37.76-3.58 1.18-4.72 5.1-3.61 8.45-12.57 25.81-63.24 13.2-88.65 23.52-20.55 5.23-47.51 12.56-73.8 22.9-66.5 36.32-18.32 170.37 60.06 153.83 95-8.45 192.44-37.49 287.18-16.5 45.2 10.13 88.46 26.73 134.73 31.75 25.61 7.25 57.23-10.36 73.85 9.38 2.45 6-2.57 11.17-9 15.9-13.08 20.16-30 30-54.85 39.66-8.18 11.18 7.43 31.47 2.29 46 3.46 106.75-93.13 148.44-45 210 8.29 14.39 23.47 28.22 9 41.93-14.64 26.64-24.78 55.38-37.76 82.8-14 31.08-28.08 63.41-38 96.2-8 14.83-5.17 40.75-24.86 45.66-29.32-5-20-9.45-33.92-19.23C577.84 1456 564 1439 577 1427.76c18.91-47.68 33.88-104.29 31-155.19.09-37.12-6.92-72.49-41.11-91-16.13-11.15-88.48-57.48-56.39-70.33 10.53-6.8 57.55-10.15 41-27.39-7.2-5-14.92-29.34-25.3-19.06-73.68 26.57-166.81 31.14-182.18 32.83-13.88 9-5.5 37.55-10.84 53-3.69 40.82-10.89 84.4-17.53 125.73-16.65 67.79-22.31 141.71-22.53 209.65-6.05 14.72-32.18 9.55-43.58 3.23-10.98 5.12-21.49 6.44-33.42 6.84zm620-885.6c-15.84-10.82-7.31-60.18 1-83.72 1.12-13.33 26.56-36.26 7.53-39.25-15 7-96.31 7.91-84.37-16.36 19.26-23.38 45.66-55.59 66.17-24.3 13.42 10.5 29.19-33.57 29.75-43.84-.26-11.06 8.17-25.38 18.17-12.55 15.57 12.76 24.1 27.85 21 46.61 4.67 18.28 8.46 37.45 5.45 56.49 3.57 15.85 9.21 33.54 12.09 50.9-3.55 26.97-51.07 57.3-76.84 66.02zM553.29 314.13c-15-29.65-32.51-67.14-59.11-90.2a6 6 0 0 0-5.93 5c-4.18 23.41-13.74 44.12-24 65-24.12 13.11 0-39.46-16.61-41.93-24.76 12.57-64.1 26.32-90.61 18.55-1.45-5.85 6.72-6.62 8.42-12.5 3.23-8.12 15.66-10.63 14.42-21.15 11.08-22 25-43.53 25.13-71.67-.53-11.39 7.27-25.34-8.88-28.44-9.75 1.58-33.84 21.23-43.07 11.26-15-20.28-44.66-84.11-30.52-108.86 45.76 30.59 104.89 40 144.63 80.64 18.91-27.78 21-74.45 47.37-98.48C554.82 48.1 554.27 107.3 559 146.77c30.87-7.17 70.85-9.8 100 11.35 16 27.74-71 68.67-91.86 79.63-.39 20.25 1.8 63.47-13.85 76.38z" style="fill:#c46b2f;fill-opacity:1"/><path style="fill:#583823;fill-opacity:1" d="M773.285 33.672c7.683 30.901 13.898 63.438 32.504 85.719-.53 18.9 8.102 28.87 16.852 40 .75 19.32 10.949 36.32 20.879 50.32 1.08 20.75 13.98 40.108 24.08 55.818-.67 19.74 7.89 38.432 17.89 52.862-1 17.29 2.69 31.37 6 47.76.43 16.64 7.29 10.469 10.08 21.779-3.73 20.23-3.07 38.12-.13 57.4 6.22 50.14 7.93 110.35 33.22 152.4-.306 29.942 3.093 51.656 12.639 75.563V33.672h-28.666c-1.814 11.006-2.214 21.775 1.387 31.517-6.96 17.9-8.32 37.94-9.63 57.32-1.54 12.61-2.3 24.49 1.16 35.61-2.88 18.94-17.44 7.53-22.58-2.36-5.74-35.66-29.79-71.298-51.74-96.298-1.657-7.756-1.314-19.43-6.511-25.79h-57.434zM947.3 690.38c-3.824 12.127-5.181 25.651 0 42.166V690.38zm0 60.015c-4.738 9.982-3.095 25.943 0 37.07v-37.07zm0 43.89c-.746 1.29-1.661 2.567-2.13 3.954-.06 8.93-3.74 18.92-1.06 27.21 2.3 7.19-9.468 14.38-6.148 22.19-6.76 27.36-18.6 54.11-18 83.45-12.06 13-22.701 34.38-23.621 54-9.31 15.09-14.55 36.03-23.1 52.39-10.11 12.71-.67 28.86-10.89 35.91-11.05 10.12-12.36 30.45-21 43.34-6.4 17.89-19.84 34.36-19.59 54.12.27 7.15-8.69 9.22-9.52 17-5.52 7.68-5.31 21.59-12.85 27-4.09 17.32-19.88 34.87-19.56 54.39-11.35 19.37-27.45 40.59-31.56 64.29-10.12 14.11-24.88 28.88-25.54 49.45a6 6 0 0 1-5.62 6c-7.31 4.05-9.85 16.91-13.21 25.39-20.85 23.67-32.74 54.34-49.15 81.67-16.79 24.34-24.1 49.3-42.79 70.11-2.3 3.177-4.076 6.602-5.763 10.041h210.137c14.864-35.059 15.553-38.43-38.635-41.591-10.74-8.87-76.88-19.88-67.58-36.61 3.4-3.74 11.68-4.76 13.4-10a6 6 0 0 1 5.692-4.12c5.27-.08 12-.4 15-5.4 10.68-6.06 29.08-4.32 39-13.54 5.72 1.83 19.48 6.63 20.35-3.5-6.69-25.47-13.45-52.63-18-78.63 11.83-10.52 6.748-88.66 31.138-59.52 9.34 10.12 21.85 14.95 31.67 21.21 3.57 8.46 17.07 41.53 26.57 28.46-.35-4.43-.01-11.31 6.1-11.05 15.3-19.88 24.391-49.1 25.711-74.71-.41-7 8.39-3.77 9.8-9 3.52-20.73 17.1-37.56 15.52-59.88 6.17-7.929 10.908-17.328 15.229-27.181V794.285zm-377.486 651.14c-1.6.047-3.417 1.734-5.963 6.234-4.34 9.2-13.18 15.32-15.84 25.13.03 15.49 26.67 11.49 24.93 23.79-4.21 11.72 16.99 19.19 25.16 13.72 4.585-4.066 8.416 2.712 12.66 2.567h.013c13.71-.596 19.356-25.781 19.166-36.857-2.64-4.39-7.85-.36-11.85-.55-5.81-2.55-10.65-7.5-16.65-11.11-1.72-2.33-4.16-4.15-7.16-3.24-7.58-1.33-6.01-9.76-15.93-11.68-3.812-3.607-5.871-8.083-8.537-8.004zm-332.756 45.77c-1.156-.01-2.478.554-4.108 2.054-13.93 15.64-41.249-14.76-43.369 13.59-23.85 39.29 17.3 44.13 45.38 33.78a44.24 44.24 0 0 0 26.84 6.5c8.68-6.12 23.47-3.7 24.87-11.37-1.37-8.89 12.03-44.21-3.37-41.4-11.59 9.92-24.47-5.07-36.47 2.43-4.335-.398-6.307-5.56-9.773-5.585z"/><path style="fill:#913125;fill-opacity:1" d="M723.604 24.693c1.863 12.566 2.547 25.583 7.246 35.746-11.35 21.42-84.01 21-103.35 48.67 22.59 26.57 62.49 41.032 93.43 47.852 10.24 1.6 8.06-21.592 16.06-26.592 13.62-1.88 24.62 18.41 34.62 25.83 6.74 9.43 14.9 27.422 25.67 31.602 32.81-17.45 10.78-43.8 1.19-68.9-7.85-6.53-10.59-14.991-18-23.811-4.35-6.02 5.28-7.96 4.44-13.09-8.906-26.192-12.45-44.497-14.078-57.307h-47.228zM494.955 232.227c-3.98-.161-7.035 2.588-6.285 9.873-12.9 24.42-16.08 60-40.66 67.42-32.78-4.92-63.33-3.45-96.42 6.66-10.27 3.88 35.63 41.96 39.55 55.7 16.06 13.54 4.85 24.36-7.28 35.44-32.11 37.8-45.71 69.46-57 114.75-17.94 44.46 112.77-13.54 128.43-24.54 27.48-22.93 38.21 82.74 53.21 94 24.38-29.15 31.63-77.32 37.11-114.84.45-5.16.56-14.23 8.12-12.69 18.87 3.06 87.29 13.53 94-3.47-22.77-38.26-47.26-83.15-85-108.36-14.68-37.66-19.68-75.85-54.88-110.55-2.689-5.292-8.385-9.211-12.895-9.393zm426.072 357.89c-23.727.917-35.76 58.819-43.588 79.463-21.84-2.42-43.61-13.12-65.08-11.12-18.49-1.96 7.47 23.13-9 24.83-10.84 2.21-28.28-9.51-38.84-4.19 1.01 23.05 23.711 44.01 45.061 61.58 13.78 10.89-64.6 40.87-74.83 66-8.9 10.6-29.44 34.55-15.21 48.09 54.41 18.28 159.16-43.88 147.63-17.46-10.49 21.84-16.91 75.01-5.49 97.3 72.91-38.38 81.2-101.47 81.45-171.55-6.41-13.77 5.26-15.75.66-29-4.5-33.61 1.41-69.14-12.27-101.14-12.56-9.28 3.22-26.28-8.16-42.71a15.068 15.068 0 0 0-2.333-.093zm-111.46 733.285c-14.191.22-19.92 26.596-14.727 94.528-.92 18.7 15.32 37.19 4.18 48-30.08 5.02-71.67 12.46-89.75 39.53 35.79 24.39 83.62 25.11 121.62 37.77-1.71 11.034-8.54 22.322-13.224 34.547h58.76c11.43-15.56 22.81-32.228 19.885-53.226-.01-12.37 14.06-2.69 20.51-5 14.424.109 29.266-7.693 43.497-10.436v-58.035a358.592 358.592 0 0 1-4.888-.66c-21.09-2.71 3.5-33.79.91-47.61.654-7.259 2.444-15.851 3.978-24.72v-39.44c-1.542-4.168-3.897-7.884-7.347-10.94-30.88 14.7-44.761 51.73-66.131 73.33-34.24-44.536-61.19-77.886-77.274-77.638z"/><path style="fill:#322924;fill-opacity:1" d="M316.56 26.984c-9.617 3.785 2.97 61.444 5.91 68.157 6 18.18 11.45 36.148 23.28 51.638 1.16 1.52 6.26 4.811 1.87 8.121-6.2 4.7-12.93 8.7-19.19 13.33-2.16 1.6-2.46 1.66-3.9-.83-14-23.45-48.67-75.34-75.8-80.21-10.48 4.08-3.37 24.29-4.38 33.31.86 22.32-.84 44.88 6.42 66.61.32.95 1.49 3.59-1.9 3.13-41.11-3.09-105.49 14.43-134.51 44.73-2.44 2.56-6.85 5.77-2.48 9.69 34.83 28.84 77 51.62 122.89 54.69-8.79 8-16.13 16.93-19.56 27.71-6.48 20.38-11.67 41.18-17.07 61.88-.73 2.81-1.51 7.94 3.22 7.86 39.09-2.84 76.84-22.63 99.8-54.33 1.42-3.22 6.35-5.44 8-.86 14.32 26.6 28.49 53.3 53.28 72.34 1.25 1 10 .75 4.66 7.76-22.61 30.68-36.62 66.72-46.05 103.37-3.64 12.58.31 18.26 12.95 17.92a292.38 292.38 0 0 0 115.77-34.95c5-2.83 13.85-22.09 21.87-1.3 12.49 27.43 21.63 56.09 29.61 85.1.92 2.4 4.43 5.81 6.29 5.81 17.89-7.2 39.86-89.64 40.1-113 10.56 25.5 20 48.64 36.74 67.82-27.3 10-50.67 29-69.64 50.46-9.51 13.05-35.84 39.16-32.48 55.29.92 5.09 6 2.47 9.2 2.78 36 1 77.06-2.1 109.4-20.15a93.55 93.55 0 0 0-.83 36.57c2.12 12.75 1 25.63 3.61 38.56 3.74 18.52 13.45 34.7 17.54 52.9.89 4 3 11.73 9.3 7.26 34.35-32.15 63.36-72.86 76.72-118.5.88-3.35 1-8.54 8-4 7.64 5 14.56 11.31 23.84 14.08 5.71 1.7 13.25 5 15.39 9.68 11.59 25.29 24.29 49.28 49.49 63.91 1.27 1 5.11 4.38 2.75 5.5-38.92 17.81-76.46 45.42-94.41 85.29-3.31 7.55-5.37 21.5 2.51 24.09 49.75 15 102.35-1 147.75-21.47-12.87 26.34-13.27 55.12-11.45 83.74.11 6.43.21 14.86 4 18.81 8.65 9 15.9-.95 22.34-5.47 14.23-10 26.5-22.4 39.31-35.86-25.21 84.73-59.53 165.68-93.84 247-21.8 54-43.36 108-70 159.85-28.84 57.74-59.44 114.74-92.29 170.27-3.8 5.79-9.23-1.8-14.1-.67-.11 0-1.28-2.21-1-3 15.44-35.3 25.2-72.85 41.27-108 13.53-31 27.08-62.08 38.84-93.78 5-13.4 21.68-24.4 9.64-42.74-5.71-8.69-10.32-18.31-15.91-27.26-36.27-50.83 37.69-54.29 49-167.21 2.9-23.55 15.1-62.8 40.71-69.47 17.12-.63 25.29-17.6 10.33-28.67-8.37-5.75-4.85-8.41 1.11-13 22.15-13.86 11.43-38-12.87-38.29-21.52-.26-42.9-.2-64.42-3.41-30.83-5.48-60.8-13.8-90.7-22.77-31.94-7.24-62.52-16.5-95.05-17.74-8.57-.89-17.86 1.68-25.85-.66-9.36-2.74-18.47-1.28-27.29-1-38.5 1.89-76 14.32-114.09 19.09-26.81 1-83.69 13.58-103.94-3.35-27.68-23.56-41.51-53.13-37.25-89.84 1.18-10.17 3.52-20.53 13.75-26.31 42-23.84 91.4-28 137.39-40.53 14.34-2.78 30.11-3.12 38.54-17.35 58.56-87.63-61.7-44.19-107.7-87.46-36.78-34.78-63.14-14.52-73.59-37.85-26.68-47.37-1.23-86.26-26-100.4-3.56 3.81-2.41 11.86-8.13 13.05-1.78.49-5.15-3.51-7.28-5.94-16.4-19.65-30.49-41.18-40.27-64.92a10.26 10.26 0 0 0-9.49-6.76c-9.39 1.17-3.83 19.54-3.48 26a290.57 290.57 0 0 0 14.84 54c4 8.36 19.25 18.11 1.84 28.73-.68.42-.65 2.55-.46 3.8 7.63 31.54 39.72 49.93 55.35 76.9-12.72 9.13-21.88-15.23-30.67-21.81-13.43-14.48-23-30.5-28.66-48.13-4.23-12.2-5.41-25.88-6.28-39.36-10.4-3.84-15.86 9.33-21.38 15.64-14-25-29.71-49.19-36.72-77.31-.55-2.56-2-4.77-5.58-4.38-11.73 2.43-9.83 18.78-9 27.86 2.08 31.25 15 62 30.37 87.89-8.55 11.45-8.27 18.72 4.74 26.91a477.11 477.11 0 0 1 62.71 47.7c1.92 1.7 2.66 4.73 4 7.14-.75.06-1.92.46-2.2.13-7.68-9.17-19.64-12.27-28.27-20a6.69 6.69 0 0 0-8.55-.67c-9.32 5.91 5.5 32.28 9.2 40.3 2.3 4.22 4.62 8.84-.89 14.22a204 204 0 0 0-52.06 117.06c-5.23 49.2 11.19 97.33 7.78 146.32-6.07 38-9.41 77.15-.81 115.15 8.82 38.34 30.15 72.05 62.18 95.71 5.94 4.39 18.94 6.42 13.73 18.64-9 25.56-8.28 53.87-9.58 80.89.28 42.85 9.57 84.18 18.4 125.76 3.46 20.32.44 40.86.06 61.3-.21 11.74.41 24-2.71 35-3.27 11.6-4.08 23.1-5.46 34.78-.49 4.12.79 10.69-6 11.93-39.24 5.1-77.07 16.56-115.4 26-24.266 6.11-48.459 12.752-70.93 23.918v9.343c22.59-7.829 44.826-16.61 68.38-21.62 17-3.61 33.55-9.212 50.44-13.372 20.14-5 40.4-9.41 60.67-13.84 1.6-.35 6-1.83 5.24 1.58-1.86 8.51-4.2 17.14-7.87 25-11.73 25.1-11.33 27.32 5.48 34.82 10.89 4.86 21.49 6.891 33.3 4.561 6.05-1.2 11.82-6.28 18.5-2.55 19.16 10.73 49.64.46 57.92-19.38 1.52-3.64-1.59-6.61-.94-9.27 2.76-11.27 1.38-22.71 2.49-34 .37-3.69-2.93-10.13 3.1-10.74 24.11-2.41 48.29-4.14 72.47-5.61 13.34-1.71 182.79-10.23 169.63 6.46-5.66 9.89 1.81 12.82 7 16.89 6.12 4.75 17.14 4 16.53 16.1 2.15 11.73 17.13 12.74 26.56 14.16 18.42 4.39 32.93-3.9 40.34-21.77 2.66-6.41.05-23.62 17-13.69-13.455 26.383-29.666 51.302-44.99 76.693h10.283c1.462-2.122 3-4.107 5.017-5.043 1.935-.908 2.69 2.493 3.66 5.043h8.38a479.496 479.496 0 0 1-5.44-10.074 9.23 9.23 0 0 1 3.45-12.309c3.85-2.2 3.64 3.11 5.32 4.88 2.69 2.84 4.5 6.5 7.07 9.48 2.307 2.672 4.615 5.342 6.908 8.023h11.11c-3.69-4.65-7.45-9.23-11.128-13.773-5.17-5.92-15.63-11.16-12.64-20.17 3.48-10.47 10.92-19.63 18.26-32.1-3 10.76 2.92 16.38 6 22.09 8.235 14.728 16.805 29.242 25.039 43.953h10.173c-13.368-23.665-28.104-47.074-39.052-71.203 8.52-11.08 13.63-23.95 20-36.21 19.667 33.04 27.565 70.797 37.902 107.413h9.2c-4.9-17.275-9.81-34.203-15.151-52.963 10 8 23.219 6.34 28.289 18.3 5.057 11.92 11.36 23.249 17.496 34.663h9.89c-8.948-16.855-18.89-33.587-21.107-38.783 5.72 2.67 9.861 4.77 14.121 6.55 3.33 1.39 8.4.13 10 4 4.22 10.426 10.536 19.393 17.106 28.233h11.45c-8.495-10.224-18.561-20.737-17.696-26.771a185.2 185.2 0 0 1 37.39 7.398c7.77 2.76.27 8.76-.57 12.72-.477 2.252-1.15 4.46-1.914 6.653h10.496c3.015-6.816 6.668-13.382 11.127-19.633.7-1 .35-3 .06-4.37a4.06 4.06 0 0 0-4-3.65c-12.35-1.57-24.67-3.13-37-5.37-29.35-5.33-56.93-15-84.06-27 21.57-19.83 50.46-29.33 79-33.46 8.69-1 18.572-1.83 14.762-14.8a289.88 289.88 0 0 1-8.131-38.83c-4.29-28.45-1.52-56.69 2.42-84.9.12-.81 1.55-1.45 2.36-2.17 15.18 53.55 36.63 106.28 66.18 154 3.12 5.58 7.73 11.38-4.86 10.94-34.1 5.47-68.85 6.6-103.48 6.63-4.81.35-5.83 5.06-.3 5.17 34.81 3.64 69.9 3.29 104.25-3.91 1.34-.2 4.52-1.06 3.25 2.33-7.39 19.688-14.88 39.338-22.27 59.023h8.134c6.81-18.782 13.336-37.691 20.806-56.232.91-2.38 2.08-8.37 5.32-6.16 19.205 17.205 13.013 41.333.616 62.392h9.857c17.12-35.052-2.478-50.977 42.098 0h10.4c-8.933-10.351-17.843-20.724-26.912-30.982-11.36-11.77 10.262-11.341 17.682-12.442 2.858-.336 15.528-3.493 26.097-7.334v-8.406a249.43 249.43 0 0 1-44.968 10.442c-7.17 2-29-9.002-22.75-16.612 4.743-2.49 44.164-3.518 67.718-7.586v-7.642c-24.363 3.903-49.319 4.437-73.937 6.53 10.22-21.29 20.61-42.51 31.59-63.42 5.78-10.85 12.65-21.101 15.17-33.411 2.64-4.94-2.38-6.43-4.31-1.71a3625.934 3625.934 0 0 0-49.18 91.23c-26.9-50.23-54.591-102.18-68.301-157.78 20.15 10.33 53.43 51.86 65.59 72.37 2.56 4.75 3.46 12.43 10.67 12 5.79-.34 6.71-7.74 8.89-11.8a213.93 213.93 0 0 1 52.12-63.63c1.61-1.34 4.8-4.15 5.59-1.34 2.25 8 5.58 17 3.94 24.55-2.61 27.21-5.62 54.32-14.53 80.5-1.36 3.65-11.47 12 .47 14.53 5.306 1.144 10.78 1.865 16.228 2.805v-8.143c-.385-.168-.774-.331-1.148-.522-3.15-1.58-10.54-.32-9.17-4 3.536-11.894 7.345-24.749 10.318-37.902v-75.742c-1.084-4.068-3.05-7.034-9.578-4.006-31.85 17.79-48.22 45.24-66.2 78.65 1.59-9.69-6.17-13.23-3.47-19.51 9.85-22.86 20.46-45.42 29.7-68.52 12.06-30.91 20.81-63.11 31.48-94.52 6.364-15.396 11.846-31.583 18.068-47.31v-22.214c-9.228 18.143-16.834 37.021-24.498 56.514-6.46-44.54-2.37-88.6 1.61-132.82 2.28-17.31.67-34-2.67-50.67-8.53-42.82-15.1-85.12-7.42-128.8 9.48 17.3 13.05 35.32 19.66 52.19 17.677 40.478 9.342 84.71 13.318 126.932V961.154c-4.786-18.5-11.568-36.377-18.738-54.093-3-7.48-9.77-14.65-9.68-21.9.14-9.86 5.2-19.66 8-28.95a170.4 170.4 0 0 1 20.418 28.78v-17.298c-4.988-6.971-10.798-13.472-17.379-19.533-4.25-3.92 1.671-7.46.811-11.38 0-.18 3.45-1.9 4.14-1.38 4.16 3.161 8.478 6.118 12.428 9.543v-13.255c-.113-.122-.224-.246-.338-.368-4.06-4.35-14-2.5-13-12.33.68-6.6 1.33-13.2 2-20.27 3.973 3.233 7.696 6.302 11.338 9.25v-11.279c-11.422-10.7-13.106-14.948-11.218-43.271 3.856 4.382 7.487 8.497 11.218 12.723v-15.276c-10.59-18.506-16.977-39.975-10.607-58.187 3.838 6.6 6.839 14.636 10.607 22.08v-22.72c-16.653-34.573-25.161-63.384-21.279-111.21 2.22-22.23 6.141-44.84 5.291-67.16-.75-13.94-4.86-27.68-7.35-41.53-11.11-61.34-13.9-62.54 11.27-120.69 4.7-13.27 9.78-26.67 12-40.44.026-.137.043-.274.068-.41v-79.184c-7.347 14.729-4.202 31.607-5.468 47.635a274.37 274.37 0 0 1-15.12 70.398c-6.53 18.42-18.55 35.001-20.4 54.781-1.94 26.74 7.21 53.38 11.68 79.63 7.56 35.72 4 66.9-1 103.84-9.69-45.52-22-83.91-23-129-8.34-41.86-2.57-83.45 13.58-122.67 6-31.4 9.29-64.12 11.15-96.35.11-13.78 8.27-27 9.64-41.48 1.62-17.31 1.45-35.19 11.23-50.5 2.578 13.125 5.155 26.75 7.708 40.39v-66.2c-1.989-23.87-2.075-47.899 0-71.677V26.984H942.78c-.73.902-1.395 1.697-1.888 2.205C934 37.6 927 46 919.83 54.59c2.096-9.178 2.724-18.484 4.155-27.605h-8.16c-3.213 14.066-4.906 28.374-5.887 43.086-1.71 30-6.469 57.64-9.459 88.25-13.26-35.83-29.65-66.51-49.66-98.23-6.57-10.616-11.875-21.727-16.562-33.106H818.57c-1.227 27.598-11.654 53.766-18.33 82.555-9.831-29.067-17.75-54.968-25.191-82.555h-8.13c1.64 5.565 3.167 10.527 3.27 12.836 2.45 14.61 7.181 28.8 10.891 43.2-12.593-16.592-20.882-36.403-28.816-56.036h-9.073c2.334 5.316 4.467 10.124 4.748 12.586 4.92 15.44 14.16 28.68 21.24 43 4.89 9.89 10.12 19.91 18.41 27.88-26.91 3.63-53.409.84-80.349.63-13.63-.81-27-4.14-40.89-3.25-7.36-.68-10.56 6.24-2.31 7.28 18.12 1.94 36.2 4.48 54.36 5.75 23.94 1.22 44.18 1.54 68.84-.16-10.81 7.93-11.47 17.3-19 26.83-10.24-7.95-17.3-22.8-31.43-22.47-7.28-.19-5.26 10.67-10 14.63-4.32 3.62 2.27 15.18-8.25 12.94-31.66-7.57-62.31-21.7-87.06-43.27C661 88.73 697.09 81.78 730.73 71c2.78-.87 7.72-1 6-5.68-4.548-12.525-7.54-25.326-9.443-38.336h-9.201c.624 3.845 1.252 7.688 1.334 11.536.13 5.24.23 12.12 4.72 17.11.3.32 5.67 5.49-.06 7.27-33.08 10.1-68.2 17.32-96.51 38.43-4.62 3.43-9.28 7.59-.9 15 14.25 12.59 29.51 23.22 46.18 31.23 15.75 11.11 54.33 7.53 45.79 35.55-6.11 20-5 39.63-1.81 59.62.38 2.45-.94 2.18-2.73 1.64-23-6.92-44.71 9.95-65.82 12.33-22.92-6-47.95-9.21-68.94-20.32 32.64-15.45 69.42-32.92 86.78-67.25 1.67-3.32 5.5-10.42-1.26-13.83-10.92-5.51-21.47-11.33-33.43-15.3-39.16-15.52-74.44 11.63-70.33-1.62 4.146-38.789-5.48-81.322-30.899-111.396h-13.646c.351.375.75.82 1.215 1.356 31.55 31.83 37.8 79.49 34.19 122.37-.3 4.58 4.77 4.78 6.8 3.78 14.33-7.08 30-9.77 45.34-10.62 10.4-.58 21 5.93 31.8 8.07 7.9 1.58 14.63 5.6 20.9 9.6 4.93 3.15-1 8.57-3.17 11.38-21.32 27.62-51.52 45.66-83.72 57.69-8.89 3.05-16.15-3.89-23.81-7.09-13.63-5.69-26.9-12.24-42.59-19.47 19.85-4.2 119.24-11.54 117.17-29.79-.81-1.11-3.83-1.68-5.28-1.09-25.21 10.34-52 12.62-78.63 15.86-10.51 1.28-21.06 4.11-31.46 3.59-4.13-.21-.52-8.1.49-11.44 6.71-29.92 12.13-60.47 11.2-91.08.13-4.89 2-12.72-5.08-12.3-4.92.29-3.08 8.54-3.52 13.12-1.73 36.59-10.38 70-15.81 106.71-45.87-30-91.33-59.12-129.91-98.1-2.93-2.66-8.15-6.11-10.46-3.62-3.44 3.71 2.8 5.62 4.89 8.12 9.66 11.58 20.08 22.45 32 31.8-7.13 1.62-29.1 15.62-32.88 9.87-9.63-12.22-15.94-26.19-21.1-40.65-7.25-19.87-13-40.35-12.55-61.78C354.53 69.84 399.3 74.05 433.78 98c14 8.45 21.92 22.07 34.68 30.91 2.87-4.69 7.07-9 8.36-14.13a304.18 304.18 0 0 1 35.79-86.05c.364-.668.61-1.24.827-1.746h-11.406c-18.025 21.847-34.269 74.322-35.73 87.106C433.93 64.7 366.82 69 325.47 32.26c-2.737-3.084-4.93-4.744-6.672-5.276h-2.238zM954.9 29c-6 41.62-19.73 82-42.7 119.09 5.33-43.36-1.5-90.95 42.7-119.09zm-127.31 6.21c15.88 41.66-4.45 76.89-8.23 114.72-10.36-12.46-11.84-35.86-7.36-49.09 7.1-22.24 10.67-42.18 15.59-65.63zm14.94 33.71c.52.38 1.39.68 1.5 1.16 3.29 14 20.33 22.85 15 37.42.26 34.53-11.8 61-18.52 92.43-30.32-46.93.92-78.49.8-127.54a15.27 15.27 0 0 1 1.22-3.47zm106.79 14.22 2.4.11c5.67 82.19-15.91 43.94-19.57 114.29-1.19 13.64-7.07 25.92-10.12 39-3.24 48-7.86 94.46-24.31 140.55-20.2-62.09 4.68-116.67 12.69-177.51.58-22.33 1.35-42.43 17-60.06C940 122.8 941.82 102 949.32 83.14zM253.51 97.35a261.42 261.42 0 0 1 46.18 51c6.79 9.65 13.05 19.69 19.08 29.84 3.16 5.32 7.41 3.93 10.23 1.45 3.56-6.41 71.67-46.88 69.52-33.45 5.34 46.58-19.92 87.05-48.3 121.52-3.66 4.25-8.81-3.34-14.26-3.39-17.37-5.61-26.61-7.19-10.37-20.43 16.13-22.63 33.2-44.6 50.19-66.6 2.46-3.19-1.12-2.84-1.7-4-1-2.16-3.56-1.3-4.52.05-19.89 24-37.68 50.15-58 73.69-7.78-19.39-24.82-97.53-41.65-103.74-.15 2.51-1.27 5.51-.29 7.48 14.73 32.3 26.7 67.48 32.71 101.92-3.48 0-7.23.45-10.38-.68-15.49-5.57-31.8-7.42-47.71-11.07-39.5-7.13-75.44-9.41-116.3-5.4 16.06-12.05 31.53-18.93 47.91-24.72 24.24-6.77 49.18-14.37 74.43-13.21 4.14.34 8.48 3.36 11.88-.72 3.23-3.89-2-6.12-2.69-9.16-2.23-10.32-5.59-21-4.79-31.22.87-11.06-3.14-21.59-1.43-32.27a47.11 47.11 0 0 0-1.92-22.24c-.38-1.2 1.4-3.08 2.18-4.65zm611.18 5.6c6.87 17.49 15.31 29.52 19.21 43.77h-.04c3.45 25-8 48.3-12.85 72.38-2.71 11.76-4.49 23.74-6.82 36.37-5.87-13.55-13.27-26-16.37-39.44-.1-38.29 26.81-73.14 16.87-113.08zm-69.91 17.44c6.13 14.53 12.63 28.56 17.64 43.1.87 2.54-5.06 7-7 11-9.78 20-13.25 2.24-18.38-3.15-8.75-12.9-17.12-14-6.12-29.46l-.03-.04c3.84-7.11 8.76-13.64 13.89-21.45zm-56.82 11.43c44.45 38.45 65.49 80.07 79.34 135.31a3 3 0 0 1-.35 2.63c-9.93 9.12-18.94 19.81-30.28 26.62-7.31 4.38-6.12-6.89-7.16-10.34-9.35-32.08-18-64.55-22.3-97.77-.41-3.89-2.23-12-7.27-9.16-.38 3.83-1.1 7.77-.53 11.51 6.09 35.23 12.15 70.52 23.29 104.59-43.9-11.75-90.75-10.27-134.78-.08-2.36.42-3.54 2.65-2.84 5.05.78 2.71 3.17 3.58 5.59 2.85 42.73-9.9 88.79-8.86 131.08 2.15 2.49.7 3.41 2.4 2.08 3.92-14 16-28.87 31.3-41.71 48.17-21.19 27.31-41.23 55.59-55.07 87.32 2.88-30.65 6.85-60.8 17.14-89.83.08-8 19-31.32 4.56-31.84-36.61 1.71-74-.25-107.62-16.53 19.68-22.53 45.61-33.94 72.97-43.75 15.16-5.28 30.37-9.6 46.35-9.55 17.21 1.56 19.73-2.6 14.53-19.84-4.43-14.71 0-29.62 1.61-44.43 2.53-19.89 4.74-37.69 11.37-57zm-328.49 21.37c18.18 10.07 32.42 25.59 51.43 34.64 7.21 3.53 13.24 9.48 19.59 14.18-17.19 10.26-36.53 16-55 23.75-84.25 33.32-15.29 5.01-16.42-63.55v-.02c.1-3 .27-6 .4-9zM893 165.67c26 26.23-12.84 106.76-10.85 142.83-3.06-9-6.34-17.94-9.14-27-4.33-14.05.69-27.67 2.75-41.31 5.17-24.8 10.98-50.43 17.24-74.52zm-75.74 11.02c13.6 19.2 19.29 43.29 29.36 64.54.79 2.06.86 4.07-2.23 6.04-7.21 4.6-13.69 10.36-20.47 15.65-5.63-21.69-6.52-44.24-20-62.86-1.65-2.27-1.75-4.13.84-6.5 4.87-4.89 8.44-11.25 12.5-16.87zm-323.17 33.06c21.37 12.68 41.16 20.72 63.58 29.86 10 3.9 5.88 12.63 5.59 18.11-.83 15.89-4.08 31.67-6.56 47.46-.22 1.38-1.71 2.56-3.41 4.95-8.29-40.25-41.3-64.51-59.2-100.38zm-12.03 3.7C492.86 221 467 287.36 458.64 293c-.72-.69-1.58-1.8-1.49-2.67 1.34-14.02-2.52-28.45 3.37-42.16.46-1.09-1.46-4.56-2-4.49-3.75.44-8.12.52-11 2.55-24.66 15.6-52.68 24.53-82 21.26-1.46-.24-3.17 1-4.76 1.59 8.41-4.1 8.65-15.84 18.59-18.63 35.09-8.94 69.34-24.45 102.71-37zm13.12 22.22c3.39.17 6.85 5.13 9.69 8.47 23.92 26.47 41.09 57.87 48.13 92.94 4.54 15.32-10.35 15.62-17.3 21.45-8.37 6.86-18.82 11.34-28.19 17 1.13-26.35 6.23-52.31.07-78.93-1.92-9.67-.64-19.95-6.15-28.94-.88-1.43-1.43-3.68-3.37-2.31-1.39 1-2.93 3.5-2.61 4.93 7.11 34.37 7.55 70.12 3.48 104.84-.35 3.57-1.79.84-2.77.3-24.87-12.54-75-46.74-101.05-45.15 12.06 15.73 35.81 16.73 52.14 26.9 14.89 8 30.25 15.63 43.52 25.86 4.58 3.53-5.47 9.11-9 11.46-30.35 20.39-57.2 44.9-84.49 69-6.19 6.46-51.59 42.92-45.35 48.56 3.07 2.94 5-.35 7.21-2.31 45.47-39.81 88.22-83 139.35-115.68 2.46-1.75 2.17-.2 2.43 1.46 4.09 26.62 5.66 53.46 6.83 80.31.92 15-2.92 30.37 1.53 45.11 9 6.2 5.84-53.82 5.77-60 .55-23-.63-44.89-6.35-67.9 33.3 10.74 60.4 30.81 91.81 44.96 3.38.87 6.24 8.66 9.51 2.76 2.06-3.72-4.72-7.38-8-9.31-28.76-16.05-56.18-35.31-87.71-45.47 11.57-11.67 27.82-19.77 41.86-28.58 16-12.82 81.08 89.23 87.93 104.91a249 249 0 0 1-92.35-2.89c-8.5-1.99-8.97 6.35-9.66 12.5-2.35 20.93-4.27 41.87-11.92 61.84-8 17.56-9.43 38.49-21.67 53.77-10.06-33.88-19.65-67.94-38.45-98.15-4.83-8.18-11.89 1.78-16.81 4.71A282.25 282.25 0 0 1 393 521.44c-16.58 5.2-33.74 7.6-50.19 13-4.08 1.35-10.1 1.3-13.42-.87-2.9-1.91.75-7.06 1.42-10.81 9.41-41.19 27.67-81 56-112.73 6.22-6.53 13.74-12.9 17-20.84 2.91-7.1-5.25-13.61-9.29-19.6-12.86-17.42-24.22-36.32-41.72-49.63 107.57-33.11 93.32 41.21 139.45-75 1.33-3.26-.94-9.5 2.93-9.29zm-333.076 8.014c45.577.214 90.872 9.153 135.777 17.386 6.46 1.12 4.39 5.11 2.5 8.18-9.77 15.89-19.262 32-31.192 46.43-10.67 12.85-20.858 26.21-31.378 39.12-1 4.18-11.191 5.47-5.631 10.39 4.14 3.66 9.07-3.14 12.32-6.83 26.05-27.6 49.24-57.44 67.44-90.74 21.5 31.82 33.33 69.28 43.22 106.28 1.43 5.09 8.6 3.71 6.68-2.07-2.07-13.16-2.69-26.62-8.93-38.95 9.11 8.48 21.37 15.17 20.92 29.13-.47 14.49-3 28.99-5.15 43.33-.35 2.33-2.49-.43-3.13-1-24.18-22.78-39-52.86-55.65-81.12-2.66-4.7-5.07-.22-5.59.78-8.63 16.8-23.11 28.17-37.32 39.47a103.92 103.92 0 0 1-49.91 21.68c-6.62 3.7-12 4.9-7.9-5.58 9.73-24.93 11.25-53.37 31.67-73.83 8.36-8.53 4.28-14.16-7.08-14.72-40.63-4.56-74-25.2-108.71-45.41 10.892-1.238 21.77-1.835 32.631-1.92a351.34 351.34 0 0 1 4.413-.006zm414.84 4.011c5.693-.019 19.371 6.845 53.665 14.055 3.21-.63 2.672 1.85.362 3.17-18.05 8.93-33.3 21.5-47 36.12-12.65 12.39 21.24 15.51 13.75 21.84-10.61 5.37-21.132 10.94-31.862 16.07-5.06 2.42-6.84-.53-6.84-12.13-1.71-8.15 4.78-15.23 7-23.46 10.314-42.69 3.122-55.639 10.924-55.665zM852.22 253.2c2.94 8.64 5.55 15.192 9.1 24.602-6.57-5.54-13.571-7.64-19.471-11.32-7.81-4.87 2.71-5.361 3.54-8.631.5-2 4.44-3.13 6.83-4.65zm-403.9 3.06c-.38 15-1.002 30.06 2.548 45 .31 1.73.73 3.242-2.75 3.542-22.74 1.96-41.489-8.322-60.369-18.612v-.02c-5.41-2.95-11.15-5.308-18.16-8.608 29.67.55 54.76-6.821 78.73-21.301zm-120.544 14.802c13.81.278 51.484 36.986 25.412 41.298-2.295.48-4.966 1.1-4.46 5.028l-23.37-45.877c.683-.326 1.498-.468 2.418-.45zm503.694 1.152c6.554-.21 13.699 4.965 18.879 8.918 10.16 6.88 16.1 7.548 18.1 20.738 1 2.31-2.58 3.411-5.75 2.461-21.73-6.56-43.94-2-66.43-3.45 9.73-9.12 18.61-20.04 29.89-27.08 1.687-1.047 3.475-1.528 5.31-1.587zM363.199 284.65l42.14 18.12c-41-1.12-24.68 18.44-42.14-18.12zm492.82 28.194c13.945.252 21.057 7.013 22.032 21.676.73 4-6.102 2.25-8.432 2.36-12-2.43-13.75 3.19-13.76 14 0 18.3-1.08 36.48-6 54.68-3.5 13-10 24.11-15 36.14-1.63 3-3.12 3.95-5.67.63-21.88-19.84-33.3-47.33-42-74.88-1.53-4.44-4.229-4-6.689-1.93-31.16 25.13-57.49 52.08-91.08 74.67 25.11-44 52.65-80.13 85.08-117.35 9.64-11.28 14.24-9 22.66 4.8a226.34 226.34 0 0 1 22.09 47.07c3.63 7.94 3.79 26.08 12.54 29.37 3.44-.28 3.93-3.84 3.21-6.63-6.92-29.72-18-61.45-38-84.38 17.62 0 36.91.6 56.14-.19.991-.04 1.95-.053 2.88-.036zm-240.097 12.525c8.238.048 17.768 4.351 26.527 6.041 17.34 3.69 34.62 4.71 52 0-14.8 34.12-25.319 70.09-27.219 107.18a31.19 31.19 0 0 0 3.26 17.85c6 8.86 23.09-9.41 30.76-13.44-10.44 28.42-18.79 54.56-27 81.76-21.53-21.37-44.18-38.93-75.11-51.68 19.28.17 33.25.21 51.38-3.77 9.38-1.93 2.8-7.41 1.98-9.31-12.82-30.16-32.66-55.89-53.24-80.95-8.29-10.09-16.85-20.5-29.2-26.49-2.21-1.08-1.42-2.79.67-4 13.18-7.74 25.51-18.16 39.72-22.46 1.737-.527 3.57-.742 5.472-.73zm249.428 19.81c5.17.15 14.52-.38 14.84 1 3.91 17.24 6.49 34.79 9.77 54.41-8.83-8.44-15.29-15.92-24.35-20.23h.03c-1.82-10.24-.41-22.079-1.19-32.699 0-1.11-1-2.54.9-2.48zm94.968 21.016c-6.68 23.864-13.536 47.734-12.789 72.334 1.4 13 8.5 25.341 11 38.371.65 2.008 1.245 4.012 1.79 6.01v-27.56c-2.378-6.404-4.428-12.9-4.3-19.99.228-11.196 1.944-22.07 4.3-32.801v-36.364zM382.83 368.08c14.89 13.76 14.35 19.61-3.87 39 1.13-13.76 5.31-25.82 3.87-39zm397.19 9.766c1.326-.13 2.286 1.088 2.83 3.295 3.51 17.43 13.17 32 21.52 46.85-18 7.86-74.7 50.998-33.07 62.548-17.82 9.43-39.09 12.49-57.39 22-9.76 4.19-18.78 9.91-28.48 14a6.29 6.29 0 0 1-.29-2.398c10.17-28.68 17.18-59.16 29.05-87 6.69-12.3 20.25-18.832 29.63-29.352 9.61-10.77 22.15-18.92 33.43-28.18 1.046-1.125 1.974-1.686 2.77-1.763zm85.646 11.736c1.881-.19 4.447 1.434 8.033 5.838 4.73 3.72 7.68 9.71 12.41 13.43 6.11 4.82 4.19 11.62 6 17.46.37 1.34-.32 3.57-2.44 2.3h.03c-9.35-5.59-18.4-11.66-28.75-15.43-1.1-.4-1.65-2.36-1.86-2.68 1.438-8.093 1.77-20.432 6.577-20.918zM172.369 410.74c13.79 25 26.001 44.8 46.631 63.29 3.3 3 5.85 1.3 16.06-10.54-.61 12.06-.31 22.67-1.8 33.43-.92 23.94 7.46 50.82 23.25 69.17.39.42-.5 3-1 3.06-4.87.61-11.57 7.07-13.86 2.69-7.57-14.59-20.65-24.69-29.06-38.4-7-11.35-15.39-22-21.22-33.87-3-6.16 6-7 9.7-9.79 1.86-1.4 4.55.26 2.3-4.16-14.06-24.56-26.44-45.68-31-74.88zm-67.1 8.11c11.44 26.43 21.581 52.62 40.461 74.37 5.61 6.14 6.4-2.75 8.86-5 2.46-2.25 3.41-6 6.27-11.41.03 47.19 30.33 84.49 64.83 112.19 5.31 4 13-4 19.75-6.15 16.48-5.31 31.77-10.58 50-3 18.79 7.86 29.75 26.59 49.54 32 13.4 3.68 26.68 7.88 40.22 11 14.18 3.26 28.6 5.49 42.92 8.16.33.06.94 0 1 .13 1.87 9.79 3.8 19.59 5.06 29.46-17.41 4.48-40.58 1.56-58.28 8.75-1.38.45-5.2-.12-4 2.76 4.39 6.43 36-1.68 45.37-.9 3-.2 8.71-3.15 9.45 2.58.85 6.65-6.19 5.69-9.82 6.87a124.5 124.5 0 0 1-18.18 4.34 454.49 454.49 0 0 0-132 31c-69.6 32.25-23 179.15 61.9 161.54 80.43-9.39 161.07-25 242.16-24.24 61 6.42 118.19 32.8 179.06 39.49 18.83 1.47 37.77 2.26 56.68.29 5.73-.6 11.94 1.65 13.72 6.49 2.23 9.71-19.78 15.23-16.84 25.61.47 3 2.57 6.21 6.85 9.82 11.38 9.6 6.37 14.7-5.78 17.81-14.39 2.87-23.74 14-34.49 23.07-2.69-11.63-7.07-19.86-14.63-29-9-4.78-7.6 8.09-4.25 12.44 15.5 30.84 4.59 66-1.84 97.94-8.46 33-25.1 61.46-44.5 88.87-8.83 12.46-7.72 40.08 2.67 54.49 5.75 8 9.34 18.58 16 25.72 12.34 13.17-.45 20.53-4.56 30-30.71 68.66-61.87 136.9-84.23 208.76h-.02c-5 12.9-15.47 5.1-23.64 3-12-3.17-10.89-9.62-6.24-19.68 21.08-44.65 36.83-91.55 48.1-139.61 4.55-18.45 8.51-37.26 6.12-56.52-1.32-10.65-8.16-19.18-12.16-28.8-6.61-15.89-9.33-33-18.8-48.17-28.1-47.32-71.7-83.37-99.33-130.76-15.91-25.33.7-34.18-20-55.41-.69-.75-3-1.28-3.26-.93-1.11 1.49-2.89 4-2.36 5 7.65 14.38 5.05 30.75 9.16 45.87 4 14.55 11.49 26.84 21.34 37.83 11.74 13.11 2.66 15.65-7.65 18.09-26.13 6.17-51.08 16.57-78 20.37-32.54 4.48-65.23 6.74-97.91 9.63-2.89.24-6.07 3.91-5.8-4.52.68-21.75-1.91-43.48-3.26-65.17 1.75-7.39-6-5.18-6.24 1.11-.21 73.73-11.15 146.76-23.1 219.44-7.53 42.08-20.67 83.49-18.76 126.8a433.06 433.06 0 0 1-5.88 71.93c.35 4.78 4.45 12.43.29 13.77-10.9 3.49-23.19 5.87-33.29-2.11 4.35-21.91 7.73-49.09 7.95-72.62.48-18.32 5.34-36.59 5.06-55.22-3.7-61.39-21-121.11-25.29-182.41-2.74-38.86.47-77.88 6.07-116.33.36-2.86.88-7.68-1.89-7.94-9.34 0-10.39 32.54-12.95 40.38-1.1 6.58-1.24 13.32-2.16 19.94-.6 4.33-4.42.86-4.75.66-20.26-12.62-43.55-21.66-58.35-41.21-16.44-21.62-31.18-44.74-35-72.18-8.41-35.06 1.38-70 2.89-105.2.37-107.28-37-158.74 40.35-259.8 5.08 7.22 32 49.36 41 41.39 2.22-1.82.62-3.54-.42-4.68-20.32-22.18-39.46-48.75-47-77.61 18 8.53 34.12 22.26 51.38 32.68 2.79 1.86 5.52 3.82 9 2.87 8.37-6.66-19.35-20-23.8-24.13-4.64-3.82 13.42-2.21 3-12.76-20.26-21.88-40.37-43.61-68.88-55.47-8.5-3.54-15-10.32-1.77-17.74 4.8-2.68 3.86-6.53.88-10.25-20.61-25.77-32.83-56.56-34-89.78zm750.915 1.697c2.534-.025 8.788 2.48 12.566 4.892 6.39 4.09 12.72 8.7 19.73 11.32 7.38 2.78 3.18 9.49 6.25 13.41h.03c-3.12 1.75-5.92-.909-8.5-.849-16.75.95-33 .78-49.58 4.07 7.65-11 14.22-21 18.42-32.39.112-.308.499-.447 1.084-.453zm-47.17 15.777c4.423.162 5.891 6.266 9.595 8.156.67 3.72 10.271 7.92 8.631 8.95-12.74 7.53-32.69 3.78-41.91 17.18 1.88.68 4 2.28 5.6 1.9 16.36-3.76 32.43-8.78 49.24-10.48 17.83-1.81 35.63-4 53.62-3 6.7-.05 1.86 22.35 4.33 28.16.85 4.69-5.5 10.74-8.76 16.09-12.75 20.95-25.65 41.82-38.17 62.9-1.09 1.84.17 5.07.33 7.65 2-1.26 4.73-2 5.85-3.85 14.52-21.46 26-46.95 41.64-66.7 5.23 13 6.11 28.35 9.94 42.09 1.54 6.84-3.22 11.2-7.1 14.72h-.01c-6 6.42-67 61.69-68.71 41.57-.58-22.84-3.27-49.1 7.66-73.52 5.57-15 12.74-30.07 23.09-42.9 1.35-1.68 1.46-3.09.68-4.32-2.18-5.49-33.15 7.74-41.46 6.94-19.6 2.25-39.18-2.31-57.83-8.11-6.53-1.14-3.36-4.18-1.84-6.24 11.42-15.48 24.7-29 42.79-36.6 1.055-.442 1.975-.616 2.794-.586zM552.289 469.41c43.88 5.46 82.43 31.26 114.23 60.94 3.71 4.78 1.63 31.7-3.91 33.34-2.22.66-7.088-5.16-9.718-8.78-8.28-11.44-20.761-18.28-30.211-28.24-7.2-7.6-15.42-13.42-23.75-19.37-2.25-1.6-4.08-6.15-7-3.54-3.88 3.46.73 6.43 2.88 8.42 20 18.56 40.32 36.87 61.23 55.88-30.59 8.85-124.84 37.37-134.34 67.22 3.93 5.69 8-1 10.19-2.81 37.8-29 83.74-40.12 127.59-57.46-8.75 47.36-16.6 93.28-24.36 140.51-.46 4-1.81 9.87 3.39 11.17 6.36 1.6 5.82-6.2 6-8.55 6.15-44.95 16.63-89.14 23.08-134 1.9-8.17 7.32.91 9 1.87 30.24 17.54 60 36 86.05 59.55 2.65 2.38 6 2.3 7.56.78 2.41-2.31-1-4.13-2.53-5.71-26.41-29.47-61.28-47-94.4-67.06 30.73-21.52 69.48-31.34 101.63-51.07 5.38-1.38 2.19-6.13-2.42-3.78-31.47 14.52-64.25 26-95.13 41.72-3.79 1.79-2.43-2.67-2.14-3.6 3.31-10.59 6.66-20.94 18.65-25.6 10.69-4.15 20.78-9.85 31.43-14.12 28.74-11.21 58.31-23 89.78-20.1 18.37-.93-44.87 57.1-51.9 58.45-62.35 36.7 1.22 1.47 41.52 118.68 7.41 21.58-85.32-26.48-91.93-31.54-11.85-6.52-9.89 5.54-11.26 9.54-14.75 42.55-39.69 80.73-71.59 112.46-4.22-15.68-13.38-29.37-15.62-45.43-1.61-11.5-4.26-22.92-5-34.46-1.19-17.46-1.68-35-1.27-52.48.1-4 1-8.13-2.73-8.92-5.09-1.08-3.55 5.35-5.84 7.66-7 7-16.44 9.61-25.48 11.71-26.2 4.58-54.11 13.93-80.67 9.57-5.24-1.45.79-8.48 2.7-10.75 25.67-35.11 56.64-67.28 97.05-85.17 5.52-2.62.36-7.64-1.37-9.81-18.28-23.07-28.83-50.16-39.39-77.12zm298.092 18.97c-21.86 40.47-39.26 81.76-21.22 126 3.84 8.5 10.628-.71 14.618-2.11 27.11-8.94 47.001-29.72 66.541-49.63 7.46-5.33 5.03 20.79 1.68 22.95-54.11 54.37-26 92.1-53.65 74.23-16.85-2.74-33.27-7.89-50.79-6.21-1.82.17-4.9-5.87-6.32-9.46-8.74-22-21.07-41.48-39-57.18-3.91-3.42-7.89-6.76-11.84-10.14-2.79-2.39-.87-3.38 1.22-4.58 28.83-17.63 62.82-36.8 73.51-71 2.77-11.11 17.33-3.39 25.25-12.87zM919.71 592c10.18 20.72-.931 40.08-4.541 60.16-2 11.13-2.14 22.61-4.41 33.66-3.79 18.47-.3 37.29-3.52 55.76-.57 3.42 1.39 7.2 2.55 12.55-31.14-23.51-54.44-52.27-88-70.47-10.64-4.85-8.87-13.23-12.9-21.14 21.8-.5 42.4 3.82 62.16 11.35 23.07 10.94 4-41.33 48.66-81.87zm-619.342 22.39c-9.73 2.81-24.469 3.36-27.639 14.14-1.68 6.07 6.99 5.56 11.23 7.66 5.17 2.56 29.71-5.1 30.82-10.31 2.76-12.95-8.58-8.67-14.41-11.49zm627.98 20.98c.86.91 2.291 1.72 2.481 2.76a422.2 422.2 0 0 1 7.11 65.66c-1.231 39.13 14.902 41.323-17.36 50.78-7-20-1.48-42.18-1-63 2.58-18.6 3.73-38.32 8.77-56.2zm-754.095 27.886c-6.527.19-24.293 26.83-20.824 31.955 8.57 20.1 20.15-21.162 22.95-24.842.648-5.147-.299-7.166-2.126-7.113zm595.469 17.572c1.715.094 3.75 1.5 5.607 2.022 10.17 2.93 20.55 4 31.19 4.72 16.56 1.12 26.26 15 38.21 24.35C864 727.5 884 743 902.21 759.68c-31.84 14-148.65 48.67-158.77 76.69 1.91 3.13 5 1.49 7.48.23 36.87-21.34 76-37.3 116.06-51.55a2610.838 2610.838 0 0 1 39.79-14.82c1.72-.63 4.21-1.45 5.4-.69 2 1.27-.5 3-.73 4.53-1.42 32.76-10.25 65.28-21.38 96.15-1.81 7.16-11.23 17.68-8 24.51a7.32 7.32 0 0 0 7.68-4.07c16.52-36.54 31.93-75.87 30.79-116.52 23.27 15.27 20.17 18.86 15.39 41.95-2.57 52.12-30.84 87.91-74.24 114.52-.36-33-5.89-68.85 13-98.3a6.52 6.52 0 0 0-.83-7.45c-3-3.6-7.27-2.61-10.12-1.6-26 8.72-50.66 22.14-78.18 25.58-10.22 1.61-20.68 4.14-30.79 3.3-7.05-1.59-37.81 5.77-35.54-5.91 2.13-33.43 48.69-68.61 76.47-83.4 8.21-4.17 16-9.15 24-13.81 2.9-1.7 2.82-4.21.4-5.84-22.72-14.92-43.64-36.66-52.46-61.46.6-.706 1.313-.934 2.093-.892zm-587.58 11.62c-1.713.012-3.402.696-4.274 2.513-3.78 7.92-9.96 15.1-8.85 25.1-.29 4.01-.929 9.749 4.301 10.439 5 .66 4.84-5.11 6-8.92 2.11-6.9 4.89-13.6 7.18-20.45.86-2.6 1.92-6.13-.69-7.71-.988-.586-2.335-.982-3.667-.973zm-32.242 22.51c-2.145.157-3.293 2.572-3.78 4.05-2.04 9.84-13.73 29.99-.56 35.66 8.55-2.19 7.46-21.429 9.71-27.189-.49-5.7 1.21-10.26-3.72-12.23-.605-.244-1.154-.327-1.65-.291zm19.74 32.584c-2.34.094-5.22 1.706-6.16 3.826-3 8.59-6.97 29.702 4.54 33.092 5.75-3.25 3.12-24.54 4.55-31.63 1.215-3.956-.588-5.382-2.93-5.288zm767.227 11.748c4.968.244.28 5.425 2.502 7.469l-1.369 8c-5.85-5.74-18.37-12.26-2.26-15.45.422-.03.796-.035 1.127-.019zm-794.207 12.2c-4.517-.284-4.963 12.257-6.05 18.97 1.73 3.6 1.99 23.1 8.39 21.2 10.98-.6 3.61-27.04 3.71-34.92-2.584-3.636-4.544-5.156-6.05-5.25zm404.115 99.263c-11.446.16-21.82 2.465-30.586 6.246-11.4 6.54 8.46 16.07 15.68 14.2 9-3.11 34.72 1.81 37-7.51 1.79-5.35-1.319-9.93-5.869-11.76a96.052 96.052 0 0 0-16.225-1.176zm-66.312 5.848c-8.075-.005-17.768 1.49-21.233 1.878-5.38 1.63-29.84 6.87-26.84 14 3.93 3.73 8.87 4.98 17.67 4.33 9.94-4.43 37.24.09 42.62-16.25-.635-3.044-5.936-3.955-12.217-3.958zm118.533 2.117c-2.405-.002-4.8.073-7.176.22-7.36.74-4.86 7.391-6.63 11.391-1.19 2.82 2.08 3.96 3.67 4.26 16.26 2.96 32.96 3.24 49.26 8.86 4.91-1.92 4.77-8.05 8.43-11-13.44-9.888-30.716-13.718-47.554-13.731zm-199.324 13.414c-10.388-.167-24.37 6.077-32.022 7.127-5.5 1.35-13.79 1.35-12.79 11.35.58 5.72 3.06 7.79 8.65 6.87 14.63-3.78 29.25-7.64 43.9-11.31 3.95-.98 5.29-4.83 4.2-6.83-2.043-5.273-6.497-7.12-11.938-7.207zm274.996 4.289c-4.657-.057-8.07 1.368-9.098 5.248-.43 3.06 2.23 8.63 7.17 10.07 13.44 3.91 26.87 7.9 40.5 11 3.48.2 12.88-8.38 6-12-5.445-.63-30.6-14.147-44.572-14.318zm-148.475 6.217a40.96 40.96 0 0 0-1.476.006c-8.996.186-25.584 3.11-25.227 9.765.37 5.12 6.02 5 10.47 4.66 9.25-.7 18.68-.63 27.68-2.37 3.91-.7 11.68.06 11.03-6.76-1.48-8.35-12.39-4-19.24-5-.725-.178-1.846-.28-3.237-.301zm64.487 3.37c-.05.3-.16.61-.16.91-6.18-.08-15.17-1.349-17.37 6.231-.26.99 1.31 3.51 2.31 3.63 13.03 1.61 26.08 3.24 39.17 4 2.675.14 5.548-3.226 8.34-4.99-1.25-1.65-2.26-4.32-3.78-4.65-9.44-2.01-18.99-3.48-28.51-5.13zm-124.653.74c-11.303.065-28.982 6.026-34.097 7.882-9.31 3.19-8.1 11.928 1.6 10.408 10.89-2.1 21.96-3.599 32.56-6.719 3.24-.95 11.35 1.2 9.62-7.07-.724-3.344-4.545-4.532-9.683-4.502zM653.51 922.81c-2.39 1.67-13.91 5.119-4.32 8.289 10 3.09 20 6.35 30 9.57 4.91 1.58 7.46-1.54 10-4.86 4.51-6.6-29.48-12-35.68-13zm-150.881 9.798c-8.43.157-23.06 3.433-21.549 9.81 2.59 9.29 16.14 2.311 23 3.161 7-.21 16.5-.68 17-7.68.61-8.55-9.08-3.31-13.88-4.9-1.011-.296-2.626-.427-4.571-.39zm52.353 2.243c-4.125-.052-6.941.698-7.972 6.017-.96 7.25 25.48 4.53 31.35 6.25 2.64.21 5.34.051 5.64-3.119.85-9.09-17.2-7.28-20.28-9-3.314.202-6.262-.117-8.738-.148zm359.829 5.988c-.52 35.22 5.46 66.94 11.58 100.85 4 37.18-5.321 74.26-3.631 111.58-5.38 55.11 18.44 59.49-7.52 112.39h-.02c-1.35 3.19-1.57 6.84-2.6 11.65-3.36-33.07-12.26-63.7-14-95.55-2.37-43 2.47-85.51 7-128.1 2.09-23.8-1-46.33-5.42-69.32.39-14.89 9.49-28.24 14.61-43.5zm-295.374 4.375c-7.7-.286-16.234 11.133-3.437 10.746 5.86.28 28.76 8.22 27-2.72-1.69-4.33-18-6.682-22.82-7.962a7.326 7.326 0 0 0-.742-.064zM894.15 995.42c6.54 36.19.84 68.32-3 103.06-.89 34.13-4.59 68.18-.71 102.44 7.03 46.83 23.97 95.67-2.26 139.9h-.02c-2.35 4.39-3.91 9.21-7.15 17 2-50.22-9.06-95.36-16.36-144.18-3.81-27.18 3.3-53.25 4.61-79.86.67-13.51 2.19-27 2.81-40.49.8-17.77-5.43-36.18 4.61-53.87 7.42-13.09 11.36-28.16 17.47-44zm-30.92 81.83c3.76 37.36-8.44 76.55-9.24 114.61-.87 30.56 6.93 59.79 12.45 89.47 4.83 30.18 4.7 60.92 4.5 91.56h-.02c-26.24-25.46-25.05-64.8-32.72-98.34-1.72-23.72 4.42-48 1.15-71.88-2-11.27-8.93-19.74-12.85-29.83-3.8-9.8 2.52-16.78 5.44-24.59 10.16-23.57 20.68-48.18 31.29-71zm-312.636 23.934a3.26 3.26 0 0 1 2.265.867 14807.39 14807.39 0 0 1 49.352 58.75c19.67 23.47 29.11 51.81 39 80.1 14.74 35.9-2.502 73.65-11.352 108.93-11.13 33.85-23.46 67.31-35.83 100.57-3.26 7-9.87-.89-13.16-3.19-13.16-9.23 1.54-16.28 3.55-24 2.01-7.72 4.271-15.212 6.651-22.682l.02.022c11.39-32.83 17-67.4 21.45-101.75 1.18-8.86 1.37-18-.64-27.07 0-37.72-6.35-73.002-42.92-93.612-23.24-15.1-49.64-33.07-63.8-57.76 0-2 1.62-3.84 6.49-5.33 13-4 25.53-9.209 38.32-13.779a3.26 3.26 0 0 1 .604-.066zm-54.791 18.65a6.908 6.908 0 0 1 1.867.266c-1.77 10 6.81 15.6 11.65 22 10.46 14.06 24.36 24.85 38.27 35.47 14.57 11.12 32.26 18.6 42.37 35 7.77 12.57 8.68 27.12 9.81 41.27 3.33 38.59.54 77.43-10.62 114.64-4.5 26.25-11.46 52.16-27.43 74.08-4.61 6.35-5.72 16.41-13.65 16.66-28.75-3.22-54.48-6.37-80.38-6.22l.02.06c-55.06.81-110.9-1.4-164.78 11.31-2.57.83-2.86-1.6-2.49-3.16 5.7-24.47 4.62-49.36 4.6-74.17-.02-24.81 6-48.74 11.71-72.78 10.43-45.08 17-91 22.32-137 1.43-11.22 2.82-22.45 3.95-33.7.38-3.87 3.19-2.84 4.67-2.31 13.06 4.65 25.52-1 38.23-2 32.54-1.84 64.77-6.28 96.15-15.2 4.437-.594 9.308-4.26 13.733-4.216zm-286.614 2.89c2.244-.077 5.484.833 10.141 2.337 12.45 2.51 9.08 9.6 9.81 19.77-2.33 55.36 12.16 117 22.15 172.9 8.77 31.55 5.29 63.35-.4 95 1.57 23.73-4.13 47.86-6.21 71.74-.68 5.26-7.39 5.099-10.62 5.619v.02c-11 1.74-22.3 3.85-33.28-1-2-.9-1.64-1.26-.76-2.66 9.69-15.4 10-33.32 12.78-50.41 2.93-18.09 4.37-36.46 5.73-54.76 4.61-51.84-14.47-101.45-18.14-152.9-1-12.67-1.92-25.72-2.38-38.23-.7-18.9 5.75-38 6.32-57 .15-7.425 1.12-10.296 4.86-10.425zm610.452 58.626c11.23 10.63 10.11 25.33 12.77 38.57 1 5.11-2.241 10.94-2.571 16.5-4 34 3.36 67.27 10.21 100.29-6.76-5.36-13.97-10.71-20.74-16.52h-.02c-5.11-4.4-2.35-10.93-2.61-16.25-.83-17.44 2.09-34.94.64-52.44-4.56-39.6-19.6-28.65 2.32-70.15zm-19.192 37.35c9.61 23.7 10.162 43.48 7.182 63.82h-.022c-1.66 9.25.42 20.77-1 29.72-17.85 6.68-10.26 24.24-15.66 36.16-3.51 7.75-.868 16.24-3.728 24.26-3.1-35.17-1.941-70.18-3.541-105.45-1-12.06 9-22.72 13.56-34.24 1.28-3.24 4.51-5.67 3.21-14.27zm-23.318 60.41c-7.37 63.19 6.92 123.45 22.51 183.27h-.032c-12.19 5.18-12.64-4.11-14.67-12.75-4.05-17.17-11.199-33.25-17.869-49.56-10.61-23.69-19.86-51.83-12.19-77.83 7.74-14.52 14.31-28.6 22.25-43.13zm-32.81 64.02c-1.28 31 13.85 58 24 86.12 3.46 10.57 6.9 21.39 8.15 32.34.79 6.58-7.68 5.32-12.08 7.18h-.032c-4 1.7-8.66 2.08-12.41 2.91-8.07-28.77-20.4-55.94-25.09-85.6-1.68-17.63 10.901-28.78 17.461-42.95zm-26.882 49.858c.66.009 1.34.706 1.57 2.461 6.66 21.07 12.3 42.59 18.53 63.82.88 5.48 8.32 17.55-.25 19.26h-.03c-3.07-.12-6.688 4.3-9.698-1.61-9-17.65-13.782-36.49-19.112-55.41-3.38-12 6.36-17.619 7.56-26.849.136-1 .772-1.68 1.43-1.672zm-16.968 30.362c1.39 22.81 12.78 41.18 18.93 61.22 1.87 5.99-9.191 5.79-12.401 10.76-7.63-14.7-9.4-32.13-21.4-44.64-1.8-4.81 11.69-20.45 14.87-27.34zm-130.051 25.94a9.14 9.14 0 0 0 6.16 7.83c14.19 4.88 7.85 10.89 3.65 20.22-6.82 15.06-14.9 13.2-24.5 5.19l.02.02c-10-8.37 2.91-12.19 5-18 2-5.39 6.2-10 9.67-15.26zm25.92 19.6c2.43 2.09 4.22 5.73 8.52 6.68 5.66 1.26 5.9 5.28 3.91 9.73-3.69 8.28-6.3 17.48-11.77 24.44-4.6 5.87-12.08.53-17.69-1.54-3.64-1.35-4-5-1.08-9.31 6.59-9.57 12.1-19.89 18.11-30zm30 12.95c1.32 2.56-.09 4.44-1.09 6.8h-.02c-2.49 5.92-5 12-6 18.3-.89 5.44-5.56 3.73-7.17 5.82-3.31.49-3.67-.77-3-2.81 2.79-8.08 5.45-16.2 8.43-24.21 1.5-4 6.09-2.13 8.85-3.9zm-388.59 13.32c.52.8 1 1.61 1 1.61-3.01 13.84-5.54 26.68-8.75 39.34h-.04a7 7 0 0 1-9.15 4.65c-4.88-1.64.16-4.23.51-6a325.36 325.36 0 0 1 8.35-33.89c.78-2.5 5.29-3.84 8.08-5.71zm48.13 2.27c.99 13.28-2.16 26.15-3.17 37.73v.02c-.23 1.51-4.51 3-7.08 3.33-1.05.15-1.09-2.59-.77-4.56 1.65-10.16 3.07-20.38 4.11-30.63.47-4.66 5-3.46 6.91-5.89zm-87.058.474c1.788.076 4.094.962 7.008 2.737 3.62 2.21 9.72.369 14.49.369-3.25 11-6.31 21.3-9.36 31.63-.8 2.68 1.88 7.05-1.44 7.97a19.57 19.57 0 0 1-17.23-3.26c-15.39-11 1.12-20.3 1.29-30.42.088-5.525 1.381-8.714 4.508-9.008a5.39 5.39 0 0 1 .734-.018zm56.196.137c.185-.009.373-.007.566.004 4.507.258 10.923 5.681 14.266 3.176.35.78 1.21 1.778.97 2.318v.022c-5.28 11.77-4.31 24.52-6.15 36.83-.8 5.33-6.41 1-8.66 2.57-29.5 1.38-5.22-19.55-5.4-34-.282-8.299 1.627-10.787 4.408-10.92z"/></g><g data-name="Red Japanese Frames"><path d="M0 20v1560a20 20 0 0 0 20 20h936a20 20 0 0 0 20-20V20a20 20 0 0 0-20-20H20A20 20 0 0 0 0 20zm924 1528H52V52h872z" style="fill:#000;fill-opacity:1"/><path d="m952.1 15.41-23.41 23.42a4 4 0 0 1-2.83 1.17H50.14a4 4 0 0 1-2.83-1.17L23.9 15.41A2 2 0 0 1 25.31 12h925.38a2 2 0 0 1 1.41 3.41zM40 1549.86V50.14a4 4 0 0 0-1.17-2.83L15.41 23.9A2 2 0 0 0 12 25.31v1549.38a2 2 0 0 0 3.41 1.41l23.42-23.41a4 4 0 0 0 1.17-2.83zM936 50.14v1499.72a4 4 0 0 0 1.17 2.83l23.42 23.41a2 2 0 0 0 3.41-1.41V25.31a2 2 0 0 0-3.41-1.41l-23.42 23.41a4 4 0 0 0-1.17 2.83zM925.86 1560H50.14a4 4 0 0 0-2.83 1.17l-20 20a4 4 0 0 0 2.83 6.83h920.55a2 2 0 0 0 1.41-3.41l-23.41-23.42a4 4 0 0 0-2.83-1.17z" style="fill:#000;fill-opacity:1"/></g></svg>