<svg xmlns="http://www.w3.org/2000/svg" width="976" height="1600" viewBox="0 0 258.233 423.333"><defs><clipPath id="a"><path d="M960 22v1556a6 6 0 0 1-6 6H22a6 6 0 0 1-6-6V22a6 6 0 0 1 6-6h932a6 6 0 0 1 6 6z" style="fill:none"/></clipPath></defs><g transform="translate(-496.812 227.542)"><path d="M960 22v1556a6 6 0 0 1-6 6H22a6 6 0 0 1-6-6V22a6 6 0 0 1 6-6h932a6 6 0 0 1 6 6z" style="fill:#f4f3ef" transform="translate(496.812 -227.542) scale(.26458)" data-name="Paper Backing"/><rect style="fill:#fef2c8;fill-opacity:1;stroke-width:4.36544;stroke-linejoin:round;paint-order:markers fill stroke" width="258.233" height="423.333" x="496.812" y="-227.542" rx="6.615" ry="6.615"/><rect style="fill:#fffbf7;fill-opacity:1;stroke-width:2.50196;stroke-linejoin:round;paint-order:markers fill stroke" width="113.769" height="24.985" x="639.843" y="-193.895" rx="13.229" ry="13.229"/><rect style="fill:#fffbf7;fill-opacity:1;stroke-width:2.50196;stroke-linejoin:round;paint-order:markers fill stroke" width="113.769" height="24.985" x="501.664" y="116.944" rx="13.229" ry="13.229"/><rect style="fill:#fffbf7;fill-opacity:1;stroke-width:2.53452;stroke-linejoin:round;paint-order:markers fill stroke" width="140.28" height="20.794" x="556.202" y="-84.847" rx="13.229" ry="13.229"/><rect style="fill:#fffbf7;fill-opacity:1;stroke-width:2.50196;stroke-linejoin:round;paint-order:markers fill stroke" width="113.769" height="24.985" x="518.043" y="-19.968" rx="13.229" ry="13.229"/><g clip-path="url(#a)" transform="translate(496.812 -227.542) scale(.26458)" data-name="Wikipedia Cropped"><path d="M204.19 1367c-27.79-8.44-16.47-59.57-8.4-79.14 26.21-4.3 54.66 77 8.4 79.14zm-84.89-126.08c-24.39-1.74-76.78-39.24-41.79-52.58 14.2-.93 73.77 51.04 41.79 52.58zm154.51-23.65c-4.24-.18-8.9.23-12.85-1l.48.18c-13.3-15.61 31.12-41.32 47.9-41.33 67.54 16.3-2.05 47.67-35.53 42.15zm-157.62-79.9c-20.45-.27-79-47-51.22-65.26 18.78 6.99 73.2 51.77 51.22 65.26zm139-14.61c-41.55-6.48 46.27-70.14 60.32-27 3.02 29.84-41.43 23.32-60.35 27zm-30.65-87.43c-13.91-.51-14.5-11-1.85-19 62.19-77.74 108.18 25.95 1.82 19zm-109.72-13.09c-15 2.27-75.93-32.13-45.39-44.41 18.57-.99 57.8 33.84 45.36 44.41zm614.56-32.88c-43.8.19-10.51-74.17 7.2-85.6 26.27 12.81 29.42 81.12-7.23 85.6zm-520.96-58.18C180 921.1 238 889.6 253.53 894.68c17.3-2.33 27.28 23.44 4.68 29.33-16.9 7.53-32.68 6.99-49.79 7.17zM115.4 915c-20.88-2.07-77-35-51.24-53.16 16.54-.99 71.46 37.75 51.24 53.16zm547.25-70c-22.31 7.18-83.48-31.88-41.52-44.84 17.04-1.94 85.34 41.84 41.52 44.84zm-424.41-31.59c-7.75-5.13-20.19 1.87-24.92-7 5.14-12 35.11-38.56 48.94-32.72 10.24 37.42 13.26 32.76-24.02 39.72zm583.32-2.1c-10.9-2.34-56.82-2-34.54-20.21 11.9-10.42 27.64-21.75 45.83-19.09 42.57 10.77 25.4 42.22-11.29 39.3zm-699.09-18.37c-36.37 7.68-106.22-74.58-37.73-58 7.26.78 59.64 51.59 37.73 58zm542.69-37.46c-21.58-4.32-71.89-16.24-59-48.23 17.29-20.25 92.2 38.75 59 48.23zm141.44-46.76c-85.62-1.08 8-65.63 34.09-30.52 12.79 21.44-18.16 30.26-34.09 30.52zm-682.41-31.27c-27.6-3.74-83.6-47.37-41-61.77 20.16-2.77 65.92 45.32 41 61.77zM653.27 653c-21.41.71-86.66-50.66-40.07-57.77 21.06 1.29 67.8 44.96 40.07 57.77zm118.67-39.48c-53.47 2.44 17.76-45.55 34.69-42 38.92 11.06-11.79 48.64-34.69 42zM148.31 541.8c-25.23-.38-69.41-55.64-26.42-59.93 14.88 11.3 44.3 46.13 26.42 59.93zm492-6.49c-20.81-5.43-42.84-9.27-55.8-30.4-7.58-11.1 5.35-29.32 18.58-22.24 12.44 4.99 62.91 46.98 37.2 52.64zM740 521.16c-43 3.49 45.44-79.79 61.86-39.45.24 30.41-37.16 38.68-61.86 39.45z" style="fill:#9577c1;fill-opacity:1"/><path d="M849.76 462.79c-31.86-14.51-54.36-57.29-33.24-87.31 1.87-4.68-7.48-12.08 1.35-13.54 31.91 10.26 54.89 77.81 31.89 100.85zM73 454.23c-34-15-7-66.89 7-84.8 6.67-4.95 9.37 2.74 18.2-5.26 19.66 27.92-3.04 68.38-25.2 90.06zm466.7-17.37c-23.85-11.73-35.24-41.88-38.08-66.4 1.16-4.67 8.35-2.16 9.23-7.43a4 4 0 0 1 6.3-2c22.09 16.33 49.38 59.97 22.55 75.83zm211.12-7.77c-7.66-.69-.22-9.69-5.71-12.79-15.79-21.71-3.9-72.88 28.27-64.93 22.13 9.75-1.9 67.91-22.56 77.72zM178.3 376.63c-12-8.1-9.17 0-17.36-3.12-19.1-21.08-33.08-61.33-7.61-73.71 19.77 2.38 38.4 64.55 24.97 76.83zm475.15-16.12c-39.93-5.77-3.48-85.11 23.12-100.38 36.83 12.11 7.77 87.46-23.12 100.38zM575 349.68c-18.36.25-43.56-11.65-53.68-28.74 3.74-9 5.17.48 12.54-14.25 21.1-8.15 38.93 6.7 55.08 19.29 2.75 1.36 2.59 4.87.79 7-.98 14.86 8.17 15.28-14.73 16.7zm299.78-1.51c-15.53-.2-39.14-9-48.32-28.44 2.61-8.29-10.9-7.37-10.78-14.51 24.56-31.52 131.21 35.44 59.1 42.95zm-293-69.35c-14.28-21.27-2.24-62.87 20.62-83.41 13.06 4.73 9.89-8.82 18.33-11.32 18.27 36.02-6.37 82.42-38.99 94.73zm257.81-6.68a75.14 75.14 0 0 1-22.82-3.51c-12.8-6.05-39-12-45.44-28 2.44-4-1.87-6.49-2.72-9.85 3-8.6 16.9-6.45 26.06-7.66 36.39-5.88 107.69 43.31 44.88 49.02zM346 267.27c-25-27 18.73-117.74 39.32-73.76 1 22.32-5.35 54.81-25.08 65.2-9.12-4.79-8.24 6.99-14.24 8.56zm-105.59-2.61c-25.57-5-51-54.86-23.09-67.09 22.68 2.49 56.34 61.74 23.11 67.09zM66 245.52c-51.29-10.33 15.63-51.26 37.71-46.9 16.15 1.54 29.56-.89 23.79 19.36-12.63 16.23-42.56 27.54-61.5 27.54zm459.31-9.24c-22.16-.83-43.52-15.4-50.91-33.87-4.53-1.94-5.59-10 .86-11.2 23.44-14.32 107.15 37.69 50 45.07zm-213.58-65.85c-28.74-4-50.88-60.52-25.46-77.84 27.56 11.11 55.6 73.89 25.46 77.84zm478.92-3.7c-14.84.38-70.67-13.44-67.27-30.81 36.68-46.37 166.79 19.98 67.27 30.81zM504.7 138.46c-28.95-1.18-47.16-11.68-67.55-26.48-10.12-39.88 64-13.06 76.27 8.66-1.02 8.49 5.86 19.84-8.72 17.82zm-355.86-16.68c-72.74-2.69-22.56-48.7 11.71-46.78 10.66.9 30.34 2.6 34.21 14.15-3.34 4-.75 7.33 0 11.42-7.18 16.36-29.76 20.18-45.92 21.21zm528.95-18.29c-12.75-1.63-30.21-.62-36-13.2-4.35-2.63-18.41 3.62-12.71-6.83 34.83-31.24 68.75-33.53 107.68-10.56 4.75 3-1.52 7.91 1.37 11.85-9.54 19.25-41.42 16.36-60.34 18.74z" style="fill:#677f5b;fill-opacity:1"/><path d="M509.88 1289.67c-33.21-4.7-43-52.63-65.94-74.41-40.3-64.8-78.38-131.79-103.75-203.6C259.08 811.79 227.51 598.75 210.77 385c1.91-15.62-14.61-61.42 1.15-66 71.92 5.55 144.28 4.09 216.49 8.06 10.18 2.12 37.21-4 33.18 12.79-2 45.31 4.87 84 5.41 127.62 3.18 83.72 19.44 165.22 35.32 247.41 32.07 195.93 121.2 375.18 230.58 539.24 17.24 25-40.57 12.76-51.87 17.65-57.43 4.47-113.16 10.85-171.16 17.83z" style="fill:#bb2f3a;fill-opacity:1"/><path style="fill:#485f47;fill-opacity:1" d="M306.457 30.305c-.274.24-.555.472-.826.715-14.44 12.89-29.21 25.35-42.33 39.7-3.87 4.23-6.61 10.81-13.16 11.64-10.34 1.32-20.83 1.3-31.15 2.72-6.51.9-12.58 2.58-18.58-1.76-26.62-20.76-65-17.89-88 6.88-10.18 10.21-12.25 25.85-4.36 28.49 13.69 4.58 27.318 9.27 42.318 8.7 49.47-1.37 39.82-29.27 60.74-32.43 10.55-.21 21.072-2.34 32.272-3.72-19.56 22.56-36.27 45.9-53 70.4-8.55 12.4-11.82 30.26-29.82 34.09-29.85 11.57-27.22-.59-53.59-1.83-26.59-.43-70.89 15.49-67.59 48.22 1.32 5.82 11.808 6.28 19.068 7 17.97 1.93 48.24-2.23 61.9-14.47 17.73-22.8 10.98-25.01 43.34-30.32-4.87 8-9.229 14.28-12.689 21a901.27 901.27 0 0 0-50.21 107.46c-2.86 7.77-4.34 17.97-10.06 22.34-11.06 8.47-20.24 17.54-27.15 29.66-37.15 65.44 11.61 116.71 43.91 23.44 10.8-29.08-8.81-40.25-3.2-55.08 11.17-24.5 20.18-49.97 30.81-74.71 2.1-5.04 4.95-6.28 5.51-3.77-1.63 9.58 5.31 17.96-1.13 28.4-7.02 10.72-5.75 24.29-2.67 37.17 4.8 20.02 12.79 37.68 31.49 48.53 7.79 4.51 15.4-.42 17-9.29 3.98-25.93.53-56.19-17.36-76.32-4.51-4.87-13.6-6.47-16.42-11.77-20.26-40.11 22.72-78 40.23-111 13.98 10.56 5.6 28.89 8.6 43.73 3.95 17.92 19.45 40.55 37.66 45.44 7.95 2.1 18.86 5.36 20.86-8 4.07-26.68-14.71-70.02-49.71-72.68-1.53-.11-3.4-1.95-5.12-4.51-10.11-14.62-3.02-18.87 4.2-30.12a528.3 528.3 0 0 1 54.38-68.29c7.43-7.93 8.87-.63 9.87 3.25 1.31 5.18 1.67 11.37.16 16.37-6.74 22.47 5.15 50.01 23.46 62.36 15.45 10.41 29.44 6.96 32.31-9.16 2.43-30-13.95-66-45.47-74-4.95-1.21-4.54-7.67-7.63-11.06-.42-.45 1.27-3.51 2.58-4.72a80104.55 80104.55 0 0 0 42.032-38.695h-13.475zm37.338 0c11.662 25.5 22.463 51.337 31.885 77.785 4.64 12.62 18.64 23.85 9 39.2-5.09 8.11-4.18 19.7-13.82 24.89-31.87 17.79-42.98 54.36-37.58 88.73 6.39 36.27 47.38-7.6 50.83-25.6 18.31-50.46-4.67-45.16.82-65.75 3.4-6.76 5.81-14.02 9-21.9 24.35 59.88 55.56 114.9 84 172.5 7.31 16.63 25.31 29.21 19.31 51.44-2.98 11.01 3.39 21.25 7.63 31.34 7.82 18.57 17.79 35.1 38.55 41.57 3.28 1.07 6.9 1.62 9.47-1.93 13.16-21.2-6.28-65.23-23.84-80.42-5.83-5.35-15.53-3.45-19.53-9.76-8.7-13.84-15.92-28.58-23.92-43.16 10.88.12 23.52 7.79 29.64 14.74 18.28 20.8 43.99 37.77 74.6 29 10.04-2.87 14.52-13.48 9.26-22.48-11.3-15.8-31.51-32.07-51.42-32.8-16.58-.37-32.2 12.9-49.9 3.36-6.15-3.27-16.02-2.39-19.71-7-21.09-30.62-36.47-65.99-50.87-100.2 4.3-1.56 8 1.88 12 3.22 7.91 3.19 17.99 4.24 23.41 9.83 21.74 22.42 44.41 41.25 78.31 31.67 4.79-1.39 14.55-4.21 12.37-13-6.19-26.09-58.01-54.44-82.67-38.44-4.92 2.74-7.3 9.87-15.3 5.47-5.23-2.87-12.28-2.73-17.14-6-5.73-3.66-13.63 2.48-17.25-5.86-12.3-30.11-31.15-59.21-39.24-90.49 14.38 7.16 35.9 7.57 45.47 21.91 5.09 8.14 14.6 12.56 23.18 16.71 20.35 10.79 47.53 22.73 70.41 10.89 17.36-21.24-33.84-51.01-52-52.24-13.71-2.45-28.93-4.56-42.34 3.55-2.73 1.66-4.46 1.66-7.46.66-12.42-3-24.15-8.68-36.68-10.19-2.84-.25-5.5-1.12-7.1-5-6.31-15.28-13.18-30.33-20.18-45.33-.143-.306-.297-.61-.445-.915h-10.75zm161.316 0c29.005 36.417 66.366 65.058 100.328 96.935 7.74 7.43 24.92 11.84 18.15 27.23-6.27 7.53-4.8 20.48-12.4 26.36C581 200.28 563.45 240.88 571 276c15 30.82 49.26-17.5 55.14-34.33 21.36-56.61-15.6-45.55 6.79-90.19 19.55 24.1 47.83 44.15 65.37 69-8.53 13.82-8.65 30.71-27.41 38.24-23.81 10.71-46.33 59.79-40.14 85.87 2.09 12.51 10.34 21.92 14.4 33 11.04 32.46 20.26 65.51 29.76 98.46 4.97 22.52 15.48 44.87 13.6 68.2-10.79-5.6-28.2-9.23-34.4-18.23-12.41-21.58-27.41-38.96-50.41-49.22-20.47-8.86-34.96 16.53-23.47 32.74 13.86 18.71 39.03 30.33 61.86 29.22 5.71-.84 10.6-4.2 16.29.38a83.86 83.86 0 0 0 21.579 12.4c4.69 1.88 11.15 4.51 12.58 8.37a171.21 171.21 0 0 1 8.262 33.68c1.81 24.21 10.248 47.8 10.068 72-12.17-10.08-33.359-9.5-41.459-23.45-9.61-20.45-20.06-39.3-42.18-48.45-9.93-4.16-20.3-8.83-30.25-1.16-8.21 6.32-6.69 16.23-3.47 23.83 9.64 22.73 30.01 32.16 52.13 38.73 10.31 3.07 21.78-4.05 31.91 5.5 5.86 5.53 16.11 6.2 22.74 11.2 4.89 3.71 13.45 4.95 14.38 11.71 3.34 24.22 5.54 48.65 8.34 73 1.89 15.1-6.11 7.68-15 4.34-9.16-7.79-24.09-6.05-30.16-19.39-9.86-21.62-27.08-35.77-49.66-42.1-57.56-11.84-33.281 61.37 42.769 59.87 3.51-.06 5.412-4.82 10.512-1.29 8.03 5.55 17.439 9.22 26.529 13.07 10.69 4.56 20.15 9 17.25 23.86.55 20.06 3.37 41.04 3.69 61.37.13 2.46-.51 3.52-3.11 1.89-17.92-11.18-41.62-12.45-52.92-35.38-9.97-21.18-75.81-47.52-71.81-5.52 1.28 7.59 7.93 11.49 13.37 16.43 12.69 11.55 27.24 16.45 44 15.38 22.2-6.62 34.04 2.98 53.2 12.23 9.64 4.56 21.88 6.57 17.76 22.79-1.13 4.44 3.38 10.48.29 15.53-13.69 22.39-27.94 44.54-27.69 72.28-.36 23.68 32.13 31.58 46.57 16.35 18.52-20.39 14.28-53.46 4.74-74.73-3.29-7.33-12.15-10.87-12.2-20.07-.07-16.05-.45-32.12-.74-48.12-.15-8.7-9.32-21.22 5.12-27.29 10.03-4.18 21.11-11.31 30.75-10 22.88 3.07 45.05 11.42 68.63 5.16 13.09-2.61 26.42-15.23 16.64-28.09-18.4-29.75-51.1-19.18-70.57-4.9-6.74 4.94-9.95 14.48-16.3 18.16-10.31 5.98-22.97 7.9-34.56 11.74-2.15.7-3.43.21-2.43-1.64 3.21-6.08-.52-11.72-.9-17.47-1.48-22.5-3.82-44.94-6-67.39-1.8-9.45 10.59-10.14 16.7-13.83 6.3-2.25 14.02-7.4 18.9-5.52 21.17 8.13 42 13.24 64 4.74 18.36-4.72 27.16-29.11 10.24-41.11-29.02-19.1-56.2 2.75-76.5 23.6-9.06 7.75-22.46 10.43-34 15.25-5.35-21.31-7-44.3-11-66.14-.58-3.74-2.24-10.33-1.14-10.84 11.62-5.5 21.96-14.37 36.68-11.81 27.03 7.2 77.94-5.35 70.24-40.8-18.28-29.14-59.76 6.4-74 24.4-9.52 10.3-24.82 10.27-36 20.36 2.46-7.19-1.16-12.24-2-17.68-2.15-14.04-5.07-27.94-7.73-41.94-1.29-6.75-6.03-17.08-3.38-19.55 7.92-7.41 18.14-13.77 28.54-16.7 11.01-3.11 23.55 1.12 34.89-3 16.42-6 34.53-8.63 41.19-29.85 2.55-8.17 1.64-14.66-2.24-19.39-18.67-19.87-51.31-2.43-65.31 16.13-11.9 15.3-18.49 35.77-40 41.7-4.46-24.57-12.59-49.98-19.7-74.15-9.9-26.72-15.14-55.38-28.14-80.64-1.23-3.01-.93-6.03 4.15-8.8 15.83-8.66 24.599-23 32.539-37.94 9.25-17.28 14.482-35.45 9.922-55.74-1.5-6.67-8.542-11.98-4.692-20.18 3.47-7.42 6.05-15.27 8.68-23.05 1.64-5.9 4.411-4.51 7.461-.28 14.03 16.12 29.47 31.24 41.72 48.61 10.01 14.2 29.7 25.29 22.44 47.29-2.82 5.25 1.6 14.43-7 16-41.27 9.37-36.65 54.09-24.9 84.69 5.37 24.43 29.33-9.8 35.24-18.44 8.69-15.15 10.52-31.31 9.81-48-.73-12.51-12.34-25.07-4-37.24 7.9 18.32 25.81 32.98 22.81 55.32-8.6 33.75 5.8 68.47 36.7 85.32 22.82 11.65 22.94-23.83 21.94-38.13-1.04-20.85-10.31-37.2-21.79-53.48-7.68-10.91-20.93-13.76-29.14-21.59-11.3-10.78-16.95-27.48-25.73-42.89 11.34 7.29 20.53 2.59 26.6 9.22 19.9 24.75 42.79 41.59 77 33.69 8.81-2.03 17.17-9.01 15.22-14.18-11-33-48.25-51.32-81.81-44.27-9.81 2.15-16.7 15.43-28.7 8-5.58-3.46-13.02.78-17.79-5.54-12.26-16.22-24.6-32.4-37.43-48.17-5.93-7.28-6.46-8.94-.09-8.85 6.66.1 14.91-2.04 20.59 3.29 19.61 23.05 90.53 57.57 109.53 21.05 2.43-6.73-3.89-12.79-8.57-17.79-23.98-24.23-64.87-42.18-95.87-21-5.53 3.85-10.5 6.57-16.2 4.85-8.53-2.62-17.011-.62-25.451-1.62a8 8 0 0 1-5.5-2.56c-19.64-22.2-41.35-42.82-61.54-64.2 17.55-5.28 36.36-7.37 54.43-11 4.31-.73 10.24-1.14 13.24 1.17 27.42 18.6 63.611 31.37 95.311 15.1 48.56-29.98-64.31-74.2-95-37.78-3.56 3.53-2.86 10.09-7.56 11-21.56 2.98-43.22 5.26-64.22 11.59-3.18.82-5.36.74-7.92-1.61-15.15-13.95-30.47-27.72-45.47-41.3 11.11-4.68 24.31-13.89 35.38-8.83 33.48 14.81 65.74 14.7 98.09-1.66 17.77-7.63 20.15-21.28 2.23-31.16-26.72-20.39-99.38-22.25-107.16 18-.16 1.88.23 2.63-2.16 3.42-9.61 3.19-19.71 4.99-28.61 10.54-2.45 1.53-7.02 3.71-10.82.07-23.594-21.947-48.995-41.866-68.909-67.435h-12.91zm261.994 0c2.543 3.22 6.894 5.549 12.956 5.125 3.428.406 5.126-1.804 6.043-5.125h-18.999zm72.541 0c-.967 2.776-1 6.173-.716 9.564.77 8.9 8.83 8.79 13.95 8.73 7.82-.1 8.42-7.31 8.16-14 .14-1.67.02-3.083-.294-4.294h-21.1zm69.981 0c-3.62 2.182-4.538 6.102-4.746 10.656-.32 7.96 5.76 9.17 11.34 9.94l-.051.038c4.69.65 9.28-4.19 8.21-6.85-1.693-4.2.425-10.641-1.378-13.784h-13.375zm46.334 21.1c-.347-.01-.695-.005-1.041.015-12.01-.69-14.84 22.94-1.7 22.27 5.22-.9 12.4-2.77 11.91-12.09 1.098-6.563-3.967-10.05-9.17-10.196zM687.1 61.587c14.972-.143 30.664 4.7 47.64 14.723-36.985-7.167-68.553 2.321-102.956 10.09 18.041-16.22 36.084-24.63 55.317-24.813zm131.092 9.367c-13.569.365-16.163 25.637-.334 21.975 11.6 2.18 7.89-7.38 9-12.57 1.11-5.19-1.47-9.36-7.32-9.36a11.44 11.44 0 0 0-1.346-.045zM885.84 72c-7.3-.36-13.08 26 4.95 23v.04c6.63-.36 8.93-4.33 8.16-11.24 2.95-10.8-8.36-11.16-13.11-11.8zm-724.918 6.97c10.895.077 21.224 3.502 29.959 9.16-27.09 2.01-52.59 10.24-78.15 15.44 15.134-17.67 32.267-24.71 48.19-24.6zm551.9 5.57c7.162.03 14.308.437 21.428 1.23v.03c-20.35 16.1-61.85 16.25-86 8.19 21.465-6.277 43.088-9.547 64.572-9.45zM454.986 96.567c21.403.105 40.641 9.45 54.803 25.733C486.86 113 464.23 105.82 439.86 98c5.134-.988 10.188-1.456 15.127-1.432zm-168.716.022c26.14 16.82 33.03 38.67 34 68l-34-68zm-102.221 3.072c2.238-.013 4.483.07 6.74.268-14.49 21.24-48.95 20.51-71.08 12.57 21.822-3.47 42.702-12.707 64.34-12.838zm95.752 6.508a283.9 283.9 0 0 0 32.11 60.26c-17.29.26-38.16-39-32.11-60.26zm159.756 2.594c15.854 4.975 31.718 9.9 47.552 14.916 7.41 2.36 14.76 4.89 22.1 7.43a2.68 2.68 0 0 1 1.592 1.8c.13 1.54-.83 1.35-2.24 1.43-25.471 1.079-49.014-10.443-69.004-25.576zm498.16.25c-.504-.01-1.045.012-1.627.066-6.62.61-13.97 1.36-13.21 11.34.53 6.92 2.89 12.63 10.57 12.42 6.43-.17 12.52-2.55 11.31-14.44-.431-2.418.509-9.25-7.043-9.386zm-64.942 13.896c-13.955-.047-13.455 20.767-.246 21.79 5.1.16 12.071-.58 10.541-8.72.08-6.21-.52-12.37-7.31-12.77a16.35 16.35 0 0 0-2.985-.3zm-105.502.223c21.3-.39 42.813 9.239 58.358 25.508-32.669-9.187-65.339-10.678-99.766-9.59 12.387-10.704 26.848-15.652 41.408-15.918zm-20.824 23.94c27.192.157 51.662 1.913 76.66 6.148v.029c-30.19 18.57-57.39 6.22-88.49-6.15 4.005-.04 7.946-.05 11.83-.028zm158.008 23.687c-.836.03-1.77.152-2.816.37-7.85-1.56-10.85 2.25-10.73 9.64.1 6 .368 12.51 8.368 12.06 6.6-.37 12-3.25 12-11.87 0-6.203-.972-10.416-6.822-10.2zM369.85 184.43v.04c-10.41 25.53-16.53 52-23.85 78.8-9-32.27 3.9-63.44 23.85-78.84zm250.35 3.63c6.06 32.16-1.49 58.81-25 80.5 8.67-26.28 12.79-53.96 25-80.47v-.03zm-241.483.31c.321-.027.695.023 1.133.17 1.44.5 1.36 5.66 2 8.66l-.02.04c1.9 12.11-10.21 54.57-21.6 57.38-3.35-3.74.4-7.37 1.26-10.82 3.39-13.44 7.72-26.66 11.6-40 .93-3.17.69-7 2.44-9.51 1.233-1.768.936-5.74 3.187-5.92zm113.732 4.38c17.02 5.29 38.14 11.76 48.14 28.85-21.2-7.07-42.599-16.82-64.599-22.82-.72-.23-1.27-1.43-1.57-2.29h.05c2.79-3.12 12.44-2.26 17.98-3.74zm111.531 6.44a9.52 9.52 0 0 1 .07 2.81c-7.45 24.24-13.71 48.83-22.07 72.86-5.41-27.56 2.26-57.3 22-75.67zm-386.955 2.388c14.865-.537 36.632 36.832 33.125 55.422l-34.54-55.17v-.08a8.28 8.28 0 0 1 1.415-.172zm-112.355 1.156a68.39 68.39 0 0 1 20.539 3.157 325 325 0 0 0-70.818 24.68c-1.24.6-3.09-.08-4.66-.17a68.39 68.39 0 0 1 54.939-27.667zm850.101.012a8.45 8.45 0 0 0-1.21.033h.048c-8.3 0-10.159 4.392-10.629 10.112-.65 7.9 5.66 9.11 10.8 9.94 6.3 1 6.84-6 6.69-9-.243-4.154-.04-10.813-5.699-11.085zM209.25 210.41c10.1 17.15 22.99 32.46 31.18 50.33-21.27-6.71-28.59-27.81-32.27-47.39v-.08c-.16-.69.54-1.54 1.09-2.86zm272.28.39 57.73 19.13h.05c-24.14 7.92-40.95-5.59-57.78-19.13zm-357.24 4.73c-13.77 17.77-52.76 30.71-68.64 24.35 21.3-10.56 44.77-14.55 68.64-24.35zm669.755 11.636c27.593-.183 59.62 12.465 66.455 28.684-27.923-11.823-57.105-19.031-87.885-25.329 6.369-2.253 13.725-3.304 21.43-3.355zM774.85 242.4c31.22 3.51 55.86 10.94 84 20.71v.03c-23.02 15.46-62.47-5.39-84-20.74zm-96.21 21.2c-5.73 21.79-17.57 42.79-25.09 64.4-3.65 9.28-6.4 18.9-9.43 27.98-10.27-34.74 7.08-70.75 34.52-92.38zm244.522 7.882c-5.591.075-11.328 4.398-10.703 12.498.19 4.92.272 12.56 5.922 12.41 6.68-.17 16.489-1.05 14.619-11.92 1.2-8.89-4.247-13.063-9.838-12.988zm-235.713.729c7.39 31.48-8.76 67.788-34 84.328 4.86-14.41 10.06-28.77 15.75-42.86v-.029C674.44 301 680 288.58 683.58 275.39c.36-1.32 2.54-2.13 3.87-3.18zm155.205 29.275c22.424.412 42.448 13.97 54.125 33.815-1.54-.16-3.469.239-4.539-.541-21.428-17.161-49.26-17.52-72.553-29.063 7.775-3.027 15.505-4.348 22.967-4.21zM154.87 303.49c19.79 16.8 23.912 44.81 23.432 69.14-11.74-12.52-13.59-31.97-19.14-47.8-1.99-6.9-5.162-13.61-4.292-21.34zm391.631 5.158c13.386-.038 25.912 7.446 34.99 17.891 1.28 1.5 3.69 2 5.58 3l-.64 1.08c-16.73-5.92-33.47-11.83-50.17-17.83-.59-.24-.8-1.468-1.19-2.238h.04a35.799 35.799 0 0 1 11.39-1.903zm-400.82 1.141c5.81 19.57 11.74 39.55 18.06 60.9-15.69-15.33-24.47-47.039-18.06-60.859v-.04zm62.002 1.02c-4.553-.01-4.845 2.934-4.723 6.88 1.17 34.76.992 69.661 4.262 104.301 2.03 19.1 5.63 37.73-.75 57-8.31 25.07-16.56 50.29-19.56 76.79-.11 1.03-.021 3.85-1.741 2.29-37.37-24.5-25.65-47.55-52.17-74.07-6.92-6-14.18-12-24.13-6.4-8.43 4.64-14.69 12.22-13.26 21.64 2.43 15.93 13.84 26.31 26.12 36 13.49 10.63 33.6 5.48 45.15 19.87 5.89 7.28 18.95 9.23 15.89 23.1-3.06 13.87-6.93 27.93-7.33 42-.72 26.55-7.14 52.22-9 78.55-8.62-6.57-15.68-15.16-24.37-21.57-3.89-2.82-4.96-5.45-5.26-10-1.3-19.8-20.72-51.32-44.3-54.69-21.03-6.19-36.29 6.13-27.66 27.45 5.46 15.41 32.26 36.67 48.66 37.9 20.35 1.44 21.94 4.45 35.86 17.34 5.57 8.24 19.55 10.09 16 25.61-3.43 14.99-3.93 30.82-4.11 46.3-.1 8.56-2.92 17.03-.6 25.78 1.35 5.07-2.15 13.87-3.32 12.65-8.22-8.58-21.44-10.93-26.44-23.93-5.34-26.59-64.25-85.59-80.14-40-2 19.4 23.88 38.83 42 47.67 15.46 7.55 34.38 2.06 48.53 15.39 9.34 8.8 20.51 13.89 18.09 30.55-3.59 30.35-2.04 61.47-2.5 92.07-.01 1.39 1.09 5.86-2.69 1.86-9.6-10.03-24.371-13.03-30.731-28.45-9.09-22.03-27.439-36.52-50.629-43.36-10.13-5.11-26.28 3.32-21.77 16.15 21.18 50.73 61.86 33.7 89.86 61.07 4.64 5.44 15.3 5.93 15.73 14.24 1.43 27.62 1.71 55.32 2.12 83 .03 2.19 3.68 4.84.14 6.3-1.28.53-4.02-1.77-5.75-3.2-9.98-8.27-24.12-11.11-31.51-22.47-10.2-15.7-20.76-30.72-39.39-37.2-11.57-5.91-31.12-2.43-27.21 14.27 2.26 11.51 29.07 31.51 40.41 34.03 19.67 2.38 27.11.71 44.67 13.65 6.35 6.09 18.08 5.2 19.46 18.42 1.26 31.87 5.3 63.34 8.49 95 .16 1.53-.04 3.44-1.72 1.76-12.77-12.78-34.22-12.81-42.86-33-2.93-15.55-63.28-73.35-70.61-43.26-3.59 25.88 20.35 46.8 37.41 56.8 15.78 9.26 36.56 2.89 50.93 16.26 10.13 9.43 31.04 7.02 30.54 28.66 2.56 25.18 9.36 50.66 13 75.84.28 1.64 2.92 7.57-4 3.7-6.41-3.54-13.9-5.19-20.48-8.54-8.65-4.41-20.72-4.97-25.22-14.19-7.84-19.07-45.8-62.13-67.71-49-7.84 5.86-9.63 15.49-5.77 22.49 16.06 28.24 41.4 35.85 71.76 38.32 14.42 5.79 27.05 15.65 42.65 18.79 12.41 2.5 18.44 12.57 14.27 22.19-8.2 18.9-7.46 38.05-7.12 57.4-1.66 40.85 49.79 31.8 51.85-1.65-.08-25.92-11.88-46.18-31.62-62.18-4.82-3.91-6.32-20.94-1.93-23.54 11.78-6.95 24.11-13.11 35.11-21.21 25.51-22.99 61.5-5.88 90.32-22.69 26.47-11.31 20.06-37.87-5.83-42.31-24.82-3.68-53.701 12.12-62.341 34.79-1.74 4.57-4.08 10.17-7.86 12.49-18.17 11.17-36.928 21.39-54.788 31.54-6.86-6.78-4.952-16.45-6.612-25-4.34-22.68-7.06-45.68-10.34-68.56-.44-3.02-.18-5.75 3.35-7.31 16.44-7.82 33.441-14.55 49.441-23.21a13.94 13.94 0 0 1 8.05-.81c22.91 4.43 77.99 5.16 82.06-24.84-2.91-34.93-53.24-26.07-69.53-6.47-7.96 7.51-7.96 20.26-19.75 24.77-17.55 6.65-34.58 14.66-51.87 22-1.51.64-3.67 1.39-3.81-1.84-1.31-19.24-2.6-38.51-4.4-57.71-1.21-11.64-8.62-25.15 10.79-29.15 11.59-2.41 19.98-14.81 32.66-12.48 24.23 5.06 97.23-5.39 77-43.25-22.62-31.59-58.67-4.99-74.62 19.25-4.12 5.86-5.58 14.12-13.4 17.31-11.88 4.86-23.52 10.4-35.52 14.94-2.39-5.49 3.05-9.76 1.33-15.25-4.54-24.47.27-49.35-3.3-73.86-2.02-13.92 10.22-14.74 18.22-19.38 3.75-2.19 8.43-6.44 11.51-5.57 20.77 7.11 83.52 3.66 79.71-27.34-6.38-29.66-46.07-21.25-62-4.25-7.26 6.69-13.64 14.44-20.26 21.49-6.25 6.66-17.9 9.33-26.16 15.73-1.95 1.51-1.49-1.45-1.49-2.38-.08-34.49 1.39-69 2-103.49-.12-5.06 21.11-9.28 26.11-11.86 6.16-2.04 10.85-8.12 18.5-6.17 32.55 10.22 55.33-13.41 59.33 11.64 39.04 163.82 107.21 321.73 209.62 456.06 6.56 7.93 12.3 17.71 25.85 15.71 21.6-3.15 43.32-5.29 65-7.68 41.4-3.09 82.24-11.02 123.81-12.33 16.09-3.11 63.71 1.24 43.31-26.76C656 1114.13 570.08 972.45 534.27 812.62c-29.82-118.9-54.76-239.63-60.76-362.34-1.99-36.71-5.82-73.22-5.74-110-.05-9.5 2.07-18.87-13.23-17.66-41.62 2.5-83.31-5.08-124.89-5.36-40.29-3-80.66-1.81-121-6.41-.342-.028-.665-.04-.968-.041zm318.078 9.511L565 334c7.3 3.43 17 3.78 22.6 9.71-24.62 8.11-44.27-7.22-62.53-21.53h.05c.21-.64.42-1.27.64-1.86zm304.53.52a124.4 124.4 0 0 1 33.55 9.07c8.33 4.23 18.65 5.65 25.65 11.88v.03c-23.33 7.42-42.93-3.1-59.2-20.98zm-618.39 2.28c80.55 6.44 162.24 3.22 243 10 5.57.46 2.59 5.58 2.5 7.13.68 68.88 5.86 138.11 11.86 206.75 22.37 144.2 46.64 290.66 103.57 425.82 41.52 101.84 104.72 197.26 159.2 290.08-4.99 4.85-12.99 1.91-19.65 2.57-19.12 1.91-38.36 2.54-57.51 4.22-44.87 5.73-90.12 8-134.87 15-12.79 2.01-23.6 2.31-32.35-13.1-11.6-20.45-26.89-39.05-40.42-58.59a1210.58 1210.58 0 0 1-150.32-341.63c-27.65-98.43-54.521-197.05-62.201-299.5-10.85-81.89-17.838-164.21-25.488-246.47-.24-2.51 1.16-2.28 2.68-2.28zm743.733 7.745c-.732.004-1.479.02-2.233.026-7.48.07-5.94 5.69-6.5 9.85-1.83 7.47 3.14 9.28 8.32 9.06 6-.25 10.13-3.16 10-10.59-.13-7.849-4.466-8.371-9.587-8.346zM762.717 353.98c.566.004 1.094.214 1.572.71 3.3 3.41-.76 8.81-2.08 13.21-4.57 15.18-9.358 30.29-14.148 45.7-7.99-8.74-7.531-38.8.619-47.33 2.09-2.19 3.33-5.57 5.79-6.94 2.65-1.487 5.793-5.364 8.247-5.35zm12.933.69c6.27 20.6-5.32 55.47-24.83 70.42 11.44-24.22 17.66-46.87 24.83-70.42zm-260.95 9.5c20.2 14.03 27.75 33.46 33.05 55.63.79 2.15.88 3.68-.77 4.68-2.78 1.69-2.33-1.7-2.78-2.58-9.69-18.67-19.18-37.44-29.5-57.73zm303.17 1.77c18.91 6.2 43.71 50.62 36.36 80.26-9.36-27.89-20.58-55.38-36.36-80.26zm-719.65 2.23c9.85 32.64-6.22 56.92-25.25 82.06 5.96-29.13 16.95-54.96 25.25-82.06zm407.27 3.14c11.35 21.17 24.44 40.63 34.17 61.55-17.96-8.86-23.24-29.02-30.66-45.62-2.07-4.89-4.86-9.58-3.51-15.93zm-420.57.06c.2 1.05.88 2.27.53 3.05-9.92 22.74-16.23 46.97-19.82 71.25-13.26-22.3 4.29-60.24 19.29-74.3zm833.648 10.425c-6.25.022-13.531 4.525-13.308 12.074.23 7.13 3.6 13.4 12.81 13.33 9.22-.56 7.35-8.68 8.82-14.01h-.05c1.955-7.945-2.757-11.414-8.272-11.394zM814.41 382.9l35.35 75.89c-28.6-16.4-41.39-41.33-35.35-75.89zm89.26 60.26c-7.46.29-12.84 3.95-12.82 12.77-1.26 16.17 20.92 10.81 20.38-2.83-.56-4.74-1.48-10.18-7.56-9.94zm46.36.3c-12.7-.7-11.4 24.29 1.3 23.19h.05c16.79-.63 15.4-23.81-1.35-23.19zm-168.282 31.31c6.261-.123 12.027 2.39 16.512 8.78-3.74 28.83-41.47 34.07-64.47 33.45-5.98-.34-.7-3.29-.53-3.51 6.465-14.272 29.704-38.354 48.488-38.72zM213.11 484.89c8.6 59.95 8.99 120.73 21.6 180.12 1.01 6.01-4.73 4.81-7.52 6.59-16.45 10.5-33 20.82-50 31.5 7.03-73.48 13.65-148.1 35.92-218.21zm383.602.151c1.34.04 2.878.432 4.728 1.26 19.32 8.62 30.48 25.199 42.73 40.869v.02c1.95 3.2-1.97 3.33-3.88 4.1-16.84-3.69-65.39-17.84-50.76-42.25 2.242-2.462 4.233-4.085 7.182-3.999zm-477.211.049c14.64 10.06 27.65 29.49 30.58 47.77 1.09 10.08-6.9 1.63-8.72 1.44-18.3-.32-50.08-41.82-21.86-49.21zm791.9 10.285c-11.863-.417-13.828 22.44-.76 22.275l-.05.04c5.73-.32 14.37.62 12.29-10 1.76-8.53-5-12-10.3-12.2a9.813 9.813 0 0 0-1.18-.115zm-104.81 80.094c6.333-.036 10.873 3.21 9.43 10.71-3.78 17.29-27.3 24.82-44 22.76-.05.19-.05.38-.05.58l-16.78-1.65h-.04c12.09-15.87 29.31-30.53 50.15-32.35a19.62 19.62 0 0 1 1.29-.05zM610.94 599.06c.425.002.863.015 1.31.039 18.63 4.58 34.27 15.34 42.81 35.42v.02c7.51 14.37.16 17.79-12.53 10.52-10.91-4.22-21.24-8.8-29.91-17.3a39.15 39.15 0 0 1-11.17-21.66c-.863-4.688 3.1-7.073 9.49-7.04zm267.552 12.334c-12.989-.368-15.793 24.04-2.492 26.035 11.35 1.26 15-6.19 15.07-17.08 2.09-9-6.82-8.35-11.29-8.84a10.91 10.91 0 0 0-1.288-.115zM82.57 619.699c15.3-.51 36.62 17.88 42.19 36.58 4.04 9.6 5.43 23.02-7.56 14.08-18.71-5.45-35.07-14.618-43.78-33.558-3.97-8.66.15-16.802 9.15-17.102zm734.48 51.08c6.28 2.57 15.32.84 20.21 9.41 7.41 12.98-2.8 16.84-11.17 20.49-17.44 7.61-34.46 3.372-51.09-3.628-1-.42-2.81-.282-1.14-2.012 11.56-12.26 23.94-23.16 43.19-24.26zm103.366 2.06c-8.098.011-10.683 5.42-11.695 13.5-1.91 19.45 24.97 16.091 24.33-4.109H933c.67-7.85-4.1-9.56-10.89-9.32a20.51 20.51 0 0 0-1.694-.07zm-687.44 7.294c4.326-.251 4.705 5.59 5.963 11.668 6.419 24.424 7.71 51.175 17.553 74.281-21.267 8.54-40.313 19.4-54.191 39.197-5.15 7.24-21.16 9.131-29.23 14.131 0-26.04-1.351-53.39.699-80.47.78-10.21-4.19-25.16 10.35-31a164.92 164.92 0 0 0 40.06-23.14c4.05-3.18 6.83-4.553 8.797-4.667zm385.942 27.404c19.32-.65 40.891 21.69 49.902 36.033v.02c2.83 5.13 2.93 6.94-3.67 7.87-21.71-5.44-44.44-8.05-56.64-30.53-1.93-3.58-3.17-8.16 0-10.47 3.33-1.893 6.83-2.803 10.408-2.923zM891.57 725.16c-6.89-.11-14.45 2.31-14.2 10.86.19 6.76 5.34 12.6 12.42 12.53 4.33 0 11.53-1.68 9.28-10.16-1.38-4.94 1.47-13.1-7.5-13.23zm-819.142 9.867c20.524.235 45.926 36.97 51.941 51.743 1.04 2.16.74 2.36-5.08 2.09-22.67-3.34-43.518-14.41-57.228-36.76-2.67-4.4-3.681-9.69.789-14 2.99-2.173 6.22-3.111 9.578-3.073zm864.299 36.87c-2.416.034-4.817.289-6.467.033-3.7-.57-7.88 7.19-7.39 13.28-.93 20.21 27.26 17.4 22.07-2.53h.05c2.427-9.866-2.95-10.86-8.263-10.784zm-109.206 3.767c1.573.003 3.184.103 4.838.307 10.7 1.31 18.892 7.55 21.702 16.74 4.39 12.16-24.74 13.77-32.5 14.59v.01c-11.84-1.85-24.031-2.411-35.211-6.131-5.53-1.8 2.92-6.73 3.47-7.21 11.002-9.442 22.505-18.337 37.701-18.306zm-569.962.12c5.525.112 1.024 11.119 4.55 13.946.71.6.042 2.6.612 3.6v-.02c10.65 20.51-16.53 8.98-24.49 16.12-4.26-4.32-26 .26-20-6.25 11.11-8.69 21.4-18.95 33.68-25.5 2.564-1.37 4.372-1.923 5.648-1.897zm363.832 28.402c2.232.036 4.443.542 6.318 1.244 18.78 6.11 36.49 15.13 46.66 33.57-21.97 6-45.78-.7-60.51-18.16-2.78-3.13-4.67-7.81-2.33-11.63 2.363-3.837 6.14-5.085 9.862-5.024zM905.35 834.46c-6.77.05-11.51 3.47-10.44 11.28-1.1 9.41 4.76 12.678 12.34 12.538l-.05.041c7.83-.15 9-7.19 9.68-13.1 1-8.22-5-10.8-11.53-10.76zm-39.13 31.133c-6.61-.251-13.724 4.062-12.81 12.695.1 7.37 3 15.36 10.08 12.63 11.78-1.85 12.62-7.28 13.2-13.83.806-7.5-4.636-11.274-10.47-11.495zm-802.06.207c17.78.4 48.97 26.3 52.61 42.78.72 5.29-7.21.3-9.76.05-19.08-5.77-34.91-16.042-45-33.772-1.62-2.96-1.65-8.008 2.15-9.058zm844.791 31.58a31.553 31.553 0 0 0-1.762.049l-.048.04c-16.4.12-10.482 26.32 4.648 24.36 8.57.17 8.68-7.73 9-13.6.488-7.012-3.347-10.835-11.838-10.85zm-663.25 1.166a13.15 13.15 0 0 1 2.469.142c7.8.2 15.57-1.67 18.65 7.75 3.08 9.42-5.12 11.902-11.12 14.282-13 5.42-26.95 6.98-41 6.18-3.8-.36-9.31 1.938-10.7-2.362 2.813-9.3 28.476-25.612 41.701-25.992zm491.069 9.213v.01c12.52 3.03 16.89 40.4 14.08 51.73-1.14 18.01-17.58 33.87-34.91 21.35-4.63-2.95-3.65-8.77-5.26-13.67 3.78-16.33 8.03-32.91 18.17-46.84 2.12-4.75 2.92-12.82 7.92-12.58zm211.324 22.049a12.151 12.151 0 0 0-2.885.261c-11.95 1.58-12.61 28.38 5.49 25.66h.051c17.39 0 11.263-25.487-2.656-25.921zm-108.211 3.627c-12.443-.161-16.84 5.037-16.033 14.224 1.89 14.62 26.53 16.25 24.76-3.76-.05-5.49-4.12-9.95-6.13-10.36a49.915 49.915 0 0 0-2.597-.104zm54.039 27.244c-.911.016-1.885.145-2.922.4-16.167-3.397-10.837 24.74 1.85 23.67 14.203.553 14.738-24.32 1.072-24.07zM72.508 982.502c17.926.163 33.737 22.058 42.26 35.734-20.252-2.544-38.411-12.323-49.457-29.797-.6-.84-.33-2.25-.6-4.59a22.177 22.177 0 0 1 7.797-1.347zm193.701 8.717c18.775-.493 29.237 24.445 6.23 31.101-12.34 5.14-25.42 9.43-39.34 8.56-5.3-.14-12.738 2.03-15.298-2.24l.03.02c-2.44-4.07 5.509-5.96 7.939-9.81 8.71-13.58 21.27-23.42 36.58-27.18a21.949 21.949 0 0 1 3.859-.451zM830 1002.669c-11.11-.38-10.33 7.14-11 13.87-.5 5 .22 11 6.86 10.22 6.64-.78 15-1.709 13.17-11.609.16-7.07.06-12.15-9.03-12.48zm118.352 37.991c-12.182-.642-8.61 22.503 5.209 20.46 5.54 0 9.999-.21 9.709-8-.36-8.28-2.36-13.75-12.27-12a12.14 12.14 0 0 0-2.648-.46zm-75.913.09c-4.5 1.37-9.72 2.47-9.6 10 .16 6.38-.7 14.25 7.83 13.81 6-.33 16.49.35 15.84-10.35-.43-6.9-4.74-12.8-14.07-13.46zm-807.328 35.367c.545.036 1.198.256 1.998.733 19.44 11.57 36.212 26.03 47.942 45.67h.02c5.51 9.26 4.998 13.61-5.632 8.3-19.01-2.33-49.23-33.75-48.33-50.47 1.333-1.073 1.643-4.389 4.002-4.233zm224.584 9.09c19.93.057 32.903 16.66 13.405 25.453a59.71 59.71 0 0 1-33.94 6.45c-7.479-.12-14.868 3.696-21.969-.983 11.977-23.25 28.869-30.959 42.504-30.92zm614.371 16.107c-12.327.35-14.57 25.74-.726 27.416l-.05.04c19.1 2.74 21-27.65 2-27.41a9.422 9.422 0 0 0-1.224-.045zm-105.306 28.18c-5.251.316-6.755 6.447-5.78 12.016-1.8 11.06 4.62 14.58 13.95 14.17 8-.36 10.27-6.33 10.27-13.24 0-11.73-10-12.31-17.34-12.93a7.61 7.61 0 0 0-1.1-.016zm88.392 39.276c-16.895-.291-13.88 28.62 5.698 26.12 8.72-.24 9.77-7.93 10.06-14.38.39-9.46-6.66-11.15-14.06-11.62a16.175 16.175 0 0 0-1.698-.12zm-47.972 10.08c-16.53-.58-14.45 26.58 2.05 24.27 9.61-.14 7.7-8.1 7.32-12.64-.44-5.18-2.21-12.03-9.37-11.63zm-528.211.039c9.911-.127 18.345 4.485 21.95 16.591-6.726 17.912-54.79 19.059-71.542 16.723 6.383-15.575 30.677-33.072 49.592-33.314zm-233.34 13.92c15.345-.116 42.42 30.525 47.031 40.71l.02.02c1.67 2.96 1.01 3.462-5.38 3.352-17.83-4.14-34.72-12-46.43-28-2.61-3.6-5.46-9.27-1-14 1.613-1.422 3.567-2.066 5.759-2.082zm873.656 13.886c-4.838.032-9.115 1.51-9.865 8.094-1.03 9.13 3.81 13.63 13.26 13.15 5.78-.3 9-2.55 8.66-8.77-.42-5.18.46-11.34-7.14-12.16-1.628-.174-3.302-.324-4.915-.314zm-152.092 10.55c-9.466.343-12.671 7.69-12.193 17.685-2.1 8.47 5 10.07 10.43 9.77v-.02c18.22.71 21.39-24.51 3.74-27.41a20.752 20.752 0 0 0-1.977-.026zm80.815 3.353c-.561-.004-1.14.02-1.738.072-11.73-1.29-14 27.26 4.41 26.19 14.26.135 14.714-26.138-2.672-26.262zm34.713 62.162c-14.72 0-19.511 27-3.471 28.13h-.05c19.84 1.35 24-28.49 3.52-28.13zm-715.262 6.62c19.95 15.49 42.45 62.13 8.33 72.92-23.57 5.6-16.079-49.36-12.629-62.48l.02.02c.96-3.6 2.819-6.97 4.279-10.46zm615.926 9.942a8.84 8.84 0 0 0-1.235.078c-6 .76-15.44-3-17.25 8.29-3.9 20.22 26.67 24.31 24.25 1.44-.45-3.112-.013-9.741-5.765-9.808zm-726.39 10.89c-5.497-.155-10.74 3.053-10.165 10.138-.83 17.46 25.31 16.72 21.85-.09-.44-6.37-6.19-9.89-11.686-10.047zm526.18 36.11c-.838.008-1.67.044-2.476.088-5.59.31-8.64 5.18-7.77 11.37-1.36 12.28 9.731 12.22 15.801 12.54l.04.01c6.73.36 6.2-8.09 6.32-13.76.184-9.03-6.04-10.305-11.914-10.248zm126.018 2.39c-6.126-.037-12.389 3.948-11.734 11.888-.13 5.19 0 13.4 7.06 12.72 10.72-.19 15.07-5.61 15.59-12.36 1.2-8.15-4.79-12.21-10.916-12.247zm-215.156 6.413c-5.14.03-9.497 3.321-8.976 10.895.65 7.39 3.6 13.36 12.51 12.98v.02c6.83-.27 9.32-5.08 11.49-10-.507-8.579-8.414-13.933-15.024-13.895zm388.842 13.492c-8.283-.07-8.404 7.38-8.549 13.543-3.15 18 21 13.59 22.55-.81 1.85-8.55-2.57-12.64-11.11-12.46h-.05a17.805 17.805 0 0 0-2.841-.273zm-882.293 8.465c-14.513.174-13.158 24.02 2.603 21.918 5.64.2 9.08-2.34 8.08-7.2-.29-7.91-1.41-14.25-9.23-14.66a14.24 14.24 0 0 0-1.453-.058zm794.601 4.691a16.1 16.1 0 0 0-1.658.006h-.039c-4.92.24-12.87 2.38-13 12.51-.16 11.57 6.42 12.161 17.35 13.211 9.397 2.48 13.792-24.912-2.653-25.727zm127.262 29.756c-7.88.17-10.32 9.172-10.59 15.852-.24 6.06 4.752 9.139 11.532 7.379 17.52 4.92 12.228-24.11-.942-23.23zm-856.87 9.397a25.812 25.812 0 0 0-3.759.215c-7.31.93-8.13 8.629-8.36 13.199-.45 9.14 5.84 14.14 15.12 14.72 10.26.66 9.31-8.75 9.82-13.6 1.015-9.554-4.446-14.37-12.822-14.534zm147.312 2.275c-5.037.364-6.279 6.616-5.51 10.01 1.29 5.64-2.25 14.82 8.44 16.27 8.46-1.13 12.55-6.811 13.07-14.481v-.01c.68-10.23-8.002-11.22-14.942-11.78a6.85 6.85 0 0 0-1.058-.009zm302.236 2.131c-.363-.005-.74.001-1.127.018-13.5-.15-17.5 26.41.64 25.73 3.34-2.52 12.22 1 11.92-7.5-.27-7.798-.166-18.094-11.433-18.248zm-79.99 1.375c-6.886-.215-14.102 4.175-12.567 14.693.33 7.81 6.79 7.65 13.91 7.74 10.52 1.66 10.52-7.04 9.9-14.29h-.05c-.682-5.023-5.838-7.976-11.193-8.143zm188.191 9.705c-.494-.002-.996.007-1.508.027-17.781-.786-12.66 26.48 1.8 26 6.37.33 12.92-4.86 11.44-13.34.985-9.937-4.324-12.657-11.732-12.687zm-466.758 8.697c-7.06.13-7.4 6.62-7.4 11.43 0 8.42 7.68 7.002 11.91 8.772 7.78-.22 10.76-4.042 9.92-10.442-1.11-8.28-7.82-9.88-14.43-9.76zm159.93 18.16c-7-.23-12.71 4.37-12.3 11.59.48 8.56 4.37 15.72 12 14.59 18.23-.45 15.85-11.99 14.49-20.18h-.02c-.85-5.1-9.06-5.86-14.17-6zm395.69 6.924c-6.826.022-10.946 3.15-9.07 11.297-1.62 8.39 2.14 12.7 10.29 12.54 9-.17 11.08-6.33 11.77-14.11.82-9.36-5.65-9.36-11.59-9.69a24.613 24.613 0 0 0-1.4-.037zm174.238 2.186c-.844.051-1.757.232-2.739.56h-.048c-12.25 0-15.451 2.151-14.621 11.221.86 9.48 3.82 18.69 16.33 16.72 11.128-.824 13.74-29.274 1.078-28.501zm-431.162.736c-12.996.364-11.096 25.653 3.193 24.045 12.15.94 10.82-8.9 11.07-15.33.35-7.68-7.53-8.06-12.91-8.67h-.049c-.45-.042-.885-.057-1.304-.045zm113.02.885c-7.909.458-6.151 7.548-7.417 11.55-.1 6.48.53 11.87 7.39 11.32 6.15-.49 12.452-1.71 12.882-10.44.44-8.27-3.061-12.01-11.141-12.43a15.848 15.848 0 0 0-1.715 0zm-341.487 5.857a7.676 7.676 0 0 0-1.11.123c-4.43.08-12.399 1.49-11.289 9.1 1.29 8.79 4.6 17.7 15.93 16.84v-.03c16.294-1.2 7.85-26.456-3.531-26.033zM428.91 1493c-18.4.31-15.58 27.94 3.76 25.77 6.93 0 8.7-5.84 8.38-12.06.44-8.55-2.81-14.05-12.14-13.71zm-278.48 3.18c-8.058-.117-11.38 5.008-10.971 11.21.45 6.35 1 15 11.47 13.65 11.38 1.91 9.77-8.09 10.52-13.15.94-6.237-2.827-11.576-11.01-11.71h-.01zm-78.221 1.074c-11.65.666-12.83 23.403-.12 23.297 18.33 1.81 21.21-24.012 1.28-23.272v-.02a9.475 9.475 0 0 0-1.16-.005zm618.445 7.926c-6.994.003-15.055 1.56-15.045 10.4 0 7.05 1.93 16.71 11.42 16.11 8.41-.54 16.94-4.91 13-14.53-1.029-7.843-3.944-11.943-9.375-11.98zm-479.814 9.98c-7.53.44-14.32 3.49-14 10.85-.13 12.68 8.17 12.19 14.52 12.84 9.38.99 7-7.96 7.12-12.07v-.03c.11-4.08-.27-12-7.64-11.59zm322.191 3.567c-.83-.02-1.747.047-2.761.212-8.07-.74-12.84 2.44-13.08 10-.21 6.38.42 13.71 9.13 14 6.74.2 14-2.559 14.32-10.129.227-5.682.412-13.902-7.609-14.083zm-226.947 10.037c-11.278.305-8.466 21.997 2.756 22.025 7.12.41 11.91-4 12.28-11.78.63-9.48-6.47-9.309-12.59-10.009a10.617 10.617 0 0 0-2.446-.236zm492.465 1.23c-.603-.01-1.228.009-1.88.057v-.022c-11.5-.52-7.539 10.081-9.099 15.221-1.44 4.78 4.209 10.1 9.889 10.67 15.49 1.55 19.766-25.617 1.09-25.926zM622.769 1533c-16-.51-14.36 25.15.92 24.14 10.36.21 12.73-6.63 12.17-14.78-.52-7.62-6.86-9.01-13.09-9.36zm327.926 18.242c-.602.002-1.22.034-1.855.098l.02.04c-14.09-1.86-12.22 31.67 1.66 27.76 22.029.737 18.86-27.967.175-27.898zm-526.953 4.01c-12.565.588-11.763 24.5 3.098 21.758 10.88 1.52 7.93-7.49 8.69-12.64 1.08-7.27-5.37-9.24-10.53-9.1a10.596 10.596 0 0 0-1.258-.018zm451.787 3.498c-8.47.22-9.608 7.12-10.468 13.46-1.24 9.15 3.679 14.5 12.539 14.66 15.3.26 13.51-28.57-2.07-28.12zm-757.629.371c-5.712.05-7.238 5.114-6.91 10.908-1.27 7.69 4.62 11.581 10.2 12.541 17.66 1.55 13.33-23.48-2.12-23.37l.03-.02a10.948 10.948 0 0 0-1.2-.059zm-88.937 1.684c-12.633.607-8.84 23.917 3.207 23.795 15.83 1.34 17.39-25.67-.46-23.6a12.39 12.39 0 0 0-2.747-.195zM572.42 1563c-10-.12-9.56 8.58-10.22 14.47-.88 7.87 2.85 13.46 12 11.47 7.58.91 12.66-.48 12.94-9.53.38-10.64-4.001-16.3-14.681-16.41h-.04zm159.223.344c-9.602-.058-9.218 8.937-9.153 16.136.1 10.22 8.41 13 15.85 12.24 11.2-1.13 8.72-10.39 7.53-17.67 1.59-10.21-7.45-10.05-12.17-10.57a18.282 18.282 0 0 0-2.057-.136zm-368.243 1.513c-8.715.068-13.155 4.402-12.48 13.983-1.09 8.07 5.16 11 10.56 10.91 11-.19 12.71-7.88 11.8-17.57-.54-5.9-3.28-7.01-8.06-7.28h-.02a29.416 29.416 0 0 0-1.8-.043zm-102.52 1.94c-7.99.26-6.728 8.939-7.29 13.642-.6 5 1.76 11.682 9.3 12.862 10-2.61 13.36-9.881 13-19.131-.34-7.92-7.39-6.36-12.22-7.17a14.615 14.615 0 0 0-2.79-.203zm-70.991 1.521a18.17 18.17 0 0 0-1.668.092h.029c-6.54.57-7.62 6.38-7.23 12.71-1.41 6.78 2.56 12 9 11.2 18.309.572 16.629-24.122-.131-24.002zm285.607 1.2c-11.855.575-12.186 25.339 3.943 25.242 17.23-.22 17.561-26.23-2.709-25.22h-.05a9.05 9.05 0 0 0-1.184-.022z"/></g><g data-name="Red Japanese Frames"><path class="cls-7" d="M0 20v1560a20 20 0 0 0 20 20h936a20 20 0 0 0 20-20V20a20 20 0 0 0-20-20H20A20 20 0 0 0 0 20zm924 1528H52V52h872z" style="fill:#030101;fill-opacity:1" transform="translate(496.812 -227.542) scale(.26458)"/><path d="m952.1 15.41-23.41 23.42a4 4 0 0 1-2.83 1.17H50.14a4 4 0 0 1-2.83-1.17L23.9 15.41A2 2 0 0 1 25.31 12h925.38a2 2 0 0 1 1.41 3.41zM40 1549.86V50.14a4 4 0 0 0-1.17-2.83L15.41 23.9A2 2 0 0 0 12 25.31v1549.38a2 2 0 0 0 3.41 1.41l23.42-23.41a4 4 0 0 0 1.17-2.83zM936 50.14v1499.72a4 4 0 0 0 1.17 2.83l23.42 23.41a2 2 0 0 0 3.41-1.41V25.31a2 2 0 0 0-3.41-1.41l-23.42 23.41a4 4 0 0 0-1.17 2.83zM925.86 1560H50.14a4 4 0 0 0-2.83 1.17l-20 20a4 4 0 0 0 2.83 6.83h920.55a2 2 0 0 0 1.41-3.41l-23.41-23.42a4 4 0 0 0-2.83-1.17z" style="fill:#000;fill-opacity:1" transform="translate(496.812 -227.542) scale(.26458)"/></g></g></svg>